<?xml version="1.0" encoding="utf-8"?>
<!-- Generator: Adobe Illustrator 24.0.1, SVG Export Plug-In . SVG Version: 6.00 Build 0)  -->
<svg version="1.1" id="Camada_1" xmlns="http://www.w3.org/2000/svg" xmlns:xlink="http://www.w3.org/1999/xlink" x="0px" y="0px"
	 viewBox="0 0 512 512" style="enable-background:new 0 0 512 512;" xml:space="preserve">
<style type="text/css">
	.st0{filter:url(#Adobe_OpacityMaskFilter);}
	.st1{fill-rule:evenodd;clip-rule:evenodd;fill:#FFFFFF;}
	.st2{mask:url(#mask-2_1_);fill-rule:evenodd;clip-rule:evenodd;fill:#5500FF;}
	.st3{fill-rule:evenodd;clip-rule:evenodd;fill:#5500FF;}
	.st4{filter:url(#Adobe_OpacityMaskFilter_1_);}
	.st5{mask:url(#mask-4_1_);fill-rule:evenodd;clip-rule:evenodd;fill:#5500FF;}
	.st6{filter:url(#Adobe_OpacityMaskFilter_2_);}
	.st7{mask:url(#mask-6_1_);fill-rule:evenodd;clip-rule:evenodd;fill:#5500FF;}
</style>
<title>icon-menu-3</title>
<desc>Created with Sketch.</desc>
<g id="desktop">
	<g id="_x30_1-home-idwall-menu" transform="translate(-575.000000, -333.000000)">
		<g id="Group" transform="translate(521.000000, 58.000000)">
			<g id="icon-menu-3" transform="translate(54.000000, 275.000000)">
				<g id="Group-3" transform="translate(0.000000, 0.274160)">
					<g id="Clip-2">
					</g>
					<defs>
						<filter id="Adobe_OpacityMaskFilter" filterUnits="userSpaceOnUse" x="2" y="4.4" width="93.5" height="91.5">
							<feColorMatrix  type="matrix" values="1 0 0 0 0  0 1 0 0 0  0 0 1 0 0  0 0 0 1 0"/>
						</filter>
					</defs>
					<mask maskUnits="userSpaceOnUse" x="2" y="4.4" width="93.5" height="91.5" id="mask-2_1_">
						<g class="st0">
							<polygon id="path-1_1_" class="st1" points="2,4.4 95.5,4.4 95.5,95.9 2,95.9 							"/>
						</g>
					</mask>
					<path id="Fill-1" class="st2" d="M48.6,74.6c-12.2,0-23.7-11-24.2-23.3c-0.3-6.7,2.3-13.4,7.1-18.2c4.6-4.6,10.7-7.1,17.1-7.1
						c0.2,0,0.5,0,0.7,0c13,0.4,23.6,11.2,23.6,24.3v0c0,12.7-11,24.1-23.7,24.4C49,74.6,48.8,74.6,48.6,74.6 M47.4,4.5
						C21.9,5,2,25.1,2,50.1C2,62.8,6.9,74.5,15.8,83c8.7,8.4,20.3,12.9,32.9,12.9c0.4,0,0.8,0,1.2,0c25.5-0.6,45.1-20.2,45.6-45.6
						C95.7,38.7,90.1,26,80.9,17C74.6,10.9,63.8,3.8,47.4,4.5"/>
				</g>
				<path id="Fill-4" class="st3" d="M301.1,50c0.1-6.6,3.2-13.1,8.3-17.6c4.5-4,10.2-6.1,16-6.1c0.7,0,1.5,0,2.2,0.1
					c13.1,1.3,22.7,12.6,21.9,25.8c-0.4,6.1-3.5,12.2-8.6,16.7c-4.8,4.2-10.9,6.5-16.6,6.1C311.7,74.1,300.9,62.5,301.1,50
					 M324.5,96.2c0.3,0,0.6,0,1,0c12.6,0,24.3-4.6,33-13.1c8.9-8.6,13.7-20.3,13.7-32.9c-0.1-24.6-20.6-45-45.8-45.4
					c-16.2-0.6-27,6.6-33.3,12.7c-9.2,9-14.6,21.8-14.3,33.4C279.4,76.2,299.1,95.7,324.5,96.2"/>
				<path id="Fill-6" class="st3" d="M325.5,348.9L325.5,348.9c-12.7,0-24-11.1-24.4-23.8c-0.2-6.7,2.5-13.3,7.5-18.1
					c4.6-4.4,10.6-6.9,16.8-6.9c0.4,0,0.7,0,1.1,0c13.1,0.6,23.3,11.5,23.1,24.7C349.4,337.6,338.2,348.8,325.5,348.9 M327.3,278.7
					c-13.1-0.4-25.3,4.2-34.5,12.9c-8.9,8.5-13.9,20-14,32.3c-0.2,25.4,19,45.3,44.8,46.3c0.7,0,1.3,0,1.9,0
					c12.2,0,23.6-4.4,32.3-12.5c9-8.5,14.1-20.1,14.3-32.7C372.6,300.3,352.4,279.5,327.3,278.7"/>
				<g id="Group-10" transform="translate(0.000000, 16.723140)">
					<g id="Clip-9">
					</g>
					<defs>
						<filter id="Adobe_OpacityMaskFilter_1_" filterUnits="userSpaceOnUse" x="2" y="261.9" width="93.4" height="91.5">
							<feColorMatrix  type="matrix" values="1 0 0 0 0  0 1 0 0 0  0 0 1 0 0  0 0 0 1 0"/>
						</filter>
					</defs>
					<mask maskUnits="userSpaceOnUse" x="2" y="261.9" width="93.4" height="91.5" id="mask-4_1_">
						<g class="st4">
							<polygon id="path-3_1_" class="st1" points="2,261.9 95.4,261.9 95.4,353.5 2,353.5 							"/>
						</g>
					</mask>
					<path id="Fill-8" class="st5" d="M24.3,307.4c0.1-6.7,3.1-13.1,8.2-17.7c4.5-4,10.3-6.3,16.1-6.3c0.7,0,1.4,0,2,0.1
						c13.1,1.2,22.8,12.4,22.1,25.6c-0.7,12.7-12.7,23.5-25,23C35.1,331.5,24.1,319.9,24.3,307.4 M47.4,262
						C21.9,262.5,2,282.6,2,307.6c0,12.7,4.9,24.3,13.8,32.9c8.7,8.4,20.3,12.9,32.9,12.9c0.4,0,0.8,0,1.2,0
						c25.5-0.6,45.1-20.2,45.6-45.6c0.2-11.6-5.3-24.3-14.6-33.3C74.6,268.5,63.7,261.3,47.4,262"/>
				</g>
				<path id="Fill-11" class="st3" d="M48.7,485.1c-13.5,0-24-9.8-24.3-23c-0.2-6.9,2.4-13.3,7.2-18c4.5-4.4,10.6-6.8,17.1-6.8
					c0.3,0,0.6,0,0.9,0c13.2,0.5,23.4,11.1,23.2,24.3c-0.2,13.3-10.5,23.4-24,23.5H48.7z M47.5,415.2C22.3,415.9,2.3,436.1,2,461.3
					c-0.2,12.3,4.7,23.8,13.6,32.5c8.9,8.7,20.6,13.5,33.2,13.5c0.3,0,0.7,0,1,0c25.3-0.5,45.7-21.1,45.5-45.8
					c-0.1-12.6-5.2-24.5-14.5-33.3C71.8,419.5,59.9,414.9,47.5,415.2L47.5,415.2z"/>
				<path id="Fill-13" class="st3" d="M301.2,462c-0.1-6.9,2.5-13.3,7.3-17.9c4.5-4.4,10.5-6.7,16.9-6.7c0.4,0,0.7,0,1.1,0
					c13.2,0.6,23.3,11.3,23,24.5c-0.3,13.3-10.6,23.3-24.1,23.3h0C311.9,485.1,301.5,475.2,301.2,462 M324.2,415.2
					c-25.2,0.7-45.1,21-45.4,46.1c-0.1,12.3,4.7,23.8,13.6,32.5c8.9,8.7,20.6,13.5,33.2,13.5c0.4,0,0.7,0,1.1,0
					c25.2-0.5,45.7-21.1,45.5-45.8c-0.1-12.6-5.2-24.5-14.5-33.3C348.5,419.5,336.6,414.9,324.2,415.2"/>
				<path id="Fill-15" class="st3" d="M48.7,163.4c6.7,0,12.9,2.6,17.5,7.3c4.7,4.8,7.1,11.2,6.7,18c-0.7,13.2-11.3,22.9-24.9,22.5
					c-13.5-0.4-23.6-10.7-23.4-23.9c0.2-13.1,10.6-23.6,23.8-23.8C48.4,163.4,48.5,163.4,48.7,163.4 M48.9,233.4c0.6,0,1.2,0,1.8,0
					c25.2-0.9,45.3-21.8,44.7-46.6c-0.3-12.7-5.7-24.4-15.1-33.1c-9.3-8.5-21.2-12.9-33.6-12.4C21.5,142.4,1.9,163,2,188.1
					c0.1,12.2,5.1,23.6,14.1,32.2C25,228.8,36.5,233.4,48.9,233.4"/>
				<path id="Fill-17" class="st3" d="M162.2,188.3c-0.3-6.1,2.2-12.4,7-17.2c4.9-4.9,11.4-7.7,17.9-7.7c0.2,0,0.4,0,0.7,0
					c12.9,0.4,24.1,11.6,23.9,24.1c-0.2,12.7-11.3,23.6-24.3,23.8c-0.1,0-0.2,0-0.3,0C174.2,211.3,162.9,200.8,162.2,188.3
					 M141,187.4c0,13,4.9,24.9,13.8,33.4c8.5,8.1,20,12.6,32.4,12.6c0.6,0,1.1,0,1.7,0c25.4-0.8,44.8-21.5,44.3-47.1
					c-0.5-24.9-21.1-45-46.1-45c-0.2,0-0.4,0-0.6,0h0C160.9,141.6,140.9,161.9,141,187.4"/>
				<g id="Group-21" transform="translate(25.247423, 8.498650)">
					<g id="Clip-20">
					</g>
					<defs>
						<filter id="Adobe_OpacityMaskFilter_2_" filterUnits="userSpaceOnUse" x="392.5" y="132.7" width="92.2" height="92.1">
							<feColorMatrix  type="matrix" values="1 0 0 0 0  0 1 0 0 0  0 0 1 0 0  0 0 0 1 0"/>
						</filter>
					</defs>
					<mask maskUnits="userSpaceOnUse" x="392.5" y="132.7" width="92.2" height="92.1" id="mask-6_1_">
						<g class="st6">
							<polygon id="path-5_1_" class="st1" points="392.5,132.7 484.7,132.7 484.7,224.8 392.5,224.8 							"/>
						</g>
					</mask>
					<path id="Fill-19" class="st7" d="M439.7,202.7c-0.3,0-0.6,0-0.8,0c-12.6,0-23.9-10-25-22.3c-0.5-6,1.8-12.3,6.4-17.3
						c4.9-5.3,11.6-8.3,18.3-8.3h0.1c13,0,24.3,10.8,24.6,23.5C463.6,190.9,452.6,202.3,439.7,202.7 M437.9,132.7
						c-25.5,0.4-45.4,20.7-45.4,46.2c0,25.9,19.5,45.6,45.4,45.9c0.2,0,0.4,0,0.6,0c25.8,0,45.6-19.1,46.2-44.6
						c0.3-12.9-4.5-25-13.5-34C462.3,137.3,450.4,132.6,437.9,132.7"/>
				</g>
				<path id="Fill-22" class="st3" d="M463.9,485.3c-12.9,0-24.3-10.6-24.9-23.1c-0.3-6.1,2.3-12.4,7.1-17.2
					c4.9-4.9,11.3-7.6,17.8-7.6c0.3,0,0.5,0,0.8,0c12.9,0.4,24,11.8,23.8,24.2c-0.2,12.7-11.4,23.6-24.4,23.6H463.9z M463.9,415.2
					h-0.3c-25.5,0.2-45.6,20.3-45.8,45.8c-0.1,13,4.7,24.9,13.6,33.5c8.5,8.3,20.1,12.8,32.6,12.8c0.5,0,0.9,0,1.4,0
					c25.8-0.7,45-20.8,44.6-46.8v0C509.6,435.5,488.9,415.2,463.9,415.2L463.9,415.2z"/>
				<path id="Fill-24" class="st3" d="M187.1,485.3c-12.7,0-24.4-10.8-24.9-23.1c-0.3-6.2,2.3-12.4,7.1-17.2
					c4.8-4.8,11.3-7.6,17.8-7.6c0.3,0,0.5,0,0.8,0c12.9,0.4,24,11.8,23.8,24.2c-0.2,12.7-11.4,23.6-24.4,23.7H187.1z M187.5,415.2
					c-0.1,0-0.3,0-0.4,0c-25.4,0-45.7,19.7-46.1,45.1c-0.2,13.1,4.5,25.2,13.2,33.9c8.5,8.5,20.2,13.1,33,13.1c0.2,0,0.4,0,0.6,0
					c25.9-0.3,45.4-20.1,45.4-46C233.2,436.1,212.7,415.4,187.5,415.2L187.5,415.2z"/>
				<path id="Fill-26" class="st3" d="M162.1,325c-0.2-6.2,2.6-12.6,7.7-17.5c5.2-5,11.9-7.7,18.3-7.3c12.7,0.7,24,12.6,23.6,24.9
					c-0.4,12.2-12.6,24-24.7,24H187C175.1,349,162.5,336.8,162.1,325 M187,370.2c0.5,0,1.1,0,1.6,0c25.8-0.8,45-20.9,44.6-46.7
					c-0.4-25.5-20.2-44.7-46.1-44.7h-0.3c-26.4,0.2-45.6,19.2-45.8,45.3c-0.1,13,4.8,24.9,13.7,33.5
					C163.1,365.7,174.6,370.2,187,370.2"/>
				<path id="Fill-28" class="st3" d="M463.7,300L463.7,300c12.6,0,24.5,11.3,24.9,23.7c0.4,11.9-11.3,24.3-23.6,25.1
					c-6,0.4-12.6-2.3-17.9-7.3c-5.3-5.1-8.4-11.7-8.3-17.7C439.2,311.7,451.3,300.1,463.7,300 M464.9,370.1
					c25.9-0.5,45.3-20.4,45.1-46.2c-0.2-25.7-19.9-45.2-45.9-45.2h-0.2c-26.3,0-45.7,18.8-46.1,44.7c-0.2,13.1,4.6,25,13.4,33.7
					c8.5,8.4,20.1,12.9,32.6,12.9C464.1,370.1,464.5,370.1,464.9,370.1"/>
				<path id="Fill-30" class="st3" d="M439,49c1-12.2,12.7-22.9,24.8-22.9c0.3,0,0.6,0,0.8,0c12.7,0.5,24.1,12.2,23.9,24.6
					c-0.2,12.1-12.3,24.2-24.5,24.3c-0.1,0-0.1,0-0.2,0c-6.2,0-12.8-3.1-17.8-8.4C441.1,61.4,438.5,55,439,49 M463.8,96.2
					c0.5,0,1,0,1.5,0c25.8-0.8,45-20.8,44.7-46.6C509.6,24,489.8,4.8,463.9,4.8h-0.2c-26.4,0.1-45.7,19.1-45.9,45.2
					c-0.1,13,4.7,24.9,13.6,33.5C439.9,91.7,451.3,96.2,463.8,96.2"/>
				<path id="Fill-32" class="st3" d="M233.2,49.5L233.2,49.5L233.2,49.5z"/>
				<path id="Fill-34" class="st3" d="M162.1,50.7c-0.1-6.3,2.8-12.6,8-17.5c4.8-4.5,10.9-7,16.9-7c0.5,0,1,0,1.5,0.1
					c12.8,0.9,23.9,12.9,23.2,25.1C211.1,63.4,199,75,187.1,75c-0.1,0-0.3,0-0.4,0C174.7,74.8,162.3,62.5,162.1,50.7 M187,96.2
					c0.5,0,1,0,1.6,0c25.8-0.8,45-20.8,44.6-46.6C232.8,24,213,4.8,187.1,4.8h-0.3c-26.4,0.1-45.7,19.2-45.9,45.2
					c-0.1,13,4.8,24.9,13.7,33.5C163.1,91.7,174.6,96.2,187,96.2"/>
				<path id="Fill-36" class="st3" d="M362.6,141.2c-3.6,1.7-6.5,4.6-9.3,7.4l-0.6,0.6c-4.4,4.2-8.7,8.5-13,12.8
					c-5.1,5-10.2,10.1-15.4,15.1c-12.1,11.6-12.1,11.6-24.4,1.4c-0.8-0.7-1.6-1.4-2.4-2.1c-2.3-2-4.7-4-7.3-5.8
					c-2.4-1.6-5.8-2.1-9.1-1.3c-2.8,0.7-5.1,2.2-6.2,4.1c-2.5,4.5-2,9.5,1.4,13c9,9.5,18.4,18.6,26.5,26.3c1.3,1.2,3.1,1.9,5,2.6
					c0.9,0.3,1.9,0.7,2.8,1.1l0.6,0.3l0.6-0.3c0.8-0.4,1.6-0.7,2.5-1.1c2-0.9,4.3-1.8,6-3.5c15.5-15.1,31.1-30.6,46.2-45.6l6.8-6.8
					c1.1-1.1,2.4-2.6,3.2-4.3c1.6-3.7,1.2-7.6-1.1-10.6C372.3,140.2,367.2,138.9,362.6,141.2"/>
			</g>
		</g>
	</g>
</g>
</svg>
