<?xml version="1.0" encoding="utf-8"?>
<!-- Generator: Adobe Illustrator 24.0.1, SVG Export Plug-In . SVG Version: 6.00 Build 0)  -->
<svg version="1.1" id="Camada_1" xmlns="http://www.w3.org/2000/svg" xmlns:xlink="http://www.w3.org/1999/xlink" x="0px" y="0px"
	 viewBox="0 0 512 512" style="enable-background:new 0 0 512 512;" xml:space="preserve">
<style type="text/css">
	.st0{filter:url(#Adobe_OpacityMaskFilter);}
	.st1{fill-rule:evenodd;clip-rule:evenodd;fill:#FFFFFF;}
	.st2{mask:url(#mask-2_1_);fill-rule:evenodd;clip-rule:evenodd;fill:#5500FF;}
	.st3{fill-rule:evenodd;clip-rule:evenodd;fill:#5500FF;}
</style>
<title>icon-menu-1</title>
<desc>Created with Sketch.</desc>
<g id="desktop">
	<g id="_x30_1-home-idwall-menu" transform="translate(-575.000000, -119.000000)">
		<g id="Group" transform="translate(521.000000, 58.000000)">
			<g id="icon-menu-1" transform="translate(54.000000, 61.000000)">
				<g id="Group-3" transform="translate(0.000000, 0.230800)">
					<g id="Clip-2">
					</g>
					<defs>
						<filter id="Adobe_OpacityMaskFilter" filterUnits="userSpaceOnUse" x="2" y="51.8" width="508" height="407.9">
							<feColorMatrix  type="matrix" values="1 0 0 0 0  0 1 0 0 0  0 0 1 0 0  0 0 0 1 0"/>
						</filter>
					</defs>
					<mask maskUnits="userSpaceOnUse" x="2" y="51.8" width="508" height="407.9" id="mask-2_1_">
						<g class="st0">
							<polygon id="path-1_1_" class="st1" points="2,51.8 510,51.8 510,459.7 2,459.7 							"/>
						</g>
					</mask>
					<path id="Fill-1" class="st2" d="M422.5,196.9c-13.8,13.3-32.8,21-50.9,20.5h0h0c-0.2,0-0.3,0-0.5,0
						c-39.9,0-72.7-31.8-73.2-71.1c-0.2-19.9,7.5-38.6,21.7-52.6c14-13.8,32.4-21.3,52-20.9c41.4,0.7,72.5,31.8,72.5,72.3
						C444,170.9,432.3,187.5,422.5,196.9L422.5,196.9z M23.1,358.3c0-54.7,0-109.4,0-164c0-30.3,3.2-33.4,33.4-33.5
						c51.9-0.1,103.8,0,155.7,0l46.9,0c4.2,0,8.5,0,12.8,0.3c3.9,0.3,6.5,2.3,7.7,6.1c0.4,1.3,0.8,2.5,1.2,3.8
						c1,3.3,2.1,6.6,3.5,9.8c15.7,36.6,50.6,59.3,88.7,57.5c40.5-1.8,69.2-21.5,85.3-58.7c0.9-2,1.6-4,2.3-6c0.4-1,0.7-2,1.1-3
						c1.9-5,4.9-8.2,8.5-9.1c3.5-0.9,7.4,0.4,11.3,3.7c4.4,3.8,6.8,8.4,7,13.6c0.1,4,0.2,8,0.2,11.9c0,72.7,0,145.4,0,218.1l0,2.4
						c0,3.1,0.1,6.3-0.4,9.4c-1.4,10.3-7.6,16.4-17.7,17.3c-4.7,0.4-9.5,0.3-14.2,0.3c-1.7,0-3.3,0-5,0c-52.3,0-104.5,0-156.8,0
						l-232.8,0c-1.6,0.1-3.4,0-5.1,0c-4.7,0-9.5,0.1-14.2-0.3c-11.5-0.9-17.7-6.9-19-18.6c-0.4-3.5-0.3-7.1-0.3-10.6
						c0-1.2,0-2.4,0-3.7L23.1,358.3z M509.6,176.9c-2.4-20.6-13.4-33.1-31.9-36.2c-10.2-1.7-14.2-6-14.9-15.8
						c-0.1-1.7-0.5-3.2-1-4.9c-12.1-40.8-48.5-68.2-90.6-68.2h-0.2c-42.2,0.1-78.6,27.6-90.7,68.3c-1.1,3.7-2,7.4-3,11.1l-0.7,2.9
						c-1,3.7-3.3,5.3-7.6,5.3c-3.2,0-6.4,0-9.6,0.1c-3.3,0-6.5,0-9.8,0l-62,0c-43,0-86,0-129.1,0l-3.8,0c-5.9,0-12.1-0.1-18,0.6
						c-16.5,1.9-29.4,13.5-32.9,29.4c-1.1,5-1.7,10.7-1.7,16.9C2,269.1,2,350.1,2,411.5c0,4.7,0.1,9.6,1,14.5
						c3.3,18.6,16.4,31,35.1,33.2c4.9,0.6,9.8,0.5,14.6,0.4c1.6,0,3.2,0,4.9,0c51.9,0,103.9,0,155.8,0l240.8,0c1.6,0,3.2,0,4.8,0
						c1.6,0,3.2,0,4.9,0c2.4,0,4.9,0,7.3-0.2c20.2-1.5,34.3-14,37.7-33.3c1.1-6.3,1.1-12.8,1.1-19.1v-2.6
						c0.1-70.2,0.1-140.5,0-210.7c0-1.4,0-2.7,0-4.1C510,185.5,510.1,181.2,509.6,176.9L509.6,176.9z"/>
				</g>
				<path id="Fill-4" class="st3" d="M198.8,324.4c0,18.5,0,37-0.1,55.5c-0.1,15.2-0.1,15.2-16.8,15.3c-18.3,0.1-36.7,0.1-55,0.1
					l-19.9,0l-7.5,0c-7,0-14.3,0-21.4-0.2c-7.4-0.2-8.2-1.1-8.6-9c-0.1-2.5-0.1-5.1-0.1-7.7l0-1.8c0-51,0-102.1,0-153.1
					c0-4.3,0.1-8.6,0.3-11.9c0.2-4.8,2.7-7,8.2-7.1l1,0c0.5,0,0.9,0,1.4,0l28.8,0c26.2,0,53.3,0,79.9,0.1c8.6,0,9.7,1.2,9.7,10.3
					c0.1,20.6,0.1,41.5,0.1,61.8l0,24.3L198.8,324.4z M47.9,389.7c0,4,0,8.1,0.4,12.1c0.9,7.5,6,12.9,13.3,14
					c4.6,0.7,9.3,0.7,13.9,0.7h0.7c19.3,0,38.6,0,57.9,0c19.3,0,38.6,0,57.9,0l2.3,0c3.3,0,6.6,0,9.9-0.4
					c8.5-1.1,14.2-6.7,15.2-15.1c0.5-4.4,0.5-8.9,0.4-13.2c0-1.2,0-2.4,0-3.6c0-20.9,0-41.8,0-62.8v-41.2c0-21.9,0-43.9,0-65.8
					l0-2.5c0-4.7,0-9.6-0.5-14.3c-0.9-7.7-6-12.8-13.4-13.8c-5.3-0.7-10.8-0.7-16.1-0.7l-6.4,0c-34.6-0.1-70.4-0.1-105.6,0
					c-27.7,0.1-29.9,2.3-29.9,29.7c-0.1,48.5-0.1,97,0,145.4l0,29.1L47.9,389.7z"/>
				<path id="Fill-6" class="st3" d="M284.2,326.9c6,1.6,12.5,1.9,16.9,1.9c10.2,0.1,20.5,0.1,30.7,0.1c6.4,0,12.7,0,19,0l40.1,0
					c15,0,29.9,0,44.9,0l1.2,0c4.4,0,9.2,0,13.5-2.7c3.4-2.2,5.1-5.4,4.9-9.1c-0.2-4-2.8-7.2-6.5-8.1c-4.1-1-8.5-1.2-12.2-1.2
					c-46.5-0.1-93-0.1-139.5,0c-4.6,0-8.6,0.3-12.2,1c-3.7,0.7-6.6,3.7-7.4,7.4C276.7,321,279.5,325.6,284.2,326.9"/>
				<path id="Fill-8" class="st3" d="M450.2,397.9c-4.3-2.7-9.1-2.5-13.6-2.3c-1.1,0-2.3,0.1-3.4,0.1h-0.1
					c-41.3-0.1-82.6-0.1-123.9,0l-8.4,0l-1.9,0c-3.4,0-6.8,0-10.2,0.3c-6.3,0.6-10.1,4-11,9.6c-0.3,2.1,0.3,4.3,1.9,6.3
					c1.9,2.5,5,4.1,8.1,4.4c3.5,0.3,7.1,0.3,10.5,0.3h1.6c16,0,32,0,48,0l17,0l18.4,0c6.1,0,12.2,0,18.4,0c11,0,22,0,33.1-0.1
					c4.6,0,9.8,0,14.6-1.3c3.4-0.9,5.9-4.3,6.2-8.4C455.5,403.2,453.7,400.1,450.2,397.9"/>
				<path id="Fill-10" class="st3" d="M334.3,372.6c17.1,0,34.1,0,51.2,0c17.4,0,34.8,0,52.3,0c3.4,0,6.8-0.1,9.9-1
					c5-1.5,7.8-5.2,7.5-10c-0.3-5.1-3.4-8.6-8.3-9.3c-4.2-0.6-8.6-0.6-12.1-0.7c-11.9,0-23.8,0-35.7,0l-12.4,0l-13.5,0
					c-12.4,0-24.7,0-37,0l-0.9,0c-3.8,0-7.7,0-11.3,0.9c-5,1.2-8,5-7.7,9.8c0.2,4.6,3.3,8,8.3,9.3
					C327.5,372.5,330.7,372.6,334.3,372.6"/>
				<path id="Fill-12" class="st3" d="M330.7,283c13.4,0,26.7,0,40.1,0l14.2,0l14.8,0c4.5,0,9,0,13.5,0c7.9,0,15.7,0,23.6-0.1
					c4.8,0,8.8-0.6,12.1-1.6c2.3-0.7,4.4-3.4,5.3-5.8c1.4-3.7,0-8.1-3.2-10c-3.5-2-7.8-3.3-11.9-3.4c-8.7-0.3-17.5-0.3-26.1-0.3
					l-26.4,0c-18.4,0-37.4,0-56.1,0.2c-5.4,0.1-10.2,2.1-12.7,5.4c-1.6,2.1-2.2,4.5-1.6,6.8C318.1,282,324.6,283,330.7,283"/>
				<path id="Fill-14" class="st3" d="M406.5,110.1c-4.5,3.1-8.9,6.7-13,10.7c-8.6,8.3-17.2,16.8-26.2,25.8l-10,9.9
					c-2.1-2-4-3.8-5.7-5.4c-4.1-3.9-7.6-7.3-11.3-10.5c-7.7-6.8-13.2-4.1-16.4-0.8c-4.1,4.3-3.8,9.4,0.8,14.3
					c9,9.5,16.6,17,23.8,23.6c3,2.8,5.8,4.1,8.7,4.1c3.1,0,6.3-1.7,9.8-5c15.3-14.7,30.1-29.5,47.6-47.1c2.2-2.2,4.1-5.3,5.1-8.4
					c1.2-3.4,0.1-7-3-9.8C413.5,108.5,409.5,108,406.5,110.1"/>
				<path id="Fill-16" class="st3" d="M133.1,293.1c-3.8-0.2-7.5-2.2-10.3-5.4c-2.8-3.3-4.3-7.4-4-11.3c0.4-4.1,2.3-7.8,5.4-10.3
					c3.2-2.5,7.3-3.6,11.6-3.1c7.2,0.9,13.9,8.3,13.7,15c-0.1,3.6-2.2,7.6-5.5,10.6C140.6,291.7,136.7,293.4,133.1,293.1
					 M133.8,314.2c0.2,0,0.3,0,0.5,0c9.3-0.1,18.6-4.3,25.5-11.3c6.9-7.1,10.8-16.4,10.7-25.6c-0.3-19.4-17.1-35.6-36.8-35.6
					c-0.1,0-0.3,0-0.4,0c-9.6,0.1-18.7,4-25.5,10.9c-6.9,7-10.6,16.1-10.4,25.7C97.6,297.8,114.2,314.2,133.8,314.2"/>
				<path id="Fill-18" class="st3" d="M154.1,318.7c-4.5-0.5-9-0.3-13.4-0.2c-2,0.1-4,0.1-6,0.1l-1.1,0c-1.9,0-3.8-0.1-5.7-0.1
					c-4.9-0.1-10.1-0.3-15.1,0.3c-21.6,2.4-35.9,19.3-34.8,40.9c0.3,6,3.4,10.1,8.9,11.7c0.6,0.2,1.2,0.3,1.9,0.3
					c1.4,0,2.8-0.4,4.2-1.2c2.8-1.6,5.1-4.6,5.9-7.8c0.3-1.3,0.4-2.6,0.4-3.8c0-1.2,0.1-2.3,0.3-3.3c2.9-11.5,7.2-15,18.8-15.6
					c4.8-0.2,9.7-0.2,14.4-0.1c1.6,0,3.2,0,4.8,0c24.4,0.1,24.4,0.1,31.4,23.4c0.5,1.6,1.3,3.2,2.1,4.5c1.2,2.3,4.1,3.7,7.5,3.8
					c3.2,0.1,5.9-1.1,7.2-3.2c1.7-2.8,3.4-6,3.6-9.3C190.3,337.6,175.8,321,154.1,318.7"/>
			</g>
		</g>
	</g>
</g>
</svg>
