<?xml version="1.0" encoding="utf-8"?>
<!-- Generator: Adobe Illustrator 24.0.1, SVG Export Plug-In . SVG Version: 6.00 Build 0)  -->
<svg version="1.1" id="Camada_1" xmlns="http://www.w3.org/2000/svg" xmlns:xlink="http://www.w3.org/1999/xlink" x="0px" y="0px"
	 viewBox="0 0 512 512" style="enable-background:new 0 0 512 512;" xml:space="preserve">
<style type="text/css">
	.st0{filter:url(#Adobe_OpacityMaskFilter);}
	.st1{fill-rule:evenodd;clip-rule:evenodd;fill:#FFFFFF;}
	.st2{mask:url(#mask-2_1_);fill-rule:evenodd;clip-rule:evenodd;fill:#5500FF;}
	.st3{fill-rule:evenodd;clip-rule:evenodd;fill:#5500FF;}
</style>
<title>icon-menu-2</title>
<desc>Created with Sketch.</desc>
<g id="desktop">
	<g id="_x30_1-home-idwall-menu" transform="translate(-575.000000, -230.000000)">
		<g id="Group" transform="translate(521.000000, 58.000000)">
			<g id="icon-menu-2" transform="translate(54.000000, 172.000000)">
				<g id="Group-3" transform="translate(18.888889, 19.480624)">
					<g id="Clip-2">
					</g>
					<defs>
						<filter id="Adobe_OpacityMaskFilter" filterUnits="userSpaceOnUse" x="307.2" y="308.1" width="178.2" height="182.5">
							<feColorMatrix  type="matrix" values="1 0 0 0 0  0 1 0 0 0  0 0 1 0 0  0 0 0 1 0"/>
						</filter>
					</defs>
					<mask maskUnits="userSpaceOnUse" x="307.2" y="308.1" width="178.2" height="182.5" id="mask-2_1_">
						<g class="st0">
							<polygon id="path-1_1_" class="st1" points="307.2,308.1 485.3,308.1 485.3,490.5 307.2,490.5 							"/>
						</g>
					</mask>
					<path id="Fill-1" class="st2" d="M485.2,385.1l0-16.4c0-11.3,0-22.7,0-34V334c0-4.7,0-9.6-0.8-14.5c-1-6.7-6.3-11.3-13.1-11.5
						c-6.9-0.2-12.4,4.4-13.5,11.2c-1.1,7.1-1.3,14.3-1.4,21c-0.1,14.4-0.1,28.8-0.1,43.2c0,12.2,0,24.4,0,36.6l0,2.1
						c0,6,0,12.2-0.9,18c-1.8,12.2-8.4,18.4-20.5,19.7c-5.1,0.5-10.4,0.5-15.5,0.4l-4.7,0l-27.8,0c-17.1,0-34.2,0-51.4,0.1
						c-5.1,0-11.7,0.3-18,1.9c-6.8,1.7-11,7.4-10.4,14.1c0.6,6.7,5,11.5,11.6,12.8c3.1,0.6,6.2,1,9.3,1c9.5,0,18.9,0.1,28.4,0.1
						c10.3,0.1,20.7,0.1,31.3,0.1c14.3,0,28.7-0.1,43-0.4c33.9-0.8,53.2-20.2,54.3-54.8c0.4-12.3,0.3-24.7,0.2-36.8
						C485.2,394.1,485.2,389.6,485.2,385.1"/>
				</g>
				<path id="Fill-4" class="st3" d="M345.7,30.1c19.4,0.1,38.9,0.1,58.3,0.1l23.9,0c2,0,4.1,0,6.2-0.1c4.7-0.1,9.5-0.1,14.2,0.2
					c18.4,1.5,25.5,8.4,27,26.6c0.3,4.2,0.3,8.6,0.3,12.9l0,4.6l0,71.1l0,4.3c0,4.5,0,9.1,0.1,13.6c0.1,3.5,0.5,6.6,1.2,9.4
					c1.7,6.7,6.5,10.7,13.1,10.7c0.2,0,0.3,0,0.5,0c7.6-0.2,12.8-5,12.9-11.8c0.2-15,0.2-30.1,0.2-45.1l0-14h0.5v-3.1
					c0-5.5-0.1-11-0.1-16.5c-0.1-12-0.3-24.5,0.3-36.7c0.6-14-4.8-28.1-15-38.7C479,7.3,465.5,1.8,451.5,2
					c-21.1,0.5-42.6,0.4-63.4,0.3c-14.1,0-28.2-0.1-42.3,0c-7.9,0.1-13.7,2.2-16.9,6.1c-2.2,2.7-2.9,6.1-2.1,9.8
					C329.2,30,339.5,30.1,345.7,30.1"/>
				<path id="Fill-6" class="st3" d="M171.9,480.5c-5.3-0.6-10.7-0.6-15.9-0.6h-2c-7.9,0-15.7-0.1-23.6-0.2
					c-19.2-0.2-39.1-0.4-58.6,0.4c-13.7,0.5-22.4-1.7-27.7-7c-5.3-5.4-7.6-14.3-7.1-28.2c0.8-22,0.6-44.3,0.4-65.9
					c-0.1-8.6-0.2-17.2-0.2-25.8c0-1,0-1.9,0-2.9c0.1-5.1,0.2-10.8-3-16c-3.1-5-7.8-7.5-12.6-6.8c-6.1,0.8-10.2,3.8-11.6,8.5
					c-1.2,4.1-1.9,8.4-1.9,12.4c0,8.5-0.1,17-0.1,25.5c-0.2,26.5-0.3,54,0.3,81c0.7,33.6,20.6,53.5,54.6,54.7
					c6.3,0.2,12.7,0.3,19,0.3c5.2,0,10.4,0,15.5-0.1c4.1,0,8.3-0.1,12.4-0.1l8.5,0.1c4,0,8.1,0,12.1,0l11,0c9.8,0,20,0,30-0.3
					c8-0.3,14.3-6.5,14.3-14.2C185.7,487.7,179.7,481.4,171.9,480.5"/>
				<path id="Fill-8" class="st3" d="M8.3,108.8l0.4,3.1l0,13.9c0,15.1-0.1,30.2,0.1,45.3c0.1,6.9,5.1,11.9,12.3,12.5
					c0.4,0,0.8,0,1.2,0c6.6,0,11.8-4,13-10.3c1.4-7.2,1.6-14.7,1.7-21.1c0.1-12,0-24.1,0-36.1c0-18.3-0.1-37.2,0.2-55.7
					c0.4-21.7,7.4-29,29-29.9c9.8-0.4,19.9-0.3,29.7-0.3c4.8,0,9.5,0.1,14.3,0.1l15.6,0c15.1,0,30.8,0,46.2-0.3
					c4.1-0.1,7.8-1.7,10.3-4.5c2.5-2.8,3.6-6.4,3.3-10.3c-0.4-4.7-2.8-10.7-12-12.3c-1.9-0.3-4-0.5-6.4-0.5
					c-10.3,0-20.6-0.1-30.9-0.1C111.9,2,86.5,1.9,61.5,2.4C28.7,3.1,9.8,21.9,8.4,55.3C7.9,67.6,8,80.1,8.2,92.2
					C8.2,97.7,8.3,103.3,8.3,108.8"/>
				<path id="Fill-10" class="st3" d="M355.8,353.4c2.6-4.6,1.5-10.4-2.6-14.5c-4.4-4.4-10.1-5.5-14.5-2.8c-4.4,2.7-8.6,5.9-12.7,9
					c-2.1,1.6-4.3,3.2-6.5,4.8c-39.1,27.9-86.2,28.9-125.9,2.6c-3.2-2.1-6.2-4.7-9.3-7.3c-2.2-1.8-4.3-3.7-6.6-5.4
					c-4.8-3.6-10.2-5.2-14.9-4.3c-3.3,0.6-6,2.4-7.6,5c-4.1,6.5-3.1,13.5,2.8,19.8c2.5,2.7,5.3,5.3,8.8,8.3
					c23.7,20.2,52.5,30.6,87.9,31.9l0.1,0l0.1,0c32.7-1.8,60.7-8.4,91.1-34.9C349.8,362.3,353.1,358.1,355.8,353.4"/>
				<path id="Fill-12" class="st3" d="M347.4,209.9c0.5,0,0.9,0,1.4,0c17.6-0.8,32-16.1,32-34c0-9.5-3.9-18.7-10.7-25.2
					c-6.6-6.4-15.2-9.7-24.1-9.3c-17.5,0.8-31.9,16.1-32.2,34c-0.1,9.1,3.7,18.2,10.5,24.8C330.7,206.4,339,209.9,347.4,209.9"/>
				<path id="Fill-14" class="st3" d="M131.4,175.1c-0.3,18.3,13.4,33.6,31.1,34.8c0.8,0,1.5,0.1,2.3,0.1c8.1,0,15.9-3.1,22.1-8.8
					c6.9-6.4,11-15.5,11.2-24.9c0.2-9.3-3.6-18.5-10.3-25.2c-6.5-6.5-15.2-10.1-24.1-9.7C146.2,142,131.7,157.1,131.4,175.1"/>
				<path id="Fill-16" class="st3" d="M234.2,293c-3.5,5.2-1.7,12.3,4.4,17.1c2.7,2.1,5.6,3.2,8.3,3.2c2.3,0,4.5-0.8,6.3-2.3
					c10.1-8.4,22.9-19.8,33.3-34.1c4-5.5,3.5-12.4-1.3-17.6c-11-11.8-20.3-21.2-29-29.4c-3.1-2.9-6.6-4.4-10.2-4.2
					c-3.6,0.2-7,1.9-9.7,5c-5.2,5.9-4.8,12.6,1,19.8c3.8,4.7,7.7,9.3,11.9,14.2l4.2,4.9c-2,2.3-3.9,4.4-5.7,6.5
					C242.6,282.1,238.1,287.3,234.2,293"/>
			</g>
		</g>
	</g>
</g>
</svg>
