<?xml version="1.0" encoding="utf-8"?>
<!-- Generator: Adobe Illustrator 24.0.1, SVG Export Plug-In . SVG Version: 6.00 Build 0)  -->
<svg version="1.1" id="Camada_1" xmlns="http://www.w3.org/2000/svg" xmlns:xlink="http://www.w3.org/1999/xlink" x="0px" y="0px"
	 viewBox="0 0 512 512" style="enable-background:new 0 0 512 512;" xml:space="preserve">
<style type="text/css">
	.st0{filter:url(#Adobe_OpacityMaskFilter);}
	.st1{fill-rule:evenodd;clip-rule:evenodd;fill:#FFFFFF;}
	.st2{mask:url(#mask-2_1_);fill-rule:evenodd;clip-rule:evenodd;fill:#5500FF;}
	.st3{fill-rule:evenodd;clip-rule:evenodd;fill:#5500FF;}
	.st4{filter:url(#Adobe_OpacityMaskFilter_1_);}
	.st5{mask:url(#mask-4_1_);fill-rule:evenodd;clip-rule:evenodd;fill:#5500FF;}
</style>
<title>icon-menu-4</title>
<desc>Created with Sketch.</desc>
<g id="desktop">
	<g id="_x30_1-home-idwall-menu" transform="translate(-575.000000, -437.000000)">
		<g id="Group" transform="translate(521.000000, 58.000000)">
			<g id="icon-menu-4" transform="translate(54.000000, 379.000000)">
				<g id="Group-3" transform="translate(9.990826, 0.194404)">
					<g id="Clip-2">
					</g>
					<defs>
						<filter id="Adobe_OpacityMaskFilter" filterUnits="userSpaceOnUse" x="149.9" y="42.1" width="262.6" height="427.4">
							<feColorMatrix  type="matrix" values="1 0 0 0 0  0 1 0 0 0  0 0 1 0 0  0 0 0 1 0"/>
						</filter>
					</defs>
					<mask maskUnits="userSpaceOnUse" x="149.9" y="42.1" width="262.6" height="427.4" id="mask-2_1_">
						<g class="st0">
							<polygon id="path-1_1_" class="st1" points="149.9,42.1 412.5,42.1 412.5,469.6 149.9,469.6 							"/>
						</g>
					</mask>
					<path id="Fill-1" class="st2" d="M389.9,348.4c-0.6,21.4-7.2,41-20.1,58.3c-23.3,31.2-61.8,51-112.1,35.9
						c-48.1-14.4-76.5-47.8-84.3-97.6c-2.7-17.1-1.8-34.2-1.2-51.4c0.5-13.7,6.5-24.2,19.1-30.7c7.1-3.6,12-1.4,12.2,6.2
						c0.3,12.7,0.1,25.4,0.2,38c0,6-0.2,12,0.1,17.9c0.6,10.8,5,16.6,11.7,16c6.2-0.6,9.6-5.3,10.2-15c0.3-4.5,0.1-8.9,0.1-13.4
						c0-24.6,0-49.2,0-73.9c0-25.4-0.1-50.7,0.1-76.1c0-5.9,0.3-12,1.4-17.8c1.3-6.8,8-11.6,14.7-11.4c6.4,0.2,12.6,5.5,13.8,12.5
						c0.7,4.4,0.7,8.9,0.8,13.4c0.1,14.9-0.1,29.8,0.1,44.8c0.2,17.4,1.3,18.9,18,22.3c21.3,4.4,42.6,8.4,64,12.4
						c33.4,6.4,50.9,26.6,51.4,60.3C390.2,315.5,390.3,332,389.9,348.4 M344.5,217c-16.9-3.3-33.9-6.3-50.8-9.5
						c-2.9-0.6-5.9-1-8.7-2.1c-3.7-1.5-5.7-4.4-5.9-8.6c-0.2-4.4,1.7-7,5.7-8.3c2.1-0.7,4.3-1.2,6.5-1.9c20.5-6.9,27.9-16,28.4-37.6
						c0.6-23.1,0.7-46.3-0.1-69.4c-0.8-23.8-14.5-36.6-38.5-37.3c-12.7-0.4-77.3-0.1-78.7,0c-19,1.5-33.4,13.4-34.4,32.2
						c-1.4,26.8-0.9,53.7-0.2,80.5c0.4,13.7,7.8,25.3,21,29.1c13.4,3.9,15.4,11.8,14.5,23.2c-0.5,5.9,0.1,11.9-0.2,17.9
						c-0.4,10-0.4,10.9-11,13.5c-23.1,5.8-43.2,27.4-42.1,56.4c0.5,14.2-0.1,28.3,0.3,42.5c0.9,28.5,10.4,54.2,27.9,76.5
						c31.3,39.9,72.7,58.7,123.7,55c56.8-4.1,107.7-52.3,110.2-118.6c0.7-17.9,0.4-35.8,0.1-53.7C411.4,254.6,386.6,225.3,344.5,217
						"/>
				</g>
				<path id="Fill-4" class="st3" d="M131.5,151.3c-0.2,8.9-5.1,13.2-14.5,13.6c-13.4,0.5-26.9,0.1-40.3,0.1c0,0,0,0.1,0,0.1
					c-11.2,0-22.4,0.3-33.6-0.1c-13.8-0.5-17.8-4.1-18.1-17.1c-0.4-22.3-0.4-44.6,0.1-66.9c0.3-11.6,5-16,16.9-16.1
					c24.6-0.4,49.3-0.4,74,0c10.7,0.2,15.4,4.6,15.7,15C132.1,103.7,132,127.5,131.5,151.3 M154.5,81.3
					c-0.8-25.2-13.9-38.4-39.1-38.8C90.7,42,66,42.3,41.3,42.4c-3,0-6-0.1-9,0.4C15.9,45.6,3.1,57.9,2.6,74.5
					C1.8,102,1.8,129.6,2.8,157c0.5,14.8,9.9,24.7,24.2,28.9c6.3,1.9,13.2,2.4,19.9,2.5c21,0.3,41.9,0.1,62.9,0.1c3,0,6,0.1,9-0.2
					c23-2.4,34.9-14.8,35.8-37.8c0.4-11.9,0.1-23.8,0.1-35.7h0C154.5,103.6,154.8,92.4,154.5,81.3"/>
				<g id="Group-8" transform="translate(22.706422, 0.194404)">
					<g id="Clip-7">
					</g>
					<defs>
						<filter id="Adobe_OpacityMaskFilter_1_" filterUnits="userSpaceOnUse" x="334.1" y="42" width="153.2" height="146.8">
							<feColorMatrix  type="matrix" values="1 0 0 0 0  0 1 0 0 0  0 0 1 0 0  0 0 0 1 0"/>
						</filter>
					</defs>
					<mask maskUnits="userSpaceOnUse" x="334.1" y="42" width="153.2" height="146.8" id="mask-4_1_">
						<g class="st4">
							<polygon id="path-3_1_" class="st1" points="334.1,42 487.3,42 487.3,188.8 334.1,188.8 							"/>
						</g>
					</mask>
					<path id="Fill-6" class="st5" d="M464.2,147.6c-0.2,13.2-4.3,17.2-17.7,17.7c-12,0.5-24,0.1-36,0.1c-12,0-24,0.4-36-0.1
						c-12.7-0.6-17.5-5.2-17.8-18.1c-0.5-21.6-0.5-43.2,0.1-64.8c0.3-12.7,5.5-17.5,18.1-17.7c24-0.3,47.9-0.4,71.9,0
						c13.1,0.2,17.1,4.4,17.3,18C464.6,104.3,464.6,126,464.2,147.6 M449.4,42.2c-12.7-0.4-25.4-0.1-38.2-0.1c-12,0-24-0.2-35.9,0
						c-27.1,0.5-40.3,12.9-40.9,39.5c-0.5,22.3-0.5,44.7,0,67c0.6,25.1,13.5,38.6,38.9,39.4c25.4,0.9,50.9,1,76.3-0.1
						c24.2-1,36.7-14.5,37.2-38.6c0.5-23.1,0.5-46.2,0-69.2C486.5,56.4,473.1,43.1,449.4,42.2"/>
				</g>
			</g>
		</g>
	</g>
</g>
</svg>
