<?xml version="1.0" encoding="utf-8"?>
<!-- Generator: Adobe Illustrator 24.0.1, SVG Export Plug-In . SVG Version: 6.00 Build 0)  -->
<svg version="1.1" id="Camada_1" xmlns="http://www.w3.org/2000/svg" xmlns:xlink="http://www.w3.org/1999/xlink" x="0px" y="0px"
	 viewBox="0 0 512 512" style="enable-background:new 0 0 512 512;" xml:space="preserve">
<style type="text/css">
	.st0{fill:#6200FF;}
</style>
<g>
	<path class="st0" d="M256,16.5C123.9,16.5,16.5,123.9,16.5,256c0,132.1,107.4,239.5,239.5,239.5c132.1,0,239.5-107.5,239.5-239.5
		C495.5,123.9,388.1,16.5,256,16.5 M256,506c-66.8,0-129.6-26-176.8-73.2C32,385.6,6,322.8,6,256S32,126.4,79.2,79.2
		C126.4,32,189.2,6,256,6c66.8,0,129.6,26,176.8,73.2C480,126.4,506,189.2,506,256s-26,129.6-73.2,176.8
		C385.6,480,322.8,506,256,506"/>
	<path class="st0" d="M285.5,304.6c0,1.9-1.5,3.8-3.8,3.8h-51.9c-1.9,0-3.8-1.5-3.8-3.8V260c0-1.9,1.5-3.8,3.8-3.8h51.9
		c1.9,0,3.8,1.5,3.8,3.8V304.6z M218.6,304.6c0,6.2,5,11.2,11.2,11.2H262h6.9h12.7c6.2,0,11.2-5,11.2-11.2l-0.1-44.2
		c0-5.7-3.7-10.3-9.3-11.1c-0.1,0-0.2-0.1-0.2-0.2V226c0-14.9-11.9-27.3-26.7-27.5c-21.7-0.3-28.3,18.4-28.3,26.9v23.3
		c0,0.1-0.1,0.2-0.2,0.2c-5.3,0.8-9.8,5.4-9.8,11.1L218.6,304.6z M253.9,205.5c11.9-1.1,21.9,8.7,21.9,20.6v22.6
		c0,0.1-0.1,0.2-0.2,0.2h-39.6c-0.1,0-0.2-0.1-0.2-0.2v-23.3C235.9,214.9,243.7,206.4,253.9,205.5"/>
	<path class="st0" d="M237.3,247.6h37c0.1,0,0.2-0.1,0.2-0.2v-21.3c0-11.2-9.5-20.4-20.7-19.3c-9.5,1-16.7,8.8-16.7,18.6v22
		C237.1,247.5,237.2,247.6,237.3,247.6 M277,250.1h-42.2c-0.1,0-0.2-0.1-0.2-0.2v-23.9c0-12.7,10.8-23.1,23.5-21.9
		c10.9,1.1,19.1,10,19.1,21.2v24.6C277.1,250,277.1,250.1,277,250.1 M229.7,257.4c-1.6,0-2.6,1.3-2.6,2.6v44.6
		c0,1.6,1.3,2.6,2.6,2.6h51.9c1.6,0,2.6-1.3,2.6-2.6V260c0-1.6-1.3-2.6-2.6-2.6H229.7z M281.6,309.7h-51.9c-2.5,0-5.1-2-5.1-5.1V260
		c0-2.5,2-5.1,5.1-5.1h51.9c2.5,0,5.1,2,5.1,5.1v44.6C286.8,307.1,284.8,309.7,281.6,309.7 M255.3,199.8
		c-19.5,0.3-25.8,17.3-25.8,25.6V250l-1.1,0.2c-5,0.7-8.9,5.1-8.9,9.9l0.4,44.6c0,5.4,4.4,9.9,9.9,9.9h51.9c5.4,0,9.9-4.4,9.9-9.9
		l-0.1-44.2c0-5.2-3.4-9.2-8.4-9.9l-1.1-0.1v-24C281.9,211.7,269.9,199.5,255.3,199.8 M281.6,317.1h-51.9c-6.9,0-12.4-5.6-12.4-12.4
		l-0.4-44.6c0-5.8,4.2-10.8,9.9-12.2c0.1,0,0.1-0.1,0.1-0.2v-22.2c0-9.1,7-27.9,28.4-28.2c16-0.2,29.1,13.1,29.1,29.1V248
		c0,0.1,0.1,0.2,0.1,0.2c5.6,1.3,9.4,6.2,9.4,12.2l0.1,44.2C294.1,311.5,288.5,317.1,281.6,317.1"/>
	<path class="st0" d="M176.8,193.8c-3.1,1.5-5,4.6-5,8v76.7c0,8.6,2.9,18.8,8.1,28.7c5.2,9.9,12.1,18,19.2,22.9l57.3,39.1
		c0.1,0,0.2,0,0.2,0l57.3-39.1c14.8-10.1,27.3-33.7,27.3-51.6V202c0-3.4-1.9-6.5-5-8l-75.9-37.2c-2.5-1.2-5.4-1.2-7.8,0L176.8,193.8
		z M256.8,381.7c-0.1,0-0.2,0-0.2,0l-63.1-43.1c-8.5-5.8-16.5-15.3-22.5-26.6c-6-11.4-9.3-23.3-9.3-33.5v-83.1c0-3.4,1.9-6.5,5-8
		l86.2-42.2c2.5-1.2,5.4-1.2,7.8,0l86.2,42.3c3.1,1.5,5,4.6,5,8v83c0,21.6-14,48-31.8,60.1L256.8,381.7z"/>
	<path class="st0" d="M338.3,318.4C338.3,318.4,338.3,318.4,338.3,318.4l35.3,0v51.1h25.8c1.5,4.7,5.9,8.2,11.2,8.2
		c6.5,0,11.8-5.3,11.8-11.8c0-6.5-5.3-11.8-11.8-11.8c-4.6,0-8.5,2.6-10.5,6.5h-17.7v-51.1h-44.1c0,0,0,0,0,0
		C338.6,309.3,338.3,318.4,338.3,318.4 M341.8,258.1h57.9c1.8,4.3,6,7.3,10.9,7.3c6.5,0,11.8-5.3,11.8-11.8
		c0-6.5-5.3-11.8-11.8-11.8c-4.9,0-9.1,3-10.9,7.3h-57.9C341.7,249.1,341.8,258.1,341.8,258.1 M341.8,198.2
		C341.8,198.2,341.8,198.2,341.8,198.2l40.7,0v-36.8l20.2-10.6c2.1,1.9,4.9,3.1,7.9,3.1c6.5,0,11.8-5.3,11.8-11.8
		c0-6.5-5.3-11.8-11.8-11.8c-6.5,0-11.8,5.3-11.8,11.8c0,0.2,0.1,0.4,0.1,0.6l-25.3,13.3v33.3c0,0-31.8,0-31.8,0V198.2z"/>
	<path class="st0" d="M174.8,309.5C174.8,309.5,174.8,309.5,174.8,309.5l-45.3,0v51.1h-17.7c-1.9-3.8-5.9-6.5-10.5-6.5
		c-6.5,0-11.8,5.3-11.8,11.8c0,6.5,5.3,11.8,11.8,11.8c5.3,0,9.7-3.5,11.2-8.2h25.8v-51.1h36.4c0,0,0,0,0,0
		C174.8,318.4,174.6,309.3,174.8,309.5 M171.4,249.2h-59.1c-1.8-4.3-6-7.3-10.9-7.3c-6.5,0-11.8,5.3-11.8,11.8
		c0,6.5,5.3,11.8,11.8,11.8c4.9,0,9.1-3,10.9-7.3h59.1C171.4,258.1,171.5,249.1,171.4,249.2 M171.4,189.3c0,0-33,0-33,0v-33.3
		l-25.3-13.3c0-0.2,0.1-0.4,0.1-0.6c0-6.5-5.3-11.8-11.8-11.8c-6.5,0-11.8,5.3-11.8,11.8c0,6.5,5.3,11.8,11.8,11.8
		c3.1,0,5.8-1.2,7.9-3.1l20.2,10.6v36.8h41.8c0,0,0,0,0,0V189.3z"/>
	<path class="st0" d="M262.3,275.4c0-3.7-3.3-6.7-7.1-6.3c-2.7,0.3-5,2.5-5.5,5.2c-0.4,2.7,0.9,5.2,3,6.5l-3.5,12
		c-0.4,1.4,0.6,2.7,2,2.7h9.4c1.4,0,2.4-1.4,2-2.7l-3.5-12C261.1,279.7,262.3,277.7,262.3,275.4"/>
</g>
</svg>
