<?xml version="1.0" encoding="utf-8"?>
<!-- Generator: Adobe Illustrator 24.0.1, SVG Export Plug-In . SVG Version: 6.00 Build 0)  -->
<svg version="1.1" id="Camada_1" xmlns="http://www.w3.org/2000/svg" xmlns:xlink="http://www.w3.org/1999/xlink" x="0px" y="0px"
	 viewBox="0 0 512 512" style="enable-background:new 0 0 512 512;" xml:space="preserve">
<style type="text/css">
	.st0{fill:#6200FF;}
</style>
<g>
	<path class="st0" d="M256,16.5C123.9,16.5,16.5,123.9,16.5,256c0,132.1,107.4,239.5,239.5,239.5c132.1,0,239.5-107.5,239.5-239.5
		C495.5,123.9,388.1,16.5,256,16.5 M256,506c-66.8,0-129.6-26-176.8-73.2C32,385.6,6,322.8,6,256S32,126.4,79.2,79.2
		C126.4,32,189.2,6,256,6c66.8,0,129.6,26,176.8,73.2C480,126.4,506,189.2,506,256s-26,129.6-73.2,176.8
		C385.6,480,322.8,506,256,506"/>
	<path class="st0" d="M381.6,374.6H130.4v-15h251.3V374.6z M149.4,336.1h213.1v15H149.4V336.1z M190.7,327.5h-31.5v-9.7h31.5V327.5z
		 M184.6,309.3h-19.4v-77h19.4V309.3z M190.8,223.7h-31.6V214h31.6V223.7z M277.3,309.3h-1.8v-77h1.8c2.4,0,4.3-1.9,4.3-4.3V214H273
		v9.7h-31.5V214H233v13.9c0,2.4,1.9,4.3,4.3,4.3h1.8v77h-1.8c-2.4,0-4.3,1.9-4.3,4.3v13.8l-33.7-0.1v-13.8c0-2.4-1.9-4.3-4.3-4.3
		h-1.8v-77h1.8c2.4,0,4.3-1.9,4.3-4.3V214h113.5v13.9c0,2.4,1.9,4.3,4.3,4.3h1.8v77H317c-2.4,0-4.3,1.9-4.3,4.3v14l-31.2-0.1v-13.9
		C281.6,311.2,279.7,309.3,277.3,309.3 M247.6,309.3v-77H267l0.3,77H247.6z M273.1,317.8v9.6l-31.5-0.1l0-9.6H273.1z M321.3,214
		h31.5v9.7h-31.5V214z M327.4,309.3v-77h19.4l0.3,77H327.4z M352.9,317.8v9.7h-31.5l0-9.7H352.9z M256,124.8l78.4,57.2H177.7
		L256,124.8z M137.6,180.9c-0.2-0.6,0-1.3,0.6-1.7l112-81.8c3.5-2.6,8.3-2.6,11.8,0l112,81.8c0.6,0.3,0.8,1.1,0.6,1.7
		c-0.2,0.7-0.8,1.1-1.5,1.1h-24.1L258.5,116c-1.5-1.1-3.5-1.1-5.1,0L163.2,182H139C138.4,182,137.8,181.5,137.6,180.9 M362.6,190.5
		v14.9H149.4l0.1-14.9H362.6z M383.2,350.8h-12.1v-16.6c-0.1-3.8-3.2-6.8-7-6.8h-2.8v-14c0-2.4-1.9-4.3-4.3-4.3h-1.8v-77h1.8
		c2.4,0,4.3-1.9,4.3-4.3V214h5.5c2.4,0,4.3-1.9,4.3-4.3v-19.2h1.8c5.6-0.1,10.1-4.6,10-10.2c0-3.2-1.5-6.1-4-8l-112-81.8
		c-6.5-4.7-15.3-4.7-21.8,0l-112,81.8c-4.5,3.3-5.4,9.6-2.1,14.1c1.9,2.6,4.9,4.1,8.1,4.1h1.8v19.2c0,2.4,1.9,4.3,4.3,4.3h5.5v13.9
		c0,2.4,1.9,4.3,4.3,4.3h1.8v77h-1.8c-2.4,0-4.3,1.9-4.3,4.3v14h-2.8c-3.9,0-7,3.1-7,7v16.6h-12.1c-3.8,0-7,3.1-7,7v18.1
		c0,3.8,3.1,7,7,7h254.5c3.8,0,7-3.1,7-7v-18.4C390.2,354,387.1,350.9,383.2,350.8"/>
	<path class="st0" d="M139,179.6L139,179.6C139,179.6,139,179.6,139,179.6C139,179.6,139,179.6,139,179.6"/>
</g>
</svg>
