<?xml version="1.0" encoding="utf-8"?>
<!-- Generator: Adobe Illustrator 24.0.1, SVG Export Plug-In . SVG Version: 6.00 Build 0)  -->
<svg version="1.1" id="Camada_1" xmlns="http://www.w3.org/2000/svg" xmlns:xlink="http://www.w3.org/1999/xlink" x="0px" y="0px"
	 viewBox="0 0 512 512" style="enable-background:new 0 0 512 512;" xml:space="preserve">
<style type="text/css">
	.st0{fill:none;}
	.st1{fill:#6200FF;}
</style>
<g>
	<path class="st0" d="M400.3,441.8c-1.2-0.1-2.4-0.4-3.6-0.7c-7.1-1.8-13.1-6.3-16.8-12.5c-3.7-6.3-4.8-13.7-3-20.8
		c3.4-13.3,16.1-22.1,29.7-20.5c1.2,0.1,2.4,0.4,3.6,0.7c14.2,3.6,23,17.8,20.1,32c4.6-4.8,8.9-9.9,13-15c-0.3-1.4-0.7-2.8-1.2-4.2
		l-0.3-0.8l10.6-9.1l-4.9-8.2l-13,5l-0.6-0.7c-3.7-4.1-8-7.3-13-9.7l-0.8-0.4l1.1-13.9l-9.2-2.3l-5.7,12.8l-0.9,0
		c-5.4-0.3-10.7,0.5-15.8,2.3l-0.8,0.3l-9.1-10.7l-8.2,4.9l5.1,13.2l-0.7,0.6c-4,3.6-7.2,7.9-9.5,12.8l-0.4,0.8l-13.9-1.1l-2.3,9.2
		l12.8,5.7l0,0.9c-0.3,5.4,0.5,10.8,2.3,15.9l0.3,0.8l-10.6,9.1l4.9,8.2l13-5l0.6,0.7c3.6,4,7.9,7.2,12.7,9.5l0.8,0.4l-0.4,5.1
		c7.3-4.7,14.2-9.8,20.9-15.2C404.8,442.1,402.6,442.1,400.3,441.8z"/>
	<path class="st0" d="M77.4,117.3L78,118c3.7,4.1,8,7.3,13,9.7l0.8,0.4l-1.1,13.9l9.2,2.3l5.7-12.8l0.9,0c5.4,0.3,10.7-0.5,15.8-2.3
		l0.8-0.3l9.1,10.7l8.2-4.9l-5.1-13.2l0.7-0.6c4-3.6,7.2-7.9,9.5-12.8l0.4-0.8l13.9,1.1l2.3-9.2l-12.8-5.7l0-0.9
		c0.3-5.4-0.5-10.8-2.3-15.9l-0.3-0.8l10.6-9.1l-4.9-8.2l-13,5l-0.6-0.7c-3.3-3.7-7.3-6.7-11.7-9c-4.7,3-9.3,6.2-13.8,9.5
		c0.6,0.1,1.2,0.2,1.7,0.4c7.1,1.8,13.1,6.3,16.8,12.5c3.7,6.3,4.8,13.7,3,20.8c-3.4,13.3-16.1,22.1-29.7,20.5
		c-1.2-0.1-2.4-0.4-3.6-0.7c-11.7-3-19.8-13.2-20.6-24.6c-7.2,7.7-13.9,15.8-20,24.4l3.2,5.4L77.4,117.3z"/>
	<path class="st0" d="M65.8,418.2l-11,4.8l2.3,9.2l13.9-1l0.4,0.8c2.3,4.9,5.5,9.3,9.5,12.9l0.7,0.6l-5.1,13l8.2,4.9l9.1-10.6
		l0.8,0.3c3.5,1.3,7,2,10.7,2.3c-9.1-6.9-17.8-14.5-26.1-22.7C74.5,428.1,70,423.2,65.8,418.2z"/>
	<path class="st0" d="M126.3,42.2l0.2-2.9l-9.2-2.3l-5.7,12.8l-0.9-0.1c-5.4-0.3-10.8,0.4-15.9,2.3L94,52.1l-9-10.6l-8.2,4.9l5,12.9
		L81.1,60c-4.1,3.6-7.3,8-9.7,12.9l-0.4,0.8l-13.9-1.1l-2.3,9.2l12.8,5.7l0,0.9c-0.1,1.1-0.1,2.3,0,3.4c3.8-4.3,7.7-8.5,11.7-12.6
		C93.6,64.9,109.4,52.5,126.3,42.2z"/>
	<path class="st0" d="M113.2,433.3c0.8-0.2,1.7-0.5,2.5-0.8c8.9-3.5,13.9-13.2,11.6-22.5c-2.6-10.3-13-16.6-23.3-14
		c-0.8,0.2-1.7,0.5-2.5,0.8c-8.9,3.5-13.9,13.2-11.6,22.5C92.4,429.5,102.9,435.8,113.2,433.3z"/>
	<path class="st0" d="M60.9,373.3c1.9-0.8,4.1-0.8,6,0l8.3,3.3c2.1-1.8,4.3-3.4,6.6-4.9l-0.7-8.9c-0.3-4,2.3-7.6,6.2-8.6l5.4-1.3
		c18-46.5,54.6-82.7,101-100.3c-20.9-8-40.4-20-56.8-35.3c-19-17.6-34.1-39.6-43.7-63.6l1.9-0.8l-7.9-2c-3.9-1-6.5-4.6-6.2-8.6
		l0.7-8.8c-2.4-1.5-4.7-3.2-6.8-5l-8.3,3.2c-1.2,0.5-2.6,0.6-3.9,0.5c-2.6-0.3-4.8-1.7-6.1-4l-1.5-2.6
		C30.7,163.1,16.5,207.9,16.5,256c0,46.6,13.4,90.2,36.6,127.1l3.8-6.3C57.8,375.2,59.2,374,60.9,373.3z"/>
	<path class="st0" d="M406.7,455.5c3.5-0.3,7-1,10.4-2.2l0.8-0.3l9,10.6l8.2-4.9l-5-12.9l0.7-0.6c4.1-3.6,7.3-8,9.7-12.9l0.4-0.8
		l13.9,1.1l2.3-9.2l-11.1-4.9c-4.2,4.9-8.7,9.7-13.3,14.4C424.5,441,415.8,448.6,406.7,455.5z"/>
	<path class="st0" d="M263,131l0.9-0.2c5.3-1,10.3-3.1,14.8-6.1l0.7-0.5l11.4,8.2l6.8-6.7l-8.1-11.6l0.5-0.7c3-4.5,5.1-9.4,6.2-14.7
		l0.2-0.9l13.8-2.3l0.1-9.5l-13.8-2.4l-0.2-0.9c-1-5.3-3.1-10.3-6-14.9l-0.5-0.7l8.1-11.4l-6.7-6.8l-11.5,8l-0.7-0.5
		c-4.5-3-9.4-5.1-14.6-6.2l-0.9-0.2l-2.3-13.8l-9.5-0.1l-2.4,13.7l-0.9,0.2c-5.3,1-10.4,3-14.9,6l-0.7,0.5l-11.3-8.1l-6.8,6.7
		l7.9,11.4l-0.5,0.7c-3.1,4.5-5.2,9.5-6.3,14.9l-0.2,0.9l-13.8,2.3l-0.1,9.5l13.8,2.4l0.2,0.9c1,5.3,3,10.3,6,14.9l0.5,0.7
		l-8.1,11.4l6.7,6.8l11.5-8l0.7,0.5c4.5,3.1,9.6,5.2,14.9,6.3l0.9,0.2l2.3,13.8l9.5,0.1L263,131z M255.8,117.9
		c-15.1-0.1-27.3-12.5-27.2-27.6c0.1-13.7,10.4-25.3,23.9-27c1.2-0.2,2.4-0.2,3.7-0.2c7.3,0,14.2,2.9,19.3,8.1
		c5.1,5.2,8,12.1,7.9,19.4c-0.1,13.7-10.4,25.3-23.9,27C258.2,117.9,257,117.9,255.8,117.9z"/>
	<path class="st0" d="M255.9,433.8c0.9,0,1.7,0,2.6-0.2c9.5-1.2,16.7-9.4,16.8-19c0.1-10.6-8.5-19.3-19.1-19.4c-0.9,0-1.7,0-2.6,0.2
		c-9.5,1.2-16.7,9.4-16.8,19C236.7,425.1,245.3,433.8,255.9,433.8z"/>
	<path class="st0" d="M256,201.5c-26,0-47.4,20.2-49.4,45.7c0,0,0.1,0,0.1,0l-0.1,0.4c-0.1,1.2-0.1,2.3-0.1,3.5
		c0,7.4,1.7,14.8,5,21.6c4-9.2,12.2-16.4,22.3-19.6c-1.9-3.7-2.9-7.6-2.9-11.6c0-13.9,11.3-25.2,25.2-25.2
		c13.9,0,25.2,11.3,25.2,25.2c0,4-1,7.9-2.9,11.6c10.1,3.2,18.3,10.5,22.3,19.6c3.3-6.7,5-14.1,5-21.6
		C305.6,223.8,283.3,201.5,256,201.5z"/>
	<path class="st0" d="M370,452.5l-8.3,3.2c-1.2,0.5-2.6,0.6-3.9,0.5c-2.5-0.3-4.8-1.8-6.1-4l-6-10c-2.1-3.5-1.3-7.9,1.7-10.5
		l6.7-5.7c-0.6-2.7-1-5.4-1.2-8.2l-8.1-3.6c-3.7-1.6-5.6-5.7-4.6-9.6l2.9-11.3c1-3.9,4.6-6.5,8.6-6.2l8.8,0.7
		c1.4-2.3,3.1-4.5,4.9-6.5l-3.2-8.4c-1.4-3.8,0-8,3.5-10l10-6c1.6-0.9,3.4-1.3,5.2-1.1c2.1,0.2,4,1.3,5.3,2.8l5.8,6.8
		c2.7-0.6,5.4-1,8.1-1.2l3.6-8.1c1-2.2,2.8-3.7,4.9-4.5c-9.1-21.4-22.8-41-40-56.9c-15.5-14.4-33.8-25.8-53.5-33.3
		c-4.6,26.8-27,47.5-54.6,49.6v39.9l1.4,0c4,0,7.4,2.9,8.1,6.9l1.4,8.7c2.7,0.9,5.3,2,7.8,3.3l7.3-5.1c1.1-0.8,2.4-1.3,3.7-1.4
		c2.6-0.3,5.1,0.5,6.9,2.4l8.2,8.3c2.8,2.9,3.2,7.3,0.8,10.6l-5.2,7.2c1.2,2.5,2.3,5,3.1,7.7l8.7,1.5c4,0.7,6.8,4.1,6.8,8.2
		l-0.1,11.7c0,4-2.9,7.4-6.9,8.1l-8.7,1.4c-0.9,2.7-2,5.3-3.3,7.7l5,7.1c2.3,3.3,1.9,7.8-1,10.6l-8.3,8.2c-1.3,1.3-2.9,2.1-4.7,2.3
		c-2.1,0.3-4.1-0.3-5.8-1.5l-7.1-5.1c-2.5,1.2-5.1,2.3-7.7,3.1l-1.5,8.7c-0.6,3.6-3.5,6.3-7.1,6.7c-0.4,0-0.7,0.1-1.1,0.1l-11.7-0.1
		c-4,0-7.4-2.9-8.1-6.9l-1.4-8.8c-2.6-0.9-5.1-1.9-7.5-3.2l-7.3,5.1c-1.1,0.8-2.4,1.3-3.7,1.4c-2.5,0.3-5.1-0.6-6.9-2.4l-8.2-8.3
		c-2.8-2.9-3.2-7.3-0.8-10.6l5.2-7.2c-1.2-2.5-2.3-5-3.1-7.7l-8.7-1.5c-4-0.7-6.8-4.1-6.8-8.2l0.1-11.7c0-4,2.9-7.4,6.9-8.1l8.7-1.4
		c0.8-2.6,1.9-5.1,3.2-7.5L206,384c-2.3-3.3-1.9-7.8,1-10.6l8.3-8.2c1.3-1.3,2.9-2.1,4.8-2.3c2.1-0.3,4.1,0.3,5.8,1.5l7.3,5.2
		c2.4-1.2,5-2.3,7.6-3.1l1.6-8.8c0.7-3.9,4.1-6.8,8.2-6.8l0.9,0V311c-27.5-2.1-49.9-22.9-54.6-49.6c-42.2,16.1-75.8,48.5-93.5,90.2
		c2.1,0.7,4,2.3,4.9,4.5l3.5,8.1c2.8,0.2,5.6,0.6,8.3,1.2l5.8-6.7c0.9-1,2-1.8,3.2-2.3c2.4-0.9,5.1-0.7,7.3,0.6l10,6
		c3.5,2.1,4.9,6.3,3.4,10.1l-3.2,8.2c1.8,2.1,3.5,4.3,4.9,6.7l8.8-0.7c4-0.3,7.6,2.3,8.6,6.2l2.8,11.3c1,3.9-1,7.9-4.7,9.5L159,418
		c-0.2,2.8-0.6,5.6-1.3,8.3l6.6,5.7c3.1,2.6,3.8,7,1.7,10.5l-6,10c-0.9,1.6-2.3,2.7-4,3.4c-1.9,0.8-4.1,0.8-6,0l-8.2-3.2
		c-2.1,1.8-4.3,3.5-6.7,4.9l0.4,5.2c35.4,20.8,76.7,32.7,120.6,32.7c43.7,0,84.7-11.8,120.1-32.3l0.5-5.8
		C374.2,455.9,372,454.3,370,452.5z"/>
	<path class="st0" d="M266.4,261.7c-2.9,0-5.3-2.4-5.3-5.3c0-3.1,2.8-5.4,5.8-5.2c2.4-2.7,3.8-6.1,3.8-9.7c0-8.1-6.6-14.7-14.7-14.7
		c-8.1,0-14.7,6.6-14.7,14.7c0,3.6,1.3,7,3.8,9.7c3.1-0.2,5.8,2.2,5.8,5.2c0,2.9-2.4,5.3-5.3,5.3c-13.9,0-25.6,10.1-26.4,22.6
		c9.4,10.4,22.8,16.4,36.7,16.4c14,0,27.3-6,36.8-16.4C292,271.8,280.3,261.7,266.4,261.7z"/>
	<path class="st0" d="M125.8,451.8c4.9-2.3,9.3-5.5,13-9.5l0.6-0.6l12.9,5.1l4.9-8.2l-10.5-9.1l0.3-0.8c1.9-5.1,2.7-10.5,2.4-16
		l0-0.9l12.8-5.6l-2.3-9.2l-13.9,1l-0.4-0.8c-2.3-4.9-5.5-9.2-9.5-12.9l-0.7-0.6l5.1-13l-8.2-4.9l-9.1,10.6l-0.8-0.3
		c-5.2-1.9-10.5-2.7-16-2.4l-0.9,0l-5.6-12.8l-9.2,2.3l1,14l-0.8,0.4c-4.9,2.3-9.2,5.5-12.8,9.5l-0.6,0.7l-13.1-5.1l-4.9,8.2
		l10.7,9.2l-0.3,0.8c-0.5,1.4-0.9,2.8-1.3,4.3c4.1,5.2,8.5,10.2,13,15c-2.6-12.9,4.4-26.1,16.8-31c1.1-0.4,2.3-0.8,3.5-1.1
		c14.7-3.6,29.6,5.3,33.2,20c3.3,13.3-3.8,27.1-16.5,32.1c-1.1,0.4-2.3,0.8-3.5,1.1c-3.4,0.8-6.8,1-10.1,0.6
		c6.5,5.3,13.3,10.3,20.4,14.9l-0.3-4.5L125.8,451.8z"/>
	<path class="st0" d="M249,374.2l-0.9,0.2c-5.3,1-10.3,3.1-14.8,6.1l-0.7,0.5l-11.4-8.2l-6.8,6.7l8.1,11.6l-0.5,0.7
		c-3,4.5-5.1,9.4-6.2,14.7l-0.2,0.9l-13.8,2.3l-0.1,9.5l13.8,2.4l0.2,0.9c1,5.3,3.1,10.3,6,14.9l0.5,0.7l-8.1,11.4l6.7,6.8l11.5-8
		l0.7,0.5c4.5,3,9.4,5.1,14.6,6.2l0.9,0.2l2.3,13.8l9.5,0.1l2.4-13.7l0.9-0.2c5.3-1,10.4-3,14.9-6l0.7-0.5l11.3,8.1l6.8-6.7
		l-7.9-11.4l0.5-0.7c3.1-4.5,5.2-9.5,6.3-14.9l0.2-0.9l13.8-2.3l0.1-9.5l-13.8-2.4l-0.2-0.9c-1-5.3-3-10.3-6-14.9l-0.5-0.7l8.1-11.4
		l-6.7-6.8l-11.5,8l-0.7-0.5c-4.5-3.1-9.6-5.2-14.9-6.3l-0.9-0.2l-2.3-13.8l-9.5-0.1L249,374.2z M256.2,387.2
		c15.1,0.1,27.3,12.5,27.2,27.6c-0.1,13.7-10.4,25.3-23.9,27c-1.2,0.2-2.4,0.2-3.7,0.2c-7.3,0-14.2-2.9-19.3-8.1
		c-5.1-5.2-8-12.1-7.9-19.4c0.1-13.7,10.4-25.3,23.9-27C253.7,387.3,254.9,387.2,256.2,387.2z"/>
	<path class="st0" d="M116.8,468.4l5.1-1.3c-2.7-1.7-5.4-3.5-8-5.3L116.8,468.4z"/>
	<path class="st0" d="M451.1,131.8c-1.9,0.8-4.1,0.8-6,0l-8.3-3.3c-2.1,1.8-4.3,3.4-6.6,4.9l0.7,8.9c0.3,4-2.3,7.6-6.2,8.6l-5.4,1.3
		c-18,46.5-54.6,82.7-101,100.3c20.9,8,40.4,20,56.8,35.3c19,17.6,34.1,39.6,43.7,63.6l-1.9,0.8l7.9,2c3.9,1,6.5,4.6,6.2,8.6
		l-0.7,8.8c2.4,1.5,4.7,3.2,6.8,5l8.3-3.2c1.2-0.5,2.6-0.6,3.9-0.5c2.6,0.3,4.8,1.7,6.1,4l3.7,6.2c23.2-36.9,36.6-80.5,36.6-127.2
		c0-48.1-14.2-92.9-38.7-130.4l-1.7,2.8C454.2,129.9,452.8,131.1,451.1,131.8z"/>
	<path class="st0" d="M444.4,91.7c0-1,0-2.1,0-3.1l0-0.9l12.8-5.6l-2.3-9.2l-13.9,1l-0.4-0.8c-2.3-4.9-5.5-9.3-9.5-12.9l-0.7-0.6
		l5.1-13l-8.2-4.9l-9.1,10.6l-0.8-0.3c-5.1-1.8-10.4-2.6-15.7-2.4l-0.9,0l-5.6-12.8l-9.2,2.3l0.3,3.4c16.7,10.2,32.4,22.5,46.6,36.8
		C436.8,83.3,440.7,87.4,444.4,91.7z"/>
	<path class="st0" d="M408.2,396c-0.8-0.2-1.7-0.4-2.5-0.5c-9.5-1.1-18.5,5.1-20.8,14.4c-2.6,10.3,3.6,20.8,13.9,23.4
		c0.8,0.2,1.7,0.4,2.5,0.5c9.5,1.1,18.5-5.1,20.8-14.4C424.7,409.1,418.5,398.6,408.2,396z"/>
	<path class="st0" d="M398.8,71.9c-0.8,0.2-1.7,0.5-2.5,0.8c-8.9,3.5-13.9,13.2-11.6,22.5c2.6,10.3,13,16.6,23.3,14
		c0.8-0.2,1.7-0.5,2.5-0.8c8.9-3.5,13.9-13.2,11.6-22.5c-0.3-1.2-0.7-2.4-1.2-3.5c-3.7-3.5-7.4-6.8-11.3-10.1
		C406.2,71.2,402.5,70.9,398.8,71.9z"/>
	<path class="st0" d="M394.6,468.3l2.6-5.9c-2.4,1.6-4.8,3.2-7.2,4.8L394.6,468.3z"/>
	<path class="st0" d="M256.1,71.3c-0.9,0-1.7,0-2.6,0.2c-9.5,1.2-16.7,9.4-16.8,19c-0.1,10.6,8.5,19.3,19.1,19.4
		c0.9,0,1.7,0,2.6-0.2c9.5-1.2,16.7-9.4,16.8-19C275.3,80,266.7,71.4,256.1,71.3z"/>
	<path class="st0" d="M103.8,109.2c0.8,0.2,1.7,0.4,2.5,0.5c9.5,1.1,18.5-5.1,20.8-14.4c2.6-10.3-3.6-20.8-13.9-23.4
		c-0.8-0.2-1.7-0.4-2.5-0.5c-2.8-0.3-5.6,0-8.2,0.8C98.6,75.6,94.7,79,91,82.5c-0.5,1-0.9,2.1-1.2,3.3
		C87.2,96.1,93.5,106.6,103.8,109.2z"/>
	<path class="st0" d="M150.2,49.5c1.2-0.5,2.6-0.6,3.9-0.5c2.5,0.3,4.8,1.8,6.1,4l6,10c2.1,3.5,1.3,7.9-1.7,10.5l-6.7,5.7
		c0.6,2.7,1,5.4,1.2,8.2L167,91c3.7,1.6,5.6,5.7,4.6,9.6l-2.9,11.3c-1,3.9-4.6,6.5-8.6,6.2l-8.8-0.7c-1.4,2.3-3.1,4.5-4.9,6.5
		l3.2,8.4c1.4,3.8,0,8-3.5,10l-10,6c-1.6,0.9-3.4,1.3-5.2,1.1c-2.1-0.2-4-1.2-5.3-2.8l-5.8-6.8c-2.7,0.6-5.4,1-8.1,1.2l-3.6,8.1
		c-1,2.2-2.8,3.7-4.9,4.5c9.1,21.4,22.8,41,40,56.9c15.4,14.3,33.6,25.6,53.1,33.2c3.5-28.1,26.5-50.2,54.9-52.4v-37l-1.4,0
		c-4,0-7.4-2.9-8.1-6.9l-1.4-8.7c-2.7-0.9-5.3-2-7.8-3.3l-7.3,5.1c-1.1,0.8-2.4,1.3-3.7,1.4c-2.6,0.3-5.1-0.5-6.9-2.4l-8.2-8.3
		c-2.8-2.9-3.2-7.3-0.8-10.6l5.2-7.2c-1.2-2.5-2.3-5-3.1-7.7l-8.7-1.5c-4-0.7-6.8-4.1-6.8-8.2l0.1-11.7c0-4,2.9-7.4,6.9-8.1l8.7-1.4
		c0.9-2.7,2-5.3,3.3-7.7l-5-7.1c-2.3-3.3-1.9-7.8,1-10.6l8.3-8.2c1.3-1.3,2.9-2.1,4.8-2.3c2.1-0.3,4.1,0.3,5.8,1.5l7.1,5.1
		c2.5-1.2,5.1-2.3,7.7-3.1l1.5-8.7c0.6-3.6,3.5-6.3,7.1-6.7c0.4,0,0.7-0.1,1.1-0.1l11.7,0.1c4,0,7.4,2.9,8.1,6.9l1.4,8.8
		c2.6,0.8,5.1,1.9,7.5,3.2l7.3-5.1c1.1-0.8,2.4-1.3,3.7-1.4c2.5-0.3,5.1,0.6,6.9,2.4l8.2,8.3c2.8,2.9,3.2,7.3,0.8,10.6l-5.2,7.2
		c1.2,2.5,2.3,5,3.1,7.7l8.7,1.5c4,0.7,6.8,4.1,6.8,8.2l-0.1,11.7c0,4-2.9,7.4-6.9,8.1l-8.7,1.4c-0.8,2.6-1.9,5.1-3.2,7.5l5.2,7.4
		c2.3,3.3,1.9,7.8-1,10.6l-8.3,8.2c-1.3,1.3-2.9,2.1-4.8,2.3c-2.1,0.3-4.1-0.3-5.8-1.5l-7.3-5.2c-2.4,1.2-5,2.3-7.6,3.1l-1.6,8.8
		c-0.7,3.9-4.1,6.8-8.2,6.8l-0.9,0v36.9c28.5,2.2,51.5,24.3,55,52.4c42-16.2,75.4-48.5,93-90c-2.1-0.7-4-2.3-4.9-4.5l-3.5-8.1
		c-2.8-0.2-5.6-0.6-8.3-1.2l-5.8,6.7c-0.9,1-2,1.8-3.2,2.3c-2.4,1-5.1,0.7-7.3-0.6l-10-6c-3.5-2.1-4.9-6.3-3.4-10.1l3.2-8.2
		c-1.8-2.1-3.5-4.3-4.9-6.7l-8.8,0.7c-4,0.3-7.6-2.3-8.6-6.2l-2.8-11.3c-1-3.9,1-7.9,4.7-9.5l8.1-3.5c0.2-2.8,0.6-5.6,1.3-8.3
		l-6.6-5.7c-3.1-2.6-3.8-7-1.7-10.5l6-10c0.9-1.6,2.3-2.7,4-3.4c1.9-0.8,4.1-0.8,6,0l8.2,3.2c1.6-1.4,3.4-2.7,5.2-4
		c-35.2-20.3-76-32-119.5-32c-43.5,0-84.3,11.7-119.5,32c1.9,1.3,3.7,2.7,5.4,4.2L150.2,49.5z"/>
	<path class="st0" d="M373.1,62.9l-0.6,0.7l-12.9-5.1l-4.9,8.2l10.5,9.1l-0.3,0.8c-1.9,5.1-2.7,10.5-2.4,16l0,0.9L349.7,99l2.3,9.2
		l13.9-1l0.4,0.8c2.3,4.9,5.5,9.2,9.5,12.9l0.7,0.6l-5.1,13l8.2,4.9l9.1-10.6l0.8,0.3c5.2,1.9,10.5,2.7,16,2.4l0.9,0l5.6,12.8
		l9.2-2.3l-1-14l0.8-0.4c4.9-2.3,9.2-5.5,12.8-9.5l0.6-0.7l13.1,5.1l3.4-5.6c-2.7-3.8-5.6-7.6-8.6-11.2l-0.6-0.5l0.1-0.2
		c-3.5-4.3-7.2-8.6-11-12.6c-0.7,10.3-7.2,19.7-17.2,23.6c-1.1,0.4-2.3,0.8-3.5,1.1c-14.7,3.6-29.6-5.3-33.2-20
		c-3.3-13.3,3.8-27.1,16.5-32.1c1.1-0.4,2.3-0.8,3.5-1.1c0.6-0.1,1.1-0.2,1.7-0.4c-4.5-3.3-9.1-6.5-13.8-9.5
		C380.3,56.3,376.5,59.2,373.1,62.9z"/>
	<path class="st1" d="M452.4,114.4l-10.1-8.7c3,3.7,5.8,7.4,8.6,11.2L452.4,114.4z"/>
	<path class="st1" d="M453.6,102.9c-0.3-0.4-0.6-0.8-0.9-1.2c0,0.1,0,0.2-0.1,0.3L453.6,102.9z"/>
	<path class="st1" d="M136.1,38.9l-0.7,8.9c0.4,0.2,0.7,0.5,1.1,0.7c35.2-20.3,76-32,119.5-32c43.5,0,84.3,11.6,119.5,32
		c0.5-0.3,1-0.7,1.5-1l-0.6-8.8c0-0.6,0-1.3,0.1-1.9C340,16.7,298.8,6,256,6c-42.6,0-83.6,10.6-120,30.6
		C136.2,37.3,136.2,38.1,136.1,38.9z"/>
	<path class="st1" d="M52.5,397.3c-3.1-2.6-3.8-7-1.7-10.5l2.2-3.7C29.9,346.2,16.5,302.6,16.5,256c0-48.1,14.2-92.9,38.7-130.4
		l-4.5-7.5c-0.6-1-1-2.2-1.1-3.3C21.3,156,6,204.8,6,256c0,56.1,18.4,109.4,52.3,153.1c0.2-2,0.6-4,1-5.9L52.5,397.3z"/>
	<path class="st1" d="M456.8,125.6c24.5,37.6,38.7,82.4,38.7,130.4c0,46.7-13.4,90.3-36.6,127.2l2.3,3.9c2.1,3.5,1.3,7.9-1.7,10.5
		l-6.7,5.7c0.4,1.9,0.8,3.8,1,5.8C487.6,365.4,506,312.1,506,256c0-51.2-15.3-100-43.7-141.3c-0.1,1.3-0.5,2.5-1.2,3.7L456.8,125.6z
		"/>
	<path class="st1" d="M375.8,466.2l0.2-3c-35.3,20.5-76.3,32.3-120.1,32.3c-44,0-85.2-11.9-120.6-32.7l0.3,3.6
		c0.2,2.8-1,5.4-3.1,7.1C169.8,494.7,212,506,256,506c43.9,0,86.1-11.3,123.3-32.4C377,472,375.6,469.2,375.8,466.2z"/>
	<path class="st1" d="M59.2,101.8c-0.1,0.1-0.2,0.2-0.3,0.3L59.2,101.8C59.2,101.8,59.2,101.8,59.2,101.8z"/>
	<path class="st1" d="M228.6,414.4c0,7.3,2.8,14.2,7.9,19.4c5.1,5.2,12,8.1,19.3,8.1c1.2,0,2.5-0.1,3.7-0.2
		c13.5-1.7,23.8-13.3,23.9-27c0.1-15.1-12.1-27.5-27.2-27.6c-1.2,0-2.5,0.1-3.7,0.2C239,389.1,228.7,400.8,228.6,414.4z
		 M253.5,395.5c0.8-0.1,1.7-0.2,2.6-0.2c10.6,0.1,19.2,8.7,19.1,19.4c-0.1,9.6-7.3,17.8-16.8,19c-0.8,0.1-1.7,0.2-2.6,0.2
		c-10.6-0.1-19.2-8.7-19.1-19.4C236.8,404.9,244,396.7,253.5,395.5z"/>
	<path class="st1" d="M116.8,468.4l-2.9-6.6c-2.9-2-5.8-4.1-8.6-6.3c-3.6-0.3-7.2-1-10.7-2.3l-0.8-0.3l-9.1,10.6l-8.2-4.9l5.1-13
		l-0.7-0.6c-4-3.7-7.2-8-9.5-12.9l-0.4-0.8l-13.9,1l-2.3-9.2l11-4.8c-2.6-3-5.1-6.1-7.5-9.2c-0.1,0.7-0.1,1.4-0.2,2.1l-8.1,3.6
		c-3.7,1.6-5.7,5.6-4.7,9.5l2.8,11.3c1,3.9,4.6,6.5,8.6,6.2l8.8-0.7c1.4,2.3,3.1,4.6,4.9,6.7l-3.2,8.2c-1.5,3.8,0,8,3.4,10.1l10,6
		c2.2,1.3,4.9,1.5,7.3,0.6c1.2-0.5,2.4-1.3,3.2-2.3l5.8-6.7c2.6,0.6,5.3,1,8,1.2l3.6,8.1c1.6,3.7,5.6,5.7,9.5,4.7l11.3-2.8
		c0.4-0.1,0.7-0.2,1-0.3c0.8-0.3,1.5-0.7,2.1-1.2c-3.6-2-7.1-4.2-10.6-6.4L116.8,468.4z"/>
	<path class="st1" d="M442.3,105.7c-0.2-0.2-0.4-0.4-0.5-0.7l-0.1,0.2L442.3,105.7z"/>
	<path class="st1" d="M385.7,451.6c-4.8-2.3-9.1-5.5-12.7-9.5l-0.6-0.7l-13,5l-4.9-8.2l10.6-9.1l-0.3-0.8
		c-1.8-5.1-2.6-10.5-2.3-15.9l0-0.9l-12.8-5.7l2.3-9.2l13.9,1.1l0.4-0.8c2.3-4.9,5.5-9.2,9.5-12.8l0.7-0.6l-5.1-13.2l8.2-4.9
		l9.1,10.7l0.8-0.3c5.1-1.8,10.4-2.6,15.8-2.3l0.9,0l5.7-12.8l9.2,2.3l-1.1,13.9l0.8,0.4c4.9,2.3,9.3,5.6,13,9.7l0.6,0.7l13-5
		l4.9,8.2l-10.6,9.1l0.3,0.8c0.5,1.4,0.9,2.8,1.2,4.2c5.6-7,10.8-14.3,15.5-21.9l-3.7-6.2c-1.3-2.2-3.6-3.7-6.1-4
		c-1.3-0.2-2.7,0-3.9,0.5l-8.3,3.2c-2.1-1.9-4.4-3.5-6.8-5l0.7-8.8c0.3-4-2.3-7.7-6.2-8.6l-7.9-2l1.9-0.8c-9.6-24-24.7-46-43.7-63.6
		c-16.5-15.3-35.9-27.3-56.8-35.3c46.4-17.6,82.9-53.8,101-100.3l5.4-1.3c3.9-1,6.5-4.6,6.2-8.6l-0.7-8.9c2.3-1.4,4.5-3.1,6.6-4.9
		l8.3,3.3c1.9,0.8,4.1,0.8,6,0c1.7-0.7,3.1-1.9,4-3.4l1.7-2.8c-1.9-2.9-3.9-5.8-5.9-8.7l-3.4,5.6l-13.1-5.1l-0.6,0.7
		c-3.6,4-8,7.2-12.8,9.5l-0.8,0.4l1,14l-9.2,2.3l-5.6-12.8l-0.9,0c-5.5,0.3-10.8-0.5-16-2.4l-0.8-0.3l-9.1,10.6l-8.2-4.9l5.1-13
		l-0.7-0.6c-4-3.7-7.2-8-9.5-12.9l-0.4-0.8l-13.9,1l-2.3-9.2l12.8-5.6l0-0.9c-0.3-5.5,0.6-10.8,2.4-16l0.3-0.8l-10.5-9.1l4.9-8.2
		l12.9,5.1l0.6-0.7c3.3-3.6,7.2-6.6,11.5-8.8c-3-1.9-6.1-3.8-9.2-5.6c-1.8,1.2-3.6,2.5-5.2,4l-8.2-3.2c-1.9-0.8-4.1-0.8-6,0
		c-1.7,0.7-3.1,1.9-4,3.4l-6,10c-2.1,3.4-1.4,7.9,1.7,10.5l6.6,5.7c-0.7,2.7-1.1,5.5-1.3,8.3l-8.1,3.5c-3.7,1.6-5.7,5.6-4.7,9.5
		l2.8,11.3c1,3.9,4.6,6.5,8.6,6.2l8.8-0.7c1.4,2.3,3.1,4.6,4.9,6.7l-3.2,8.2c-1.5,3.7,0,8,3.4,10.1l10,6c2.2,1.3,4.9,1.6,7.3,0.6
		c1.2-0.5,2.4-1.3,3.2-2.3l5.8-6.7c2.7,0.6,5.5,1.1,8.3,1.2l3.5,8.1c1,2.2,2.8,3.8,4.9,4.5c-17.6,41.5-51,73.8-93,90
		c-3.5-28.1-26.5-50.2-55-52.4v-36.9l0.9,0c4,0,7.5-2.9,8.2-6.8l1.6-8.8c2.6-0.8,5.2-1.9,7.6-3.1l7.3,5.2c1.7,1.2,3.8,1.7,5.8,1.5
		c1.8-0.2,3.5-1,4.8-2.3l8.3-8.2c2.9-2.8,3.3-7.3,1-10.6l-5.2-7.4c1.3-2.4,2.3-4.9,3.2-7.5l8.7-1.4c4-0.7,6.9-4.1,6.9-8.1l0.1-11.7
		c0-4-2.8-7.5-6.8-8.2l-8.7-1.5c-0.8-2.6-1.9-5.2-3.1-7.7l5.2-7.2c2.3-3.3,2-7.7-0.8-10.6l-8.2-8.3c-1.8-1.8-4.4-2.7-6.9-2.4
		c-1.3,0.2-2.6,0.7-3.7,1.4l-7.3,5.1c-2.4-1.2-4.9-2.3-7.5-3.2l-1.4-8.8c-0.7-4-4.1-6.9-8.1-6.9l-11.7-0.1c-0.4,0-0.7,0-1.1,0.1
		c-3.6,0.5-6.4,3.2-7.1,6.7l-1.5,8.7c-2.7,0.8-5.2,1.9-7.7,3.1l-7.1-5.1c-1.7-1.2-3.8-1.7-5.8-1.5c-1.8,0.2-3.5,1-4.8,2.3l-8.3,8.2
		c-2.9,2.8-3.3,7.3-1,10.6l5,7.1c-1.3,2.5-2.4,5.1-3.3,7.7l-8.7,1.4c-4,0.7-6.9,4.1-6.9,8.1L192.2,96c0,4,2.8,7.5,6.8,8.2l8.7,1.5
		c0.8,2.6,1.9,5.2,3.1,7.7l-5.2,7.2c-2.3,3.3-2,7.7,0.8,10.6l8.2,8.3c1.8,1.8,4.3,2.7,6.9,2.4c1.3-0.2,2.6-0.7,3.7-1.4l7.3-5.1
		c2.5,1.3,5.1,2.4,7.8,3.3l1.4,8.7c0.7,4,4.1,6.9,8.1,6.9l1.4,0v37c-28.5,2.2-51.4,24.3-54.9,52.4c-19.5-7.5-37.7-18.9-53.1-33.2
		c-17.1-15.9-30.9-35.5-40-56.9c2.1-0.7,3.9-2.3,4.9-4.5l3.6-8.1c2.7-0.2,5.5-0.6,8.1-1.2l5.8,6.8c1.4,1.6,3.2,2.6,5.3,2.8
		c1.8,0.2,3.6-0.2,5.2-1.1l10-6c3.5-2.1,4.9-6.3,3.5-10l-3.2-8.4c1.8-2,3.4-4.2,4.9-6.5l8.8,0.7c4,0.3,7.7-2.3,8.6-6.2l2.9-11.3
		c1-3.9-1-7.9-4.6-9.6l-8.1-3.6c-0.2-2.8-0.6-5.5-1.2-8.2l6.7-5.7c3.1-2.6,3.8-7,1.7-10.5l-6-10c-1.3-2.2-3.6-3.7-6.1-4
		c-1.3-0.2-2.7,0-3.9,0.5l-8.3,3.2c-1.7-1.5-3.5-2.9-5.4-4.2c-3.1,1.8-6.2,3.7-9.2,5.6c4.4,2.3,8.4,5.3,11.7,9l0.6,0.7l13-5l4.9,8.2
		L146.8,76l0.3,0.8c1.8,5.1,2.6,10.5,2.3,15.9l0,0.9l12.8,5.7l-2.3,9.2l-13.9-1.1l-0.4,0.8c-2.3,4.9-5.5,9.2-9.5,12.8l-0.7,0.6
		l5.1,13.2l-8.2,4.9l-9.1-10.7l-0.8,0.3c-5.1,1.8-10.4,2.6-15.8,2.3l-0.9,0l-5.7,12.8l-9.2-2.3l1.1-13.9l-0.8-0.4
		c-4.9-2.3-9.3-5.6-13-9.7l-0.6-0.7l-13,5l-3.2-5.4c-2,2.8-4,5.7-5.9,8.7l1.5,2.6c1.3,2.2,3.6,3.7,6.1,4c1.3,0.2,2.7,0,3.9-0.5
		l8.3-3.2c2.1,1.9,4.4,3.5,6.8,5l-0.7,8.8c-0.3,4,2.3,7.6,6.2,8.6l7.9,2l-1.9,0.8c9.6,24,24.7,46,43.7,63.6
		c16.5,15.3,35.9,27.3,56.8,35.3c-46.4,17.6-82.9,53.8-101,100.3l-5.4,1.3c-3.9,1-6.5,4.6-6.2,8.6l0.7,8.9c-2.3,1.4-4.5,3.1-6.6,4.9
		l-8.3-3.3c-1.9-0.8-4.1-0.8-6,0c-1.7,0.7-3.1,1.9-4,3.4l-3.8,6.3c4.8,7.6,10,15,15.6,22c0.3-1.4,0.8-2.9,1.3-4.3l0.3-0.8l-10.7-9.2
		l4.9-8.2l13.1,5.1l0.6-0.7c3.6-4,8-7.2,12.8-9.5l0.8-0.4l-1-14l9.2-2.3l5.6,12.8l0.9,0c5.5-0.3,10.8,0.5,16,2.4l0.8,0.3l9.1-10.6
		l8.2,4.9l-5.1,13l0.7,0.6c4,3.7,7.2,8,9.5,12.9l0.4,0.8l13.9-1l2.3,9.2l-12.8,5.6l0,0.9c0.3,5.5-0.6,10.8-2.4,16l-0.3,0.8l10.5,9.1
		l-4.9,8.2l-12.9-5.1l-0.6,0.6c-3.7,4-8,7.2-13,9.5l-0.8,0.4l0.3,4.5c3.3,2.1,6.6,4.2,10,6.2l-0.4-5.2c2.4-1.5,4.6-3.1,6.7-4.9
		l8.2,3.2c1.9,0.8,4.1,0.8,6,0c1.7-0.7,3.1-1.9,4-3.4l6-10c2.1-3.4,1.4-7.9-1.7-10.5l-6.6-5.7c0.7-2.7,1.1-5.5,1.3-8.3l8.1-3.5
		c3.7-1.6,5.7-5.6,4.7-9.5l-2.8-11.3c-1-3.9-4.6-6.5-8.6-6.2l-8.8,0.7c-1.4-2.4-3.1-4.6-4.9-6.7l3.2-8.2c1.5-3.8,0-8-3.4-10.1l-10-6
		c-2.2-1.3-4.9-1.6-7.3-0.6c-1.2,0.5-2.4,1.3-3.2,2.3l-5.8,6.7c-2.7-0.6-5.5-1.1-8.3-1.2l-3.5-8.1c-1-2.2-2.8-3.8-4.9-4.5
		c17.6-41.7,51.2-74.1,93.5-90.2c4.6,26.8,27,47.5,54.6,49.6v39.8l-0.9,0c-4,0-7.5,2.9-8.2,6.8l-1.6,8.8c-2.6,0.8-5.2,1.9-7.6,3.1
		l-7.3-5.2c-1.7-1.2-3.8-1.7-5.8-1.5c-1.8,0.2-3.5,1-4.8,2.3l-8.3,8.2c-2.9,2.8-3.3,7.3-1,10.6l5.2,7.4c-1.3,2.4-2.3,4.9-3.2,7.5
		l-8.7,1.4c-4,0.7-6.9,4.1-6.9,8.1l-0.1,11.7c0,4,2.8,7.5,6.8,8.2l8.7,1.5c0.8,2.6,1.9,5.2,3.1,7.7l-5.2,7.2
		c-2.3,3.3-2,7.7,0.8,10.6l8.2,8.3c1.8,1.8,4.4,2.7,6.9,2.4c1.3-0.2,2.6-0.7,3.7-1.4l7.3-5.1c2.4,1.2,4.9,2.3,7.5,3.2l1.4,8.8
		c0.7,4,4.1,6.9,8.1,6.9l11.7,0.1c0.4,0,0.7,0,1.1-0.1c3.6-0.5,6.4-3.2,7.1-6.7l1.5-8.7c2.7-0.8,5.3-1.9,7.7-3.1l7.1,5.1
		c1.7,1.2,3.8,1.7,5.8,1.5c1.8-0.2,3.5-1,4.7-2.3l8.3-8.2c2.9-2.8,3.3-7.3,1-10.6l-5-7.1c1.3-2.5,2.4-5.1,3.3-7.7l8.7-1.4
		c4-0.7,6.9-4.1,6.9-8.1l0.1-11.7c0-4-2.8-7.5-6.8-8.2l-8.7-1.5c-0.8-2.6-1.9-5.2-3.1-7.7l5.2-7.2c2.3-3.3,2-7.7-0.8-10.6l-8.2-8.3
		c-1.8-1.8-4.3-2.7-6.9-2.4c-1.3,0.2-2.6,0.7-3.7,1.4l-7.3,5.1c-2.5-1.3-5.1-2.4-7.8-3.3l-1.4-8.7c-0.7-4-4.1-6.9-8.1-6.9l-1.4,0
		V311c27.5-2.1,49.9-22.9,54.6-49.6c19.7,7.5,38,18.9,53.5,33.3c17.1,15.9,30.9,35.5,40,56.9c-2.1,0.7-3.9,2.3-4.9,4.5l-3.6,8.1
		c-2.7,0.2-5.5,0.6-8.1,1.2l-5.8-6.8c-1.4-1.6-3.2-2.6-5.3-2.8c-1.8-0.2-3.6,0.2-5.2,1.1l-10,6c-3.5,2.1-4.9,6.3-3.5,10l3.2,8.4
		c-1.8,2-3.4,4.2-4.9,6.5l-8.8-0.7c-4-0.3-7.7,2.3-8.6,6.2l-2.9,11.3c-1,3.9,1,7.9,4.6,9.6l8.1,3.6c0.2,2.8,0.6,5.5,1.2,8.2
		l-6.7,5.7c-3.1,2.6-3.8,7-1.7,10.5l6,10c1.3,2.2,3.6,3.7,6.1,4c1.3,0.2,2.7,0,3.9-0.5l8.3-3.2c2,1.8,4.2,3.4,6.5,4.9l-0.5,5.8
		c3.4-2,6.7-4,10-6.2l0.4-5.1L385.7,451.6z M251,144.7l-2.3-13.8l-0.9-0.2c-5.4-1.1-10.4-3.2-14.9-6.3l-0.7-0.5l-11.5,8l-6.7-6.8
		l8.1-11.4l-0.5-0.7c-3-4.5-5-9.5-6-14.9l-0.2-0.9L201.8,95l0.1-9.5l13.8-2.3l0.2-0.9c1.1-5.4,3.2-10.4,6.3-14.9l0.5-0.7l-7.9-11.4
		l6.8-6.7l11.3,8.1l0.7-0.5c4.6-3,9.6-5,14.9-6l0.9-0.2l2.4-13.7l9.5,0.1l2.3,13.8l0.9,0.2c5.3,1.1,10.2,3.2,14.6,6.2l0.7,0.5
		l11.5-8l6.7,6.8l-8.1,11.4l0.5,0.7c3,4.5,5,9.5,6,14.9l0.2,0.9l13.8,2.4l-0.1,9.5l-13.8,2.3l-0.2,0.9c-1.1,5.3-3.1,10.2-6.2,14.7
		l-0.5,0.7l8.1,11.6l-6.8,6.7l-11.4-8.2l-0.7,0.5c-4.5,3-9.5,5-14.8,6.1L263,131l-2.4,13.8L251,144.7z M261,360.5l2.3,13.8l0.9,0.2
		c5.4,1.1,10.4,3.2,14.9,6.3l0.7,0.5l11.5-8l6.7,6.8l-8.1,11.4l0.5,0.7c3,4.5,5,9.5,6,14.9l0.2,0.9l13.8,2.4l-0.1,9.5l-13.8,2.3
		l-0.2,0.9c-1.1,5.4-3.2,10.4-6.3,14.9l-0.5,0.7l7.9,11.4l-6.8,6.7l-11.3-8.1l-0.7,0.5c-4.6,3-9.6,5-14.9,6l-0.9,0.2l-2.4,13.7
		l-9.5-0.1l-2.3-13.8l-0.9-0.2c-5.3-1.1-10.2-3.2-14.6-6.2l-0.7-0.5l-11.5,8l-6.7-6.8l8.1-11.4l-0.5-0.7c-3-4.5-5-9.5-6-14.9
		l-0.2-0.9l-13.8-2.4l0.1-9.5l13.8-2.3l0.2-0.9c1.1-5.3,3.1-10.2,6.2-14.7l0.5-0.7l-8.1-11.6l6.8-6.7l11.4,8.2l0.7-0.5
		c4.5-3,9.5-5,14.8-6.1l0.9-0.2l2.4-13.8L261,360.5z M256,300.7c-14,0-27.3-6-36.7-16.4c0.8-12.5,12.5-22.6,26.4-22.6
		c2.9,0,5.3-2.4,5.3-5.3c0-3.1-2.8-5.4-5.8-5.2c-2.4-2.7-3.8-6.2-3.8-9.7c0-8.1,6.6-14.7,14.7-14.7c8.1,0,14.7,6.6,14.7,14.7
		c0,3.6-1.3,7-3.8,9.7c-3-0.2-5.8,2.2-5.8,5.2c0,2.9,2.4,5.3,5.3,5.3c13.9,0,25.6,10.1,26.4,22.6C283.3,294.7,270,300.7,256,300.7z
		 M300.6,272.6c-4-9.2-12.2-16.4-22.3-19.6c1.9-3.7,2.9-7.6,2.9-11.6c0-13.9-11.3-25.2-25.2-25.2c-13.9,0-25.2,11.3-25.2,25.2
		c0,3.9,1,7.9,2.9,11.6c-10.1,3.2-18.3,10.5-22.3,19.6c-3.3-6.7-5-14.1-5-21.6c0-1.2,0.1-2.3,0.1-3.5l0.1-0.4c0,0-0.1,0-0.1,0
		c2-25.5,23.4-45.7,49.4-45.7c27.3,0,49.6,22.2,49.6,49.6C305.6,258.5,303.9,265.9,300.6,272.6z"/>
	<path class="st1" d="M67.5,88.4l0-0.9l-12.8-5.7l2.3-9.2l13.9,1.1l0.4-0.8c2.3-4.9,5.6-9.3,9.7-12.9l0.7-0.6l-5-12.9l8.2-4.9
		l9,10.6l0.8-0.3c5.1-1.8,10.5-2.6,15.9-2.3l0.9,0.1l5.7-12.8l9.2,2.3l-0.2,2.9c3.2-1.9,6.4-3.8,9.7-5.6c-0.6-3-2.9-5.5-6-6.3
		l-11.3-2.9c-0.4-0.1-0.7-0.2-1.1-0.2c-3.6-0.4-7,1.5-8.5,4.8l-3.6,8c-2.8,0.2-5.5,0.6-8.2,1.2l-5.7-6.7c-1.4-1.6-3.2-2.6-5.3-2.8
		c-1.8-0.2-3.6,0.2-5.2,1.1l-10,6c-3.5,2.1-4.9,6.3-3.5,10l3.1,8.1c-1.9,2.1-3.5,4.3-5,6.7L56.8,63c-4-0.3-7.7,2.3-8.6,6.2
		l-2.9,11.3c-1,3.9,1,7.9,4.6,9.6l8.1,3.6c0.2,2.7,0.6,5.4,1.2,8.1c2.7-3.4,5.4-6.7,8.3-10C67.5,90.7,67.5,89.5,67.5,88.4z"/>
	<path class="st1" d="M52.5,107.6c-2.1,1.8-3.1,4.5-2.8,7.2c3-4.3,6.1-8.5,9.3-12.7L52.5,107.6z"/>
	<path class="st1" d="M385.9,39.1l9.2-2.3l5.6,12.8l0.9,0c5.4-0.2,10.6,0.6,15.7,2.4l0.8,0.3l9.1-10.6l8.2,4.9l-5.1,13l0.7,0.6
		c4,3.7,7.2,8,9.5,12.9l0.4,0.8l13.9-1l2.3,9.2l-12.8,5.6l0,0.9c0.1,1,0,2.1,0,3.1c2.9,3.3,5.6,6.6,8.3,10c0.6-2.5,1-5.1,1.1-7.7
		l8.1-3.5c3.7-1.6,5.7-5.6,4.7-9.5l-2.8-11.3c-1-3.9-4.6-6.5-8.6-6.2l-8.8,0.7c-1.4-2.3-3.1-4.6-4.9-6.7l3.2-8.2
		c1.5-3.8,0-8-3.4-10.1l-10-6c-2.2-1.3-4.9-1.5-7.3-0.6c-1.2,0.5-2.4,1.3-3.2,2.3l-5.8,6.7c-2.6-0.6-5.3-1-8-1.2l-3.6-8.2
		c-1.6-3.7-5.6-5.7-9.5-4.7l-11.3,2.8c-0.4,0.1-0.7,0.2-1,0.3c-2.8,1.1-4.7,3.5-5.1,6.4c3.3,1.8,6.5,3.7,9.7,5.7L385.9,39.1z"/>
	<path class="st1" d="M462,415.1l-8.1-3.6c0-0.8-0.1-1.6-0.2-2.4c-2.5,3.2-5,6.3-7.6,9.3l11.1,4.9l-2.3,9.2l-13.9-1.1l-0.4,0.8
		c-2.3,4.9-5.6,9.3-9.7,12.9l-0.7,0.6l5,12.9l-8.2,4.9l-9-10.6l-0.8,0.3c-3.4,1.2-6.9,1.9-10.4,2.2c-3.1,2.4-6.3,4.6-9.5,6.8
		l-2.6,5.9l-4.5-1.2c-3.5,2.3-7.1,4.4-10.8,6.5c0.8,0.6,1.7,1,2.7,1.3l11.3,2.9c0.4,0.1,0.7,0.2,1.1,0.2c3.6,0.4,7-1.5,8.5-4.8
		l3.6-8.1c2.8-0.2,5.5-0.6,8.2-1.2l5.7,6.7c1.4,1.6,3.2,2.6,5.3,2.8c1.8,0.2,3.6-0.2,5.2-1.1l10-6c3.5-2.1,4.9-6.3,3.5-10l-3.1-8.1
		c1.9-2.1,3.5-4.3,5-6.7l8.8,0.7c4,0.3,7.7-2.3,8.6-6.2l2.9-11.3C467.6,420.7,465.7,416.7,462,415.1z"/>
	<path class="st1" d="M459.5,107.9l-5.8-5c3,3.9,5.9,7.8,8.7,11.9C462.5,112.2,461.5,109.6,459.5,107.9z"/>
	<path class="st1" d="M55.2,125.6c1.9-2.9,3.9-5.8,5.9-8.7l-1.6-2.7l10.6-9.1l-0.3-0.8c-1.4-4-2.2-8.2-2.3-12.5
		c-2.9,3.3-5.6,6.6-8.3,10c0,0,0,0.1,0,0.1l-0.3,0.2c-3.2,4.1-6.3,8.4-9.3,12.7c0.1,1.1,0.5,2.3,1.1,3.3L55.2,125.6z"/>
	<path class="st1" d="M67.6,417.4l0-0.9c-0.2-3.9,0.2-7.7,1.1-11.5c-5.6-7-10.8-14.4-15.6-22l-2.2,3.7c-2.1,3.4-1.4,7.9,1.7,10.5
		l6.8,5.9c-0.5,1.9-0.8,3.9-1,5.9c2.4,3.1,4.9,6.2,7.5,9.2L67.6,417.4z"/>
	<path class="st1" d="M385.4,465.9l0.7-8.9c-3.3,2.1-6.6,4.2-10,6.2l-0.2,3c-0.2,3,1.1,5.7,3.5,7.4c3.6-2.1,7.2-4.2,10.8-6.5
		L385.4,465.9z"/>
	<path class="st1" d="M135.6,466.5l-0.3-3.6c-3.4-2-6.7-4-10-6.2l0.7,9.4l-4.1,1c3.5,2.2,7,4.4,10.6,6.4
		C134.6,471.8,135.8,469.2,135.6,466.5z"/>
	<path class="st1" d="M442,104.3l-0.2,0.7c0.2,0.2,0.4,0.4,0.5,0.7l10.1,8.7l-1.5,2.5c2,2.8,4,5.7,5.9,8.7l4.3-7.2
		c0.7-1.2,1.1-2.4,1.2-3.7c-2.8-4-5.6-8-8.7-11.9l-1-0.9c0-0.1,0-0.2,0.1-0.3c-2.7-3.4-5.4-6.7-8.3-10
		C444.3,96,443.5,100.3,442,104.3z"/>
	<path class="st1" d="M125.5,53.2l0.8,0.4c0.3,0.2,0.7,0.3,1,0.5c3-1.9,6.1-3.8,9.2-5.6c-0.4-0.2-0.7-0.5-1.1-0.7l0.7-8.9
		c0.1-0.8,0-1.6-0.1-2.3c-3.3,1.8-6.5,3.6-9.7,5.6L125.5,53.2z"/>
	<path class="st1" d="M377,47.5c-0.5,0.3-1,0.6-1.5,1c3.1,1.8,6.2,3.7,9.2,5.6c0.5-0.2,1-0.5,1.4-0.7l0.8-0.4l-0.8-10.5
		c-3.2-2-6.4-3.8-9.7-5.7c-0.1,0.6-0.1,1.2-0.1,1.9L377,47.5z"/>
	<path class="st1" d="M110.3,455.6c-1.7,0.1-3.4,0-5-0.1c2.8,2.2,5.7,4.2,8.6,6.3l-2.7-6.2L110.3,455.6z"/>
	<path class="st1" d="M459.5,397.5c3.1-2.6,3.8-7,1.7-10.5l-2.3-3.9c-4.8,7.6-10,14.9-15.5,21.9c0.9,3.8,1.3,7.8,1.1,11.7l0,0.9
		l1.7,0.8c2.6-3.1,5.2-6.2,7.6-9.3c-0.2-1.9-0.5-3.9-1-5.8L459.5,397.5z"/>
	<path class="st1" d="M401.2,455.6l-0.9-0.1l-3,6.8c3.2-2.2,6.4-4.5,9.5-6.8C404.9,455.6,403,455.7,401.2,455.6z"/>
	<path class="st1" d="M410.2,388c-1.2-0.3-2.4-0.5-3.6-0.7c-13.6-1.6-26.3,7.2-29.7,20.5c-1.8,7.1-0.7,14.5,3,20.8
		c3.7,6.3,9.7,10.7,16.8,12.5c1.2,0.3,2.4,0.5,3.6,0.7c2.3,0.3,4.5,0.2,6.7-0.1c8.2-6.7,16-14,23.3-21.7
		C433.2,405.9,424.4,391.7,410.2,388z M422.1,419.3c-2.4,9.3-11.3,15.5-20.8,14.4c-0.8-0.1-1.7-0.3-2.5-0.5
		c-10.3-2.6-16.5-13.1-13.9-23.4c2.4-9.3,11.3-15.5,20.8-14.4c0.8,0.1,1.7,0.3,2.5,0.5C418.5,398.6,424.7,409.1,422.1,419.3z"/>
	<path class="st1" d="M407,441.8c10.9-1.4,20.2-9.4,23-20.4c0.1-0.4,0.2-0.8,0.3-1.3C423,427.8,415.3,435.1,407,441.8z"/>
	<path class="st1" d="M105,441.8c3.3,0.4,6.8,0.2,10.1-0.6c1.2-0.3,2.4-0.7,3.5-1.1c12.7-5,19.8-18.8,16.5-32.1
		c-3.6-14.7-18.5-23.6-33.2-20c-1.2,0.3-2.4,0.7-3.5,1.1c-12.4,4.9-19.4,18-16.8,31C89,427.8,96.8,435.1,105,441.8z M101.4,396.7
		c0.8-0.3,1.6-0.6,2.5-0.8c10.3-2.6,20.7,3.7,23.3,14c2.3,9.3-2.7,19-11.6,22.5c-0.8,0.3-1.6,0.6-2.5,0.8
		c-10.3,2.6-20.8-3.7-23.3-14C87.5,409.9,92.5,400.2,101.4,396.7z"/>
	<path class="st1" d="M94.4,438.1c3.3,2,6.9,3.2,10.6,3.7c-8.2-6.7-16-14-23.3-21.7c0.1,0.4,0.2,0.7,0.2,1.1
		C83.7,428.3,88.1,434.3,94.4,438.1z"/>
	<path class="st1" d="M283.4,90.7c0-7.3-2.8-14.2-7.9-19.4c-5.1-5.2-12-8.1-19.3-8.1c-1.2,0-2.5,0.1-3.7,0.2
		c-13.5,1.7-23.8,13.3-23.9,27c-0.1,15.1,12.1,27.5,27.2,27.6c1.2,0,2.5-0.1,3.7-0.2C273,116,283.3,104.4,283.4,90.7z M258.4,109.6
		c-0.8,0.1-1.7,0.2-2.6,0.2c-10.6-0.1-19.2-8.8-19.1-19.4c0.1-9.6,7.3-17.8,16.8-19c0.8-0.1,1.7-0.2,2.6-0.2
		c10.6,0.1,19.2,8.7,19.1,19.4C275.1,100.3,267.9,108.4,258.4,109.6z"/>
	<path class="st1" d="M110.7,71.4c0.8,0.1,1.7,0.3,2.5,0.5c10.3,2.6,16.5,13.1,13.9,23.4c-2.4,9.3-11.3,15.5-20.8,14.4
		c-0.8-0.1-1.7-0.3-2.5-0.5c-10.3-2.6-16.5-13.1-13.9-23.4c0.3-1.1,0.7-2.2,1.2-3.3c-3.4,3.2-6.7,6.5-9.8,9.9
		c0.8,11.5,8.9,21.6,20.6,24.6c1.2,0.3,2.4,0.5,3.6,0.7c13.6,1.6,26.3-7.2,29.7-20.5c1.8-7.1,0.7-14.5-3-20.8
		c-3.7-6.3-9.7-10.7-16.8-12.5c-0.6-0.1-1.2-0.3-1.7-0.4c-3.7,2.8-7.4,5.7-11,8.7C105.1,71.4,107.9,71.1,110.7,71.4z"/>
	<path class="st1" d="M81.9,83.8c-0.7,2.9-1,5.8-0.8,8.7c3.2-3.4,6.5-6.7,9.8-9.9c2.3-4.9,6.5-8.6,11.5-10.3c3.6-3,7.2-5.9,11-8.7
		c-0.6-0.1-1.2-0.2-1.9-0.3C98.1,61.7,85.3,70.5,81.9,83.8z"/>
	<path class="st1" d="M420.9,82.4c0.5,1.1,0.9,2.3,1.2,3.5c2.3,9.3-2.7,19-11.6,22.5c-0.8,0.3-1.6,0.6-2.5,0.8
		c-10.3,2.6-20.8-3.7-23.3-14c-2.3-9.3,2.7-19,11.6-22.5c0.8-0.3,1.6-0.6,2.5-0.8c3.7-0.9,7.4-0.7,10.8,0.5c-3.6-3-7.3-5.9-11.1-8.7
		c-0.6,0.1-1.1,0.2-1.7,0.4c-1.2,0.3-2.4,0.7-3.5,1.1c-12.7,5-19.8,18.8-16.5,32.1c3.6,14.7,18.5,23.6,33.2,20
		c1.2-0.3,2.4-0.7,3.5-1.1c10-3.9,16.5-13.3,17.2-23.6C427.6,89,424.3,85.6,420.9,82.4z"/>
	<path class="st1" d="M430,83.9c-1.8-7.1-6.2-13.1-12.5-16.9c-5.8-3.5-12.5-4.7-19.1-3.5c3.8,2.8,7.5,5.7,11.1,8.7
		c4.9,1.7,9,5.2,11.3,10.1c3.4,3.2,6.7,6.6,9.9,10C431,89.6,430.7,86.8,430,83.9z"/>
</g>
</svg>
