<?xml version="1.0" encoding="utf-8"?>
<!-- Generator: Adobe Illustrator 24.0.1, SVG Export Plug-In . SVG Version: 6.00 Build 0)  -->
<svg version="1.1" id="Camada_1" xmlns="http://www.w3.org/2000/svg" xmlns:xlink="http://www.w3.org/1999/xlink" x="0px" y="0px"
	 viewBox="0 0 512 512" style="enable-background:new 0 0 512 512;" xml:space="preserve">
<style type="text/css">
	.st0{fill:#6200FF;}
</style>
<g>
	<path class="st0" d="M256,16.5C123.9,16.5,16.5,123.9,16.5,256c0,132.1,107.5,239.5,239.5,239.5c132.1,0,239.5-107.5,239.5-239.5
		C495.5,123.9,388.1,16.5,256,16.5 M256,506c-66.8,0-129.6-26-176.8-73.2C32,385.6,6,322.8,6,256c0-66.8,26-129.6,73.2-176.8
		C126.4,32,189.2,6,256,6c66.8,0,129.6,26,176.8,73.2C480,126.4,506,189.2,506,256c0,66.8-26,129.6-73.2,176.8
		C385.6,480,322.8,506,256,506"/>
	<path class="st0" d="M348.1,328.9c0,20-18.6,20.7-20.7,20.7H184.8c-20,0-20.7-18.6-20.7-20.7V183.1c0-20,18.6-20.7,20.7-20.7h142.6
		c20,0,20.7,18.6,20.7,20.7V328.9z M414.2,356.2c-4.6,0-8.5,2.6-10.5,6.5h-17.7v-51.1h-29c0,0,0,0,0,0v-51.4h46.3
		c1.8,4.3,6,7.3,10.9,7.3c6.5,0,11.8-5.3,11.8-11.8c0-6.5-5.3-11.8-11.8-11.8c-4.9,0-9.1,3-10.9,7.3H357v-51.1c0,0,0,0,0,0h29v-36.8
		l20.2-10.6c2.1,1.9,4.9,3.1,7.9,3.1c6.5,0,11.8-5.3,11.8-11.8c0-6.5-5.3-11.8-11.8-11.8c-6.5,0-11.8,5.3-11.8,11.8
		c0,0.2,0.1,0.4,0.1,0.6l-25.3,13.3v33.3h-20.1c0,0,0,0,0,0v-8.2c0-10.2-6.2-29.6-29.6-29.6H184.8c-10.2,0-29.6,6.2-29.6,29.6v8.2
		c-0.1,0-0.1,0-0.2,0h-20.1v-50.8H109c-1.5-4.7-5.9-8.2-11.2-8.2c-6.5,0-11.8,5.3-11.8,11.8c0,6.5,5.3,11.8,11.8,11.8
		c4.6,0,8.5-2.6,10.5-6.5h17.7v50.8h29c0.1,0,0.1,0,0.2,0v51.2c-0.1,0-0.2-0.1-0.3-0.1h-46.2c-1.8-4.3-6-7.3-10.9-7.3
		c-6.5,0-11.8,5.3-11.8,11.8c0,6.5,5.3,11.8,11.8,11.8c4.9,0,9.1-3,10.9-7.3h46.2c0.1,0,0.2,0,0.3-0.1v52.7c-0.1,0-0.1,0-0.2,0h-29
		v35.9l-20.2,10.6c-2.1-1.9-4.8-3.1-7.9-3.1c-6.5,0-11.8,5.3-11.8,11.8c0,6.5,5.3,11.8,11.8,11.8c6.5,0,11.8-5.3,11.8-11.8
		c0-0.2-0.1-0.4-0.1-0.7l25.3-13.3v-32.4H155c0.1,0,0.1,0,0.2,0v7.3c0,10.2,6.2,29.6,29.6,29.6h142.6c10.2,0,29.6-6.2,29.6-29.6
		v-8.5c0,0,0,0,0,0h20.1v51.1H403c1.5,4.7,5.9,8.2,11.2,8.2c6.5,0,11.8-5.3,11.8-11.8C426,361.5,420.7,356.2,414.2,356.2"/>
	<g>
		<path class="st0" d="M308.8,250.3l-7.7-2.4c-0.4-2.5-1.1-4.9-1.9-7.2l5.5-5.9c2.5-2.7,2.7-6.7,0.5-9.6l-6.4-8.4
			c-1.4-1.9-3.6-2.9-5.9-2.9c-1.2,0-2.4,0.3-3.5,0.9l-7.1,3.7c-2.1-1.5-4.3-2.7-6.6-3.8l-0.3-8c-0.1-3.7-2.9-6.7-6.5-7.1l-10.5-1.4
			c-3.6-0.5-7.1,1.7-8.1,5.2l-2.4,7.7c-2.4,0.4-4.9,1.1-7.2,1.9l-5.9-5.5c-1.4-1.3-3.2-2-5.1-2c-1.7,0-3.2,0.5-4.5,1.5l-8.4,6.4
			c-2.9,2.2-3.8,6.2-2.1,9.4l3.8,7.2c-1.4,2-2.6,4.2-3.7,6.4l-8,0.3c-3.7,0.1-6.7,2.9-7.1,6.5l-1.4,10.5c-0.5,3.6,1.7,7,5.2,8.1
			l7.7,2.4c0.4,2.5,1.1,4.9,1.9,7.2l-5.5,5.9c-2.5,2.7-2.7,6.7-0.5,9.6l6.4,8.4c1.4,1.8,3.6,2.9,5.9,2.9c1.2,0,2.4-0.3,3.5-0.9
			l7.1-3.7c2,1.4,4.1,2.6,6.4,3.7l0.3,8.1c0.1,3.7,2.9,6.7,6.5,7.1l10.5,1.4c0.3,0,0.7,0.1,1,0.1c3.3,0,6.2-2.1,7.1-5.3l2.4-7.6
			c2.5-0.4,4.9-1.1,7.3-1.9l5.8,5.4c1.4,1.3,3.2,2,5.1,2c1.7,0,3.2-0.5,4.5-1.5l8.4-6.4c2.9-2.2,3.8-6.2,2.1-9.4l-3.7-7
			c1.5-2.1,2.7-4.3,3.8-6.6l8-0.3c3.7-0.1,6.7-2.9,7.1-6.5l1.4-10.5C314.5,254.8,312.3,251.4,308.8,250.3z M291.2,268
			c-1.6,4.7-4.1,9-7.4,12.7l-0.5,0.6l5.8,11.1l-6.9,5.3l-9.2-8.6l-0.7,0.3c-4.4,2.2-9.2,3.4-14.1,3.7l-0.8,0l-3.8,12.1l-8.6-1.1
			l-0.5-12.7l-0.8-0.3c-4.6-1.6-8.8-4-12.5-7.3l-0.6-0.5l-11.2,5.9l-5.3-6.9l8.6-9.3l-0.4-0.7c-2.2-4.4-3.4-9.2-3.7-14.1l-0.1-0.8
			l-12.1-3.8l1.1-8.6l12.7-0.5l0.3-0.8c1.6-4.6,4-8.8,7.2-12.5l0.5-0.6l-5.9-11.3l6.9-5.3l9.3,8.7l0.7-0.4c4.4-2.2,9.1-3.4,14-3.8
			l0.8-0.1l3.8-12.1l8.6,1.1l0.5,12.7l0.8,0.3c4.7,1.6,9,4,12.7,7.3l0.6,0.5l11.2-5.9l5.3,6.9l-8.6,9.3l0.4,0.7
			c2.2,4.4,3.4,9.2,3.7,14.1l0.1,0.8l12.1,3.8l-1.1,8.6l-12.7,0.5L291.2,268z"/>
		<path class="st0" d="M259.3,231.4c-1.1-0.1-2.2-0.2-3.3-0.2c-12.4,0-23,9.3-24.6,21.6c-0.9,6.6,0.9,13.1,4.9,18.4
			c4,5.3,9.9,8.7,16.5,9.5c1.1,0.1,2.2,0.2,3.3,0.2c12.4,0,23-9.3,24.6-21.6C282.5,245.7,272.9,233.2,259.3,231.4z M273.3,258.3
			c-1.2,8.6-8.6,15.2-17.3,15.2c-0.8,0-1.6-0.1-2.3-0.2c-9.5-1.3-16.3-10.1-15-19.6c1.2-8.6,8.6-15.2,17.3-15.2
			c0.8,0,1.6,0.1,2.3,0.2C267.8,240,274.6,248.8,273.3,258.3z"/>
	</g>
</g>
</svg>
