<?xml version="1.0" encoding="utf-8"?>
<!-- Generator: Adobe Illustrator 24.0.1, SVG Export Plug-In . SVG Version: 6.00 Build 0)  -->
<svg version="1.1" id="Camada_1" xmlns="http://www.w3.org/2000/svg" xmlns:xlink="http://www.w3.org/1999/xlink" x="0px" y="0px"
	 viewBox="0 0 512 512" style="enable-background:new 0 0 512 512;" xml:space="preserve">
<style type="text/css">
	.st0{fill:#6200FF;}
</style>
<g>
	<path class="st0" d="M256,16.5C123.9,16.5,16.5,123.9,16.5,256c0,132.1,107.4,239.5,239.5,239.5c132.1,0,239.5-107.5,239.5-239.5
		C495.5,123.9,388.1,16.5,256,16.5 M256,506c-66.8,0-129.6-26-176.8-73.2C32,385.6,6,322.8,6,256c0-66.8,26-129.6,73.2-176.8
		C126.4,32,189.2,6,256,6c66.8,0,129.6,26,176.8,73.2C480,126.4,506,189.2,506,256c0,66.8-26,129.6-73.2,176.8
		C385.6,480,322.8,506,256,506"/>
	<path class="st0" d="M417.3,197.5c-44.1,104.7-113.3,173.9-218,218c-12,5.1-25.3,1.9-32.2-7.9c-0.8-1.1-2.3-2.9-4.7-5.6
		c-1.5-1.7-3.5-4.1-4-4.8c0,0,0,0,0,0L143,375.6c-5.4-7.6-3.5-18.4,4.2-24.1c15.5-11.5,30.8-23.5,45.7-35.8
		c7.3-6.1,18.2-5.3,24.3,1.7c2.5,2.8,6.1,6.9,9.7,10.9c3.6,4,7.1,7.9,9.6,10.7c2.7,3.2,6.6,5.1,10.8,5.4c4.5,0.3,8.8-1.2,12.3-4.2
		c35.5-31.3,50.9-46.7,82.2-82.2c3-3.4,4.5-7.8,4.2-12.3c-0.3-4.3-2.2-8.1-5.4-10.8c-2.8-2.4-6.7-6-10.7-9.6c-4-3.6-8-7.2-10.8-9.7
		c-7-6.1-7.8-17.1-1.7-24.4c12.3-14.8,24.4-30.2,35.9-45.7c5.7-7.7,16.5-9.5,24.1-4.2l21.6,15.3c0.7,0.5,3.1,2.6,4.8,4.1
		c2.8,2.4,4.5,3.9,5.7,4.7C419.2,172.2,422.5,185.5,417.3,197.5 M415.9,156.2c-0.7-0.5-3.1-2.6-4.8-4c-2.8-2.4-4.6-3.9-5.7-4.7
		l-21.6-15.4c-12.5-8.8-30.3-5.8-39.5,6.7c-11.4,15.3-23.3,30.6-35.5,45.2c-9.9,12-8.6,29.9,3,40c2.8,2.4,6.7,6,10.6,9.5
		c4,3.6,8,7.3,10.9,9.7c0.9,0.8,1.4,1.9,1.5,3.1c0.1,1.5-0.4,2.9-1.4,4.1c-31,35.1-46.1,50.3-81.2,81.2c-1.2,1-2.6,1.5-4.1,1.4
		c-1.2-0.1-2.4-0.6-3.1-1.5c-2.5-2.8-6.1-6.9-9.7-10.9c-3.6-4-7.1-7.9-9.6-10.7c-10.1-11.5-28-12.9-39.9-3
		c-14.7,12.2-29.9,24.1-45.2,35.5c-12.5,9.3-15.5,27-6.6,39.6l15.3,21.6c0,0,0,0,0,0c0.8,1.1,2.3,2.9,4.7,5.7c1.5,1.7,3.5,4,4,4.8
		c6.9,9.7,17.9,15,29.7,15c5.3,0,10.8-1.1,16-3.3c107.5-45.3,178.7-116.4,224-223.9C434.8,184.9,430,166.2,415.9,156.2"/>
	<path class="st0" d="M192.1,115c40.5,0,73.5,33,73.5,73.5c0,40.5-33,73.5-73.5,73.5c-40.5,0-73.5-33-73.5-73.5
		C118.6,148,151.5,115,192.1,115 M192.1,272.2c46.1,0,83.6-37.5,83.6-83.6c0-46.1-37.5-83.6-83.6-83.6c-46.1,0-83.6,37.5-83.6,83.6
		C108.4,234.7,146,272.2,192.1,272.2"/>
	<path class="st0" d="M155.7,205.6c0.4-0.3,0.9-0.6,1.2-0.9c0,0,0,0,0,0c0.1-0.1,0.2-0.2,0.3-0.3c0.1-0.1,0.3-0.3,0.4-0.4l0,0
		c0.6-0.8,1-1.7,1.1-2.7c0,0,0-0.1,0-0.1c0-0.3,0-0.6,0-0.9c0-0.1,0-0.1,0-0.2c0-0.3-0.1-0.5-0.2-0.8c0,0,0,0,0,0
		c-0.9-2.9-1.5-5.9-1.6-8.9c-0.2-3.1,0.1-6.1,0.7-9c0.1-0.7,0.1-1.4,0-2c0,0,0,0,0,0c-0.1-0.3-0.1-0.6-0.3-0.9
		c-0.4-0.9-1-1.7-1.9-2.3c-0.4-0.3-0.9-0.5-1.3-0.8l-8.2-4.2l4.9-9.6l8.2,4.2c0.5,0.2,0.9,0.4,1.4,0.6c0.1,0,0.2,0,0.3,0.1
		c0.5,0.2,1.1,0.3,1.6,0.2c0,0,0.1,0,0.1,0c0,0,0.1,0,0.1,0c0.6,0,1.2-0.2,1.7-0.4c0,0,0.1,0,0.1,0c0.6-0.3,1.1-0.7,1.6-1.2
		c4.1-4.5,9.3-7.9,15.1-9.7c0.1,0,0.2-0.1,0.3-0.1c0.1,0,0.2-0.1,0.3-0.1c0.5-0.2,0.9-0.5,1.3-0.9c0.1,0,0.1-0.1,0.2-0.2
		c0.4-0.4,0.7-0.8,0.9-1.3c0-0.1,0-0.1,0.1-0.2c0.2-0.5,0.4-1.1,0.4-1.7c0,0,0,0,0,0c0-0.5,0-1,0-1.6l-0.5-9.2l10.8-0.5l0.5,9.2
		c0,0.5,0.1,1,0.2,1.5c0,0,0,0,0,0c0,0.2,0.1,0.4,0.2,0.6c0,0.1,0.1,0.2,0.1,0.3c0.1,0.2,0.2,0.4,0.3,0.5c0.1,0.1,0.1,0.2,0.2,0.3
		c0.6,1,1.6,1.8,2.9,2.1c0.1,0,0.2,0.1,0.3,0.1c0,0,0,0,0.1,0c5.9,1.3,11.4,4.1,16,8.2l0,0c0.5,0.4,1.1,0.8,1.7,1c0,0,0.1,0,0.1,0
		c0.6,0.2,1.2,0.3,1.7,0.2c0,0,0.1,0,0.1,0c0,0,0.1,0,0.1,0c0.5,0,1.1-0.2,1.6-0.4c0.1,0,0.2-0.1,0.3-0.1c0.5-0.2,0.9-0.5,1.4-0.8
		l7.7-5l5.9,9.1l-7.7,5c-0.4,0.2-0.8,0.5-1.1,0.8c-1.1,0.8-1.8,2-1.9,3.4c-0.1,0.8,0,1.6,0.3,2.3c0.9,2.8,1.4,5.7,1.5,8.7
		c0.2,3.1-0.1,6.1-0.7,9c0,0,0,0,0,0c-0.1,0.2-0.1,0.5-0.1,0.8c0,0.1,0,0.2,0,0.2c0,0.3,0,0.5,0.1,0.8c0,0.1,0,0.1,0,0.2
		c0.2,0.9,0.6,1.7,1.2,2.4c0,0,0.1,0.1,0.1,0.1c0.1,0.1,0.3,0.2,0.4,0.4c0.1,0.1,0.2,0.2,0.3,0.3c0,0,0,0,0,0
		c0.4,0.3,0.9,0.6,1.3,0.8l8.2,4.2l-4.9,9.6l-8.2-4.2c-0.5-0.2-1-0.5-1.4-0.6c0,0,0,0,0,0c0,0,0,0-0.1,0c-2-0.7-4.1-0.1-5.4,1.4
		c0,0,0,0,0,0c-4.1,4.5-9.3,7.9-15.1,9.7c0,0,0,0-0.1,0c-0.1,0-0.2,0.1-0.3,0.1c-1.5,0.6-2.5,1.8-2.9,3.3c0,0.1,0,0.2,0,0.2
		c-0.1,0.2-0.1,0.5-0.1,0.7c0,0,0,0,0,0c0,0.5,0,1,0,1.5l0.5,9.2l-10.8,0.5l-0.5-9.2c0-0.5-0.1-1-0.2-1.5c0,0,0,0,0,0
		c0-0.2-0.1-0.4-0.2-0.6c0-0.1-0.1-0.3-0.1-0.4c-0.1-0.2-0.1-0.3-0.2-0.4c-0.1-0.1-0.1-0.3-0.2-0.4c-0.1-0.2-0.3-0.4-0.5-0.6
		c0,0-0.1-0.1-0.1-0.1c-0.4-0.5-0.9-0.8-1.5-1.1c0,0,0,0-0.1,0c-0.2-0.1-0.4-0.1-0.6-0.2c-0.1,0-0.3-0.1-0.4-0.1c0,0,0,0-0.1,0
		c-5.9-1.3-11.4-4.1-16-8.2c0,0,0,0,0,0c-1.5-1.3-3.6-1.7-5.5-0.8c0,0,0,0,0,0c0,0,0,0,0,0c-0.5,0.2-0.9,0.5-1.4,0.8l-7.7,5
		l-5.9-9.1L155.7,205.6z M151.7,229.7c0.8,0.2,1.7,0.2,2.5,0.2c1.7-0.1,3.3-0.6,4.8-1.5l5.8-3.8c4.2,3.2,8.8,5.5,13.8,7.1l0.4,6.9
		c0.3,5.3,4.8,9.4,10.1,9.2l11.7-0.6c5.3-0.3,9.4-4.8,9.2-10.1l-0.3-7c4.8-2,9.2-4.9,13-8.4l6.2,3.2c1.5,0.8,3.2,1.1,4.9,1.1
		c0.8,0,1.7-0.2,2.5-0.5c2.5-0.8,4.5-2.5,5.6-4.8l5.3-10.4c2.4-4.7,0.5-10.6-4.2-13l-6.2-3.2c0.3-2.6,0.5-5.2,0.4-7.8
		c-0.1-2.6-0.5-5.2-1.1-7.8l5.8-3.7c4.5-2.9,5.8-8.9,2.9-13.4l-6.4-9.8c-2.9-4.5-8.9-5.8-13.4-2.9l-5.8,3.8
		c-4.2-3.1-8.8-5.5-13.8-7.1l-0.3-7c-0.3-5.3-4.8-9.5-10.2-9.2l-11.7,0.6c-5.3,0.3-9.4,4.8-9.2,10.2l0.3,6.9c-4.8,2-9.2,4.9-13,8.4
		l-6.2-3.2c-4.8-2.4-10.6-0.5-13,4.2l-5.3,10.4c-2.4,4.8-0.5,10.6,4.2,13l6.2,3.2c-0.3,2.6-0.5,5.2-0.4,7.8c0.1,2.6,0.6,5.2,1.1,7.7
		l-5.8,3.8c-4.5,2.9-5.8,8.9-2.9,13.4l6.4,9.8C147,227.7,149.2,229.2,151.7,229.7"/>
	<path class="st0" d="M192.1,174.3c7.8,0,14.2,6.4,14.2,14.2c0,7.8-6.4,14.2-14.2,14.2c-7.8,0-14.2-6.4-14.2-14.2
		C177.9,180.7,184.2,174.3,192.1,174.3 M192.1,212.9c13.4,0,24.3-10.9,24.3-24.3c0-13.4-10.9-24.4-24.3-24.4
		c-13.4,0-24.3,10.9-24.3,24.4C167.7,202,178.6,212.9,192.1,212.9"/>
</g>
</svg>
