<?xml version="1.0" encoding="utf-8"?>
<!-- Generator: Adobe Illustrator 24.0.1, SVG Export Plug-In . SVG Version: 6.00 Build 0)  -->
<svg version="1.1" id="Camada_1" xmlns="http://www.w3.org/2000/svg" xmlns:xlink="http://www.w3.org/1999/xlink" x="0px" y="0px"
	 viewBox="0 0 512 512" style="enable-background:new 0 0 512 512;" xml:space="preserve">
<style type="text/css">
	.st0{fill:#6200FF;}
</style>
<g>
	<path class="st0" d="M256,16.5C123.9,16.5,16.5,123.9,16.5,256c0,132.1,107.4,239.5,239.5,239.5c132.1,0,239.5-107.5,239.5-239.5
		C495.5,123.9,388.1,16.5,256,16.5 M256,506c-66.8,0-129.6-26-176.8-73.2C32,385.6,6,322.8,6,256c0-66.8,26-129.6,73.2-176.8
		C126.4,32,189.2,6,256,6c66.8,0,129.6,26,176.8,73.2C480,126.4,506,189.2,506,256c0,66.8-26,129.6-73.2,176.8
		C385.6,480,322.8,506,256,506"/>
	<path class="st0" d="M388.5,147.8c-3.7,0-7-3.2-7-7c0-3.7,3.2-7,7-7c3.7,0,6.5,3.2,6.5,7C395,144.6,392.2,147.8,388.5,147.8
		 M151.7,362.8V209c0-2.3,1.9-4.2,4.2-4.2h200.2c2.3,0,4.2,1.9,4.2,4.2v153.8H151.7z M343.1,395.2H168.9c-13.9,0-25.9-9.7-28.7-23.2
		h232.1C369.1,385.5,357.5,395.2,343.1,395.2 M117,141.3c0-3.7,2.8-7,6.5-7c3.7,0,6.9,3.2,6.9,7c0,3.7-3.2,6.5-6.9,6.5
		C119.8,147.8,117,145,117,141.3 M163.8,124.2c0-3.7,2.8-7,6.5-7c3.7,0,6.9,3.2,6.9,7c0,3.7-3.2,7-6.9,7
		C167,130.7,163.8,127.9,163.8,124.2 M249.5,123.7c0-3.7,2.8-6.5,6.5-6.5c3.7,0,6.5,2.8,6.5,6.5c0,3.7-2.8,6.5-6.5,6.5
		C252.3,130.2,249.5,127.4,249.5,123.7 M341.7,117.2c3.7,0,6.5,3.2,6.5,7c0,3.7-2.8,7-6.5,7c-3.7,0-7-3.2-7-7
		C334.8,120.5,338,117.2,341.7,117.2 M404.3,141.3c0-8.8-7-16.2-15.8-16.2c-8.8,0-16.2,7-16.2,16.2c0,7.4,5.1,13.4,11.6,15.3v37.5
		l-14.4,14.4c-0.5-7-6.5-13-13.4-13h-38.5v-41.2l16.2-16.2c2.3,1.4,4.6,1.9,7.4,1.9c8.8,0,15.8-7,15.8-16.2c0-9.3-7-15.8-15.3-15.8
		c-9.3,0-16.2,7-16.2,16.2c0,2.8,0.9,5.1,1.9,7.4l-17.6,17.6c-0.9,0.9-1.4,1.9-1.4,3.2v43.1h-47.7V139c6.5-1.9,11.1-7.9,11.1-15.3
		c0-8.8-7-15.8-15.8-15.8c-8.8,0-15.8,7-15.8,15.8c0,7,4.6,13,11.1,15.3v56.5h-51.4V177c0-1.4-0.5-2.3-1.4-3.2l-23.2-23.2V139
		c6.5-1.9,11.1-7.9,11.1-14.8c0-9.3-7-16.2-16.2-16.2c-8.8,0-15.8,7-15.8,16.2c0,7.4,4.6,13.4,11.1,15.3v13.4c0,1.4,0.5,2.3,1.4,3.2
		l23.2,23.2v16.2h-34.3c-7.4,0-13.4,6-13.4,13.4v10.7l-13.9-13.9v-49.1c6-2.3,11.1-8.3,11.1-15.3c0-8.8-7-16.2-16.2-16.2
		c-8.8,0-15.8,7.4-15.8,16.2c0,7.4,4.6,13.4,11.1,15.3v51c0,1.4,0.5,2.3,1.4,3.2l22.2,22.2v129.7h-7.9c-1.4,0-2.3,0.5-3.2,1.4
		c-0.9,0.9-1.4,2.3-1.4,3.2c1.4,20.4,18.1,36.6,38.9,36.6h174.7c20.4,0,37.5-16.2,38.9-36.6c0-1.4-0.5-2.3-1.4-3.2
		c-0.9-0.9-2.3-1.4-3.2-1.4H370V221.5l22.2-22.2c0.9-0.9,1.4-1.9,1.4-3.2v-39.4C399.6,154.3,404.3,148.3,404.3,141.3"/>
	<path class="st0" d="M267.1,379h-22.2c-2.8,0-4.6,1.9-4.6,4.6c0,2.8,1.9,4.6,4.6,4.6h22.2c2.8,0,4.6-1.9,4.6-4.6
		C271.8,380.9,269.4,379,267.1,379"/>
	<path class="st0" d="M204.8,277.2c0-4.4-3-6.7-8.6-6.7c-5.9,0-9.1,2.4-9.1,6.7c0,4.4,3,6.6,8.5,6.6
		C200.8,283.8,204.8,281.5,204.8,277.2 M192.8,316.8c-0.9,0-1.9-0.4-2.9-1.1l-3.8-2.8c-1.2-0.9-1.9-2-1.9-3.1c0-0.9,0.6-2,1.6-2.9
		l13.6-12.5c-3.3,1.6-6.4,1.8-9.2,1.8c-8.5,0-18.2-5.7-18.2-18.3c0-13.2,10.2-21.2,23.8-21.2c14.6,0,24.4,8.4,24.4,22.1
		c0,10.1-5.2,19-15.6,28.6l-8.7,8.2C194.9,316.3,193.9,316.8,192.8,316.8"/>
	<path class="st0" d="M259.9,277.2c0-4.4-3-6.7-8.6-6.7c-5.9,0-9.1,2.4-9.1,6.7c0,4.4,3,6.6,8.5,6.6
		C255.9,283.8,259.9,281.5,259.9,277.2 M247.9,316.8c-0.9,0-1.9-0.4-2.9-1.1l-3.8-2.8c-1.2-0.9-1.9-2-1.9-3.1c0-0.9,0.6-2,1.6-2.9
		l13.6-12.5c-3.3,1.6-6.4,1.8-9.2,1.8c-8.5,0-18.2-5.7-18.2-18.3c0-13.2,10.2-21.2,23.8-21.2c14.6,0,24.4,8.4,24.4,22.1
		c0,10.1-5.2,19-15.6,28.6l-8.7,8.2C250,316.3,248.9,316.8,247.9,316.8"/>
	<path class="st0" d="M332,304.1c0-3-0.8-4.5-3.3-4.5c-2.5,0-3.5,1.5-3.5,4.5c0,2.9,0.8,4.5,3.4,4.5
		C331.1,308.6,332,307.1,332,304.1 M317.1,304c0-6.6,4.1-12,11.5-12c7.7,0,11.5,5.3,11.5,12c0,6.6-3.9,12.2-11.5,12.2
		C320.8,316.2,317.1,310.8,317.1,304 M298.2,319.5c-0.6,0-1.1-0.3-1.8-0.6l-1.9-1.2c-1-0.6-1.4-1.3-1.4-2.2c0-0.6,0.2-1.2,0.6-1.8
		l27.5-39.6c0.6-0.9,1.3-1.4,2.2-1.4c0.6,0,1.1,0.3,1.8,0.6l1.9,1.2c0.9,0.6,1.4,1.3,1.4,2.1c0,0.6-0.2,1.2-0.6,1.8l-27.5,39.6
		C299.7,319,299,319.5,298.2,319.5 M296.3,288.2c0-3-0.8-4.5-3.3-4.5c-2.5,0-3.5,1.5-3.5,4.5c0,2.9,0.8,4.5,3.4,4.5
		C295.3,292.7,296.3,291.3,296.3,288.2 M281.4,288.2c0-6.6,4.1-12,11.5-12c7.7,0,11.5,5.3,11.5,12c0,6.6-3.9,12.2-11.5,12.2
		C285.1,300.3,281.4,294.9,281.4,288.2"/>
</g>
</svg>
