<?xml version="1.0" encoding="utf-8"?>
<!-- Generator: Adobe Illustrator 24.0.0, SVG Export Plug-In . SVG Version: 6.00 Build 0)  -->
<svg version="1.1" id="Camada_1" xmlns="http://www.w3.org/2000/svg" xmlns:xlink="http://www.w3.org/1999/xlink" x="0px" y="0px"
	 viewBox="0 0 321.4 170.9" style="enable-background:new 0 0 321.4 170.9;" xml:space="preserve">
<style type="text/css">
	.st0{clip-path:url(#SVGID_2_);}
	.st1{fill:#989898;}
	.st2{fill-rule:evenodd;clip-rule:evenodd;fill:#989898;}
</style>
<g>
	<g>
		<defs>
			<path id="SVGID_1_" d="M42.1,96.9L42.1,96.9L42.1,96.9z M275.2,132.3L275.2,132.3L275.2,132.3z M275.4,38.6L275.4,38.6
				L275.4,38.6z M45.7,39.8c-2.4,14.2-3.7,28.4-3.8,42.8c0,4.7,0,9.6,0.2,14.2l0,0c0.3,6.2,1,32.9,6.1,37c3.4,2.8,26,4.9,33.6,5.5
				c12.1,1,25.7,1.8,38.3,2.4c18.7,0.9,35.1,1.3,40.7,1.3c24.6-0.1,49.2-1.3,73.8-3.7c10.6-1,36.1-3.1,39-5.4
				c0.6-0.5,1.2-1.1,1.6-1.7c0.8-1.2,1.1-3.7,1.5-6.7l1.1-9.5c2.9-25.6,2.3-50.8-1.9-76.3c-0.1-0.4-0.2-0.8-0.5-1.2
				c-0.7-1.2-2.1-2.4-3.5-2.6c-36.9-5.5-73.9-8.2-111.2-8.2c-37.3,0-74.6,2.9-111.7,8.3C47.4,36.3,45.9,38.2,45.7,39.8L45.7,39.8z"
				/>
		</defs>
		<clipPath id="SVGID_2_">
			<use xlink:href="#SVGID_1_"  style="overflow:visible;"/>
		</clipPath>
		<g class="st0">
			<defs>
				<rect id="SVGID_3_" x="41.8" y="27.7" width="238.9" height="115.4"/>
			</defs>
			<clipPath id="SVGID_4_">
				<use xlink:href="#SVGID_3_"  style="overflow:visible;"/>
			</clipPath>
			<g style="clip-path:url(#SVGID_4_);">
				
					<image style="overflow:visible;" width="620" height="301" xlink:href="17155C7B578DEE8B.png"  transform="matrix(0.3893 0 0 -0.3893 41.2281 144.2633)">
				</image>
			</g>
		</g>
	</g>
	<path class="st1" d="M49.4,32.6c18.6-2.7,37.2-4.8,55.7-6.2c18.6-1.4,37.1-2.1,55.6-2.1c18.5,0,37,0.6,55.5,2
		c18.5,1.4,36.9,3.4,55.4,6.1c0.8,0.1,1.6,0.4,2.4,0.8c0.8,0.4,1.6,1,2.2,1.7c0.7,0.7,1.2,1.4,1.7,2.2c0.4,0.8,0.7,1.6,0.9,2.4
		c1.1,6.4,1.9,12.8,2.5,19.2c0.6,6.4,1,12.8,1.1,19.2c0.2,6.4,0.1,12.8-0.2,19.2c-0.3,6.4-0.8,12.8-1.5,19.2c0,0.3-0.1,0.6-0.1,0.9
		l-0.1,0.8c-0.2,2.2-0.6,5.3-1,8.2c-0.4,2.9-0.9,5.6-1.4,6.8c-0.2,0.4-0.3,0.7-0.6,1.1c-0.2,0.4-0.5,0.7-0.7,1
		c-0.3,0.3-0.6,0.6-0.9,0.9c-0.3,0.3-0.6,0.6-1,0.8c-1.8,1.4-8.7,2.6-16.5,3.6c-7.7,1-16.2,1.8-21.2,2.2l-1.7,0.2
		c-0.5,0-0.9,0.1-1.4,0.1c-6.2,0.6-12.3,1.1-18.5,1.6c-6.1,0.5-12.3,0.8-18.4,1.1c-6.1,0.3-12.2,0.5-18.3,0.7
		c-6.1,0.2-12.2,0.2-18.4,0.3c-5.6,0-22-0.4-40.6-1.2c-12.5-0.6-26.1-1.4-38.1-2.4c-9.5-0.8-18.1-1.8-24.5-3
		c-5.6-1-9.6-2.2-11.1-3.5h0l-0.1-0.1c-2.9-2.6-4.6-9.8-5.6-17.5c-1-7.7-1.4-15.9-1.5-20.5l-0.1-1.2l0-0.2
		c-0.2-4.8-0.3-9.5-0.2-14.3c0-4.8,0.2-9.5,0.5-14.3c0.3-4.8,0.7-9.6,1.3-14.4c0.6-4.8,1.2-9.6,2-14.4c0.1-0.8,0.4-1.6,0.8-2.4
		c0.4-0.8,0.9-1.5,1.5-2.2c0.6-0.6,1.3-1.2,2.1-1.6C47.8,33,48.6,32.7,49.4,32.6L49.4,32.6z M160.8,28.2c-18.4,0-36.8,0.7-55.3,2.1
		c-18.5,1.4-37,3.4-55.5,6.1c-0.4,0.1-0.7,0.2-1.1,0.4c-0.4,0.2-0.7,0.5-1,0.8c-0.3,0.4-0.6,0.8-0.9,1.2c-0.2,0.4-0.4,0.9-0.5,1.3
		c-0.8,4.8-1.5,9.5-2,14.2c-0.5,4.7-1,9.4-1.3,14.1c-0.3,4.7-0.5,9.4-0.5,14.1c0,4.7,0,9.4,0.2,14.1l0,0v0h0l0.1,1.4
		c0.2,4.4,0.5,12.2,1.4,19.5c0.9,7.2,2.2,13.8,4.5,15.8l0.1,0.1c1.3,1,4.8,1.9,10,2.8c6.1,1,14.3,1.9,23.4,2.7c12,1,25.5,1.8,38,2.4
		c18.6,0.9,34.8,1.3,40.4,1.2c6.1,0,12.1-0.1,18.2-0.3c6.1-0.2,12.2-0.4,18.3-0.7c6.1-0.3,12.2-0.7,18.3-1.1
		c6.1-0.5,12.2-1,18.3-1.6c0.3,0,0.7-0.1,1.3-0.1l1.8-0.2l0,0h0h0c9.7-0.9,32.9-3,35.6-5.1c0.2-0.2,0.4-0.3,0.6-0.5
		c0.2-0.2,0.4-0.4,0.5-0.6c0.2-0.2,0.3-0.4,0.4-0.6l0,0c0.1-0.2,0.2-0.4,0.3-0.6c0.4-0.9,0.8-3.3,1.2-6c0.4-2.7,0.7-5.7,0.9-7.8v0
		l0,0c0.1-0.8,0.2-1.5,0.2-1.7c0.7-6.3,1.2-12.7,1.5-19c0.3-6.3,0.3-12.6,0.2-18.9c-0.2-6.3-0.5-12.6-1.1-18.9
		c-0.6-6.3-1.4-12.6-2.4-18.9c-0.1-0.4-0.2-0.8-0.5-1.2l0,0c-0.3-0.4-0.6-0.9-1-1.2c-0.4-0.4-0.8-0.7-1.2-0.9
		c-0.4-0.2-0.8-0.4-1.2-0.4c-18.4-2.7-36.8-4.8-55.1-6.1C197.5,28.9,179.2,28.2,160.8,28.2L160.8,28.2z"/>
	<path class="st1" d="M41.5,25.6c19.9-3.1,39.8-5.5,59.7-7c19.9-1.6,39.7-2.4,59.5-2.4c19.8,0,39.6,0.7,59.4,2.3
		c19.8,1.5,39.6,3.9,59.3,7c0.9,0.1,1.7,0.5,2.6,0.9c0.9,0.5,1.7,1.1,2.4,1.8c0.7,0.7,1.3,1.6,1.8,2.4l0,0c0.4,0.8,0.8,1.7,0.9,2.6
		c1.1,7.3,2,14.6,2.7,21.8c0.6,7.3,1,14.5,1.2,21.8c0.2,7.3,0.1,14.5-0.2,21.8c-0.3,7.3-0.8,14.5-1.6,21.8l-0.1,0.9l-0.1,1
		c-0.2,2.5-0.6,6-1,9.3c-0.4,3.3-0.9,6.3-1.5,7.7c-0.2,0.4-0.4,0.8-0.6,1.2l0,0c-0.2,0.4-0.5,0.8-0.8,1.1c-0.3,0.4-0.6,0.7-0.9,1h0
		c-0.3,0.3-0.7,0.6-1,0.9c-1.9,1.6-9.3,3-17.6,4.1c-8.2,1.1-17.4,2-22.7,2.5l-1.7,0.2c-0.5,0.1-1,0.1-1.5,0.2
		c-6.6,0.7-13.2,1.3-19.8,1.8c-6.6,0.5-13.1,0.9-19.7,1.3c-6.5,0.3-13.1,0.6-19.6,0.8c-6.6,0.2-13.1,0.3-19.7,0.3
		c-6,0-23.5-0.4-43.4-1.4c-13.4-0.7-28-1.6-40.8-2.7c-10.2-0.9-19.4-2-26.2-3.4c-6.1-1.2-10.3-2.5-12-4c-3.1-2.9-4.9-11-5.9-19.8
		c-1.1-8.7-1.4-18-1.6-23.3l-0.1-1.6c-0.2-5.4-0.3-10.8-0.3-16.3c0-5.4,0.2-10.8,0.5-16.2c0.3-5.4,0.8-10.9,1.4-16.3
		c0.6-5.4,1.3-10.9,2.2-16.4c0.1-0.9,0.4-1.8,0.8-2.7c0.4-0.9,0.9-1.7,1.6-2.4c0.6-0.7,1.4-1.3,2.2-1.8C39.8,26,40.6,25.7,41.5,25.6
		L41.5,25.6z M160.8,20c-19.7,0-39.5,0.8-59.2,2.4c-19.8,1.6-39.6,3.9-59.4,7c-0.4,0.1-0.8,0.2-1.2,0.5c-0.4,0.2-0.8,0.6-1.1,1l0,0
		c-0.4,0.4-0.7,0.9-1,1.5c-0.2,0.5-0.4,1.1-0.5,1.6c-0.8,5.4-1.6,10.8-2.1,16.2c-0.6,5.4-1,10.8-1.3,16.1
		c-0.3,5.4-0.5,10.7-0.5,16.1c0,5.4,0,10.7,0.3,16.1l0.1,1.6v0c0.2,5,0.5,14,1.5,22.3c0.9,8.2,2.4,15.8,4.9,18.1
		c1.3,1.2,5.2,2.3,10.8,3.3c6.5,1.2,15.3,2.2,25.1,3.1c12.8,1.2,27.3,2.1,40.7,2.7c19.9,1,37.3,1.4,43.3,1.4c6.5,0,13-0.1,19.5-0.3
		c6.5-0.2,13-0.5,19.6-0.8c6.5-0.3,13.1-0.8,19.6-1.3c6.6-0.5,13.1-1.1,19.7-1.8c0.3,0,0.7-0.1,1.3-0.1l2-0.2l0,0h0
		c10.3-1,35.3-3.4,38.2-5.8c0.2-0.2,0.5-0.4,0.7-0.6c0.2-0.2,0.4-0.5,0.6-0.7c0.2-0.2,0.3-0.5,0.5-0.7c0.1-0.2,0.3-0.5,0.4-0.7
		c0.5-1.1,0.9-3.9,1.3-6.9c0.4-3.1,0.7-6.5,1-8.9l0.1-1.1l0.1-0.8c0.8-7.2,1.3-14.4,1.6-21.6c0.3-7.2,0.4-14.4,0.2-21.5
		c-0.2-7.2-0.6-14.3-1.2-21.5c-0.6-7.2-1.5-14.4-2.6-21.5c-0.1-0.5-0.3-1-0.5-1.5c-0.3-0.5-0.7-1-1.1-1.5c-0.4-0.4-0.9-0.8-1.4-1.1
		c-0.4-0.3-0.9-0.5-1.3-0.5c-19.7-3.1-39.3-5.4-59-6.9C200.2,20.8,180.5,20,160.8,20L160.8,20z"/>
	<path class="st2" d="M75.9,72c0.2,0,0.3,0,0.5,0H77c1.9,0,4.3,0.6,6.1,1.1c8.9,2.9,15.4,11.2,15.4,20.9c0,12.1-10.1,22-22.6,22
		c-12.5,0-22.6-9.8-22.6-22c0-2.3,0-4.6,0-6.9H64c-0.1,2.3-0.1,4.4-0.1,6.9c0,6.4,5.4,11.7,12,11.7c6.6,0,12-5.2,12-11.7
		c0-6.4-5.4-11.7-12-11.7c-0.2,0-0.3,0-0.5,0v0H56.7h-3.5V54.8h11.2V72h11.1C75.6,72,75.8,72,75.9,72L75.9,72z M207.2,88.5h0.1v27.6
		h-11.2V104l-0.1,0c0-4.9,0-9.7,0-14.6c0-3.6-2.9-6.4-6.5-6.4c-3.3,0-6,2.5-6.4,5.7h0v0.7v13.5l0,0v13.1h-11.2V96.8l0,0
		c0-2.5,0-5,0-7.4c0-3.6-2.9-6.4-6.5-6.4c-3.3,0-6,2.5-6.4,5.7h0v0.7v4v22.7H148V72.6h11.2v3.2c2.3-2.4,5.6-4,9.3-4
		c4.3,0,8.1,2.1,10.4,5.4c3-3.3,7.3-5.4,12-5.4c9,0,16.3,7.4,16.3,16.5C207.2,88.4,207.2,88.5,207.2,88.5L207.2,88.5z M257.1,54.8
		h11.2v60.8h-11.2V54.8L257.1,54.8z M232.2,72c12.5,0,22.6,9.8,22.6,22c0,12.1-10.1,22-22.6,22c-12.5,0-22.6-9.8-22.6-22
		C209.6,81.9,219.7,72,232.2,72L232.2,72z M232.2,82.4c6.6,0,12,5.2,12,11.7c0,6.4-5.4,11.7-12,11.7c-6.6,0-12-5.2-12-11.7
		C220.2,87.6,225.6,82.4,232.2,82.4L232.2,82.4z M123.3,72c12.5,0,22.6,9.8,22.6,22c0,0.8,0,1.6-0.1,2.4H135h-2.3h-21.2
		c1.1,5.3,5.9,9.3,11.7,9.3c4.5,0,8.4-2.4,10.4-5.9h11.4c-2.6,9.4-11.4,16.3-21.8,16.3c-12.5,0-22.6-9.8-22.6-22
		C100.7,81.9,110.8,72,123.3,72L123.3,72z M134.5,90H112c1.7-4.5,6.1-7.6,11.2-7.6C128.4,82.4,132.8,85.6,134.5,90L134.5,90z"/>
</g>
</svg>
