<?xml version="1.0" encoding="utf-8"?>
<!-- Generator: Adobe Illustrator 24.0.0, SVG Export Plug-In . SVG Version: 6.00 Build 0)  -->
<svg version="1.1" id="Camada_1" xmlns="http://www.w3.org/2000/svg" xmlns:xlink="http://www.w3.org/1999/xlink" x="0px" y="0px"
	 viewBox="0 0 152 35.5" style="enable-background:new 0 0 152 35.5;" xml:space="preserve">
<style type="text/css">
	.st0{fill:#989898;}
	.st1{fill:none;stroke:#989898;stroke-width:0.5;stroke-miterlimit:10;}
</style>
<g>
	<g>
		<g>
			<g>
				<path class="st0" d="M54.9,9.3c-0.7,2-0.7,4-0.7,6.1c0,0.3-0.1,0.8,0.3,0.9c0.5,0.1,0.7-0.4,0.8-0.7c0.6-2.1,2.1-5,2.7-6
					c0.7-1.2,1-1.5,1.3-2.3c0.8-1.8,2.5-5.5,2-5.5C59.8,3.4,55.4,7.9,54.9,9.3z"/>
			</g>
			<g>
				<path class="st0" d="M61.1,9.3c-0.7,2-0.7,4-0.7,6.1c0,0.3-0.1,0.8,0.3,0.9c0.5,0.1,0.7-0.4,0.8-0.7c0.6-2.1,2.1-5,2.7-6
					c0.7-1.2,1-1.5,1.3-2.3c0.8-1.8,2.5-5.5,2-5.5C65.9,3.4,61.5,7.9,61.1,9.3z"/>
			</g>
		</g>
		<g>
			<path class="st0" d="M26.7,35.1v0.2h-3.4v-0.2h0.3c0.3,0,0.6-0.1,0.7-0.3c0.1-0.1,0.1-0.4,0.1-0.9v-5.1c0-0.4,0-0.7-0.1-0.8
				c0-0.1-0.1-0.2-0.2-0.3c-0.2-0.1-0.4-0.1-0.5-0.1h-0.3v-0.2h3.4v0.2h-0.3c-0.3,0-0.6,0.1-0.7,0.3c-0.1,0.1-0.1,0.4-0.1,0.9v5.1
				c0,0.4,0,0.7,0.1,0.8c0,0.1,0.1,0.2,0.2,0.3c0.2,0.1,0.3,0.1,0.5,0.1H26.7z"/>
			<path class="st0" d="M27.7,27.4h2.2l4.9,6v-4.6c0-0.5-0.1-0.8-0.2-0.9c-0.1-0.2-0.4-0.2-0.7-0.2h-0.3v-0.2h2.8v0.2h-0.3
				c-0.3,0-0.6,0.1-0.7,0.3c-0.1,0.1-0.1,0.4-0.1,0.9v6.7H35L29.8,29v4.9c0,0.5,0.1,0.8,0.2,0.9c0.1,0.2,0.4,0.2,0.7,0.2h0.3v0.2
				h-2.8v-0.2h0.3c0.3,0,0.6-0.1,0.7-0.3c0.1-0.1,0.1-0.4,0.1-0.9v-5.5c-0.2-0.3-0.4-0.4-0.5-0.5s-0.3-0.2-0.5-0.2
				c-0.1,0-0.3-0.1-0.5-0.1V27.4z"/>
			<path class="st0" d="M45.9,27.4v0.2c-0.3,0.1-0.5,0.1-0.6,0.3c-0.2,0.2-0.4,0.5-0.6,0.9l-2.8,6.8h-0.2l-3-6.8
				c-0.2-0.4-0.3-0.6-0.3-0.6c-0.1-0.1-0.2-0.2-0.4-0.3s-0.3-0.1-0.6-0.1v-0.2h3.2v0.2c-0.4,0-0.6,0.1-0.7,0.2s-0.2,0.2-0.2,0.3
				c0,0.2,0.1,0.5,0.3,0.9l2,4.7l1.9-4.6c0.2-0.5,0.3-0.8,0.3-0.9c0-0.1-0.1-0.2-0.2-0.3s-0.3-0.2-0.6-0.2c0,0-0.1,0-0.1,0v-0.2
				H45.9z"/>
			<path class="st0" d="M49.4,27.8v3.1h1.7c0.5,0,0.8-0.1,0.9-0.2c0.2-0.2,0.3-0.5,0.3-0.9h0.2v2.8h-0.2c-0.1-0.4-0.1-0.6-0.2-0.7
				c-0.1-0.1-0.2-0.2-0.3-0.3s-0.4-0.1-0.7-0.1h-1.7V34c0,0.4,0,0.6,0,0.6s0.1,0.1,0.2,0.2s0.2,0.1,0.4,0.1h1.3c0.4,0,0.8,0,1-0.1
				s0.4-0.2,0.6-0.4c0.2-0.2,0.5-0.6,0.7-1.1h0.2l-0.7,2h-6.1v-0.2h0.3c0.2,0,0.4,0,0.5-0.1c0.1-0.1,0.2-0.2,0.3-0.3
				s0.1-0.4,0.1-0.8v-5.2c0-0.5-0.1-0.8-0.2-0.9c-0.1-0.2-0.4-0.2-0.7-0.2h-0.3v-0.2h6.1l0.1,1.7h-0.2c-0.1-0.4-0.2-0.7-0.3-0.9
				s-0.2-0.3-0.4-0.4c-0.2-0.1-0.4-0.1-0.8-0.1H49.4z"/>
			<path class="st0" d="M60.6,27.2v2.7h-0.2c-0.1-0.5-0.2-0.9-0.4-1.3s-0.4-0.6-0.8-0.7s-0.7-0.3-1-0.3c-0.4,0-0.7,0.1-1,0.4
				s-0.4,0.5-0.4,0.8c0,0.2,0.1,0.5,0.3,0.7c0.2,0.3,0.8,0.7,1.7,1.2c0.7,0.4,1.2,0.7,1.5,0.9s0.5,0.5,0.6,0.8s0.2,0.6,0.2,0.9
				c0,0.6-0.2,1.1-0.7,1.6s-1.1,0.7-1.8,0.7c-0.2,0-0.4,0-0.7-0.1c-0.1,0-0.4-0.1-0.8-0.2S56.6,35,56.5,35c-0.1,0-0.2,0-0.2,0.1
				s-0.1,0.2-0.1,0.4h-0.2v-2.7h0.2c0.1,0.6,0.2,1,0.4,1.3s0.4,0.5,0.8,0.7S58,35,58.5,35c0.5,0,0.9-0.1,1.2-0.4s0.4-0.6,0.4-0.9
				c0-0.2-0.1-0.4-0.2-0.6s-0.3-0.4-0.5-0.6c-0.2-0.1-0.6-0.4-1.2-0.7s-1.2-0.7-1.5-0.9s-0.5-0.5-0.7-0.8s-0.2-0.6-0.2-0.9
				c0-0.6,0.2-1.1,0.7-1.5s1-0.6,1.7-0.6c0.4,0,0.9,0.1,1.3,0.3c0.2,0.1,0.4,0.1,0.5,0.1c0.1,0,0.2,0,0.2-0.1s0.1-0.2,0.2-0.4H60.6z
				"/>
			<path class="st0" d="M69.5,27.4l0.1,1.9h-0.2c0-0.3-0.1-0.6-0.2-0.7c-0.1-0.2-0.3-0.4-0.5-0.5s-0.5-0.2-0.8-0.2h-1.1v6.1
				c0,0.5,0.1,0.8,0.2,0.9c0.1,0.2,0.4,0.2,0.7,0.2h0.3v0.2h-3.4v-0.2h0.3c0.3,0,0.6-0.1,0.7-0.3c0.1-0.1,0.1-0.4,0.1-0.9v-6.1h-1
				c-0.4,0-0.6,0-0.8,0.1c-0.2,0.1-0.4,0.2-0.5,0.4s-0.2,0.5-0.3,0.9H63l0.1-1.9H69.5z"/>
			<path class="st0" d="M74.5,35.1v0.2h-3.4v-0.2h0.3c0.3,0,0.6-0.1,0.7-0.3c0.1-0.1,0.1-0.4,0.1-0.9v-5.1c0-0.4,0-0.7-0.1-0.8
				c0-0.1-0.1-0.2-0.2-0.3c-0.2-0.1-0.4-0.1-0.5-0.1h-0.3v-0.2h3.4v0.2h-0.3c-0.3,0-0.6,0.1-0.7,0.3c-0.1,0.1-0.1,0.4-0.1,0.9v5.1
				c0,0.4,0,0.7,0.1,0.8c0,0.1,0.1,0.2,0.2,0.3c0.2,0.1,0.3,0.1,0.5,0.1H74.5z"/>
			<path class="st0" d="M80.5,35.3l-3.1-6.7v5.3c0,0.5,0.1,0.8,0.2,0.9c0.1,0.2,0.4,0.2,0.7,0.2h0.3v0.2h-2.8v-0.2h0.3
				c0.3,0,0.6-0.1,0.7-0.3c0.1-0.1,0.1-0.4,0.1-0.9v-5.2c0-0.4,0-0.6-0.1-0.8c-0.1-0.1-0.2-0.2-0.3-0.3s-0.4-0.1-0.7-0.1v-0.2h2.2
				l2.9,6.2l2.8-6.2H86v0.2h-0.3c-0.3,0-0.6,0.1-0.7,0.3c-0.1,0.1-0.1,0.4-0.1,0.9v5.2c0,0.5,0.1,0.8,0.2,0.9
				c0.1,0.2,0.4,0.2,0.7,0.2H86v0.2h-3.4v-0.2h0.3c0.3,0,0.6-0.1,0.7-0.3c0.1-0.1,0.1-0.4,0.1-0.9v-5.3l-3.1,6.7H80.5z"/>
			<path class="st0" d="M89.7,27.8v3.1h1.7c0.5,0,0.8-0.1,0.9-0.2c0.2-0.2,0.3-0.5,0.3-0.9h0.2v2.8h-0.2c-0.1-0.4-0.1-0.6-0.2-0.7
				c-0.1-0.1-0.2-0.2-0.3-0.3s-0.4-0.1-0.7-0.1h-1.7V34c0,0.4,0,0.6,0,0.6s0.1,0.1,0.2,0.2s0.2,0.1,0.4,0.1h1.3c0.4,0,0.8,0,1-0.1
				s0.4-0.2,0.6-0.4c0.2-0.2,0.5-0.6,0.7-1.1h0.2l-0.7,2h-6.1v-0.2h0.3c0.2,0,0.4,0,0.5-0.1c0.1-0.1,0.2-0.2,0.3-0.3
				s0.1-0.4,0.1-0.8v-5.2c0-0.5-0.1-0.8-0.2-0.9c-0.1-0.2-0.4-0.2-0.7-0.2h-0.3v-0.2h6.1l0.1,1.7h-0.2c-0.1-0.4-0.2-0.7-0.3-0.9
				s-0.2-0.3-0.4-0.4c-0.2-0.1-0.4-0.1-0.8-0.1H89.7z"/>
			<path class="st0" d="M95.2,27.4h2.2l4.9,6v-4.6c0-0.5-0.1-0.8-0.2-0.9c-0.1-0.2-0.4-0.2-0.7-0.2h-0.3v-0.2h2.8v0.2h-0.3
				c-0.3,0-0.6,0.1-0.7,0.3c-0.1,0.1-0.1,0.4-0.1,0.9v6.7h-0.2L97.2,29v4.9c0,0.5,0.1,0.8,0.2,0.9c0.1,0.2,0.4,0.2,0.7,0.2h0.3v0.2
				h-2.8v-0.2h0.3c0.3,0,0.6-0.1,0.7-0.3c0.1-0.1,0.1-0.4,0.1-0.9v-5.5c-0.2-0.3-0.4-0.4-0.5-0.5s-0.3-0.2-0.5-0.2
				c-0.1,0-0.3-0.1-0.5-0.1V27.4z"/>
			<path class="st0" d="M111.8,27.4l0.1,1.9h-0.2c0-0.3-0.1-0.6-0.2-0.7c-0.1-0.2-0.3-0.4-0.5-0.5s-0.5-0.2-0.8-0.2h-1.1v6.1
				c0,0.5,0.1,0.8,0.2,0.9c0.1,0.2,0.4,0.2,0.7,0.2h0.3v0.2h-3.4v-0.2h0.3c0.3,0,0.6-0.1,0.7-0.3c0.1-0.1,0.1-0.4,0.1-0.9v-6.1h-1
				c-0.4,0-0.6,0-0.8,0.1c-0.2,0.1-0.4,0.2-0.5,0.4s-0.2,0.5-0.3,0.9h-0.2l0.1-1.9H111.8z"/>
			<path class="st0" d="M117.2,27.2c1,0,1.9,0.4,2.7,1.2s1.1,1.8,1.1,2.9c0,1.2-0.4,2.2-1.1,3s-1.7,1.2-2.8,1.2
				c-1.1,0-2-0.4-2.8-1.2s-1.1-1.8-1.1-3c0-1.3,0.4-2.3,1.3-3.1C115.3,27.5,116.2,27.2,117.2,27.2z M117.1,27.6
				c-0.7,0-1.3,0.3-1.7,0.8c-0.5,0.7-0.8,1.6-0.8,2.9c0,1.3,0.3,2.3,0.8,3c0.4,0.5,1,0.8,1.7,0.8c0.7,0,1.4-0.3,1.8-0.9
				s0.7-1.5,0.7-2.8c0-1.4-0.3-2.4-0.8-3C118.4,27.9,117.8,27.6,117.1,27.6z"/>
			<path class="st0" d="M127.8,27.2v2.7h-0.2c-0.1-0.5-0.2-0.9-0.4-1.3s-0.4-0.6-0.8-0.7s-0.7-0.3-1-0.3c-0.4,0-0.7,0.1-1,0.4
				s-0.4,0.5-0.4,0.8c0,0.2,0.1,0.5,0.3,0.7c0.2,0.3,0.8,0.7,1.7,1.2c0.7,0.4,1.2,0.7,1.5,0.9s0.5,0.5,0.6,0.8s0.2,0.6,0.2,0.9
				c0,0.6-0.2,1.1-0.7,1.6s-1.1,0.7-1.8,0.7c-0.2,0-0.4,0-0.7-0.1c-0.1,0-0.4-0.1-0.8-0.2s-0.6-0.2-0.7-0.2c-0.1,0-0.2,0-0.2,0.1
				s-0.1,0.2-0.1,0.4h-0.2v-2.7h0.2c0.1,0.6,0.2,1,0.4,1.3s0.4,0.5,0.8,0.7s0.7,0.3,1.2,0.3c0.5,0,0.9-0.1,1.2-0.4s0.4-0.6,0.4-0.9
				c0-0.2-0.1-0.4-0.2-0.6s-0.3-0.4-0.5-0.6c-0.2-0.1-0.6-0.4-1.2-0.7s-1.2-0.7-1.4-0.9s-0.5-0.5-0.7-0.8s-0.2-0.6-0.2-0.9
				c0-0.6,0.2-1.1,0.7-1.5s1-0.6,1.7-0.6c0.4,0,0.9,0.1,1.3,0.3c0.2,0.1,0.4,0.1,0.5,0.1c0.1,0,0.2,0,0.2-0.1s0.1-0.2,0.2-0.4H127.8
				z"/>
		</g>
		<line class="st1" x1="0" y1="21.6" x2="152" y2="21.6"/>
	</g>
	<g>
		<path class="st0" d="M11.6,8.1c1.1,0.2,1.9,0.6,2.5,1.1c0.8,0.7,1.1,1.6,1.1,2.6c0,0.8-0.2,1.5-0.7,2.3s-1.2,1.2-2,1.6
			s-2.2,0.5-4,0.5H0.9v-0.4h0.6c0.7,0,1.1-0.2,1.4-0.6c0.2-0.3,0.3-0.9,0.3-1.7V3.2c0-1-0.1-1.6-0.3-1.9C2.6,1,2.1,0.8,1.5,0.8H0.9
			V0.4h6.8c1.3,0,2.3,0.1,3.1,0.3c1.2,0.3,2.1,0.8,2.7,1.5c0.6,0.7,0.9,1.5,0.9,2.5c0,0.8-0.2,1.5-0.7,2.1
			C13.2,7.3,12.5,7.8,11.6,8.1z M5.5,7.5c0.3,0.1,0.6,0.1,1,0.1c0.4,0,0.8,0,1.2,0c1.1,0,2-0.1,2.6-0.4c0.6-0.2,1-0.6,1.3-1.1
			C11.8,5.6,12,5.1,12,4.5c0-0.9-0.4-1.7-1.1-2.4c-0.8-0.7-1.9-1-3.3-1c-0.8,0-1.5,0.1-2.1,0.3V7.5z M5.5,15
			c0.9,0.2,1.8,0.3,2.7,0.3c1.4,0,2.5-0.3,3.2-1c0.7-0.6,1.1-1.4,1.1-2.3c0-0.6-0.2-1.2-0.5-1.8c-0.3-0.6-0.9-1-1.6-1.3
			C9.6,8.6,8.6,8.4,7.5,8.4c-0.5,0-0.9,0-1.2,0c-0.3,0-0.6,0-0.8,0.1V15z"/>
		<path class="st0" d="M32.6,16.2h-4.2L23,8.8c-0.4,0-0.7,0-1,0c-0.1,0-0.2,0-0.3,0c-0.1,0-0.2,0-0.4,0v4.6c0,1,0.1,1.6,0.3,1.9
			c0.3,0.3,0.7,0.5,1.3,0.5h0.6v0.4h-6.8v-0.4h0.6c0.7,0,1.1-0.2,1.4-0.7c0.2-0.2,0.2-0.8,0.2-1.7V3.2c0-1-0.1-1.6-0.3-1.9
			c-0.3-0.3-0.8-0.5-1.4-0.5h-0.6V0.4h5.8c1.7,0,2.9,0.1,3.7,0.4c0.8,0.2,1.5,0.7,2,1.4c0.6,0.7,0.8,1.4,0.8,2.3c0,1-0.3,1.8-1,2.5
			c-0.6,0.7-1.6,1.2-2.9,1.5l3.3,4.5c0.7,1,1.4,1.7,1.9,2.1c0.5,0.3,1.2,0.6,2.1,0.7V16.2z M21.4,8c0.1,0,0.3,0,0.4,0
			c0.1,0,0.2,0,0.3,0c1.5,0,2.6-0.3,3.4-1c0.8-0.7,1.1-1.5,1.1-2.5c0-1-0.3-1.8-0.9-2.4c-0.6-0.6-1.4-0.9-2.5-0.9
			c-0.5,0-1.1,0.1-1.8,0.2V8z"/>
		<path class="st0" d="M46.1,11.8l0.4,0.1l-1.4,4.3H32.8v-0.4h0.6c0.7,0,1.1-0.2,1.4-0.7c0.2-0.2,0.2-0.8,0.2-1.7V3.2
			c0-1-0.1-1.6-0.3-1.9C34.5,1,34,0.8,33.4,0.8h-0.6V0.4H40v0.4c-0.8,0-1.4,0.1-1.8,0.2s-0.6,0.4-0.7,0.6s-0.2,0.8-0.2,1.8v9.9
			c0,0.6,0.1,1.1,0.2,1.3c0.1,0.2,0.2,0.3,0.4,0.4s0.8,0.1,1.8,0.1h1.2c1.2,0,2.1-0.1,2.6-0.3s0.9-0.5,1.3-1
			C45.2,13.5,45.6,12.8,46.1,11.8z"/>
	</g>
	<g>
		<path class="st0" d="M89.5,0.4l0.2,3.7h-0.4c-0.1-0.7-0.2-1.1-0.3-1.4c-0.2-0.5-0.6-0.8-1-1c-0.4-0.2-0.9-0.3-1.6-0.3h-2.2v12.1
			c0,1,0.1,1.6,0.3,1.8c0.3,0.3,0.7,0.5,1.4,0.5h0.5v0.4h-6.7v-0.4h0.6c0.7,0,1.1-0.2,1.4-0.6c0.2-0.2,0.3-0.8,0.3-1.7V1.4H80
			c-0.7,0-1.3,0.1-1.6,0.2c-0.4,0.1-0.7,0.4-1,0.9c-0.3,0.4-0.5,1-0.5,1.7h-0.4l0.2-3.7H89.5z"/>
		<path class="st0" d="M106.4,16.2h-4.2l-5.3-7.4c-0.4,0-0.7,0-1,0c-0.1,0-0.2,0-0.3,0c-0.1,0-0.2,0-0.4,0v4.6c0,1,0.1,1.6,0.3,1.9
			c0.3,0.3,0.7,0.5,1.3,0.5h0.6v0.4h-6.8v-0.4h0.6c0.7,0,1.1-0.2,1.4-0.7c0.2-0.2,0.2-0.8,0.2-1.7V3.2c0-1-0.1-1.6-0.3-1.9
			c-0.3-0.3-0.8-0.5-1.4-0.5h-0.6V0.4h5.8c1.7,0,2.9,0.1,3.7,0.4c0.8,0.2,1.5,0.7,2,1.4c0.6,0.7,0.8,1.4,0.8,2.3c0,1-0.3,1.8-1,2.5
			c-0.6,0.7-1.6,1.2-2.9,1.5l3.3,4.5c0.7,1,1.4,1.7,1.9,2.1c0.5,0.3,1.2,0.6,2.1,0.7V16.2z M95.2,8c0.1,0,0.3,0,0.4,0
			c0.1,0,0.2,0,0.3,0c1.5,0,2.6-0.3,3.4-1c0.8-0.7,1.1-1.5,1.1-2.5c0-1-0.3-1.8-0.9-2.4c-0.6-0.6-1.4-0.9-2.5-0.9
			c-0.5,0-1.1,0.1-1.8,0.2V8z"/>
		<path class="st0" d="M117.6,0.8V0.4h5.6v0.4h-0.6c-0.6,0-1.1,0.3-1.4,0.8c-0.2,0.2-0.2,0.8-0.2,1.7v6.4c0,1.6-0.2,2.8-0.5,3.7
			s-0.9,1.6-1.9,2.2c-0.9,0.6-2.2,0.9-3.8,0.9c-1.7,0-3-0.3-3.9-0.9s-1.5-1.4-1.9-2.4c-0.2-0.7-0.4-2-0.4-3.9V3.2
			c0-1-0.1-1.6-0.4-1.9c-0.3-0.3-0.7-0.5-1.3-0.5h-0.6V0.4h6.8v0.4h-0.6c-0.7,0-1.1,0.2-1.4,0.6c-0.2,0.3-0.3,0.9-0.3,1.7V10
			c0,0.6,0.1,1.3,0.2,2.1s0.3,1.4,0.6,1.9c0.3,0.4,0.7,0.8,1.3,1.1c0.6,0.3,1.2,0.4,2,0.4c1,0,2-0.2,2.8-0.7c0.8-0.5,1.4-1,1.7-1.7
			s0.4-1.9,0.4-3.6V3.2c0-1-0.1-1.6-0.3-1.9c-0.3-0.3-0.8-0.5-1.4-0.5H117.6z"/>
		<path class="st0" d="M134.4,0v5.5H134c-0.1-1-0.4-1.9-0.8-2.5s-0.9-1.1-1.5-1.5s-1.4-0.5-2.1-0.5c-0.8,0-1.5,0.2-2,0.7
			c-0.5,0.5-0.8,1.1-0.8,1.7c0,0.5,0.2,0.9,0.5,1.3c0.5,0.6,1.6,1.4,3.4,2.3c1.5,0.8,2.5,1.4,3,1.8c0.5,0.4,1,0.9,1.2,1.5
			c0.3,0.6,0.4,1.2,0.4,1.8c0,1.2-0.5,2.2-1.4,3.1s-2.1,1.3-3.6,1.3c-0.5,0-0.9,0-1.3-0.1c-0.2,0-0.7-0.2-1.5-0.4
			c-0.8-0.2-1.2-0.4-1.4-0.4c-0.2,0-0.3,0.1-0.5,0.2c-0.1,0.1-0.2,0.4-0.3,0.7h-0.4v-5.4h0.4c0.2,1.1,0.5,2,0.8,2.5s0.9,1,1.6,1.4
			c0.7,0.4,1.5,0.6,2.3,0.6c1,0,1.7-0.3,2.3-0.8s0.8-1.1,0.8-1.8c0-0.4-0.1-0.8-0.3-1.2c-0.2-0.4-0.5-0.8-1-1.1
			c-0.3-0.2-1.1-0.7-2.5-1.5c-1.4-0.8-2.3-1.4-2.9-1.8c-0.6-0.5-1-0.9-1.3-1.5c-0.3-0.5-0.4-1.1-0.4-1.8c0-1.1,0.4-2.1,1.3-2.9
			c0.9-0.8,2-1.2,3.3-1.2c0.8,0,1.7,0.2,2.7,0.6c0.4,0.2,0.7,0.3,0.9,0.3c0.2,0,0.4-0.1,0.5-0.2c0.1-0.1,0.2-0.4,0.3-0.7H134.4z"/>
		<path class="st0" d="M150.5,0.4l0.2,3.7h-0.4c-0.1-0.7-0.2-1.1-0.3-1.4c-0.2-0.5-0.6-0.8-1-1c-0.4-0.2-0.9-0.3-1.6-0.3h-2.2v12.1
			c0,1,0.1,1.6,0.3,1.8c0.3,0.3,0.7,0.5,1.4,0.5h0.5v0.4h-6.7v-0.4h0.6c0.7,0,1.1-0.2,1.4-0.6c0.2-0.2,0.3-0.8,0.3-1.7V1.4H141
			c-0.7,0-1.3,0.1-1.6,0.2c-0.4,0.1-0.7,0.4-1,0.9c-0.3,0.4-0.5,1-0.5,1.7h-0.4l0.2-3.7H150.5z"/>
	</g>
</g>
</svg>
