<?xml version="1.0" encoding="utf-8"?>
<!-- Generator: Adobe Illustrator 24.0.0, SVG Export Plug-In . SVG Version: 6.00 Build 0)  -->
<svg version="1.1" id="Layer_1" xmlns="http://www.w3.org/2000/svg" xmlns:xlink="http://www.w3.org/1999/xlink" x="0px" y="0px"
	 viewBox="0 0 497.7 166.1" style="enable-background:new 0 0 497.7 166.1;" xml:space="preserve">
<style type="text/css">
	.st0{fill:#7F7F7F;}
	.st1{fill:#BBBBBB;}
</style>
<g>
	<path class="st0" d="M114.2,121.6c-6.2,6.2-14.8,10.1-24.3,10.1c-19,0-34.4-15.4-34.4-34.4c0-19,15.4-34.4,34.4-34.4
		c4.6,0,9,0.9,13,2.5l9.2-21.9c-6.9-2.8-14.4-4.4-22.3-4.4c-32.2,0-58.3,26.1-58.3,58.3c0,32.2,26.1,58.3,58.3,58.3
		c15.8,0,30.2-6.3,40.7-16.5L114.2,121.6z"/>
	<path class="st0" d="M293.8,84.1c-6-25.9-29.1-45.1-56.8-45.1c-32.2,0-58.3,26.1-58.3,58.3c0,11.7,3.4,22.6,9.4,31.7L293.8,84.1z
		 M261.4,121.5c-6.2,6.2-14.8,10.1-24.3,10.1c-6.8,0-13.2-2-18.5-5.4l-12.9,20.2c9,5.8,19.8,9.1,31.3,9.1c15.8,0,30.2-6.3,40.7-16.6
		L261.4,121.5z M202.9,101.1c-0.1-1.3-0.2-2.6-0.2-3.9c0-19,15.4-34.4,34.4-34.4c10.4,0,19.8,4.7,26.1,12L202.9,101.1z"/>
	<path class="st0" d="M431.2,122.6c-6.1,5.6-14.2,9-23.2,9c-19,0-34.4-15.4-34.4-34.4c0-5.3,1.2-10.2,3.3-14.7L355.3,72
		c-3.7,7.6-5.7,16.2-5.7,25.2c0,32.2,26.1,58.3,58.3,58.3c15.2,0,29-5.8,39.3-15.3L431.2,122.6z"/>
	<path class="st0" d="M122.3,72.6l8.9-22.1l18.5,7.6c0,0,14.1,5.2,14.1,22.2v73.5h-22.3V80.9L122.3,72.6z"/>
	<path class="st0" d="M346.1,133.4l-8.9,22.1l-18.5-7.6c0,0-14.1-5.2-14.1-22.2V12.5h22.3V125L346.1,133.4z"/>
	<path class="st1" d="M384.7,71.8c6.1-5.6,14.2-9,23.2-9c19,0,34.4,15.4,34.4,34.4c0,5.3-1.2,10.2-3.3,14.7l21.5,10.4
		c3.7-7.6,5.7-16.2,5.7-25.2c0-32.2-26.1-58.3-58.3-58.3c-15.2,0-29,5.8-39.3,15.3L384.7,71.8z"/>
	<circle class="st1" cx="152.6" cy="26.8" r="16.2"/>
</g>
</svg>
