<?xml version="1.0" encoding="utf-8"?>
<!-- Generator: Adobe Illustrator 24.0.0, SVG Export Plug-In . SVG Version: 6.00 Build 0)  -->
<svg version="1.1" id="Camada_1" xmlns="http://www.w3.org/2000/svg" xmlns:xlink="http://www.w3.org/1999/xlink" x="0px" y="0px"
	 viewBox="0 0 544.4 147.8" style="enable-background:new 0 0 544.4 147.8;" xml:space="preserve">
<style type="text/css">
	.st0{fill-rule:evenodd;clip-rule:evenodd;fill:#999999;}
</style>
<g>
	<path class="st0" d="M160.4,60.4c8.1-6.4,18.3-9.6,29.8-9.6c6,0,14.4,1.2,19.6,2.7c1.3,0.3,3.1,0.7,3.1,0.7l1.6,16.5
		c0,0-0.4,0-1.6,0c-1.7-7.6-8.1-16.4-24.1-16.4c-16.9,0-31.3,10.9-31.2,34.2c0,23.6,14.8,36.6,32.9,36.5c14.3,0,22-9.5,24.5-16.1
		c1.2,0,1.6,0,1.6,0l-5.4,15.9c0,0-2.7,0.7-3.9,1.1c-2.4,0.9-10.4,2.6-17.5,2.6c-9.9,0-19.5-2-27.5-7.5
		c-8.9-6.2-15.7-16.4-15.7-30.8C146.5,77.7,152.1,67,160.4,60.4z M362.6,110.7c0,11.8-1.1,13.8-7.4,14.4l-3,0c0,1.2,0,0.5,0,1.6
		c0.8,0,54.6-0.1,54.6-0.1l3.9-16c0,0-0.4-0.1-1.5-0.4c-2.9,5.8-5.8,9.8-7.8,10.9c-2.4,1.2-5.6,1.7-14.1,1.7c-9.7,0-12-1.2-13.4-2.6
		c-1.8-1.9-2.1-4.5-2.1-10.5l0-17c0-2.9,0.3-3,3.6-3l6.4,0c4.3,0,7,0.1,8.5,0.5c2.2,0.6,3,2.2,3.4,4.3l1,4.4l1.6,0l0-22.3l-1.6,0
		l-0.9,4.6c-0.5,2.8-1.3,3.5-2.6,3.9c-1.3,0.5-4.7,0.7-9.4,0.7l-6.4,0c-3.3,0-3.7,0-3.7-3.1l0-22.4c0-4.3,0-4.5,3.3-4.5l8,0
		c4.9,0,8.4,0.1,10.7,0.7c5.8,1.4,6.8,5.4,8.4,10.7c1.2-0.1,1.6-0.1,1.6-0.1l-1.8-15c0,0-46.7,0.1-47.7,0.1v1.6l1.8,0.2
		c6.5,0.8,6.7,2.5,6.8,14.1L362.6,110.7z M423.4,110.6c0,11.8-0.2,13.4-6.6,14l-3.3,0.3c0,0.9,0,0.9,0,1.6c6.3,0,51.8-0.1,51.8-0.1
		l3.9-16c0,0-0.9-0.3-1.6-0.5c-2.2,5.7-5.1,9.8-7.3,11.2c-1.8,1-4.1,1.5-13.5,1.5c-8.7,0-10.8-1.3-12-2.6c-2-2.1-2.3-5-2.3-12.1
		l-0.1-40.3c0-11.8,0.2-13.6,6.7-14.2l2.6-0.2v-1.6c-5.8,0-28.4,0.1-28.4,0.1s0,0.5,0,1.6l2.8,0.2c7,0.5,7.2,2.3,7.2,14.1
		L423.4,110.6z M544.4,124.8v1.6c0,0-23.6,0-26.9,0v-1.6c7.2,0,7.1-2.4,7.1-3.5c0-1.2-0.6-3.3-1.4-5.9l-4.9-15.3
		c-0.8-2.5-1.2-2.8-4.5-2.8l-16.7,0c-2.7,0-3.4,0.3-4.2,2.7l-3.8,11.8c-1.7,5.1-2.4,8.1-2.4,9.3c0,1.4,1,3.7,6.9,3.7v1.6l-22.5,0
		c0,0,0-0.1,0-1.6c5.7,0,8.7-3,10.3-7c2-5.2,5.1-12.5,9.7-25.1L504,57.2l-0.5-1.4l7.3-5.5l20.6,61.2c2.4,7.2,3.9,9.5,6.1,11.3
		C538.3,123.4,541,124.8,544.4,124.8z M514.7,89.4l-6-18.3c-0.9-2.7-1.9-5.7-2.6-7.1h-0.2c-0.3,0.6-1.4,3.3-2.6,6.6l-6.9,19.5
		c-0.9,2.6-0.8,2.7,2.3,2.7l13.6,0C515.5,92.8,515.7,92.4,514.7,89.4z M255.3,92.6c-4.6-8.4-13.8-27.6-16.4-33.1
		c-2-4.3,2.6-5.7,5.4-5.8v-1.6c0,0-22.1,0-25.5,0c0,0.7,0,0.8,0,1.6c2.4,0,7.5,0.9,11.2,8.3l14,27.7c3.2,6.3,3.5,7.6,3.6,13.8l0,7
		c0,12-0.2,13.6-6.6,14.3l-4.6,0.3c0,0.7,0,1.6,0,1.6l31.5-0.1c0,0,0-0.9,0-1.6l-4.6-0.3c-6-0.4-6.6-2.2-6.7-14.2l0-7
		C256.7,97.5,256.7,95.2,255.3,92.6z M354.2,125.1c-1.9,0-4-0.9-6.8-3.2c-7.6-6.3-9.7-10-18.6-24.5c-0.6-0.9-5.3-8-12.2-8
		c-2.9,0-17.8,0-19.8,0c-2,0-2.1,2.2-2.1,2.2l0,19.2c0,11.8-0.2,13.3-6.6,14l-3.2,0.3l0,1.6l28.2-0.1l0-1.6l-2.7-0.3
		c-6.4-0.9-6.6-2.2-6.7-14l0-15.3c0-2.4,0.3-2.7,2.3-2.7l3.8,0c4.4,0,5.6,1.1,7.3,3.6c3.4,5,8.6,13.9,11.4,18
		c7.9,11.3,12.7,12.3,22.1,12.3c1.2,0,2.2,0,3.6,0C354.2,125.9,354.2,125.8,354.2,125.1z M303.7,85.5l0-26.4c0-3.1,0.3-3.6,7.2-3.6
		c12.3,0,18.1,8.7,18.1,17.3c0,9-4.8,13.6-5.3,13.9c0,0,0.3,0.2,1.7,0.2c4.1,0,13.7-4.3,13.6-15.8c0-7.5-3.8-12.9-9.1-15.7
		c-5.1-2.8-12.1-3.3-19-3.3c-10.8,0-19.1,0-25.3,0l0,1.6c0,0,9,0.1,9,8c0,0,0,17.7,0,21.6c0,0,0.1,2.2,2.1,2.2L303.7,85.5z
		 M272.9,59c-0.5,1.7-6.2,13.4-6.2,13.4l2.3,0l12.7-18.7v-1.6c0,0-11.1,0-16.4,0v1.6C265.2,53.7,274.5,53.3,272.9,59z"/>
	<path class="st0" d="M52.5,0c-0.4,0.2,52.3,28.6,52.3,28.6H0.7C0.7,28.6,52.9-0.2,52.5,0z M0,147.8V40.5h105.6v107.2H0z
		 M85.4,123.8c0,1.8-1.4,3.2-3.2,3.2H23.9c-1.8,0-3.2-1.5-3.2-3.2V64.5c0-1.8,1.4-3.2,3.2-3.2h58.4c1.8,0,3.2,1.5,3.2,3.2V123.8z"/>
</g>
</svg>
