<?xml version="1.0" encoding="utf-8"?>
<!-- Generator: Adobe Illustrator 24.0.0, SVG Export Plug-In . SVG Version: 6.00 Build 0)  -->
<svg version="1.1" id="Camada_1" xmlns="http://www.w3.org/2000/svg" xmlns:xlink="http://www.w3.org/1999/xlink" x="0px" y="0px"
	 viewBox="0 0 615.2 116" style="enable-background:new 0 0 615.2 116;" xml:space="preserve">
<style type="text/css">
	.st0{fill:#B6B6B6;}
	.st1{fill:#9E9E9E;}
</style>
<g>
	<path class="st0" d="M1,0l52.6,43L92,1.5C92.5,0.9,92.1,0,91.3,0L1,0L1,0z"/>
	<path class="st0" d="M1,116l52.6-43L92,114.5c0.5,0.6,0.1,1.5-0.7,1.5H1z"/>
	<path class="st1" d="M1.6,0.2l69.9,57c0.5,0.4,0.5,1.1,0,1.5l-69.9,57C1,116.3,0,115.8,0,115V1C0,0.2,1-0.3,1.6,0.2z"/>
	<path class="st1" d="M290.7,82.3c0,19.9-16.1,33.6-36.1,33.6h-48.2c-0.5,0-0.9-0.4-0.9-0.9V0.9c0-0.5,0.4-0.9,0.9-0.9h44.8
		c19.5,0,35.3,13.2,35.3,32.6c0,9.9-4.1,17.7-10.9,23.2C284.8,61.1,290.7,70.2,290.7,82.3z M228.3,22.2v23.8c0,0.5,0.4,1,1,1h21.9
		c7.5,0,13-6.1,12.4-14c-0.5-6.6-6.3-11.5-12.9-11.5l-21.6,0C228.6,21.4,228.3,21.7,228.3,22.2z M268,79.7
		c-0.4-7.1-6.6-12.5-13.7-12.5l-26,0v27.3h26.3C262.7,94.6,268.5,88.2,268,79.7z M372.5,95.1h-45c-0.4,0-0.7,0.2-0.8,0.6l-6.6,19.7
		c-0.1,0.4-0.4,0.6-0.8,0.6h-22.8c-0.6,0-1-0.6-0.8-1.1l40-114.2c0.1-0.3,0.4-0.6,0.8-0.6h27.1c0.4,0,0.7,0.2,0.8,0.6l40.1,114.2
		c0.2,0.6-0.2,1.1-0.8,1.1h-23c-0.4,0-0.7-0.2-0.8-0.6l-6.6-19.7C373.2,95.3,372.9,95.1,372.5,95.1z M365.7,72.6L351,28.8
		c-0.3-0.8-1.4-0.8-1.6,0l-14.7,43.8c-0.2,0.6,0.2,1.1,0.8,1.1h29.4C365.4,73.7,365.9,73.1,365.7,72.6z M506.1,1v114
		c0,0.5-0.4,0.9-0.9,0.9h-16c-0.3,0-0.6-0.1-0.8-0.4l-49.4-70.5V115c0,0.5-0.4,0.9-0.9,0.9h-21c-0.5,0-0.9-0.4-0.9-0.9V1
		c0-0.5,0.4-0.9,0.9-0.9h16c0.3,0,0.6,0.1,0.8,0.4l49.4,70.3V1c0-0.5,0.4-0.9,0.9-0.9h21C505.7,0,506.1,0.4,506.1,1z M589.6,115.4
		l-21.4-35.9c-0.4-0.6-1.3-0.6-1.7,0l-21.4,35.9c-0.2,0.3-0.5,0.5-0.8,0.5h-23.6c-0.8,0-1.2-0.8-0.8-1.5L554.2,57
		c0.2-0.3,0.2-0.7,0-1L521.7,1.5c-0.4-0.6,0.1-1.5,0.8-1.5h23.6c0.3,0,0.7,0.2,0.8,0.5l19.6,32.9c0.4,0.6,1.3,0.6,1.7,0l19.6-32.9
		c0.2-0.3,0.5-0.5,0.8-0.5h23.6c0.8,0,1.2,0.8,0.8,1.5l-32.4,54.3c-0.2,0.3-0.2,0.7,0,1l34.4,57.6c0.4,0.6-0.1,1.5-0.8,1.5h-23.7
		C590.1,115.9,589.8,115.7,589.6,115.4z M145.8,94c-3-0.4-5.3-2.9-5.3-6V69c0-0.5,0.4-0.9,0.9-0.9h42.1c0.5,0,0.9-0.4,0.9-0.9V47.4
		c0-0.5-0.4-0.9-0.9-0.9h-42.1c-0.5,0-0.9-0.4-0.9-0.9V22.8c0-0.5,0.4-0.9,0.9-0.9h46.2c0.5,0,0.9-0.4,0.9-0.9V0.9
		c0-0.5-0.4-0.9-0.9-0.9h-69.1c-0.5,0-0.9,0.4-0.9,0.9v69.8v23.6c0,12,9.7,21.7,21.7,21.7h50V94H145.8L145.8,94z"/>
</g>
</svg>
