<?xml version="1.0" encoding="UTF-8"?>
<svg width="97px" height="51px" viewBox="0 0 97 51" version="1.1" xmlns="http://www.w3.org/2000/svg" xmlns:xlink="http://www.w3.org/1999/xlink">
    <!-- Generator: Sketch 54 (76480) - https://sketchapp.com -->
    <title>ifood</title>
    <desc>Created with Sketch.</desc>
    <g id="desktop" stroke="none" stroke-width="1" fill="none" fill-rule="evenodd" opacity="0.800000012">
        <g id="01-home-idwall" transform="translate(-1077.000000, -890.000000)" fill="#7E7E7E">
            <g id="Group-8" transform="translate(352.000000, 877.000000)">
                <g id="ifood" transform="translate(725.000000, 13.000000)">
                    <path d="M-9.05941988e-14,29.274 L7.35157895,29.274 L11.4357895,8.976 L4.08421053,8.976 L-9.05941988e-14,29.274 Z M5.61578947,7.14 L14.2947368,7.14 L15.7242105,9.23705556e-14 L7.04526316,9.23705556e-14 L5.61578947,7.14 Z M10.2105263,34.986 L17.5621053,34.986 L22.0547368,13.056 L27.5684211,13.056 L28.3852632,8.976 L22.9736842,8.976 L23.1778947,8.058 C23.4842105,6.324 24.0968421,4.386 26.8536842,4.386 C28.4873684,4.386 30.0189474,4.488 31.5505263,5.202 L32.3673684,0.918 C30.6315789,0.306 28.7936842,9.23705556e-14 27.0578947,9.23705556e-14 C21.1357895,9.23705556e-14 17.0515789,3.468 15.52,8.976 L12.9673684,8.976 L12.1505263,13.056 L14.7031579,13.056 L10.2105263,34.986 Z" id="Shape"></path>
                    <path d="M33.4905263,29.682 C42.1694737,29.682 48.1936842,21.828 48.1936842,15.402 C48.1936842,10.608 43.8031579,8.568 39.5147368,8.568 C30.0189474,8.568 24.8115789,17.034 24.8115789,22.848 C24.8115789,27.642 29.3042105,29.682 33.4905263,29.682 L33.4905263,29.682 Z M56.7705263,29.682 C65.4494737,29.682 71.4736842,21.828 71.4736842,15.402 C71.4736842,10.608 66.9810526,8.568 62.6926316,8.568 C53.1968421,8.568 47.9894737,17.034 47.9894737,22.848 C47.9894737,27.642 52.5842105,29.682 56.7705263,29.682 L56.7705263,29.682 Z M83.42,29.274 L90.6694737,29.274 L96.5915789,0.408 L89.24,0.408 L87.5042105,8.976 L84.4410526,8.67 C77.2936842,8.67 70.7589474,17.85 70.7589474,24.378 C70.7589474,27.03 72.4947368,29.682 75.4557895,29.682 C79.6421053,29.682 82.6031579,27.642 83.8284211,25.602 L84.2368421,25.602 L83.42,29.274 L83.42,29.274 Z M60.7526316,44.472 C55.046233,49.1947261 47.7172999,51.50096 40.3315789,50.898 C30.6315789,50.286 23.6884211,42.84 22.4631579,34.986 L22.8715789,34.986 C25.1178947,39.882 30.5294737,44.472 37.1663158,45.186 C43.9052632,46.002 51.9715789,42.942 56.3621053,38.76 L51.4610526,34.986 L66.2663158,34.986 L62.9989474,50.694 L60.8547368,44.574 L60.7526316,44.472 Z" id="Shape"></path>
                </g>
            </g>
        </g>
    </g>
</svg>