<?xml version="1.0" encoding="UTF-8"?>
<svg width="124px" height="41px" viewBox="0 0 124 41" version="1.1" xmlns="http://www.w3.org/2000/svg" xmlns:xlink="http://www.w3.org/1999/xlink">
    <!-- Generator: Sketch 54 (76480) - https://sketchapp.com -->
    <title>loggi</title>
    <desc>Created with Sketch.</desc>
    <g id="desktop" stroke="none" stroke-width="1" fill="none" fill-rule="evenodd" opacity="0.800000012">
        <g id="01-home-idwall" transform="translate(-692.000000, -895.000000)" fill="#7E7E7E" fill-rule="nonzero">
            <g id="Group-8" transform="translate(352.000000, 877.000000)">
                <g id="loggi" transform="translate(340.000000, 18.000000)">
                    <polygon id="Fill-1" points="50.1624186 6.73485184 45.5301462 6.73485184 45.5301462 31.0431522 60.2604859 31.0431522 60.2604859 26.5825504 50.1624186 26.5825504"></polygon>
                    <path d="M69.7023092,26.8598862 C66.9488571,26.8400209 65.0003733,24.7598863 65.0307557,21.8725125 C65.0608042,18.9987751 66.9945977,17.0068559 69.7517226,17.0095495 C72.5338878,17.0122432 74.4503198,19.033792 74.4371319,21.9521422 C74.4239438,24.8575294 72.472789,26.8799199 69.7023092,26.8598862 L69.7023092,26.8598862 Z M69.7487177,12.9677987 C64.6043996,12.9494485 60.6655308,16.8322768 60.6663654,21.9209974 C60.6672001,27.0191455 64.5853688,30.8964183 69.7326918,30.8927145 C74.9103971,30.8891791 78.8048608,27.0447347 78.8038593,21.9381691 C78.8030245,16.8095496 74.9436175,12.9861489 69.7487177,12.9677987 L69.7487177,12.9677987 Z" id="Fill-2"></path>
                    <path d="M93.4238488,22.0039772 C93.3871228,24.8804081 91.4469857,26.8799031 88.6937004,26.8598694 C85.9402482,26.8400042 83.9917644,24.7598694 84.0221468,21.872664 C84.0523624,18.9987583 85.9859889,17.0068391 88.7431137,17.0095327 C91.5057473,17.0123947 93.4101599,19.0076809 93.4238488,21.8930344 C93.4238488,21.9300714 93.4236818,21.9669401 93.4238488,22.0039772 M93.4200093,14.1868054 C92.0723301,13.4172768 90.4845962,12.9738425 88.7401089,12.9677819 C83.5957908,12.9494317 79.6569219,16.83226 79.6577566,21.9209805 C79.6585913,27.0191286 83.57676,30.8964014 88.7242499,30.892866 C90.4742461,30.8915192 92.0714954,30.4430345 93.4276884,29.6637414 C93.4281892,30.8506101 93.4286899,31.5997684 93.4286899,31.5997684 C93.415502,34.5056607 91.4643471,36.5219906 88.6937004,36.5219906 C85.1359479,36.5219906 83.5714181,33.0452229 83.5714181,33.0452229 L80.3123149,35.0406775 C80.3123149,35.0406775 82.1846758,40.5549872 88.7242499,40.5549872 C93.9017882,40.5512836 97.796252,36.7068392 97.7954173,31.6002735 L97.7954174,12.9543139 L93.4195085,12.9543139 C93.4195085,12.9543139 93.4196753,13.4134048 93.4200093,14.1868054" id="Fill-4"></path>
                    <path d="M112.415257,22.0049704 C112.37803,24.8808964 110.43806,26.8798862 107.685108,26.8598526 C104.931656,26.8399873 102.983172,24.7598525 103.013555,21.8726471 C103.04377,18.9987415 104.977397,17.0068223 107.734522,17.0096842 C110.496821,17.0123778 112.4009,19.0073273 112.415257,21.8920075 C112.415257,21.9297179 112.41509,21.96726 112.415257,22.0049704 M112.411417,14.1867886 C111.063738,13.41726 109.476004,12.9738256 107.731684,12.967765 C102.587366,12.9494149 98.6483298,16.8322431 98.6491645,21.9209637 C98.6499992,27.0191119 102.568168,30.8963845 107.715658,30.8928492 C109.465654,30.8915023 111.06307,30.4431858 112.419096,29.6638929 C112.419597,30.8507616 112.420098,31.5997515 112.420098,31.5997515 C112.40691,34.5056438 110.455755,36.5219737 107.685108,36.5219737 C104.127356,36.5219737 102.562826,33.0452061 102.562826,33.0452061 L99.3037228,35.0406606 C99.3037228,35.0406606 101.176084,40.5549705 107.715658,40.5549705 C112.893196,40.5512667 116.78766,36.7068223 116.786825,31.6002566 L116.786825,12.954297 L112.410916,12.954297 C112.410916,12.954297 112.411083,13.4135563 112.411417,14.1867886" id="Fill-7"></path>
                    <polygon id="Fill-10" points="118.553532 30.6349031 123.033609 30.6349031 123.033609 12.9542633 118.553532 12.9542633"></polygon>
                    <path d="M120.79352,11.2477314 C122.030688,11.2477314 123.033643,10.2362836 123.033643,8.98864045 C123.033643,7.74099736 122.030688,6.72971789 120.79352,6.72971789 C119.556353,6.72971789 118.553398,7.74099736 118.553398,8.98864045 C118.553398,10.2362836 119.556353,11.2477314 120.79352,11.2477314" id="Fill-12"></path>
                    <path d="M36.920403,10.13726 C35.9187835,9.6064519 34.7425483,9.14130039 34.3025034,8.97295021 C34.1510919,8.86301756 34.0546026,8.79045863 34.0546026,8.79045863 C34.0546026,8.79045863 28.1221768,4.510829 25.5066143,3.40089634 C22.8908849,2.29079533 18.3421966,-0.125702978 13.7233949,0.00510510431 C10.0764981,0.108303752 7.82602601,0.79113204 7.03925379,0.98153608 C6.10674602,1.20712531 5.48323779,1.47244516 6.50488983,1.95779871 C6.84694291,2.12025662 8.30513406,2.99584584 10.0756635,4.01503776 C12.6620121,5.50392665 15.9146047,7.29921284 17.3280568,7.62547547 C18.6814118,7.93776503 20.9105161,8.39635089 23.7586213,8.33540813 C27.0088768,8.26604786 28.5897663,9.6645327 28.9094499,10.1749704 C28.3275089,9.34197379 26.1125941,8.67227682 23.1584842,8.8564519 C20.3152202,9.03372463 18.0296914,8.84146874 16.6988728,8.44231048 C14.0909894,7.66015561 11.2963039,6.48574483 8.94650444,5.37682227 C7.98010845,5.67362362 7.38414488,5.92295022 7.02289401,6.07732732 C6.20306838,6.42766402 5.43582779,7.0567886 6.58568708,7.38372463 C7.40784988,7.61756301 15.0957806,10.3909637 17.3338996,10.5258122 C18.6061233,10.6025798 20.6929977,10.6783374 23.2628196,10.1894485 C26.1705212,9.63608153 27.684803,10.8401219 28.0402111,11.3066202 C27.1322428,12.6976977 26.5379486,14.3150378 26.7078901,16.1126809 C16.0777017,14.2224452 12.6847156,13.2438256 10.2843342,12.827664 C6.08788221,12.1002229 0.757095992,15.6854081 0.103372218,20.1254755 C-0.26822859,22.6485394 0.369970076,25.0052735 1.88992768,27.1859132 C3.57264858,29.5998862 5.78672858,31.6818728 6.10874921,32.1239603 C6.31441515,32.5012331 6.24747352,33.4976977 6.26166313,34.1680681 C6.27752208,34.9210983 7.21670738,35.5976977 7.76359173,35.6476978 C8.08945189,35.6774957 14.3832953,37.6606607 14.3832953,37.6606607 L23.7075387,40.5549367 C23.7075387,40.5549367 23.8491009,39.9054417 23.8773133,39.6318728 C23.9487621,38.9365866 23.4239134,37.2199199 21.2390473,36.5786741 C18.022513,35.6027482 17.3903242,35.4173947 16.7058842,35.209819 C16.3374551,35.0980344 16.5958729,35.0924789 17.1667961,34.637765 C18.140871,33.8042633 18.9757209,32.6798525 19.4022439,31.7653744 C21.3051542,27.6850714 18.9102818,24.0515697 18.9102818,24.0515697 C18.9102818,24.0515697 20.405032,25.6345663 20.9666068,28.4024115 C21.6682413,31.8598189 19.34415,34.6030849 19.34415,34.6030849 L20.7310592,35.0086405 C20.7310592,35.0086405 29.6895446,25.9093139 30.5646261,24.9269906 C31.3033206,24.0975293 32.5883985,23.574297 33.2416214,23.3603239 C35.6311517,22.6611657 38.6191498,21.3109974 39.3790452,20.8259805 C40.1389405,20.3409637 41.0699459,18.6283374 41.3036571,18.2051051 C41.5372014,17.7818728 41.843697,17.2241287 41.9032934,16.593994 C41.9241605,16.3726135 40.6469286,14.6544317 40.6469286,14.6544317 C40.6469286,14.6544317 38.6041255,11.1702566 36.920403,10.13726" id="Fill-13"></path>
                    <path d="M10.8475616,38.1745664 C10.3175379,38.4924114 10.1337408,39.3361825 10.9053217,39.7915698 C11.5900956,40.1550377 13.8903149,38.8838256 13.8903149,38.8838256 L11.583585,38.1504922 C11.583585,38.1504922 11.2216665,37.996957 10.8475616,38.1745664" id="Fill-14"></path>
                </g>
            </g>
        </g>
    </g>
</svg>