<?xml version="1.0" encoding="UTF-8"?>
<svg width="145px" height="43px" viewBox="0 0 145 43" version="1.1" xmlns="http://www.w3.org/2000/svg" xmlns:xlink="http://www.w3.org/1999/xlink">
    <!-- Generator: Sketch 54 (76480) - https://sketchapp.com -->
    <title>banco original</title>
    <desc>Created with Sketch.</desc>
    <g id="desktop" stroke="none" stroke-width="1" fill="none" fill-rule="evenodd" opacity="0.800000012">
        <g id="01-home-idwall" transform="translate(-1421.000000, -894.000000)" fill="#7E7E7E">
            <g id="Group-8" transform="translate(352.000000, 877.000000)">
                <g id="banco-original" transform="translate(1069.000000, 17.000000)">
                    <path d="M50.41745,7.44145714 L50.41745,7.43654286 C50.4442167,6.24482857 51.38105,5.28531429 52.7863,5.28408571 L55.15515,5.28408571 C55.1037051,4.94797664 54.817918,4.6995031 54.4811167,4.69805714 L51.3907833,4.69805714 C50.9934337,4.67518523 50.6828222,4.34314605 50.6828222,3.94125714 C50.6828222,3.53936823 50.9934337,3.20732905 51.3907833,3.18445714 L54.4811167,3.18445714 C55.6856167,3.18445714 56.66625,4.17468571 56.66625,5.39097143 L56.66625,7.38371429 C56.66625,8.6 55.7209,9.59022857 54.29375,9.59022857 L52.4383333,9.59022857 C52.3578107,9.58956232 52.2778408,9.57672476 52.2010833,9.55214286 C51.2061233,9.36472164 50.4683991,8.51256012 50.41745,7.49182857 C50.41745,7.52377143 50.4125833,7.55571429 50.4125833,7.58765714 L50.4125833,7.38371429 C50.4125833,7.40337143 50.4150167,7.42302857 50.4162333,7.44145714 L50.41745,7.44145714 Z M36.39415,10.3617714 C36.7946801,10.5956013 37.0413573,11.027336 37.0413573,11.4945143 C37.0413573,11.9616926 36.7946801,12.3934272 36.39415,12.6272571 L19.16615,22.6720571 C18.7652206,22.904056 18.272546,22.904056 17.8716167,22.6720571 L0.648483333,12.6506 C0.247827513,12.4169895 0.000918385657,11.9853899 0.000667490071,11.5182116 C0.000416594485,11.0510332 0.246862001,10.6191634 0.647266667,10.3851143 L17.8752667,0.320657143 C18.2767667,0.0872285714 18.7707333,0.0872285714 19.1710167,0.320657143 L36.39415,10.3617714 L36.39415,10.3617714 Z M18.5176667,20.0281714 L33.1566,11.4945143 L18.52375,2.96331429 L3.88725,11.5141714 L18.5176667,20.0281714 Z M35.7456667,16.2503143 C36.4622833,16.2503143 37.0414167,16.8363429 37.0414167,17.5575143 L37.0414167,31.6197429 C37.0414167,32.0866 36.79565,32.5190571 36.39415,32.7524857 L19.16615,42.7972857 C18.7655529,43.0305414 18.2722138,43.0305414 17.8716167,42.7972857 L0.648483333,32.7758286 C0.247462059,32.542326 0.000263252302,32.1105298 4.97379915e-14,31.6430857 L4.97379915e-14,17.5882286 C4.97379915e-14,16.8656034 0.580127035,16.2798 1.29575,16.2798 C2.01137296,16.2798 2.5915,16.8656034 2.5915,17.5882286 L2.5915,30.8862857 L18.5176667,40.1546286 L34.4511333,30.8641714 L34.4511333,17.5587429 C34.4511333,16.8363429 35.0314833,16.2503143 35.7468833,16.2503143 L35.7456667,16.2503143 Z M51.8360833,12.4810571 C54.3569833,12.4844426 56.3995523,14.5475472 56.4022333,17.0931143 L56.4022333,29.0532571 C56.3988821,31.5983444 54.3565089,33.6607017 51.8360833,33.6640857 L47.7042833,33.6640857 C45.1838577,33.6607017 43.1414845,31.5983444 43.1381333,29.0532571 L43.1381333,17.0931143 C43.1408143,14.5475472 45.1833834,12.4844426 47.7042833,12.4810571 L51.8360833,12.4810571 L51.8360833,12.4810571 Z M46.2613167,17.0931143 L46.2613167,29.0532571 C46.2613167,29.8567429 46.9085833,30.5103429 47.7042833,30.5103429 L51.8360833,30.5103429 C52.6317833,30.5103429 53.27905,29.8567429 53.27905,29.0532571 L53.27905,17.0931143 C53.27905,16.2896286 52.6317833,15.6348 51.8360833,15.6348 L47.7042833,15.6348 C46.9085833,15.6348 46.2613167,16.2896286 46.2613167,17.0931143 Z M92.34865,22.0172286 C92.7659667,22.0172286 93.1577333,22.1806286 93.4521667,22.4791714 C93.7466,22.7764857 93.9096333,23.1733143 93.9096333,23.5934857 L93.9096333,29.0532571 C93.9062821,31.5983444 91.8639089,33.6607017 89.3434833,33.6640857 L85.2116833,33.6640857 C82.6909802,33.6613772 80.6482156,31.5986247 80.6455333,29.0532571 L80.6455333,17.0931143 C80.6482156,14.5477467 82.6909802,12.4849943 85.2116833,12.4822857 L89.3434833,12.4822857 C91.8639089,12.4856697 93.9062821,14.548027 93.9096333,17.0931143 C93.9096333,17.9629429 93.2088333,18.6693714 92.34865,18.6693714 C91.4866232,18.6686951 90.7877914,17.963575 90.78645,17.0931143 C90.78645,16.2884 90.1391833,15.6348 89.3434833,15.6348 L85.2116833,15.6348 C84.4159833,15.6348 83.7687167,16.2884 83.7687167,17.0931143 L83.7687167,29.0532571 C83.7687167,29.8567429 84.4159833,30.5103429 85.2116833,30.5103429 L89.3434833,30.5103429 C90.1391833,30.5103429 90.78645,29.8567429 90.78645,29.0532571 L90.78645,25.1709714 L87.2775833,25.1709714 C86.4160317,25.1696184 85.7179399,24.464696 85.7166,23.5947143 C85.7166,22.7248857 86.4161833,22.0172286 87.2775833,22.0172286 L92.34865,22.0172286 L92.34865,22.0172286 Z M76.4650667,12.4810571 C77.3264667,12.4810571 78.0272667,13.1887143 78.0272667,14.0585429 L78.0272667,32.0878286 C77.9869767,32.9290999 77.2997681,33.5902848 76.465675,33.5902848 C75.6315819,33.5902848 74.9443733,32.9290999 74.9040833,32.0878286 L74.9040833,14.0585429 C74.9040833,13.1887143 75.6048833,12.4810571 76.4650667,12.4810571 Z M98.0888833,12.4970286 C98.9502833,12.4970286 99.6510833,13.2046857 99.6510833,14.0745143 L99.6510833,32.1025714 C99.6510833,32.9724 98.9502833,33.6800571 98.0888833,33.6800571 C97.2268573,33.6787026 96.5285698,32.9730329 96.5279,32.1025714 L96.5279,14.0745143 C96.5279,13.2046857 97.2287,12.4970286 98.0888833,12.4970286 Z M113.9749,12.4970286 C114.8363,12.4970286 115.535883,13.2046857 115.535883,14.0745143 L115.535883,32.1025714 C115.535883,32.8151429 115.061383,33.4490857 114.377617,33.626 C114.001667,33.7242857 113.11715,33.7586857 112.62075,32.8888571 L105.394967,19.694 L105.394967,32.1025714 C105.394967,32.9711714 104.695383,33.6788286 103.833983,33.6788286 C102.971957,33.677474 102.27367,32.9718043 102.273,32.1013429 L102.273,14.0745143 C102.273,12.5019429 103.698933,12.4970286 103.833983,12.4970286 C104.391217,12.4970286 104.909517,12.8004857 105.188133,13.2882286 L112.413917,27.1133429 L112.413917,14.0745143 C112.413917,13.2046857 113.114717,12.4970286 113.9749,12.4970286 Z M143.438917,30.5263143 C144.300317,30.5263143 145.001117,31.2339714 145.001117,32.1025714 C145.001117,32.9724 144.300317,33.6800571 143.438917,33.6800571 L135.508683,33.6800571 C134.646657,33.6787026 133.94837,32.9730329 133.9477,32.1025714 L133.9477,14.0745143 C133.9477,13.2046857 134.647283,12.4970286 135.508683,12.4970286 C136.370083,12.4970286 137.069667,13.2046857 137.069667,14.0745143 L137.069667,30.5250857 L143.438917,30.5250857 L143.438917,30.5263143 Z M67.7196667,12.4810571 C70.2405666,12.4844426 72.2831357,14.5475472 72.2858167,17.0931143 L72.2858167,20.0109714 C72.2858167,22.1732571 70.8027,24.5542286 68.8122333,25.0505714 L72.0948,31.4096571 C72.5084667,32.1726 72.2286333,33.1296571 71.4743,33.5498286 C71.112281,33.7568652 70.6826769,33.8070848 70.2833899,33.689043 C69.884103,33.5710012 69.5491512,33.2947547 69.3548667,32.9232571 L65.3277,25.1894 L62.1449,25.1894 L62.1449,32.0878286 C62.1449,32.9564286 61.4453167,33.6640857 60.5839167,33.6640857 C59.722365,33.6627327 59.0242732,32.9578103 59.0229333,32.0878286 L59.0229333,17.0931143 C59.0256143,14.5475472 61.0681834,12.4844426 63.5890833,12.4810571 L67.7196667,12.4810571 Z M69.16385,20.0122 L69.16385,17.0931143 C69.16385,16.2896286 68.5153667,15.6348 67.7196667,15.6348 L63.5890833,15.6348 C62.7933833,15.6348 62.1449,16.2896286 62.1449,17.0931143 L62.1449,22.0356571 L67.7196667,22.0356571 C68.5153667,22.0356571 69.16385,20.8144571 69.16385,20.0109714 L69.16385,20.0122 Z M126.809517,12.4970286 C129.318283,12.4958 131.357417,14.4860857 131.35985,17.4850286 L131.35985,32.0411429 C131.35985,32.9748571 130.65905,33.6530286 129.798867,33.6530286 C128.936841,33.651674 128.238553,32.9460043 128.237883,32.0755429 L128.237883,25.1857143 L121.272467,25.1857143 L121.272467,32.0755429 C121.272467,32.9453714 120.572883,33.6530286 119.711483,33.6530286 C118.849457,33.651674 118.15117,32.9460043 118.1505,32.0755429 L118.1505,17.0918857 C118.153182,14.5553389 120.188866,12.4997371 122.700833,12.4970286 L126.809517,12.4970286 L126.809517,12.4970286 Z M128.237883,22.0332 L128.237883,17.0918857 C128.237883,16.297 127.5967,15.6507714 126.809517,15.6507714 L122.700833,15.6507714 C121.91365,15.6507714 121.272467,16.297 121.272467,17.0918857 L121.272467,22.0332 L128.237883,22.0332 L128.237883,22.0332 Z M62.4004,8.83342857 L62.4004,5.39097143 C62.4004,5.00828544 62.0931778,4.69805714 61.7142,4.69805714 L59.7407667,4.69805714 C59.3622641,4.69873481 59.0557827,5.00876471 59.0557833,5.39097143 L59.0557833,8.83342857 C59.039569,9.23987717 58.7085449,9.56094624 58.3057083,9.56094624 C57.9028717,9.56094624 57.5718476,9.23987717 57.5556333,8.83342857 L57.5556333,5.39097143 C57.5556333,4.17468571 58.5362667,3.18445714 59.7407667,3.18445714 L61.7142,3.18445714 C62.9187,3.18445714 63.8981167,4.13905714 63.8993333,5.58017143 L63.8993333,8.81745714 C63.8883348,9.22456353 63.5607378,9.55014107 63.1574522,9.55476495 C62.7541667,9.55938883 62.4193332,9.2414064 62.3991833,8.83465714 L62.4004,8.83342857 Z M54.4799,8.07662857 C54.8595,8.07662857 55.1661,7.7658 55.1661,7.38371429 L55.1661,6.79891429 L52.5989333,6.79891429 C52.2417913,6.79983099 51.9455059,7.07814213 51.9188167,7.43777143 C51.9468,7.79405714 52.2388,8.07662857 52.5989333,8.07662857 L54.4811167,8.07662857 L54.4799,8.07662857 Z M70.0714833,4.69805714 L66.98115,4.69805714 C66.6021722,4.69805714 66.29495,5.00828544 66.29495,5.39097143 L66.29495,7.38371429 C66.29495,7.7658 66.6027667,8.07662857 66.98115,8.07662857 L70.0714833,8.07662857 C70.4739935,8.09300153 70.7919514,8.42726462 70.7919514,8.83404286 C70.7919514,9.2408211 70.4739935,9.57508419 70.0714833,9.59145714 L66.98115,9.59145714 C65.77665,9.59145714 64.7960167,8.60122857 64.7960167,7.38371429 L64.7960167,5.39097143 C64.7948,4.17468571 65.7413667,3.18568571 67.1685167,3.18445714 L70.05445,3.18445714 C70.4576116,3.19556331 70.7800343,3.52636577 70.7846134,3.93359737 C70.7891924,4.34082898 70.4742912,4.67893868 70.0714833,4.69928571 L70.0714833,4.69805714 Z M75.9078333,3.18445714 C77.1123333,3.18445714 78.0929667,4.17468571 78.0929667,5.39097143 L78.0929667,7.38371429 C78.0929667,8.6 77.1476167,9.59022857 75.7204667,9.59022857 L73.9283167,9.59022857 C72.7238167,9.59022857 71.7444,8.60122857 71.7444,7.38371429 L71.7444,5.39097143 C71.7444,4.17468571 72.68975,3.18568571 74.1169,3.18445714 L75.9078333,3.18445714 Z M76.5940333,7.38371429 L76.5940333,5.39097143 C76.5933622,5.00876531 76.2863365,4.69928511 75.9078333,4.69928571 L73.9283167,4.69928571 C73.5502886,4.69996194 73.244003,5.00924441 73.2433333,5.39097143 L73.2433333,7.38371429 C73.2433333,7.7658 73.55115,8.07662857 73.9295333,8.07662857 L75.9078333,8.07662857 C76.285,8.07662857 76.5928167,7.7658 76.5928167,7.38371429 L76.5940333,7.38371429 Z M48.3126167,7.50042857 L48.3126167,6.14531429 C48.3126167,5.78165714 48.0206167,5.2288 47.6604833,5.2288 L46.7151333,5.2288 L46.5241167,5.23985714 L44.5665,5.23985714 L44.5665,7.50165714 C44.5665,8.02134286 44.6881667,8.16017143 45.21985,8.16017143 L47.6604833,8.16017143 C48.0206167,8.16017143 48.3126167,7.86408571 48.3126167,7.50042857 L48.3126167,7.50042857 Z M44.9023,1.42637143 C44.38035,1.42637143 44.5665,1.55537143 44.5665,2.08488571 L44.5665,3.83928571 L45.90605,3.83928571 L46.1858833,3.85034286 L46.6190167,3.85034286 C46.97915,3.85034286 47.2723667,3.29748571 47.2723667,2.93382857 L47.2723667,2.08611429 C47.2723667,1.72174837 46.9798519,1.42637143 46.6190167,1.42637143 L44.9023,1.42637143 L44.9023,1.42637143 Z M47.9269333,4.28034286 C47.9269333,4.28034286 49.7251667,4.472 49.7251667,6.18094286 L49.7251667,7.50042857 C49.7231576,8.65103779 48.7999432,9.58328558 47.6604833,9.58531429 L45.21985,9.58531429 C43.5286833,9.58531429 43.1551667,9.11108571 43.1551667,7.50042857 L43.1551667,2.08488571 C43.1551667,0.454571429 43.3011667,-1.42108547e-14 44.9023,-1.42108547e-14 L46.6190167,-1.42108547e-14 C47.7584766,0.00202870156 48.681691,0.934276492 48.6837,2.08488571 L48.6837,2.93382857 C48.6837,4.20048571 47.9269333,4.28034286 47.9269333,4.28034286 L47.9269333,4.28034286 Z" id="Shape"></path>
                </g>
            </g>
        </g>
    </g>
</svg>