<?xml version="1.0" encoding="UTF-8"?>
<svg width="49px" height="49px" viewBox="0 0 49 49" version="1.1" xmlns="http://www.w3.org/2000/svg" xmlns:xlink="http://www.w3.org/1999/xlink">
    <!-- Generator: Sketch 54 (76480) - https://sketchapp.com -->
    <title>99</title>
    <desc>Created with Sketch.</desc>
    <g id="desktop" stroke="none" stroke-width="1" fill="none" fill-rule="evenodd" opacity="0.800000012">
        <g id="01-home-idwall" transform="translate(-570.000000, -891.000000)" fill-rule="nonzero">
            <g id="Group-8" transform="translate(352.000000, 877.000000)">
                <g id="99" transform="translate(218.000000, 14.000000)">
                    <path d="M49,38.9511547 C49,44.4780471 44.4780471,49 38.9511547,49 L10.0488453,49 C4.52206278,49 0,44.4780471 0,38.9511547 L0,10.0488453 C0,4.52195291 4.52195291,0 10.0489552,0 L38.9512646,0 C44.4779372,0 49,4.52195291 49,10.0488453 L49,38.9511547 Z" id="Path" fill="#7E7E7E"></path>
                    <path d="M22.3167534,16.3652309 C23.2363274,17.6034148 23.7989484,19.1212063 23.8645381,20.7676502 L23.8645381,21.0511031 C23.8645381,22.6553587 23.3887108,24.1505179 22.5640605,25.3940852 L15.9906996,35.4235942 L15.8135964,35.6938632 C15.742003,35.8030842 15.6201973,35.8688815 15.4896031,35.8688789 L10.1342108,35.8688789 C9.8763565,35.8688789 9.72166592,35.5825695 9.86295291,35.3669036 L14.2227444,28.7148789 C10.7328677,27.9098946 8.13004484,24.7854305 8.13004484,21.0511031 L8.13729596,20.7676502 C8.1954148,19.125491 8.75561883,17.6113251 9.67101794,16.375009 C11.104213,14.4391794 13.4038072,13.1838565 15.9972915,13.1838565 C18.586491,13.1838565 20.883009,14.4348946 22.3167534,16.3652309 L22.3167534,16.3652309 Z M18.2983139,22.4963834 L18.517935,22.1612937 C18.7535905,21.7346817 18.8765593,21.2550203 18.8752175,20.7676502 C18.8724709,19.1805336 17.5851771,17.8946682 15.9972915,17.8946682 C14.4094058,17.8946682 13.122222,19.1805336 13.1191457,20.772704 C13.1191457,22.3623475 14.4077578,23.6509596 15.9972915,23.6509596 C16.9394978,23.6509596 17.7732668,23.1961166 18.2983139,22.4963834 Z M39.2930561,16.3652309 C40.21263,17.6034148 40.775361,19.1212063 40.8409507,20.7676502 L40.8409507,21.0511031 C40.8409507,22.6553587 40.3651233,24.1505179 39.5403632,25.3940852 L32.9670022,35.4235942 L32.7898991,35.6938632 C32.718327,35.8030516 32.5965709,35.8688445 32.4660157,35.8688789 L27.1104036,35.8688789 C26.8526592,35.8688789 26.6979686,35.5825695 26.8392556,35.3669036 L31.1990471,28.7148789 C27.7091704,27.9098946 25.1063475,24.7854305 25.1063475,21.0511031 L25.1134888,20.7676502 C25.1717175,19.125491 25.7319215,17.6113251 26.6472108,16.375009 C28.0805157,14.4391794 30.3803296,13.1838565 32.9738139,13.1838565 C35.5630135,13.1838565 37.8595314,14.4348946 39.2931659,16.3652309 L39.2930561,16.3652309 Z M35.2747265,22.4963834 L35.4943475,22.1612937 C35.7299532,21.7346619 35.8529186,21.2550136 35.85163,20.7676502 C35.8488834,19.1805336 34.5615897,17.8946682 32.973704,17.8946682 C31.3858184,17.8946682 30.0985247,19.1805336 30.0954484,20.772704 C30.0954484,22.3623475 31.3841704,23.6509596 32.973704,23.6509596 C33.9159103,23.6509596 34.7496794,23.1961166 35.2747265,22.4963834 L35.2747265,22.4963834 Z" id="Shape" fill="#FFFFFF"></path>
                </g>
            </g>
        </g>
    </g>
</svg>