<?xml version="1.0" encoding="utf-8"?>
<!-- Generator: Adobe Illustrator 24.0.0, SVG Export Plug-In . SVG Version: 6.00 Build 0)  -->
<svg version="1.1" id="Camada_1" xmlns="http://www.w3.org/2000/svg" xmlns:xlink="http://www.w3.org/1999/xlink" x="0px" y="0px"
	 viewBox="0 0 115.1 28.2" style="enable-background:new 0 0 115.1 28.2;" xml:space="preserve">
<style type="text/css">
	.st0{fill-rule:evenodd;clip-rule:evenodd;fill:#878787;}
	.st1{fill:#CDCDCD;}
</style>
<g>
	<path class="st0" d="M45.9,7.3c-1.8,0-3.3,1.4-3.3,3.2s1.4,3.3,3.2,3.3H46c1.8,0,3.2-1.5,3.2-3.3C49.2,8.7,47.7,7.2,45.9,7.3z
		 M84.1,10.8c0,1.3-0.3,2.6-1,3.8h-3.3h-3.4v-3.8h3.7c0-2-1.6-3.7-3.7-3.7c-2,0-3.7,1.7-3.7,3.8s1.7,3.8,3.7,3.8v4
		c-4.2,0-7.6-3.5-7.6-7.8S72.3,3,76.4,3C80.6,3,84.1,6.5,84.1,10.8z M92.3,7.9h-3.3V11c0,1.8,1.5,3.2,3.3,3.2v3.9
		c-4,0-7.2-3.2-7.2-7.1V0.3h4V4h3.3V7.9z M94.6,17.9v-14h4.1v14H94.6z M50.9,15.7c2.7,2.6,3,6.8,0.7,9.7C49.3,28.4,45.1,29,42,27
		l2.2-3.3c1.2,0.8,2.7,0.7,3.8-0.1c1.1-0.8,1.5-2.3,1.1-3.6c-0.4-1.3-1.7-2.2-3.1-2.2h-0.1c-0.2,0-0.4,0-0.6,0.1
		c-0.8,0.2-1.6,0.7-2.1,1.4L39.9,17c0.3-0.5,0.7-0.9,1.1-1.3c-2.2-2-2.9-5.2-1.8-7.9s3.8-4.6,6.7-4.6c3,0,5.6,1.8,6.7,4.5
		C53.8,10.6,53.1,13.7,50.9,15.7L50.9,15.7z M33.7,18.8h-3.7c-4.2,0-7.6-3.5-7.6-7.8s3.4-7.8,7.6-7.8s7.6,3.5,7.6,7.8v3.8h-3.9v-3.8
		c0-2.1-1.6-3.7-3.7-3.8c-2,0-3.7,1.7-3.7,3.8s1.7,3.8,3.7,3.8h3.7V18.8z M114.9,9.2c0.8,3.2-0.6,6.5-3.4,8.2
		c-2.8,1.7-6.4,1.3-8.8-0.8l2.5-2.8c0.9,0.8,2,1.1,3.2,0.9s2.1-0.9,2.7-1.9h-10.5c-0.8-3.2,0.6-6.5,3.4-8.2c2.8-1.7,6.4-1.3,8.8,0.8
		l-2.5,2.8c-0.9-0.8-2-1.1-3.2-0.9s-2.1,0.9-2.7,1.9H114.9z M58.6,7.7V3.6C60.7,3,63,3.4,64.8,4.8c1.8,1.3,2.8,3.4,2.8,5.7v7.6h-3.9
		v-7.6c0-1.8-1.4-3.2-3.2-3.2c-0.6,0-1.2,0.2-1.7,0.5v10.2h-4.1V7.7L58.6,7.7z M12.6,7.8c0.3,0.8,0.5,1.7,0.5,2.6v7.6H9.2v-7.6
		c0-1.8-1.4-3.2-3.2-3.2c-0.7,0-1.3,0.2-1.9,0.6v10.1H0V7.7h4.1V3.6c3.4-0.9,7,0.8,8.4,4.1V3.6c2.1-0.6,4.4-0.1,6.2,1.2
		c1.8,1.3,2.8,3.4,2.8,5.7v7.6h-3.9v-7.6c0-1.8-1.4-3.2-3.2-3.2C13.7,7.3,13.1,7.4,12.6,7.8z"/>
	<g>
		<path class="st1" d="M49.7,0h4.2v4.2h-4.2V0z"/>
		<path class="st1" d="M33.7,18.8h4v4h-4V18.8z"/>
	</g>
</g>
</svg>
