<?xml version="1.0" encoding="utf-8"?>
<!-- Generator: Adobe Illustrator 24.0.0, SVG Export Plug-In . SVG Version: 6.00 Build 0)  -->
<svg version="1.1" id="Camada_1" xmlns="http://www.w3.org/2000/svg" xmlns:xlink="http://www.w3.org/1999/xlink" x="0px" y="0px"
	 viewBox="0 0 378.8 131.4" style="enable-background:new 0 0 378.8 131.4;" xml:space="preserve">
<style type="text/css">
	.st0{fill:#999999;}
</style>
<g>
	<path class="st0" d="M2.3,97.3V41.4h18v7.2c0,0,7-9,17.9-9s17.2,9,17.2,9s7.2-9,18.5-9c13.8,0,20.3,13,20.3,25.2v32.4H73.5
		c0-10.1,0.2-20.3,0-30.4c-0.1-4.4-1.4-9.7-6.5-9.7c-8,0-8.4,9.7-8.4,15.3v24.3H37.9V72.4c0-3.2,0.5-6.8-0.5-9.8
		c-1.1-3.2-4.1-5.3-7.4-5.4c-4.4,0-6.5,4.1-7.2,8.1c-0.5,2.9,0.1,31.5-0.2,31.5L2.3,97.3z"/>
	<path class="st0" d="M159.6,53.3c-2.7-4.4-6.7-8-11.3-10.2c-5.3-2.4-11.2-3.7-17-3.5c-10.4,0-18.4,2.5-24,7.7
		c-5.7,5.1-8.6,12.2-8.6,21.5c-0.1,5.4,1.3,10.8,3.9,15.6c2.7,4.5,6.7,8,11.3,10.3c5.3,2.5,11.2,3.7,17,3.6c10.3,0,18.3-2.6,24-7.7
		c5.8-5.1,8.6-12.3,8.6-21.6C163.6,63.4,162.3,58.1,159.6,53.3z M130.7,83.3c-5.5,0-9.9-6.5-9.9-14.4s4.4-14.4,9.9-14.4
		s9.9,6.5,9.9,14.4S136.1,83.3,130.7,83.3z"/>
	<polygon class="st0" points="181.6,97.3 204.1,97.3 225.7,41.4 203.2,41.4 194.2,77.5 193.3,77.5 184.3,41.4 160.9,41.4 	"/>
	<path class="st0" d="M296,17.1v28.5c-4.9-3.2-10.4-4.9-16.2-5c-7,0-14,3.3-18.8,8.3c-5.6,5.7-7.3,12.7-7.3,20.5
		c0,14.4,5.4,20.7,5.4,20.7s7.2,9.9,18.9,9.9c15.3,0,18.9-9.9,18.9-9.9h1.8v8.1h18.9V17.1H296z M285.6,82.4
		c-5.9,0-10.8-5.7-10.8-12.6s4.9-12.6,10.8-12.6c5.9,0,10.8,5.7,10.8,12.6S291.5,82.4,285.6,82.4z"/>
	<path class="st0" d="M370.7,45.9c0,0-4.5-5.4-19.9-5.4s-23.3,5.4-23.3,5.4l2.7,12.6l0.5,1.4c0,0,9-4.5,17.1-4.5s9.9,3.6,9.9,3.6
		v1.8c-8.3,0-16.9,1.1-24.5,4.8c-3,1.4-5.9,3.3-7.5,6.3c-1.5,2.9-2.3,6.1-2.3,9.5c0,8.8,4.5,12.9,4.5,12.9s4.5,5.4,15.4,5.4
		s16.1-5.4,16.1-5.4h0.9v4.1h18.5v-36C378.8,52.2,370.7,45.9,370.7,45.9z M357.8,79.3c-0.5,2.2-1.9,3.5-4.1,4.5
		c-3,1.4-9.1,2.3-9.1-2.7c0-7.2,8.1-8.1,8.1-8.1h5.4c0.3,0,0.1,4.1,0,4.5C358.1,78.1,358,78.7,357.8,79.3z"/>
	<circle class="st0" cx="258.1" cy="10.8" r="10.8"/>
	<path class="st0" d="M241.9,21.6l15.3,8.1c0,0-12.6,9.9-12.6,39.6c0,26.6,12.6,38.7,12.6,38.7l-15.8,8.6c0,0-13.5-17.6-13.5-47.6
		S241.9,21.6,241.9,21.6z"/>
	<path class="st0" d="M9.1,125.2l-0.3-1.4H8.7c-1,1.2-2.5,1.9-4.1,1.8c-2.4,0.1-4.4-1.7-4.6-4.1c0-0.1,0-0.2,0-0.3
		c0-3.7,3.3-5.5,8.4-5.5v-0.3c0-0.7-0.5-1.9-2.6-1.9c-1.4,0-2.8,0.4-4,1.1L1,111.7c1.7-0.9,3.7-1.3,5.6-1.3c4.8,0,6.3,2.8,6.3,6.2v5
		c0,1.2,0.1,2.3,0.2,3.5L9.1,125.2C9.1,125.1,9.1,125.2,9.1,125.2z M8.6,118.4c-2.3,0-4.1,0.5-4.1,2.3c-0.1,0.9,0.5,1.6,1.4,1.7
		c0.1,0,0.3,0,0.4,0c1.1,0,2-0.6,2.3-1.6c0.1-0.3,0.1-0.5,0.1-0.7L8.6,118.4L8.6,118.4z"/>
	<path class="st0" d="M16.4,104.4h4.4v20.8h-4.4V104.4z"/>
	<path class="st0" d="M38,120.6c0,1.9,0.1,3.4,0.1,4.6h-3.9l-0.2-2H34c-1,1.5-2.7,2.4-4.5,2.3c-2.9,0-5-1.8-5-6.2v-8.5h4.5v7.7
		c0,2.1,0.6,3.3,2.3,3.3c1,0,1.9-0.6,2.3-1.5c0.1-0.4,0.2-0.6,0.2-1v-8.6h4.5L38,120.6L38,120.6z"/>
	<path class="st0" d="M55.3,110.9c-0.1,0.9-0.1,2.1-0.1,4.2v8c0,2.8-0.5,5-2.2,6.5c-1.7,1.3-3.8,1.9-5.9,1.8
		c-1.8,0.1-3.5-0.4-5.1-1.1L43,127c1.3,0.7,2.7,1.1,4.1,1.1c2.1,0,3.7-1.2,3.7-3.8v-0.9h-0.1c-0.9,1.3-2.3,1.9-3.9,1.9
		c-3.5,0-6-2.9-6-7c0-4.6,3-7.6,6.5-7.6c1.6-0.1,3.1,0.6,4,2h0.1l0.2-1.7L55.3,110.9L55.3,110.9z M50.7,116.6c0-0.3,0-0.5-0.1-0.8
		c-0.3-1.2-1.3-2-2.4-2c-1.6,0-3,1.4-3,4.1c0,2.2,1.1,3.8,3,3.8c1.1,0,2.1-0.7,2.3-1.8c0.1-0.4,0.2-0.8,0.2-1.2V116.6z"/>
	<path class="st0" d="M72.2,120.6c0,1.9,0.1,3.4,0.1,4.6h-3.9l-0.2-2h-0.1c-1,1.5-2.7,2.4-4.5,2.3c-2.9,0-5-1.8-5-6.2v-8.5h4.5v7.7
		c0,2.1,0.6,3.3,2.3,3.3c1,0,1.9-0.6,2.3-1.5c0.1-0.4,0.2-0.6,0.2-1v-8.6h4.5L72.2,120.6L72.2,120.6z"/>
	<path class="st0" d="M79.3,119.4c0.2,1.9,2,2.7,4.1,2.7c1.4,0,2.7-0.2,4-0.6l0.6,3.1c-1.6,0.6-3.4,1-5.2,0.9
		c-4.9,0-7.7-2.8-7.7-7.3c0-3.6,2.3-7.7,7.2-7.7c4.6,0,6.4,3.6,6.4,7.1c0,0.6-0.1,1.2-0.2,1.8L79.3,119.4z M84.5,116.4
		c0-1.1-0.5-2.9-2.5-2.9c-1.9,0-2.6,1.7-2.8,2.9H84.5z"/>
	<path class="st0" d="M91.3,104.4h4.4v20.8h-4.4V104.4z"/>
	<path class="st0" d="M119.2,104.4V121c0,1.6,0.1,3.3,0.1,4.3h-4l-0.2-2.1h-0.1c-0.9,1.6-2.7,2.5-4.5,2.4c-3.4,0-6.1-2.9-6.1-7.4
		c0-4.9,3-7.7,6.4-7.7c1.8,0,3.2,0.6,3.8,1.6h0.1v-7.7L119.2,104.4L119.2,104.4z M114.7,116.9c0-0.3,0-0.5-0.1-0.8
		c-0.3-1.3-1.4-2.2-2.6-2.2c-2,0-3.1,1.8-3.1,4.1c0,2.4,1.2,4,3.1,4c1.3,0,2.3-0.9,2.6-2.2c0.1-0.4,0.1-0.6,0.1-1V116.9z"/>
	<path class="st0" d="M126.3,119.4c0.2,1.9,2,2.7,4.1,2.7c1.4,0,2.7-0.2,4-0.6l0.6,3.1c-1.6,0.6-3.4,1-5.2,0.9
		c-4.9,0-7.7-2.8-7.7-7.3c0-3.6,2.3-7.7,7.2-7.7c4.6,0,6.4,3.6,6.4,7.1c0,0.6-0.1,1.2-0.2,1.8L126.3,119.4z M131.5,116.4
		c0-1.1-0.5-2.9-2.5-2.9c-1.9,0-2.6,1.7-2.8,2.9H131.5z"/>
	<path class="st0" d="M155,124.8c-1.3,0.5-2.6,0.6-4,0.6c-4.6,0-7.6-2.8-7.6-7.3c0-4.2,2.9-7.7,8.2-7.7c1.2,0,2.3,0.2,3.4,0.5
		l-0.7,3.3c-0.8-0.4-1.6-0.5-2.5-0.5c-2.3,0-4.1,1.9-4,4.1c0,2.3,1.9,4.1,4.1,4c0.9,0,1.7-0.1,2.5-0.5L155,124.8z"/>
	<path class="st0" d="M165.7,125.2l-0.3-1.4h-0.1c-1,1.2-2.5,1.9-4.1,1.8c-2.4,0.1-4.4-1.7-4.6-4.1c0-0.1,0-0.2,0-0.3
		c0-3.7,3.3-5.5,8.4-5.5v-0.3c0-0.7-0.5-1.9-2.6-1.9c-1.4,0-2.8,0.4-4,1.1l-0.8-2.9c1.7-0.9,3.7-1.3,5.6-1.3c4.8,0,6.3,2.8,6.3,6.2
		v5c0,1.2,0.1,2.3,0.2,3.5L165.7,125.2L165.7,125.2z M165.2,118.4c-2.3,0-4.1,0.5-4.1,2.3c-0.1,0.9,0.5,1.6,1.4,1.7
		c0.1,0,0.3,0,0.4,0c1.1,0,2-0.6,2.3-1.6c0.1-0.3,0.1-0.5,0.1-0.7L165.2,118.4L165.2,118.4z"/>
	<path class="st0" d="M173,115.6c0-2.1-0.1-3.5-0.1-4.7h3.9l0.2,2.6h0.1c0.5-1.7,2.1-2.9,3.9-3c0.3,0,0.6,0,0.9,0.1v4.2
		c-0.4-0.1-0.8-0.1-1.2-0.1c-1.4-0.1-2.7,0.8-3.1,2.3c-0.1,0.4-0.1,0.6-0.1,1v7.3h-4.4L173,115.6L173,115.6L173,115.6z"/>
	<path class="st0" d="M184.2,115.6c0-2.1-0.1-3.5-0.1-4.7h3.9l0.2,2.6h0.1c0.5-1.7,2.1-2.9,3.9-3c0.3,0,0.6,0,0.9,0.1v4.2
		c-0.4-0.1-0.8-0.1-1.2-0.1c-1.4-0.1-2.7,0.8-3.1,2.3c-0.1,0.4-0.1,0.6-0.1,1v7.3h-4.4L184.2,115.6L184.2,115.6L184.2,115.6z"/>
	<path class="st0" d="M209.2,117.8c0,5.2-3.7,7.7-7.6,7.7c-4.2,0-7.4-2.8-7.4-7.4c0-4.6,3.1-7.6,7.7-7.6c3.8-0.3,7,2.7,7.3,6.5
		C209.2,117.3,209.2,117.5,209.2,117.8z M198.9,118c0,2.4,1,4.3,3,4.3c1.7,0,2.9-1.7,2.9-4.3c0-2.2-0.8-4.3-2.9-4.3
		S198.9,115.9,198.9,118L198.9,118z"/>
	<path class="st0" d="M212,121.2c1.2,0.7,2.5,1.1,3.9,1.1s1.9-0.5,1.9-1.2s-0.5-1.1-2.1-1.6c-3-1-4.1-2.6-4.1-4.3
		c0-2.7,2.3-4.7,5.9-4.7c1.4,0,2.8,0.3,4.1,0.8l-0.8,3.1c-1-0.5-2.1-0.8-3.2-0.8s-1.7,0.5-1.7,1.2s0.5,1,2.3,1.6
		c2.7,0.9,3.9,2.3,3.9,4.4c0,2.7-2.1,4.6-6.2,4.6c-1.6,0-3.2-0.4-4.6-1L212,121.2z"/>
</g>
</svg>
