<?xml version="1.0" encoding="utf-8"?>
<!-- Generator: Adobe Illustrator 24.0.0, SVG Export Plug-In . SVG Version: 6.00 Build 0)  -->
<svg version="1.1" id="Camada_1" xmlns="http://www.w3.org/2000/svg" xmlns:xlink="http://www.w3.org/1999/xlink" x="0px" y="0px"
	 viewBox="0 0 1523.7 340.6" style="enable-background:new 0 0 1523.7 340.6;" xml:space="preserve">
<style type="text/css">
	.st0{fill:#BABABA;}
</style>
<g id="logo_neon_pb" transform="translate(0.001 -0.003)">
	<path id="Caminho_506" class="st0" d="M1331.6,0c-106.1-0.2-192.3,85.6-192.5,191.7c-0.1,51.1,20.2,100.2,56.3,136.3
		c15.2,16.1,40.5,16.8,56.6,1.6c16.1-15.2,16.8-40.5,1.6-56.6l0,0c-0.5-0.5-1.1-1.1-1.6-1.6c-43.6-43.8-43.4-114.6,0.4-158.2
		c43.8-43.6,114.6-43.4,158.2,0.4c43.5,43.6,43.5,114.2,0,157.9c-15.6,15.7-15.5,41.2,0.3,56.8c15.7,15.5,41,15.5,56.6-0.1
		c75-75.1,75-196.7-0.1-271.8C1431.3,20.3,1382.5,0,1331.6,0z"/>
	<path id="Caminho_507" class="st0" d="M192.2,0C86.1,0,0,86,0,192.1c0,51,20.2,99.9,56.2,135.9c15.5,15.8,40.9,15.9,56.7,0.4
		c15.8-15.5,15.9-40.9,0.4-56.7c-0.1-0.1-0.2-0.2-0.3-0.3c-43.8-43.8-43.7-114.7,0-158.5s114.7-43.7,158.5,0
		c43.7,43.8,43.7,114.7,0,158.5c-15.2,16.1-14.6,41.4,1.5,56.7c15.5,14.7,39.8,14.7,55.2,0c75-75.1,75-196.7-0.1-271.8
		C292.1,20.2,243.2,0,192.2,0z"/>
	<path id="Caminho_508" class="st0" d="M715.2,103.9c15.3-16,14.8-41.3-1.2-56.6c0,0,0,0,0,0c-67.7-64.9-175.2-62.7-240.2,5
		s-62.7,175.2,5,240.2c65.7,63,169.4,63,235.2,0c15.3-16,14.8-41.4-1.2-56.7c-15-14.4-38.6-14.9-54.2-1.2
		c-35.7,34.3-92.5,33.2-126.9-2.5c-34.3-35.7-33.2-92.5,2.5-126.9c34.7-33.4,89.6-33.4,124.3,0C674.5,120.5,699.8,119.9,715.2,103.9
		C715.2,104,715.2,104,715.2,103.9L715.2,103.9z"/>
	<circle id="Elipse_238" class="st0" cx="596.5" cy="169.9" r="40.1"/>
	<path id="Caminho_509" class="st0" d="M928.9,0C835,0,759,76.1,758.9,169.9s76,169.9,169.9,169.9c93.8,0,169.9-76,169.9-169.9
		c0,0,0,0,0,0v0C1098.7,76.1,1022.7,0,928.9,0C928.9,0,928.9,0,928.9,0z M928.9,259.7c-49.6,0-89.8-40.2-89.8-89.7
		s40.2-89.8,89.7-89.8c49.6,0,89.8,40.2,89.8,89.7v0C1018.6,219.5,978.4,259.6,928.9,259.7z"/>
</g>
</svg>
