<?xml version="1.0" encoding="utf-8"?>
<!-- Generator: Adobe Illustrator 24.0.1, SVG Export Plug-In . SVG Version: 6.00 Build 0)  -->
<svg version="1.1"
	 id="svg10" xmlns:cc="http://creativecommons.org/ns#" xmlns:dc="http://purl.org/dc/elements/1.1/" xmlns:inkscape="http://www.inkscape.org/namespaces/inkscape" xmlns:rdf="http://www.w3.org/1999/02/22-rdf-syntax-ns#" xmlns:sodipodi="http://sodipodi.sourceforge.net/DTD/sodipodi-0.dtd" xmlns:svg="http://www.w3.org/2000/svg"
	 xmlns="http://www.w3.org/2000/svg" xmlns:xlink="http://www.w3.org/1999/xlink" x="0px" y="0px" viewBox="0 0 2800 1600"
	 style="enable-background:new 0 0 2800 1600;" xml:space="preserve">
<style type="text/css">
	.st0{fill-rule:evenodd;clip-rule:evenodd;fill:#989898;}
</style>
<sodipodi:namedview  bordercolor="#666666" borderopacity="1" gridtolerance="10" guidetolerance="10" id="namedview12" inkscape:current-layer="svg10" inkscape:cx="-1875.6051" inkscape:cy="3839.6131" inkscape:pageopacity="0" inkscape:pageshadow="2" inkscape:window-height="837" inkscape:window-maximized="1" inkscape:window-width="1600" inkscape:window-x="-8" inkscape:window-y="-8" inkscape:zoom="0.057659586" objecttolerance="10" pagecolor="#ffffff" showgrid="false">
	</sodipodi:namedview>
<g id="g8" transform="matrix(104.32129,0,0,104.32129,379.02279,1163.6932)" inkscape:export-filename="G:\Users\suitedoalex\sites\olx-logo-5.png" inkscape:export-xdpi="2.8768296" inkscape:export-ydpi="2.8768296">
	<path id="path2" inkscape:connector-curvature="0" class="st0" d="M2.6,0.4c-1.4,0-2.3-1.1-2.3-2.8s1-2.7,2.3-2.7S4.9-4,4.9-2.3
		C4.8-0.7,3.9,0.4,2.6,0.4 M2.6,2.5c2.5,0,4.4-2,4.4-4.9c0-2.8-1.8-4.9-4.4-4.9c-2.5,0.1-4.4,2.2-4.4,5S0,2.5,2.6,2.5"/>
	<path id="path4" inkscape:connector-curvature="0" class="st0" d="M8.8-1.2H13c0.3,0,0.4-0.1,0.4-0.4V-3c0-0.3-0.1-0.4-0.4-0.4
		h-2.8v-5.9c0-0.3-0.1-0.4-0.4-0.4H8.4C8.1-9.7,8-9.6,8-9.3v7.2C7.9-1.5,8.2-1.2,8.8-1.2"/>
	<path id="path6" inkscape:connector-curvature="0" class="st0" d="M14.5,2.4l2.5-3l2.5,3c0.2,0.3,0.5,0.3,0.7,0.1l1-0.9
		c0.2-0.2,0.3-0.5,0.1-0.7l-2.8-3.2L21-5.1c0.2-0.2,0.2-0.5-0.1-0.7L20-6.7c-0.2-0.4-0.4-0.4-0.7-0.1l-2.2,2.7l-2.3-2.7
		c-0.2-0.2-0.5-0.3-0.7-0.1L13.2-6c-0.2,0.2-0.3,0.5,0,0.7l2.5,2.8l-2.8,3.1c-0.2,0.3-0.2,0.5,0.1,0.7l0.9,0.9
		C14,2.6,14.3,2.6,14.5,2.4"/>
</g>
</svg>
