<?xml version="1.0" encoding="utf-8"?>
<!-- Generator: Adobe Illustrator 24.0.0, SVG Export Plug-In . SVG Version: 6.00 Build 0)  -->
<svg version="1.1"
	 id="svg4" inkscape:version="0.92.2 (5c3e80d, 2017-08-06)" sodipodi:docname="quintoandar-logo.svg" xmlns:cc="http://creativecommons.org/ns#" xmlns:dc="http://purl.org/dc/elements/1.1/" xmlns:inkscape="http://www.inkscape.org/namespaces/inkscape" xmlns:rdf="http://www.w3.org/1999/02/22-rdf-syntax-ns#" xmlns:sodipodi="http://sodipodi.sourceforge.net/DTD/sodipodi-0.dtd" xmlns:svg="http://www.w3.org/2000/svg"
	 xmlns="http://www.w3.org/2000/svg" xmlns:xlink="http://www.w3.org/1999/xlink" x="0px" y="0px" viewBox="0 0 356.3 196.1"
	 style="enable-background:new 0 0 356.3 196.1;" xml:space="preserve">
<style type="text/css">
	.st0{fill-rule:evenodd;clip-rule:evenodd;fill:#9B9B9B;}
</style>
<sodipodi:namedview  bordercolor="#666666" borderopacity="1" fit-margin-bottom="0" fit-margin-left="0" fit-margin-right="0" fit-margin-top="0" gridtolerance="10" guidetolerance="10" id="namedview6" inkscape:current-layer="svg4" inkscape:cx="44.087451" inkscape:cy="8.0625268" inkscape:pageopacity="0" inkscape:pageshadow="2" inkscape:window-height="837" inkscape:window-maximized="1" inkscape:window-width="1600" inkscape:window-x="-8" inkscape:window-y="-8" inkscape:zoom="3.337544" objecttolerance="10" pagecolor="#ffffff" showgrid="false">
	</sodipodi:namedview>
<path id="path2" inkscape:connector-curvature="0" inkscape:export-filename="C:\Users\suitedoalex\sites\quintoandar-logo-7.png" inkscape:export-xdpi="29.565207" inkscape:export-ydpi="29.565207" class="st0" d="
	M113.7,23.8v31.7l2.5,2.5l7.4-7.4V29.9L113.7,23.8L113.7,23.8z M161.9,14.8h-42.1c-2.6,0.7-4.5,2.2-5.5,4.5l9.3,5.5h34.7L161.9,14.8
	L161.9,14.8z M150.9,93.4h-27.3l-7.8,7.7c1,1.1,2.4,1.8,4,2.3h36.5l-0.2-0.5L150.9,93.4L150.9,93.4z M155,68v24.3l5.7,10.4
	c2.2-1.1,3.5-2.9,4.2-5.5V62.6l-2.3-2.3L155,68L155,68z M120.1,60.5l3.5,3.5H153l5.9-5.9l-3.9-4h-28.5L120.1,60.5L120.1,60.5z
	 M218.4,86.4l21.9,7.6c1,0.3,1.6-0.3,1.3-1.4l-22.5-67c-0.3-1-0.9-1-1.3,0l-22.5,67c-0.3,1,0.2,1.6,1.3,1.4L218.4,86.4z M99.9,0
	c-5.4,0-9.8,4.4-9.8,9.8v98.5c0,5.4,4.4,9.8,9.8,9.8h157.5c5.4,0,9.9-4.4,9.9-9.8V9.8c0-5.4-4.4-9.8-9.9-9.8L99.9,0L99.9,0z
	 M99.9,3.9h157.5c3.3,0,5.9,2.6,5.9,5.9v98.4c0,3.3-2.6,5.9-5.9,5.9H99.9c-3.3,0-5.9-2.6-5.9-5.9V9.8C94,6.6,96.6,3.9,99.9,3.9
	L99.9,3.9z M35,172.2c0-9.5-6.8-16.9-16.2-16.9c-9,0-15.8,7.7-15.8,16.9c0,9,6.8,16.9,16,16.9C28.4,189.2,35,181.5,35,172.2
	L35,172.2L35,172.2z M38,172.1c0,5.7-2.6,10.9-5.9,14.2c-1.1,1.1-3.1,2.6-5.4,3.6v0.1c1.2,0.7,2.8,1.5,4.3,2.1
	c1.4,0.6,2.6,1,3.8,1.4c0.5,0.2,1.3,0.4,1.7,0.5l0,0.1l-2,2h-0.1c-1.3-0.4-2.8-1-5.1-2.1c-1.8-0.8-4-2.1-5.4-3
	c-0.4,0.1-1.2,0.3-2.1,0.4c-0.9,0.1-1.9,0.2-3,0.2C8,191.7,0,182.9,0,172.5c0-11,8.3-19.7,19.6-19.7C30.1,152.9,38,161.3,38,172.1
	L38,172.1z M43.1,169.3v-16h2.7v22c0,4.2,0.6,7.2,2,9.5c1.8,2.8,5.3,4.3,8.6,4.3c3.7,0,6.8-1,8.9-3.8c1.7-2.3,2.6-5.8,2.6-10.6
	v-21.4h2.6V175c0,5.4-1.1,9.3-3.5,12.2c-2.4,2.9-6.2,4.4-10.7,4.4c-4.4,0-8.1-1.6-10.5-5c-1.9-2.7-2.7-5.6-2.7-11.1L43.1,169.3
	 M80.7,174.2v16.9h-2.7v-37.8h2.7V174.2 M116.1,191.6h-0.2c-10.3-12.9-16.1-20.3-19.6-24.7c-2-2.6-3.3-4.1-5.4-7.1h-0.1v31.3h-2.5
	v-38.3h0.2c10.6,13.5,16.6,21.1,20,25.3c1.8,2.4,3.2,4,4.9,6.5h0.1v-31.2h2.5L116.1,191.6 M131.9,155.8h-11.8v-2.5h26.4v2.5h-11.9
	v35.3h-2.7V155.8 M181.3,172.2c0-9.5-6.9-16.9-16.1-16.9c-9,0-15.9,7.5-15.9,16.9c0,9.1,7,16.9,16,16.9
	C174.5,189.2,181.3,181.6,181.3,172.2L181.3,172.2L181.3,172.2z M184.3,172.1c0,10.6-7.9,19.6-19.3,19.6c-10.5,0-18.7-8.8-18.7-19.2
	c0-11.1,8.3-19.7,19.6-19.7C176.4,152.9,184.3,161.3,184.3,172.1L184.3,172.1L184.3,172.1z M203.7,178.5L203.7,178.5
	c-1.9-5-2.7-7.2-3-8.5h-0.1c-0.3,1.3-1.1,3.5-3.1,8.4v0.1H203.7L203.7,178.5z M194.8,185.7c-1.2,2.8-2,4.9-2.2,5.3v0.2h-9.2V191
	c0.1-0.3,1.1-2.5,7.5-16.8l9.5-21.4h1.3l9.4,21.4c6.3,14.4,7.2,16.5,7.4,16.8v0.2h-10.1V191c-0.1-0.3-1-2.5-2.1-5.3L194.8,185.7
	L194.8,185.7z M254.1,191.6h-1.2c-7.9-6.6-12.6-10.7-15.9-13.7c-2.5-2.3-4.3-3.9-7.3-7h-0.1c0.1,2,0.1,3.2,0.1,4.5v15.7h-8.3V153
	h1.2c8.2,7,13.1,11.1,16.3,14.2c2.2,2,4.4,4.1,6.8,6.6h0.1c0-2.5,0-3.9,0-5.4v-15h8.3L254.1,191.6 M282.5,171.7
	c0-3.4-1.2-6.5-3.6-8.5c-1.7-1.3-4-2.1-6.9-2.1c-0.9,0-1.8,0.1-2.5,0.1v21.6c0,0.1,0.1,0.1,0.1,0.1c0.7,0.1,1.5,0.1,2.2,0.1
	c2.2,0,4.3-0.6,6.1-1.9C280.6,179.3,282.5,176.2,282.5,171.7L282.5,171.7L282.5,171.7z M291.8,171.5c0,7.2-3.1,12.9-8.6,16.5
	c-3.3,2.2-7.8,3.3-12.8,3.3c-2.4,0-4.7,0-6.3-0.1c-1,0-2.5-0.1-3.5-0.2v-37.4c1-0.1,2.2-0.2,4.4-0.3c2.3-0.1,4.2-0.1,6-0.1
	c5.8,0,10,1.2,13.1,3.1C289.9,159.8,291.8,165.9,291.8,171.5L291.8,171.5L291.8,171.5z M310.1,178.5L310.1,178.5
	c-1.9-5-2.7-7.2-3-8.5h0c-0.3,1.3-1.1,3.5-3.1,8.4v0.1H310.1z M301.3,185.7c-1.2,2.8-2,4.9-2.2,5.3v0.2h-9.2V191
	c0.1-0.3,1.1-2.5,7.5-16.8l9.5-21.4h1.3l9.4,21.4c6.3,14.4,7.2,16.5,7.4,16.8v0.2h-10.1V191c-0.1-0.3-1-2.5-2.1-5.3L301.3,185.7
	L301.3,185.7z M342.7,165.3c0-3-1.8-4.7-4.7-4.7c-0.8,0-1.3,0-1.7,0.1v9.6c0.3,0,0.8,0,1.3,0c1.3,0,2.4-0.4,3.2-1
	C341.6,168.8,342.7,167.4,342.7,165.3L342.7,165.3L342.7,165.3z M327.8,169.3v-15.8c0.8-0.1,2.2-0.2,3.4-0.2
	c1.1-0.1,3.4-0.1,4.7-0.1c3.1,0,5.5,0.3,7.7,0.9c3.2,0.9,7.7,3.6,7.7,10.6c0,4.2-2,7.2-3.5,8.4c-0.9,0.8-1.9,1.5-2.5,1.7v0.2
	c0.3,0.5,1,1.5,8.1,12.1c1,1.5,2.5,3.7,2.8,4.1v0.1h-10.1c-2.7-4.4-5.9-9.5-9-14.5h-0.9v14.5h-8.5L327.8,169.3L327.8,169.3z"/>
</svg>
