<?xml version="1.0" encoding="utf-8"?>
<!-- Generator: Adobe Illustrator 23.0.3, SVG Export Plug-In . SVG Version: 6.00 Build 0)  -->
<svg version="1.1" id="Layer_1" xmlns="http://www.w3.org/2000/svg" xmlns:xlink="http://www.w3.org/1999/xlink" x="0px" y="0px"
	 viewBox="0 0 128 32" style="enable-background:new 0 0 128 32;" xml:space="preserve">
<style type="text/css">
	.st0{fill:#727272;}
	.st1{fill:#989898;}
	.st2{fill-rule:evenodd;clip-rule:evenodd;fill:#989898;}
</style>
<g>
	<path class="st0" d="M22.3,14.6c-0.9,0.8-1.5,0.9-1.8,0.6c-0.2-0.2-0.2-0.6-0.1-1.1c0.5-1.6,0.8-3.3,1.1-4.9c0,0,0,0,0,0
		c1.8-0.8,3.5-1.6,5.5-1.8C26,10,24.3,12.7,22.3,14.6 M21.4,20c-1.1-0.2-1.6-0.7-1.6-1.2c0-0.3,0.3-0.6,0.7-0.8
		c1.4-0.6,2.7-1.3,4-2.1c0,0,0,0,0,0c1.7,0.9,3.3,2,4.6,3.4C26.8,20.3,23.8,20.6,21.4,20 M16.8,22.9c-0.5-1.2-0.5-2-0.1-2.2
		c0.2-0.2,0.6-0.1,1,0.1c1.3,0.8,2.7,1.5,4.2,2.1c0,0,0,0,0,0c0.5,2.2,0.8,4.5,0.7,6.7C20.2,28,18,25.5,16.8,22.9 M11.7,20.8
		c0.6-1.3,1.2-1.8,1.7-1.6c0.3,0.1,0.5,0.4,0.6,1c0.2,1.8,0.6,3.5,1,5.3c0,0,0,0,0,0c-1.5,2.1-3.1,4.2-5.1,5.9
		C9.6,27.8,10.2,23.9,11.7,20.8 M10.1,14.9c1.4-0.3,2.1-0.1,2.3,0.4c0.1,0.3,0,0.7-0.4,1.1c-1.3,1.4-2.4,2.9-3.6,4.4h0
		c-2.7,0.2-5.6,0.1-8.3-0.6C2.9,17.8,6.6,15.7,10.1,14.9 M13.6,10.2c1,0.9,1.3,1.7,1.1,2.1c-0.1,0.3-0.5,0.4-1.1,0.3
		c-1.8-0.2-3.6-0.3-5.5-0.3c0,0,0,0,0,0c-1.7-2.1-3.3-4.4-4.3-7C7.2,6.1,11,7.8,13.6,10.2 M19,10.2c0,1.3-0.3,2-0.8,2
		c-0.3,0-0.6-0.2-0.9-0.7c-0.9-1.5-2-3-3-4.5c0,0,0,0,0,0c0.4-2.3,1.1-4.6,2.2-6.6C18,3.4,19,7,19,10.2"/>
</g>
<g>
	<path class="st1" d="M22.2,2.3c-0.1,1.7-0.2,3.5-0.5,5.2c-0.1,0.5-0.1,1-0.2,1.4c0,0,0,0,0,0c1.7-0.8,3.5-1.6,5.4-1.8
		C25.8,5.2,24.2,3.6,22.2,2.3 M29.2,12.4c-1.1,0.9-2.3,1.8-3.5,2.6c-0.3,0.2-0.7,0.5-1,0.7c0,0,0,0,0,0c1.7,0.9,3.3,2,4.6,3.4
		C29.6,16.8,29.6,14.7,29.2,12.4 M27.3,24.4c-1.4-0.4-2.8-0.8-4.1-1.3c-0.4-0.2-0.8-0.3-1.2-0.5c0,0,0,0,0,0
		c0.5,2.2,0.8,4.5,0.7,6.7C24.6,28.1,26.1,26.4,27.3,24.4 M17.2,31.6c-0.6-1.7-1.3-3.3-1.8-5c-0.1-0.5-0.3-1-0.4-1.4c0,0,0,0,0,0
		c-1.5,2.1-3.1,4.2-5.1,5.9C12.4,31.8,14.7,32.1,17.2,31.6 M4.4,27.4c1-1.9,2.1-3.7,3.2-5.4c0.3-0.5,0.7-1,0.9-1.4c0,0,0,0,0,0
		c-2.7,0.2-5.6,0.1-8.3-0.6C1,22.8,2.4,25.4,4.4,27.4 M0.1,12.6c2.1-0.3,4.3-0.5,6.4-0.6c0.6,0,1.2,0,1.7,0c0,0,0,0,0,0
		C6.5,9.9,4.9,7.6,3.9,5C2,7.2,0.7,9.8,0.1,12.6 M16.7,0.3c-1.1,2-1.8,4.3-2.2,6.6c0,0,0,0,0,0c-0.3-0.4-0.7-0.8-1-1.2
		c-1.3-1.6-2.6-3.1-4-4.5C11.7,0.2,14.2-0.1,16.7,0.3"/>
</g>
<g>
	<path class="st2" d="M41.3,17c-2.9-1.2-4-3.1-3.6-6.2c0.6-4.7,3.3-5.6,8.1-5.6h7l-0.6,4.2h-7.8c-1.1,0.1-1.6,0.4-1.8,1.8
		c-0.2,1.3,0.1,1.5,1.5,2l3.7,1.4c3.5,1.4,4,3.4,3.6,6.3c-0.6,4.5-2.5,5.9-8.2,5.9h-7.3l0.6-4.2H43c2.7,0,3.3-0.4,3.5-2
		c0.2-1.2-0.1-1.5-1.3-1.9L41.3,17z M60.6,5.2L60,9.3h-4.7l0.6-4.2H60.6z M127.6,9.3l0.6-4.2h-4.7l-0.6,4.2H127.6z M117.5,26.6
		l3-21.5h-4.8l-0.9,6.2c-1.4-0.2-3-0.3-4.4-0.3c-3.5,0-5.9,1.3-6.7,7.7c-0.4,3.4-0.1,5.7,1,7c0.7,0.8,1.8,1.2,3.1,1.2
		c2,0,3.9-0.9,5.8-2.8v2.4H117.5z M63.5,12.8c1.3-1.2,3.1-1.8,5.8-1.8c3.6,0,5.6,0.7,5.6,0.7l-0.5,3.4c0,0-3.6-0.1-4.6-0.1
		c-2.4,0-3.4,0.6-3.9,4c-0.2,1.9-0.2,2.8,0.3,3.3c0.3,0.4,1,0.6,2.2,0.6c1.8,0,3.3-0.1,4.6-0.3l0.3-0.1l-0.5,3.6l-0.1,0
		c-1.8,0.6-3.7,0.7-5,0.7c-2.7,0-4.5-0.6-5.6-1.9c-1.1-1.3-1.5-3.4-1.1-6.3C61.5,15.9,62.2,14.1,63.5,12.8z M101.7,12.7
		c0.7,0.9,1,2,0.7,3.6c-0.5,3.2-2.7,4-6.1,4.3L92.2,21c0.1,1.8,1,2.1,2.7,2.1c1.5,0,5-0.2,5.5-0.3l0.2-0.1l0,0.2
		c0.1,1.3,0.6,2.7,0.6,2.7l0.1,0.2l-0.2,0.1c-1.9,0.8-4.8,1.2-6.7,1.2c-2.8,0-4.6-0.6-5.8-1.9c-1.2-1.3-1.6-3.4-1.2-6.3
		c0.7-5.7,2.9-7.7,8.6-7.7C98.9,11.1,100.7,11.6,101.7,12.7z M52.9,26.6h4.7l2.1-15.2H55L52.9,26.6z M87.9,11.5H87
		c-1.7,0-3.5,0.9-5.7,2.9v-2.9h-3.8l-2.1,15.2h4.8l1.2-8.7c0.6-0.8,2.3-1.7,3.5-1.7h1l0-0.2c0,0,0.4-2,1.8-4.3L87.9,11.5z
		 M120.4,26.6h4.7l2.1-15.2h-4.7L120.4,26.6z M112.3,14.6c-2.7,0-3.2,0.3-3.7,4.3c-0.3,2-0.3,3.3,0,3.7c0.2,0.2,0.4,0.3,0.9,0.2
		c1.4,0,2.6-0.8,4.1-2.1l0.8-6.1H112.3z M97.8,15.9c-0.2,1.3-0.8,1.6-2.2,1.7l-3.1,0.3c0.4-2.5,1-3.2,3.2-3.2c0.2,0,0.3,0,0.4,0
		c0.8,0,1.3,0,1.5,0.3C97.8,15.2,97.8,15.4,97.8,15.9z"/>
</g>
</svg>
