<?xml version="1.0" encoding="utf-8"?>
<!-- Generator: Adobe Illustrator 24.0.0, SVG Export Plug-In . SVG Version: 6.00 Build 0)  -->
<svg version="1.1" id="Camada_1" xmlns="http://www.w3.org/2000/svg" xmlns:xlink="http://www.w3.org/1999/xlink" x="0px" y="0px"
	 viewBox="0 0 601 176.8" style="enable-background:new 0 0 601 176.8;" xml:space="preserve">
<style type="text/css">
	.st0{fill:#949494;}
</style>
<path class="st0" d="M88.6,176.8C39.7,176.8,0,137.1,0,88.6S39.7,0,88.6,0s88.6,39.7,88.6,88.6S137.1,176.8,88.6,176.8z M88.6,43.1
	c-25.2,0-45.5,20.3-45.5,45.5s20.3,45.5,45.5,45.5s45.5-20.3,45.5-45.5S113.8,43.1,88.6,43.1z M212.6,53.3h14.5
	c2.4,0,4.4,1.9,4.4,4.4v40.7c0,4.8,1.5,8.2,3.9,11.1c2.4,2.4,5.8,3.9,10.2,3.9c2.4,0,4.8-0.5,7.3-1.5c2.4-1,4.4-2.4,5.8-4.4
	c1.5-1.9,2.9-3.9,3.9-6.3s1.5-4.8,1.5-7.7V53.3h18.9v74.6h-13.6c-2.4,0-4.4-1.9-4.4-4.4v-4.4l-3.4,3.4c-1.5,1-2.9,2.4-4.8,3.4
	c-1.9,1-3.9,1.9-6.3,2.4c-2.4,0.5-4.8,1-7.7,1c-9.2,0-16.5-2.9-21.3-8.2c-4.8-5.8-7.3-13.1-7.3-22.8v-45H212.6z M288.6,53.3h13.6
	c2.4,0,4.4,1.9,4.4,4.4V62l3.4-3.4c1.5-1,2.9-2.4,4.8-3.4c1.9-1,3.9-1.9,6.3-2.4c2.4-0.5,4.8-1,7.7-1c9.2,0,16.5,2.9,21.3,8.2
	c4.8,5.8,7.3,13.1,7.3,22.8v45.5h-14.5c-2.4,0-4.4-1.9-4.4-4.4V83.3c0-4.8-1.5-8.2-3.9-11.1c-1.9-2.9-5.3-4.4-9.2-4.4
	c-2.4,0-4.8,0.5-7.3,1.5c-2.4,1-4.4,2.4-5.8,4.4c-1.5,1.9-2.9,3.9-3.9,6.3c-1,2.4-1.5,4.8-1.5,7.7v40.7h-14.5
	c-2.4,0-4.4-1.9-4.4-4.4V53.3H288.6z M363.2,53.3h14.5c2.4,0,4.4,1.9,4.4,4.4v70.2h-14.5c-2.4,0-4.4-1.9-4.4-4.4V53.3z M441.2,120.6
	l-3.4,3.4c-1.5,1-2.9,2.4-4.8,3.4c-1.9,1-3.9,1.9-6.3,2.4c-2.4,0.5-4.8,1-7.7,1c-3.9,0-8.2-1-12.1-2.4c-3.9-1.9-7.3-4.4-10.7-7.3
	c-2.9-3.4-5.8-7.3-7.3-12.1c-1.9-4.8-2.9-10.2-2.9-16.5c0-5.8,1-11.1,2.4-15.5c1.9-4.4,3.9-8.2,6.3-11.1c1.9-2.4,4.4-4.8,6.8-6.3
	c2.4-1.9,5.3-2.9,7.7-4.4c2.4-1,5.3-1.9,7.7-2.4c2.4-0.5,4.4-0.5,6.3-0.5h5.8c1.5,0,2.9,0.5,4.4,0.5c1.5,0.5,2.4,0.5,3.4,1
	c1,0.5,2.4,1,3.9,1.5V21.8h14.5c2.4,0,4.4,1.9,4.4,4.4v101.7h-14c-2.4,0-4.4-1.9-4.4-4.4V120.6z M441.2,72.2
	c-1.9-1.5-3.9-2.4-6.3-2.9c-2.4-0.5-5.3-1-9.2-1s-6.8,0.5-9.2,1.9c-2.4,1.5-4.4,3.4-6.3,5.8c-1.5,1.9-2.9,4.4-3.9,7.3
	c-1,2.9-1.5,5.8-1.5,8.7c0,6.3,1.5,11.6,4.8,16c3.4,4.4,7.7,6.3,14,6.3c3.4,0,5.8-0.5,8.2-1.9c2.4-1.5,3.9-2.9,5.3-4.8
	c1.5-1.9,2.4-3.9,2.9-6.3s1-4.4,1-6.8L441.2,72.2L441.2,72.2z M513.8,121.1c-1.9,2.4-5.3,4.8-9.2,6.3c-4.4,1.9-8.7,2.9-14,2.9
	c-2.9,0-6.3-0.5-9.2-1.5c-2.9-1-5.8-2.4-8.2-4.4c-2.4-1.9-4.4-4.4-5.8-7.7c-1.5-2.9-2.4-6.8-2.4-10.7c0-4.4,1-8.2,2.4-11.6
	c1.5-3.4,3.9-6.3,6.8-8.2c2.9-2.4,6.3-3.9,10.2-5.3c3.9-1,8.7-1.9,13.6-1.9H508c1.9,0,3.9,0,5.8,0.5v-1.9c0-3.9-1.5-6.8-4.4-8.7
	c-2.9-1.9-6.8-3.4-11.6-3.4c-5.3,0-9.7,0.5-12.6,1.9c-1.9,1-3.4,1.5-4.8,2.4c-1.9,1-4.4,0.5-5.8-1.5l-6.3-9.2c1.5-1,3.4-1.9,5.3-3.4
	c1.9-1,4.4-1.9,6.8-2.9c2.4-1,5.3-1.5,8.7-2.4c3.4-0.5,7.3-1,11.6-1c4.8,0,9.2,0.5,13.1,1.9c3.9,1.5,7.3,3.4,10.2,5.8
	c2.9,2.4,4.8,5.3,6.3,8.7c1.5,3.4,2.4,6.8,2.4,11.1v50.4h-14.5c-2.4,0-4.4-1.9-4.4-4.4V121.1z M513.8,94.4c-1.9,0-3.9,0-5.8-0.5
	h-9.2c-5.8,0-10.2,1-12.6,3.4c-2.4,2.4-3.9,5.3-3.9,8.2c0,3.4,1,5.8,3.4,7.3c2.4,1.9,5.8,2.9,10.2,2.9c2.4,0,4.4-0.5,6.3-1
	c1.9-1,3.9-1.9,5.3-2.9c1.5-1.5,2.9-2.9,3.9-4.4c1-1.9,1.5-3.4,1.5-5.3v-7.7H513.8z M544.3,109.9c1.5-1.5,3.9-1.9,5.8-0.5
	s3.9,2.4,5.8,3.4c3.4,1.5,7.7,2.4,12.1,2.4c3.9,0,7.3-0.5,9.7-1.5c2.4-1,3.9-2.9,3.9-5.3c0-1,0-1.9-0.5-2.9c-0.5-1-1.5-1.9-2.9-2.4
	c-1.5-1-3.4-1.9-5.8-2.4c-2.4-1-5.8-1.9-9.7-2.9c-2.4-0.5-5.3-1.5-7.7-2.4c-2.9-1-5.3-2.4-7.7-4.4c-2.4-1.9-4.4-3.9-5.8-6.8
	c-1.5-2.4-2.4-5.8-2.4-9.2c0-3.9,1-7.3,2.9-10.2s4.4-5.3,7.3-7.3s6.3-3.4,9.7-4.4c3.9-1,7.3-1.5,11.1-1.5c6.8,0,12.1,0.5,17,1.9
	c4.8,1.5,8.7,3.4,12.6,6.3l-7.3,9.7c-1.5,1.9-3.9,2.4-5.8,1.5c-1.5-1-2.9-1.5-4.8-1.9c-3.4-1.5-7.3-1.9-11.6-1.9s-7.7,0.5-9.2,1.9
	c-1.9,1.5-2.4,2.9-2.4,4.8c0,2.4,1.5,4.4,4.4,5.3c2.9,1.5,7.3,2.9,13.6,4.4c3.9,1,7.3,1.9,10.2,3.4c2.9,1.5,5.8,2.9,7.7,4.8
	s3.9,4.4,4.8,6.8s1.9,5.8,1.9,9.2s-1,6.8-2.4,9.7c-1.9,2.9-3.9,5.3-6.8,7.3c-2.9,1.9-6.3,3.4-10.2,4.8c-3.9,1-7.7,1.5-12.1,1.5
	c-6.8,0-13.6-1-18.9-2.9c-5.8-1.9-10.2-4.8-13.6-8.7C537.1,119.6,544.3,109.9,544.3,109.9z"/>
<circle class="st0" cx="372.4" cy="32" r="10.2"/>
</svg>
