<?xml version="1.0" encoding="utf-8"?>
<!-- Generator: Adobe Illustrator 24.0.1, SVG Export Plug-In . SVG Version: 6.00 Build 0)  -->
<svg version="1.1" id="Camada_1" xmlns="http://www.w3.org/2000/svg" xmlns:xlink="http://www.w3.org/1999/xlink" x="0px" y="0px"
	 viewBox="0 0 280 344" style="enable-background:new 0 0 280 344;" xml:space="preserve">
<style type="text/css">
	.st0{fill:#5500FF;}
</style>
<path class="st0" d="M277.5,137.8c-0.4,51.6-10.9,96.7-36.8,137.4c-20,31.5-47.9,52.9-84.5,62c-20.9,5.2-42,6.5-63.2,2
	c-24.8-5.3-43.6-26.4-46.7-51.6c-1.4-11.9-0.4-23.4,3.7-34.5c10.5-28.2,6.3-54.4-10.6-78.9c-3.4-4.9-7.1-9.5-10.7-14.2
	C10,135.5,0,108,3,77c2.7-27.6,14.5-50.7,39-65.5c26.4-16,59.5-11.4,83.5,11.1c5.2,4.9,10,10.1,15.4,14.6c4,3.3,8.6,6.2,13.4,8.3
	c12.8,5.7,25,2,33.1-9.4c2.2-3.1,4.1-6.4,6.3-9.5c11.2-15.2,26.8-18.4,43.1-8.8c8.2,4.8,14.1,11.8,18.8,19.9
	c8.8,15.2,13.1,31.9,16.4,48.9c1.7,8.5,3.1,17.1,4,25.8C276.9,122.1,277.2,131.9,277.5,137.8z"/>
</svg>
