<?xml version="1.0" encoding="utf-8"?>
<!-- Generator: Adobe Illustrator 24.0.1, SVG Export Plug-In . SVG Version: 6.00 Build 0)  -->
<svg version="1.1" id="Camada_1" xmlns="http://www.w3.org/2000/svg" xmlns:xlink="http://www.w3.org/1999/xlink" x="0px" y="0px"
	 viewBox="0 0 182 250" style="enable-background:new 0 0 182 250;" xml:space="preserve">
<style type="text/css">
	.st0{fill:#11EAB5;}
</style>
<path class="st0" d="M67.6,2.8c2.6-0.4,5.3-0.4,7.9,0c6,0.8,11.9,2.5,17.6,4.9c14.3,5.9,27.3,14,38.9,24.3
	c39.9,35.7,57.3,79.3,45.3,132.9c-4.8,21.2-14.4,40.1-30.5,54.8c-24.8,22.7-54.5,30.9-87.5,26.8c-18.3-2.3-34-9.8-45.8-24.8
	c-16.2-20.6-16.9-51.5-0.7-72.7c7.6-10,15.8-19.6,23.4-29.6c6.2-8.1,9.9-17.3,10.2-27.6c0.2-8.2-1.7-16.1-3.8-24
	c-3-11-6.2-22-5.7-33.7c0.6-13.5,7.6-23.7,20.3-28.4C60.5,4.6,64,3.3,67.6,2.8z"/>
</svg>
