<svg xmlns="http://www.w3.org/2000/svg" xmlns:xlink="http://www.w3.org/1999/xlink" width="1920" height="448" viewBox="0 0 1920 448">
    <defs>
        <path id="a" d="M0 0h1920v448H0z"/>
    </defs>
    <g fill="none" fill-rule="evenodd">
        <mask id="b" fill="#fff">
            <use xlink:href="#a"/>
        </mask>
        <use fill="#50F" xlink:href="#a"/>
        <path fill="#40C" d="M1327.555-181.405c-15.24-8.8-39.853-8.787-54.974 0L644.295 183.662c-15.121 8.787-15.058 23.042.18 31.84l1111.958 641.9c15.241 8.796 39.875 8.796 54.996.009l628.283-365.064c15.124-8.787 15.043-23.054-.198-31.853l-1111.959-641.9z" mask="url(#b)" opacity=".3" transform="matrix(-1 0 0 1 3084 0)"/>
        <path fill="#40C" d="M498.111 199.592c-12.927-7.461-33.803-7.45-46.628 0L-81.42 509.135c-12.825 7.451-12.772 19.538.153 26.999l943.146 544.271c12.927 7.459 33.821 7.459 46.646.008l532.9-309.54c12.828-7.452 12.76-19.549-.167-27.01L498.11 199.593z" mask="url(#b)" opacity=".2" transform="matrix(-1 0 0 1 1360 0)"/>
    </g>
</svg>
