<?xml version="1.0" encoding="utf-8"?>
<!-- Generator: Adobe Illustrator 24.0.1, SVG Export Plug-In . SVG Version: 6.00 Build 0)  -->
<svg version="1.1" id="Camada_1" xmlns="http://www.w3.org/2000/svg" xmlns:xlink="http://www.w3.org/1999/xlink" x="0px" y="0px"
	 viewBox="0 0 60 60" style="enable-background:new 0 0 60 60;" xml:space="preserve">
<style type="text/css">
	.st0{fill:#E5E5E5;}
</style>
<g>
	<path class="st0" d="M48,50c1.1,0,1.9-0.8,2-1.9c0-0.5-0.2-1-0.6-1.4L46.6,44c-0.4-0.4-0.9-0.6-1.4-0.6c-1.1,0-1.9,0.9-2,1.9
		c0,0.5,0.2,1,0.6,1.4l2.8,2.8C47,49.8,47.5,50,48,50"/>
	<path class="st0" d="M45.2,16.6c0.5,0,1-0.2,1.4-0.6l2.8-2.7c0.4-0.4,0.6-0.8,0.6-1.4c0-0.5-0.2-1-0.6-1.4C49,10.2,48.5,10,48,10
		s-1,0.2-1.4,0.6l-2.8,2.8c-0.4,0.4-0.6,0.9-0.6,1.4C43.3,15.8,44.1,16.6,45.2,16.6"/>
	<path class="st0" d="M14.7,16.6c1.1,0,1.9-0.9,2-1.9c0-0.5-0.2-1-0.6-1.4l-2.8-2.8C13,10.2,12.5,10,12,10c-1.1,0-1.9,0.9-2,1.9
		c0,0.5,0.2,1,0.6,1.4l2.8,2.8C13.7,16.5,14.3,16.7,14.7,16.6"/>
	<path class="st0" d="M12,50c0.5,0,1-0.2,1.4-0.5l2.8-2.8c0.4-0.4,0.6-0.9,0.6-1.4c0-1.1-0.9-1.9-1.9-1.9c-0.5,0-1,0.2-1.4,0.6
		l-2.8,2.8c-0.4,0.4-0.6,0.9-0.6,1.4C10,49.2,10.9,50,12,50"/>
</g>
</svg>
