<svg xmlns="http://www.w3.org/2000/svg" width="79" height="40"><g fill="none"><path fill="#000" d="M76.104 28.277a.8.8 0 0 0 .956-.048l1.247-1.249a.688.688 0 0 0 0-1.027l-.803-.821a2.62 2.62 0 0 1-.652-1.8V10.829a1.121 1.121 0 0 0-.31-.824 1.132 1.132 0 0 0-.812-.349h-1.054a1.14 1.14 0 0 0-.822.329c-.218.216-.339.51-.335.816v12.71a5.717 5.717 0 0 0 2.585 4.766m-6.466 0a.78.78 0 0 0 .95-.048l1.254-1.249a.688.688 0 0 0 0-1.02l-.804-.828a2.593 2.593 0 0 1-.651-1.793V10.856c.004-.306-.117-.6-.336-.816a1.14 1.14 0 0 0-.822-.329h-1.025a1.132 1.132 0 0 0-.82.33c-.217.215-.336.51-.33.815v12.676a5.697 5.697 0 0 0 2.584 4.745M49.895 15.946h-1.621a1.025 1.025 0 0 0-1.005.752l-1.996 6.462-2.079-6.49a1.053 1.053 0 0 0-1.005-.724h-1.386c-.45 0-.848.294-.977.724l-2.113 6.469-1.996-6.441a1.018 1.018 0 0 0-1.005-.752h-1.615a.694.694 0 0 0-.597.276.687.687 0 0 0-.096.648l3.562 10.828c.135.425.529.717.977.724h1.525c.477.023.906-.287 1.032-.745l1.996-6.648 2.08 6.648c.122.445.533.752.997.745h1.51c.449-.009.842-.3.978-.724l3.527-10.828a.687.687 0 0 0-.096-.648.694.694 0 0 0-.597-.276m13.423 0h-1.032c-.628 0-1.14.5-1.15 1.124a5.56 5.56 0 0 0-3.66-1.38c-3.284 0-5.945 2.925-5.945 6.49 0 3.566 2.66 6.538 5.945 6.538a5.468 5.468 0 0 0 3.66-1.42l1.053 1.172h1.13c.306 0 .6-.124.813-.344.213-.22.327-.516.316-.822V17.098a1.128 1.128 0 0 0-.33-.819 1.14 1.14 0 0 0-.82-.333m-5.267 9.91c-1.733 0-3.112-1.62-3.112-3.62s1.386-3.621 3.112-3.621c1.725 0 3.084 1.6 3.084 3.62 0 2.021-1.386 3.621-3.084 3.621"/><path d="M27.72 9.711h-1.012a1.14 1.14 0 0 0-.822.329c-.218.216-.34.51-.335.816v6.207a5.56 5.56 0 0 0-3.66-1.38c-3.284.015-5.952 2.939-5.952 6.477 0 3.538 2.661 6.517 5.946 6.517a5.678 5.678 0 0 0 3.687-1.38l1.025 1.145h1.123a1.122 1.122 0 0 0 1.15-1.144V10.856c.006-.305-.114-.6-.33-.816a1.132 1.132 0 0 0-.82-.329M22.453 25.83c-1.732 0-3.111-1.621-3.111-3.621s1.386-3.614 3.111-3.614c1.726 0 3.084 1.62 3.084 3.614 0 1.993-1.386 3.62-3.084 3.62M12.287 14.677a1.961 1.961 0 0 0 1.817-1.2c.306-.73.14-1.57-.42-2.13a1.968 1.968 0 0 0-2.139-.426 1.952 1.952 0 0 0-1.212 1.804c0 1.075.874 1.948 1.954 1.952m-.506 13.745h1.054c.306.005.602-.113.82-.33a1.12 1.12 0 0 0 .33-.815v-10.18a1.128 1.128 0 0 0-.33-.818 1.14 1.14 0 0 0-.82-.333H11.78a1.14 1.14 0 0 0-.82.333 1.128 1.128 0 0 0-.33.819v10.179c-.006.305.113.6.33.816.217.216.513.334.82.329m25.856 11.255a1.936 1.936 0 0 0 1.934-1.897 1.844 1.844 0 0 0-.575-1.379l-2.772-2.717a1.882 1.882 0 0 0-1.386-.58 1.943 1.943 0 0 0-1.934 1.897c-.01.521.201 1.022.582 1.38l2.73 2.758c.367.364.869.561 1.387.545M34.906 6.539c.521.007 1.023-.2 1.386-.572l2.772-2.725c.37-.35.577-.837.575-1.344a1.927 1.927 0 0 0-.602-1.366 1.946 1.946 0 0 0-1.4-.531 1.89 1.89 0 0 0-1.387.552L33.52 3.31a1.823 1.823 0 0 0-.582 1.38 1.943 1.943 0 0 0 1.933 1.896M4.664 6.539a1.943 1.943 0 0 0 1.934-1.897 1.823 1.823 0 0 0-.582-1.344L3.286.553A1.89 1.89 0 0 0 1.933 0 1.936 1.936 0 0 0 0 1.898c-.011.52.198 1.02.576 1.379l2.772 2.758c.363.373.864.58 1.386.573m-2.8 33.069a1.88 1.88 0 0 0 1.386-.545l2.73-2.759c.382-.357.593-.858.582-1.379A1.943 1.943 0 0 0 4.7 33.098c-.511.002-.999.21-1.351.579L.576 36.435c-.378.36-.587.86-.576 1.38a1.936 1.936 0 0 0 1.934 1.896" fill="#50F"/></g></svg>