<?xml version="1.0" encoding="utf-8"?>
<!-- Generator: Adobe Illustrator 24.0.1, SVG Export Plug-In . SVG Version: 6.00 Build 0)  -->
<svg version="1.1" id="Camada_1" xmlns="http://www.w3.org/2000/svg" xmlns:xlink="http://www.w3.org/1999/xlink" x="0px" y="0px"
	 viewBox="0 0 100 26" style="enable-background:new 0 0 100 26;" xml:space="preserve">
<style type="text/css">
	.st0{fill:#9647F3;}
	.st1{fill:#FFFFFF;}
</style>
<title>Group 3</title>
<desc>Created with Sketch.</desc>
<g id="_x30_1-home-idwall" transform="translate(-910.000000, -747.000000)">
	<g id="hero" transform="translate(0.000000, 72.000000)">
		
			<g id="Group-3" transform="translate(960.000000, 688.000000) rotate(-180.000000) translate(-960.000000, -688.000000) translate(910.000000, 675.000000)">
			<path id="path0_fill-copy" class="st0" d="M2.3,0.4C1.3,0.3,0.5,0.2,0,0h50l0,0h50c-0.5,0.2-1.3,0.3-2.3,0.4
				C95,0.7,90.5,1.3,84.5,4.6C80.4,7,77.2,10.2,74,13.3c-6.2,6.1-12.2,12-24,12c0-20.4,0-20.4,0,0c-11.7,0-17.8-6-24-12
				c-3.2-3.2-6.5-6.4-10.6-8.8C9.5,1.3,5,0.7,2.3,0.4z"/>
			<path id="Triangle-Copy" class="st1" d="M50.7,6.7l5.6,5.6c0.4,0.4,0.4,1,0,1.4c-0.2,0.2-0.4,0.3-0.7,0.3H44.4c-0.6,0-1-0.4-1-1
				c0-0.3,0.1-0.5,0.3-0.7l5.6-5.6C49.7,6.3,50.3,6.3,50.7,6.7z"/>
		</g>
	</g>
</g>
</svg>
