<?xml version="1.0" encoding="utf-8"?>
<!-- Generator: Adobe Illustrator 24.0.1, SVG Export Plug-In . SVG Version: 6.00 Build 0)  -->
<svg version="1.1" id="Camada_1" xmlns="http://www.w3.org/2000/svg" xmlns:xlink="http://www.w3.org/1999/xlink" x="0px" y="0px"
	 viewBox="0 0 512 512" style="enable-background:new 0 0 512 512;" xml:space="preserve">
<title>Shape-path</title>
<desc>Created with Sketch.</desc>
<g id="desktop">
	<path id="Shape-path" d="M473.3,424l38.7,37.4v1.2H315.5v-1.2l39.4-37.4c4.2-3.5,6.2-9,5.3-14.4V170.6c0-10.1,0-23.7,1.8-35.4
		L229.4,467.4h-1.6L90.6,161.7c-3-7.6-3.9-8.2-5.8-13.3v200.5c-1.6,13.4,0.6,27,6.5,39.2l55.2,73.4v1.2H0v-1.2l55.2-73.6
		c5.8-12.1,8.1-25.6,6.5-39V127.3c0.9-10.9-2.4-21.8-9.1-30.3L13.5,45.8v-1.2h140.2l117.4,258.9L374.6,44.6h137.2v1.2l-38.6,43.4
		c-4.6,3.4-6.9,9.2-6,14.9v305.6C466.3,415.2,468.6,420.9,473.3,424z"/>
</g>
</svg>
