<?xml version="1.0" encoding="utf-8"?>
<!-- Generator: Adobe Illustrator 24.0.1, SVG Export Plug-In . SVG Version: 6.00 Build 0)  -->
<svg version="1.1" id="Camada_1" xmlns="http://www.w3.org/2000/svg" xmlns:xlink="http://www.w3.org/1999/xlink" x="0px" y="0px"
	 viewBox="0 0 357 203" style="enable-background:new 0 0 357 203;" xml:space="preserve">
<style type="text/css">
	.st0{fill:#E7E7E7;}
	.st1{fill:#11EAB5;}
	.st2{fill:#4B00DF;}
</style>
<g>
	<g>
		<path class="st0" d="M132.3,6.7c3.4-1,7-1.3,10.5-1.8c5.3-0.7,10.7-1.3,16-1.8c4.2-0.4,8.4-0.9,12.6-1c6.9,0,13.8-1,20.7-0.5
			c9.9,0.7,19.8,1,29.6,2.2c17.2,2.1,34,5.8,50.3,11.4c14.1,4.9,27.6,11.1,40.1,19.3c7.3,4.8,14.2,10.2,20.3,16.6
			c10.5,10.9,18.1,23.3,21.2,38.3c1.6,5.8,0.9,14.9,0.6,21c-0.8,15.3-9.2,27.6-19.2,38.7c-10.1,11.3-22.4,19.8-35.7,26.9
			c-23.2,12.2-48,19.2-73.9,22.8c-8.5,1.2-17.1,2.6-25.7,2.4c-0.2,0-0.5,0.1-0.6,0.2c-2,0-4.1,0-6.1,0c-0.2-0.2-0.1-0.5,0.1-0.7
			c3.1-1.2,6.3-1,9.5-1.3c24.1-2.6,47.5-7.9,69.8-17.7c16.7-7.4,32.1-17,44.6-30.5c4.6-4.9,8.4-10.4,11.5-16.3c0.5-1,0.9-2,1.7-2.8
			c5.4-6.9,8.8-14.7,10.1-23.3c2.6-17-3.3-31.4-14.1-44.1c-8.9-10.4-19.8-18.2-31.8-24.8c-20.7-11.3-42.8-17.9-66-21.4
			c-9.3-1.4-18.6-2.8-28.1-2.7c-10.9-0.7-21.8-1.2-32.7-0.9c-9.5,0.3-19.1,0.9-28.6,2.2c-15.1,1.9-30,5.1-44.4,9.9
			c-19.4,6.4-37.5,15.2-53.3,28.3c-2.3,1.9-4.3,4.3-7,5.8c-1.3-1.2,0-2,0.6-2.7c3.8-5,8.3-9.5,13-13.6c19.5-16.9,42.5-27.1,67-34.1
			C120.7,9.1,126.6,8.4,132.3,6.7z"/>
		<g>
			<path class="st1" d="M21.6,152.6c-2.9-3.6-5.7-7.3-8.1-11.3c-8-13.4-11.6-27.6-9-43.2c1.9-11,6.5-20.8,13.1-29.8
				c0.4-0.5,1.5-1.1,0.4-1.9c-0.8-0.6-1.1,0.4-1.4,0.8c-8.9,12.1-14.2,25.5-14.4,41c0.2,17.3,7.2,32.2,18.4,45.4
				c0.4,0.4,0.7,1.3,1.4,0.5C22.8,153.3,21.9,153,21.6,152.6z"/>
			<path class="st1" d="M35.1,165.9c-2.2-1.8-4.2-3.7-6.3-5.6c-0.4-0.4-0.8-0.8-1.4-0.2c-0.3,0.4-0.2,0.7,0.1,1
				c4.1,4,8.5,7.6,13.1,11c0.7,0.5,1.1,0.2,1.5-0.6c-0.3-0.3-0.6-0.6-1-0.9C39.1,169.1,37.1,167.5,35.1,165.9z"/>
			<path class="st1" d="M335.1,94.1c-3.8-15.7-13.2-27.8-25-38.2c-11.6-10.2-24.9-17.8-39-23.9c-12.7-5.5-25.9-9.5-39.5-12.4
				c-7.2-1.6-14.5-2.7-21.8-3.4c-3.1-0.3-6.2-0.4-9.3-0.9c-0.9,0-1.7,0-2.6-0.1c-17.2-1.4-34.3-1.3-51.5,0.5
				c-19.2,1.9-37.9,5.8-56.1,12.2c-20.9,7.4-40.1,17.7-56.2,33.3c-1.7,0.4-2.6,1.8-3.5,2.9c-2.3,2.7-4.6,5.4-6.5,8.3
				c-9.2,13.6-13.9,28.2-10.6,44.8c2.5,12.5,8.2,23.4,16.6,33C42,163.7,56.8,173.3,73,180.8c27.2,12.6,55.9,18.5,85.7,20.3
				c1.6,0.5,3.2-0.2,4.8,0.4c7.4,0,14.8,0,22.2,0c2.5,0,5,0,7.5,0c0-0.2,0.1-0.3,0.1-0.5l0,0c13.3-1,26.5-2.8,39.5-5.7
				c23.2-5.2,45.3-13.3,65.2-26.8c13.7-9.3,25.3-20.7,32.7-35.8c1.2-1.6,2.1-3.3,2.7-5.2C337.3,116.6,337.8,105.4,335.1,94.1z
				 M325.2,131.1c-7.2,11.4-17,20-28.1,27.3c-19.5,12.8-41,20.6-63.7,25.4c-1.6,0.3-3.2,0.8-4.8,0.9c-6.4,1.1-12.8,2.3-19.3,2.8
				c-9.2,0.7-18.3,1.1-27.5,0.9c-30.2-0.8-59.5-5.8-87.5-17.6c-14-5.9-27-13.4-38.4-23.6c-10-9-18-19.4-21.7-32.5
				c-3.5-12.2-2.2-24.1,3.3-35.5C44,65.3,54.7,55,67.2,46.5C86.9,33,108.8,24.9,132,19.9c9.6-2.1,19.3-3.5,29.1-3.5
				c0.3,0,0.6,0,0.8-0.3c8.8-0.8,17.7-0.6,26.5-0.2c22.2,1.1,43.9,4.7,65.1,11.6c20.6,6.7,39.8,16.1,56.1,30.6
				c9.7,8.6,17.5,18.6,21.9,30.9c0.7,2,1.3,4,1.6,6.1C335.4,108.3,332.1,120.1,325.2,131.1z"/>
		</g>
		<g>
			<path class="st2" d="M20.1,80.1c3.7-7.1,8.7-13.2,14.1-19c1-2.7,3.1-4.5,4.9-6.5C49.4,43.1,61.8,34.2,75.4,27
				c15.9-8.4,32.8-14.3,50.4-18.4c2.3-0.5,4.6-1,6.9-1.5c0.3-0.1,0.2-0.3-0.1-0.4c-0.1,0-0.1,0-0.2-0.1c-1.8,0.3-3.7,0.7-5.5,1
				c-18,3.4-35.5,8.7-52,16.5c-18,8.5-34.3,19.3-47,35C16.6,73,10.5,88.6,11.7,106.6c0.2,3.6,0.5,7.2,1.8,10.6c0-0.6,0-1.3-0.1-1.9
				C11.8,102.8,14.2,91.2,20.1,80.1z"/>
			<path class="st2" d="M340,88.5c-3.9-14.5-13-25.5-24.2-35c-9.7-8.1-20.5-14.4-32-19.6c-12.1-5.5-24.6-9.5-37.6-12.6
				c-8.4-2-16.8-3.5-25.4-4.5c-6.7-0.8-13.5-1.8-20.3-1.6c6.6,0.9,13.2,1.7,19.8,2.8c21.9,3.6,43,10,62.8,20.3
				c14,7.3,26.8,16.3,37,28.5c9.2,11,15.2,23.3,16,37.9c0.6,9.8-1.5,19-5.5,27.9c2-1.4,2.9-3.6,4-5.6
				C341.6,114.9,343.7,102,340,88.5z"/>
			<path class="st2" d="M132.2,195.3c-23.2-4.8-45.3-12.4-65.6-24.9c-14.7-9-27.6-19.9-36.7-34.8c-9.8-16.1-12.6-33.2-7.6-51.5
				c1-3.8,2.8-7.3,3.9-11c-9.6,13.2-13.8,27.8-11.1,44.1c2.6,15.1,10.7,27.3,21.6,37.7c10.6,10.3,23.1,18,36.4,24.3
				c18.5,8.7,38,14.2,58.1,17.4c9.1,1.5,18.3,2.6,27.6,2.9c-0.4-0.4-0.8-0.4-1.3-0.4C149,198.4,140.6,197,132.2,195.3z"/>
			<path class="st2" d="M333.2,95.3c0,1.2,0,2.4,0,3.5c0.9,12.6-2.9,23.8-9.9,34.1c-8.2,12-19.2,20.8-31.5,28.2
				c-14.8,9-30.8,15.1-47.5,19.6c-5.2,1.4-10.4,2.8-15.8,3.4c0.6,0.7,1.3,0.5,2,0.3c3.5-0.6,7.1-1.3,10.6-2c14-3,27.7-7.1,40.8-13
				c12-5.3,23.3-11.8,33.6-20.1c1.9-1.6,3.3-4.1,6-4.6c6-7.7,10.2-16.2,12.2-25.8C335.3,111,335.4,103.1,333.2,95.3z"/>
		</g>
	</g>
	<path class="st0" d="M147.6,13c-2.4,1.2-5.1,0.8-7.5,0.9c-6.7,0.3-13.1,1.7-19.6,3c-13.4,2.6-26.4,6.5-39,11.8
		C69,34,57.2,40.3,46.6,48.8c-7.8,6.3-14.7,13.3-20,21.9c-4,6.6-6.7,13.7-7.7,21.5c-1.8,15.1,3.2,28,12.1,39.7
		c8.9,11.6,20.4,20.1,33.1,27.3c10.7,6,22,10.7,33.6,14.4c11,3.5,22.3,6.1,33.7,7.8c9.6,1.4,19.2,2.4,28.9,2.9
		c7.2,0.4,14.4,0.5,21.6,0.2c8.7-0.4,17.5-0.6,26-2.6c2-0.5,4.1-0.4,6.2-1c2.6,0.6,5.1-0.6,7.5-1.1c11-2.2,21.8-5.2,32.4-8.9
		c17.3-6.1,33.4-14.3,47.7-26.1c1-0.9,1.9-1.9,2.9-2.7c0.7-0.5,1.4-1.4,2.4-0.6c-7.4,10.1-16.9,17.9-27.3,24.6
		c-18.3,11.8-38.3,19.2-59.4,24.1c-23.2,5.4-46.8,7.4-70.6,6.6c-1.8-0.1-3.6-0.3-5.4-0.4c-7.9-0.7-15.7-1.6-23.5-3
		c-15.6-2.8-30.7-7.3-45.3-13.4c-15.3-6.4-29.6-14.6-42.1-25.6c-13-11.4-23.2-24.8-26.9-42.2c-3-14.6-1.9-28.8,5.4-42.2
		c6.2-9.2,14.3-16.4,23.2-22.8C52.6,34.7,72,26.7,92.6,21.1c17.3-4.7,35-7.3,52.9-8.2C146.2,12.9,146.9,13,147.6,13z"/>
</g>
</svg>
