<?xml version="1.0" encoding="utf-8"?>
<!-- Generator: Adobe Illustrator 24.0.1, SVG Export Plug-In . SVG Version: 6.00 Build 0)  -->
<svg version="1.1" id="Camada_1" xmlns="http://www.w3.org/2000/svg" xmlns:xlink="http://www.w3.org/1999/xlink" x="0px" y="0px"
	 viewBox="0 0 80 80" style="enable-background:new 0 0 80 80;" xml:space="preserve">
<style type="text/css">
	.st0{fill:#C6D7FE;}
	.st1{fill:#4900DB;}
	.st2{fill:#FFFFFF;}
	.st3{fill:#424FFE;}
	.st4{fill:#11EAB5;}
</style>
<g>
	<g id="XMLID_3969_">
		<g id="XMLID_4164_">
			<path id="XMLID_426_" class="st0" d="M32.8,12.1h-3.9l-3.2-3.3V7l0,0L21,6.3l-6.9,3.8L9.1,9C9,9,8.9,9,8.9,9.1v5.2l0,0l0,0
				L6.6,14l0,0v5.3c0,0,0,0.2,0.1,0.3l0.7,1.5c0.3,0.5,1.2,0.9,2.2,0.7l1.4-0.2c0.4,0.4,0.9,0.7,1.4,1.1c0.4,0.3,0.9,0.5,1.4,0.7
				v1.1v0.1c-0.1,0.5,0.5,0.9,1.3,1l2.6,0.4c0.9,0.1,1.9-0.2,2.2-0.7l0.4-0.8c1.5,0,3.1-0.2,4.5-0.7l1,0.6c0.7,0.4,1.8,0.4,2.5,0
				l1.9-1.1c0.3-0.2,0.5-0.4,0.5-0.6v-0.1l0,0v-3.9l1-0.2c0.8-0.1,1.4-0.6,1.3-1.1L32.8,12.1L32.8,12.1z"/>
			<path id="XMLID_427_" class="st1" d="M18,26.6c-0.2,0-0.4,0-0.6,0l-2.6-0.4c-1.2-0.2-1.9-0.8-1.8-1.6v-0.8
				c-0.4-0.2-0.8-0.4-1.1-0.6c-0.5-0.3-0.9-0.6-1.3-0.9l-1.1,0.2c-1.2,0.2-2.4-0.3-2.8-1.1L6,19.9c0-0.2,0-0.4,0-0.5v-5.6l0.5-0.4
				l0.2,0.1l1.6,0.2V9.1c0-0.2,0.1-0.4,0.3-0.5l0.2-0.2h0.4l4.8,1l6.9-3.8l5.2,0.8l0.1,0.2l0.1,0.1v1.8l2.9,2.9h4.2V12v5.3
				c0,0.3,0,0.6-0.2,0.9c-0.3,0.4-0.9,0.7-1.6,0.8L31,19.2v3.6c0,0.6-0.6,0.9-0.8,1.1L28.3,25c-0.9,0.5-2.2,0.5-3.1,0l-0.8-0.4
				c-1.2,0.4-2.6,0.6-4,0.6l-0.2,0.5C19.9,26.2,19,26.6,18,26.6z M11,21.1l0.2,0.2c0.4,0.4,0.8,0.7,1.3,1c0.4,0.2,0.8,0.4,1.3,0.6
				l0.4,0.1v1.7c0,0.1,0.3,0.3,0.8,0.3l2.6,0.4c0.8,0.1,1.4-0.2,1.5-0.4l0.5-1.1H20c1.5,0,3-0.3,4.3-0.6l0.2-0.1l1.2,0.7
				c0.5,0.3,1.4,0.3,1.9,0l1.9-1.1c0.2-0.1,0.2-0.2,0.2-0.2v-0.1v-4.4l1.5-0.2c0.4-0.1,0.7-0.2,0.8-0.4v-0.1v-0.1v-4.8h-3.6
				l-3.5-3.6V7.3l-4-0.6L14,10.5l-4.6-1v5.3H8.7L7,14.5v4.6v0.1l0.7,1.5c0.1,0.2,0.8,0.5,1.5,0.4H11z"/>
		</g>
		<g id="XMLID_3977_">
			<path id="XMLID_418_" class="st2" d="M29.9,9.7l-1.4,0.2c-0.4-0.4-0.9-0.7-1.4-1.1c-0.6-0.3-1.2-0.6-1.8-0.8l0.4-0.8
				c0.3-0.5-0.3-1.1-1.2-1.3l-2.6-0.4C21,5.4,20,5.7,19.7,6.2L19.3,7c-1.5,0-3.1,0.2-4.5,0.7l-1-0.6c-0.7-0.4-1.8-0.4-2.5,0L9.5,8.2
				c-0.7,0.4-0.7,1,0,1.4l1,0.6c-0.7,0.8-1.1,1.7-1.2,2.6L7.9,13c-0.9,0.1-1.5,0.7-1.3,1.2l0.7,1.5c0.3,0.5,1.2,0.9,2.2,0.7l1.4-0.2
				c0.4,0.4,0.9,0.7,1.4,1.1c0.6,0.3,1.2,0.6,1.8,0.8L13.7,19c-0.3,0.5,0.3,1.1,1.2,1.3l2.6,0.4c0.9,0.1,1.9-0.2,2.2-0.7l0.4-0.8
				c1.5,0,3.1-0.2,4.5-0.7l1,0.6c0.7,0.4,1.8,0.4,2.5,0L30,18c0.7-0.4,0.7-1,0-1.4L29,16c0.7-0.8,1.1-1.7,1.2-2.6l1.4-0.2
				c0.9-0.1,1.5-0.7,1.3-1.2L32,10.4C31.8,9.9,30.8,9.6,29.9,9.7z"/>
			<path id="XMLID_423_" class="st1" d="M18,21.2c-0.2,0-0.4,0-0.6,0l-2.6-0.4c-0.8-0.1-1.4-0.5-1.7-1c-0.2-0.3-0.2-0.7,0-1.1
				l0.1-0.2c-0.5-0.2-0.9-0.4-1.3-0.7c-0.5-0.3-0.9-0.6-1.3-0.9l-1.1,0.2c-1.2,0.2-2.4-0.3-2.8-1.1L6,14.5c-0.2-0.4-0.1-0.7,0-1.1
				c0.3-0.5,0.9-0.9,1.7-1l0.9-0.1C8.7,11.6,9,11,9.4,10.4L9,10.2C8.6,9.9,8.4,9.4,8.4,9c0-0.5,0.3-0.9,0.8-1.2l1.9-1.1
				c0.9-0.5,2.2-0.5,3.1,0L15,7.1c1.2-0.4,2.6-0.6,4-0.6L19.2,6c0.4-0.8,1.6-1.2,2.8-1l2.6,0.4c0.8,0.1,1.4,0.5,1.7,1
				c0.2,0.3,0.2,0.7,0,1.1l-0.1,0.2c0.5,0.2,0.9,0.4,1.3,0.7C28,8.7,28.4,9,28.8,9.3l1.1-0.2c1.2-0.2,2.4,0.3,2.8,1.1l0.7,1.5
				c0.2,0.4,0.1,0.7,0,1.1c-0.3,0.5-0.9,0.9-1.7,1l-0.9,0.1c-0.1,0.7-0.4,1.3-0.8,1.9l0.4,0.2c0.5,0.3,0.8,0.7,0.8,1.2
				s-0.3,0.9-0.8,1.2l-1.9,1.1c-0.9,0.5-2.2,0.5-3.1,0l-0.8-0.4c-1.2,0.3-2.6,0.6-4,0.6l-0.2,0.5C19.9,20.8,19,21.2,18,21.2z
				 M11,15.7l0.2,0.2c0.4,0.4,0.8,0.7,1.3,1s1.1,0.6,1.7,0.8l0.6,0.2l-0.6,1.4c0.1,0.1,0.3,0.4,0.8,0.4l2.6,0.4
				c0.8,0.1,1.4-0.2,1.5-0.4l0.5-1.1H20c1.5,0,3-0.2,4.3-0.6l0.2-0.1l1.2,0.7c0.5,0.3,1.4,0.3,1.9,0l1.9-1.1
				c0.2-0.1,0.2-0.2,0.2-0.2s0-0.1-0.2-0.2l-1.5-1l0.5-0.5c0.6-0.7,1-1.4,1-2.2v-0.5l1.8-0.3c0.5-0.1,0.8-0.3,0.8-0.4l-0.7-1.5
				c-0.1-0.2-0.8-0.5-1.5-0.4l-1.6,0.2l-0.2-0.2c-0.4-0.4-0.8-0.7-1.3-1s-1.1-0.6-1.7-0.8l-0.6-0.2L25.1,7c-0.1-0.1-0.3-0.3-0.8-0.4
				l-2.6-0.4C21,6,20.3,6.3,20.2,6.5l-0.5,1.1h-0.4c-1.5,0-3,0.3-4.3,0.6l-0.2,0.1l-1.2-0.7c-0.5-0.3-1.4-0.3-1.9,0l-2,1.1
				C9.6,8.9,9.5,8.9,9.5,9c0,0,0,0.1,0.2,0.2l1.6,0.9l-0.5,0.5c-0.6,0.7-1,1.4-1,2.2v0.5L8,13.6c-0.5,0.1-0.8,0.3-0.8,0.4l0.7,1.5
				C8,15.7,8.7,16,9.4,15.9L11,15.7z"/>
		</g>
		<g id="XMLID_3976_">
			
				<rect id="XMLID_422_" x="8" y="18.3" transform="matrix(4.549963e-03 -1 1 4.549963e-03 -8.2296 29.5922)" class="st1" width="5.4" height="1.2"/>
		</g>
		<g id="XMLID_3975_">
			
				<rect id="XMLID_421_" x="11" y="21.5" transform="matrix(4.463768e-03 -1 1 4.463768e-03 -8.5007 35.7077)" class="st1" width="5.4" height="1.2"/>
		</g>
		<g id="XMLID_3974_">
			
				<rect id="XMLID_420_" x="17.3" y="21.7" transform="matrix(4.549997e-03 -1 1 4.549997e-03 -2.3786 42.1524)" class="st1" width="5.4" height="1.2"/>
		</g>
		<g id="XMLID_3973_">
			
				<rect id="XMLID_419_" x="21.7" y="20.7" transform="matrix(4.549606e-03 -1 1 4.549606e-03 3.0143 45.6085)" class="st1" width="5.4" height="1.2"/>
		</g>
		<g id="XMLID_3972_">
			<path id="XMLID_414_" class="st0" d="M23.8,10.7c2.3,1.3,2.3,3.5,0,4.8s-6,1.3-8.3,0s-2.3-3.5,0-4.8S21.5,9.4,23.8,10.7z"/>
			<path id="XMLID_415_" class="st1" d="M19.7,17.1c-1.6,0-3.2-0.4-4.4-1.1c-1.3-0.7-2-1.8-2-2.9s0.7-2.1,2-2.9
				c2.5-1.4,6.4-1.4,8.9,0l0,0c1.3,0.7,2,1.8,2,2.9s-0.7,2.1-2,2.9C22.8,16.7,21.2,17.1,19.7,17.1z M19.7,10.3
				c-1.4,0-2.8,0.3-3.8,0.9c-0.9,0.5-1.4,1.2-1.4,1.9s0.5,1.4,1.4,1.9c2.1,1.2,5.6,1.2,7.7,0c0.9-0.5,1.4-1.2,1.4-1.9
				s-0.5-1.4-1.4-1.9C22.4,10.6,21,10.3,19.7,10.3z"/>
		</g>
		<g id="XMLID_3971_">
			<path id="XMLID_409_" class="st0" d="M15.5,15.2c-0.1,0.1-0.1,0.1-0.2,0.1c0.1,0.1,0.1,0.2,0.2,0.2c2.3,1.3,6,1.3,8.3,0
				c0.1-0.1,0.1-0.2,0.2-0.2c-0.1-0.1-0.1-0.1-0.2-0.1C21.5,13.8,17.8,13.8,15.5,15.2z"/>
			<path id="XMLID_411_" class="st1" d="M19.7,17.1c-1.6,0-3.2-0.4-4.4-1.1c-0.2-0.1-0.2-0.2-0.3-0.3l-0.7-0.4l0.7-0.5
				c0.1-0.1,0.1-0.1,0.2-0.1c2.5-1.4,6.4-1.4,8.9,0c0.1,0,0.1,0.1,0.2,0.1l0.7,0.5l-0.6,0.4c0,0.1-0.1,0.2-0.3,0.3
				C22.8,16.7,21.2,17.1,19.7,17.1z M16.5,15.3c1.9,0.8,4.4,0.8,6.3,0C20.9,14.6,18.4,14.6,16.5,15.3z"/>
		</g>
		<g id="XMLID_3970_">
			<rect id="XMLID_410_" x="16.9" y="10" class="st1" width="1.2" height="4.2"/>
		</g>
	</g>
	<g id="XMLID_5022_">
		<g id="XMLID_5061_">
			<path id="XMLID_199_" class="st3" d="M52.9,69.1h-0.7v-1.8h0.7V69.1z M52.9,65.5h-0.7v-1.8h0.7V65.5z M52.9,62h-0.7v-1.8h0.7V62z
				 M52.9,58.4h-0.7v-1.8h0.7V58.4z M52.9,54.8h-0.7V53h0.7V54.8z M52.9,51.2h-0.7v-1.8h0.7V51.2z"/>
		</g>
		<g id="XMLID_5017_">
			<path id="XMLID_190_" class="st3" d="M51.9,75c-0.7-0.1-1.3-0.2-1.8-0.5l0.3-0.6c0.5,0.2,1,0.4,1.6,0.4L51.9,75z M53.8,74.9
				l-0.1-0.7c0.5-0.1,0.9-0.3,1.3-0.5c0.1,0,0.2-0.1,0.2-0.1l0.4,0.5c-0.1,0.1-0.2,0.1-0.3,0.2C54.9,74.6,54.4,74.8,53.8,74.9z
				 M48.6,73.2c-0.1-0.2-0.1-0.4-0.1-0.6c0-0.5,0.2-1,0.7-1.4l0.5,0.5c-0.3,0.3-0.5,0.6-0.5,0.9c0,0.1,0,0.2,0.1,0.4L48.6,73.2z
				 M55.9,72.5c0-0.4-0.4-0.8-0.9-1.1c-0.2-0.1-0.4-0.2-0.6-0.3l0.2-0.6c0.2,0.1,0.5,0.2,0.7,0.3c0.7,0.4,1.2,1,1.2,1.6L55.9,72.5z
				 M51.1,71l-0.2-0.6c0.5-0.1,1.1-0.2,1.6-0.2l0,0h0.2v0.7h-0.2C52,70.8,51.5,70.9,51.1,71z"/>
		</g>
	</g>
	<g id="XMLID_4987_">
		<g id="XMLID_4988_">
			<g id="XMLID_4989_">
				<g id="XMLID_4990_">
					<g id="XMLID_4993_">
						<g id="XMLID_4994_">
							<g id="XMLID_5011_">
								<path id="XMLID_5028_" class="st1" d="M52.5,58.2l4.9-3.2c0,0,0.1-0.1,0-0.1l-6.2-7.6c0-0.1-0.1,0-0.2,0l-1,4.6l0,0
									l-0.2,3.2c0,0,0,0,0,0.1l2.6,3C52.5,58.2,52.5,58.2,52.5,58.2z"/>
								<path id="XMLID_5025_" class="st1" d="M52.5,58.7c-0.2,0-0.4-0.1-0.5-0.2l-2.7-3.1v-0.3l0.2-3.2l1.1-5l0.4-0.1
									c0.2-0.1,0.5,0,0.6,0.2l6.4,7.7V55c0,0.2-0.1,0.3-0.3,0.4l-4.9,3.2C52.7,58.7,52.6,58.7,52.5,58.7z M50.4,55l2.2,2.5
									l4.2-2.7l-5.3-6.5L50.7,52L50.4,55z"/>
							</g>
							<g id="XMLID_5006_">
								<path id="XMLID_5010_" class="st2" d="M71.1,35.3L47.7,21.8c-0.6-0.3-1.1-0.4-1.5-0.2l0,0l-4.6,2.7c-0.1,0-0.1,0.1,0,0.2
									l5.5,5.8v0.1V40c0,1.5,1.1,3.4,2.4,4.2l3.5,2c0.1,0.1,0.2,0.2,0.2,0.3c0.2,1,1.1,5.2,5.4,8.2c0.2,0.1,0.3-0.1,0.2-0.3
									c-0.6-1.1-1.6-3.4-1.3-5.2c0.2-0.1,0.2-0.1,0.4-0.2l7.2,4.2c0,0,0,0,0.1,0.1l3,8c0,0.1,0.1,0.1,0.2,0.1l4.5-2.7l0,0
									c0.4-0.3,0.6-0.8,0.6-1.5V39.5C73.5,38,72.4,36.1,71.1,35.3z"/>
								<path id="XMLID_5007_" class="st1" d="M68.4,61.9l-0.3-0.1c-0.2-0.1-0.3-0.2-0.4-0.4l-3-7.9L58,49.6
									c-0.1,1.6,0.9,3.6,1.3,4.5c0.2,0.3,0.1,0.7-0.1,0.9c-0.2,0.2-0.6,0.2-0.8,0c-4.3-2.9-5.4-7-5.6-8.4l-0.1-0.2l-3.4-2
									c-1.5-0.9-2.7-2.9-2.7-4.6v-9.4l-5.4-5.7c-0.1-0.1-0.2-0.3-0.2-0.5s0.1-0.4,0.3-0.5l4.6-2.7c0.6-0.3,1.4-0.2,2.1,0.2
									l23.4,13.5c1.5,0.9,2.7,2.9,2.7,4.6v17.6c0,0.9-0.3,1.5-0.9,1.9L68.4,61.9z M57.9,48.4l7.6,4.4l0.1,0.2l2.8,7.6l4.1-2.5
									c0.2-0.2,0.4-0.5,0.4-1V39.5c0-1.3-1-3-2.1-3.7L47.4,22.3c-0.4-0.2-0.8-0.3-1.1-0.2l-4.1,2.4l5.3,5.6v0.3V40
									c0,1.3,1,3,2.1,3.7l3.7,2.2l0.3,0.6c0.1,0.7,0.9,4.1,3.9,6.8c-0.5-1.2-0.9-2.8-0.7-4.2v-0.3L57.9,48.4z"/>
							</g>
							<g id="XMLID_5001_">
								<path id="XMLID_5005_" class="st0" d="M66.5,38.2L43.1,24.6c-1.3-0.7-2.3-0.1-2.3,1.3v17.7c0,1.5,1,3.3,2.3,4l3.6,2.1
									c0.1,0.1,0.2,0.2,0.2,0.3c0.2,0.9,1.1,5.2,5.4,8.2c0.2,0.1,0.3-0.1,0.2-0.3c-0.6-1.1-1.7-3.6-1.3-5.4c0-0.1,0.1-0.1,0.2-0.1
									l15.1,8.7c1.3,0.7,2.3,0.1,2.3-1.3V42.2C68.8,40.7,67.8,38.9,66.5,38.2z"/>
								<path id="XMLID_5002_" class="st1" d="M67.6,62.1c-0.4,0-0.9-0.1-1.3-0.4l-14.6-8.4c-0.1,1.6,0.8,3.6,1.3,4.5
									c0.2,0.3,0.1,0.7-0.1,0.9c-0.2,0.2-0.6,0.2-0.8,0c-4.5-3-5.5-7.5-5.6-8.5l-3.5-2c-1.5-0.8-2.6-2.8-2.6-4.5V26
									c0-0.9,0.3-1.6,0.9-2c0.6-0.4,1.4-0.3,2.2,0.2L67,37.7c1.5,0.8,2.6,2.8,2.6,4.5v17.7c0,0.9-0.3,1.6-0.9,2
									C68.2,62,67.9,62.1,67.6,62.1z M51.3,52c0.1,0,0.2,0,0.4,0.1l15.1,8.7c0.4,0.3,0.9,0.3,1.1,0.2c0.3-0.2,0.4-0.5,0.4-1.1
									V42.2c0-1.3-0.9-2.9-2.1-3.6L42.8,25.1c-0.4-0.3-0.9-0.3-1.1-0.2c-0.3,0.2-0.4,0.5-0.4,1.1v17.7c0,1.3,0.9,2.9,2.1,3.6
									l3.6,2.1c0.2,0.1,0.4,0.4,0.4,0.6c0.1,0.7,0.8,4.1,4,6.9c-0.5-1.3-1-3-0.7-4.4l0.1-0.3L51,52C51.1,52,51.2,52,51.3,52z"/>
							</g>
							<g id="XMLID_4999_">
								<polygon id="XMLID_5000_" class="st1" points="67.9,38.9 66.9,38.3 71.4,35.5 71.9,36.4 								"/>
							</g>
							<g id="XMLID_4997_">
								
									<rect id="XMLID_4998_" x="45.3" y="24.1" transform="matrix(0.8547 -0.5191 0.5191 0.8547 -5.8703 28.3389)" class="st1" width="4.8" height="1.1"/>
							</g>
							<g id="XMLID_4995_">
								
									<rect id="XMLID_4996_" x="68.4" y="41.3" transform="matrix(0.845 -0.5347 0.5347 0.845 -11.3764 44.4734)" class="st1" width="5.3" height="1.1"/>
							</g>
						</g>
					</g>
					<g id="XMLID_4991_">
						<polygon id="XMLID_4992_" class="st1" points="73.5,42.8 68.8,45.7 68.8,61 73.4,58.6 73.5,57.5 						"/>
					</g>
				</g>
			</g>
		</g>
	</g>
	<g id="XMLID_1_">
		<g id="XMLID_9_">
			<path id="XMLID_10_" class="st2" d="M61.2,50.6c-0.5,0-1.1-0.2-1.8-0.5c-2-1.2-3.6-4-3.6-6.3c0-1.2,0.4-2.1,1.2-2.6
				s1.8-0.4,2.9,0.2c2,1.2,3.6,4,3.6,6.3c0,1.2-0.4,2.1-1.2,2.6C61.9,50.5,61.6,50.6,61.2,50.6z M58.1,41.7c-0.2,0-0.5,0.1-0.7,0.2
				c-0.5,0.3-0.8,0.9-0.8,1.8c0,2,1.4,4.5,3.2,5.5c0.8,0.4,1.5,0.5,2,0.2s0.8-0.9,0.8-1.8c0-2-1.4-4.5-3.2-5.5
				C58.9,41.9,58.5,41.7,58.1,41.7z"/>
		</g>
		<g id="XMLID_7_">
			<polygon id="XMLID_8_" class="st2" points="56,44.1 49,40.1 49,41.5 48.1,41.5 48.1,38.5 56.4,43.3 			"/>
		</g>
		<g id="XMLID_5_">
			<rect id="XMLID_6_" x="49.8" y="40.3" class="st2" width="0.9" height="2.2"/>
		</g>
		<g id="XMLID_3_">
			<rect id="XMLID_4_" x="51.4" y="41.2" class="st2" width="0.9" height="2.2"/>
		</g>
	</g>
	<g id="XMLID_4982_">
		<g id="XMLID_4986_">
			<path id="XMLID_56_" class="st4" d="M60.2,49.6c-0.5,0-1.1-0.2-1.8-0.5c-2-1.2-3.6-4-3.6-6.3c0-1.2,0.4-2.1,1.2-2.6
				s1.8-0.4,2.9,0.2c2,1.2,3.6,4,3.6,6.3c0,1.2-0.4,2.1-1.2,2.6C60.9,49.5,60.6,49.6,60.2,49.6z M57.1,40.7c-0.2,0-0.5,0.1-0.7,0.2
				c-0.5,0.3-0.8,0.9-0.8,1.8c0,2,1.4,4.5,3.2,5.5c0.8,0.4,1.5,0.5,2,0.2s0.8-0.9,0.8-1.8c0-2-1.4-4.5-3.2-5.5
				C57.9,40.9,57.5,40.7,57.1,40.7z"/>
		</g>
		<g id="XMLID_4985_">
			<polygon id="XMLID_55_" class="st4" points="55,43.1 48,39.1 48,40.5 47.1,40.5 47.1,37.5 55.4,42.3 			"/>
		</g>
		<g id="XMLID_4984_">
			<rect id="XMLID_44_" x="48.8" y="39.3" class="st4" width="0.9" height="2.2"/>
		</g>
		<g id="XMLID_4983_">
			<rect id="XMLID_2_" x="50.4" y="40.2" class="st4" width="0.9" height="2.2"/>
		</g>
	</g>
</g>
</svg>
