<?xml version="1.0" encoding="utf-8"?>
<!-- Generator: Adobe Illustrator 24.0.1, SVG Export Plug-In . SVG Version: 6.00 Build 0)  -->
<svg version="1.1" id="Camada_1" xmlns="http://www.w3.org/2000/svg" xmlns:xlink="http://www.w3.org/1999/xlink" x="0px" y="0px"
	 viewBox="0 0 100 220" style="enable-background:new 0 0 100 220;" xml:space="preserve">
<style type="text/css">
	.st0{fill:#4900DB;}
	.st1{fill:#FFFFFF;}
	.st2{fill:#C6D7FE;}
	.st3{fill:#11EAB5;}
</style>
<g>
	<g id="XMLID_5_">
		<g id="XMLID_1999_">
			<g id="XMLID_2030_">
				<path id="XMLID_348_" class="st0" d="M87.6,205.2c0.7-1.4,1.1-3.3,1.1-5.5V62.3c0-7.4-4.5-16.1-10.1-19.3L26.4,12.9
					c-2.4-1.4-4.5-1.5-6.2-0.7l0,0c-3,1.1-5.7,3.6-5.7,3.6l1.9,2.9l0,0c-0.1,0.6-0.1,1.2-0.1,1.8V158c0,7.4,4.5,16.1,10.1,19.3
					l52.1,30.1l1.8,3.5c0,0,4.5-0.8,7-5.3c0,0,0,0,0-0.1C87.5,205.4,87.5,205.3,87.6,205.2L87.6,205.2z"/>
				<path id="XMLID_350_" class="st0" d="M80.1,211.5l-1.9-3.8l-52-30c-5.7-3.3-10.4-12.2-10.4-19.8V20.5c0-0.5,0-1.1,0.1-1.7
					l-2.1-3.2l0.3-0.3c0.1-0.1,2.8-2.7,5.9-3.8h0.1c2-0.9,4.3-0.6,6.7,0.8l52.1,30.1c5.7,3.3,10.4,12.2,10.4,19.8v137.5
					c0,2.2-0.4,4.1-1.2,5.7v0.1c-0.1,0.1-0.1,0.2-0.2,0.3v0.1c-2.6,4.6-7.2,5.5-7.4,5.6L80.1,211.5z M17.1,17.9L17,18.7
					c-0.1,0.7-0.1,1.2-0.1,1.8V158c0,7.2,4.4,15.7,9.8,18.8L79,206.9l1.7,3.3c1.1-0.3,4.3-1.5,6.2-4.9c0.1-0.1,0.1-0.2,0.1-0.3v-0.1
					c0.7-1.4,1.1-3.2,1.1-5.2V62.3c0-7.2-4.4-15.7-9.8-18.8L26.2,13.4c-2.1-1.2-4.1-1.5-5.7-0.7l-0.3,0.1l0,0
					c-2.1,0.8-4.1,2.4-4.8,3.1l1.4,2.1L17.1,17.9z"/>
			</g>
			<g id="XMLID_2029_">
				<path id="XMLID_343_" class="st1" d="M74.2,210.2L22,180.1c-5.6-3.2-10.1-11.9-10.1-19.3V23.3c0-7.4,4.5-10.9,10.1-7.6
					l52.1,30.1c5.6,3.2,10.1,11.9,10.1,19.3v137.5C84.3,210,79.7,213.4,74.2,210.2z"/>
				<path id="XMLID_344_" class="st0" d="M78.2,211.9c-1.4,0-2.8-0.4-4.3-1.3l-52.1-30.1c-5.7-3.3-10.4-12.2-10.4-19.8V23.3
					c0-4.1,1.4-7.3,3.8-8.7c2-1.2,4.6-1,7.2,0.5l52.1,30.1c5.7,3.3,10.4,12.2,10.4,19.8v137.5c0,4.1-1.4,7.3-3.8,8.7
					C80.2,211.7,79.2,211.9,78.2,211.9z M74.5,209.7c2.2,1.3,4.4,1.5,6,0.5c2-1.2,3.2-4,3.2-7.7V65.1c0-7.2-4.4-15.7-9.8-18.8
					L21.7,16.2c-2.2-1.3-4.4-1.5-6-0.5c-2,1.2-3.2,4-3.2,7.7v137.5c0,7.2,4.4,15.7,9.8,18.8L74.5,209.7z"/>
			</g>
			<g id="XMLID_2028_">
				<path id="XMLID_315_" class="st2" d="M71,48.3L52.6,37.8c-0.2-0.1-0.6,0-0.6,0.3v1.2c0,1.9-2.1,3.1-3.7,2.1l-1.1-0.7
					c-1.8-1.1-3-3.1-3-5.2v-2c0-0.5-0.3-0.9-0.7-1.2l-22.7-13c-2.8-1.6-5.1-0.3-5.1,2.9v139c0,6,4.2,13.3,9.4,16.2l50.1,28.9
					c2.8,1.6,5.1,0.3,5.1-2.9v-139C80.4,58.6,76.2,51.3,71,48.3z"/>
				<path id="XMLID_338_" class="st0" d="M77.6,207.7c-0.8,0-1.7-0.3-2.6-0.8L24.9,178c-5.3-3.1-9.7-10.6-9.7-16.7v-139
					c0-1.8,0.6-3.1,1.8-3.8c1.2-0.7,2.6-0.5,4.2,0.3l22.7,13c0.6,0.3,1,1,1,1.7v2c0,1.9,1,3.7,2.7,4.7l1.1,0.7
					c0.6,0.4,1.3,0.4,1.9,0c0.6-0.3,1-1,1-1.6v-1.2c0-0.3,0.2-0.7,0.5-0.8c0.3-0.2,0.6-0.2,1,0l18.4,10.5c5.3,3.1,9.7,10.6,9.7,16.7
					v139c0,1.8-0.6,3.1-1.8,3.8C78.7,207.6,78.1,207.7,77.6,207.7z M18.7,19.3c-0.4,0-0.7,0.1-1,0.3c-0.8,0.4-1.2,1.4-1.2,2.8v139
					c0,5.8,4.1,12.8,9.1,15.7L75.7,206c1.2,0.7,2.2,0.8,3,0.3c0.8-0.4,1.2-1.4,1.2-2.8v-139c0-5.8-4.1-12.8-9.1-15.7L52.6,38.5v0.8
					c0,1.1-0.6,2.1-1.5,2.7c-1,0.5-2.1,0.5-3.1,0l-1.1-0.7c-2-1.2-3.2-3.4-3.2-5.7v-2c0-0.3-0.1-0.5-0.4-0.6L20.6,20
					C19.9,19.5,19.2,19.3,18.7,19.3z"/>
			</g>
			<path id="XMLID_2021_" class="st0" d="M49.4,38.5c0,0.8-0.6,1.2-1.3,0.7c-0.7-0.4-1.3-1.4-1.3-2.2s0.6-1.2,1.3-0.7
				C48.8,36.6,49.4,37.6,49.4,38.5z"/>
			<g id="XMLID_2016_">
				
					<rect id="XMLID_337_" x="81.7" y="52.7" transform="matrix(0.8717 -0.49 0.49 0.8717 -15.2233 47.9393)" class="st2" width="4.5" height="0.7"/>
			</g>
			<g id="XMLID_2014_">
				<path id="XMLID_336_" class="st2" d="M21.8,15.5L21.3,15c0.1-0.1,1.8-1.9,4.4-2.5l0.2,0.7C23.4,13.7,21.8,15.5,21.8,15.5z"/>
			</g>
			<g id="XMLID_2013_">
				<path id="XMLID_335_" class="st2" d="M23.9,16.7l-0.5-0.5c0.1-0.1,1.8-1.9,4.4-2.5l0.2,0.7C25.5,14.9,23.9,16.7,23.9,16.7z"/>
			</g>
			<g id="XMLID_2011_">
				
					<rect id="XMLID_333_" x="83.7" y="58.1" transform="matrix(0.8954 -0.4452 0.4452 0.8954 -17.0228 44.3843)" class="st2" width="4.5" height="0.7"/>
			</g>
			<g id="XMLID_2010_">
				<path id="XMLID_332_" class="st2" d="M84.8,195.9l-0.3-0.6c0,0,2.6-1.4,4-2.7l0.5,0.5C87.4,194.5,84.9,195.9,84.8,195.9z"/>
			</g>
			<g id="XMLID_2009_">
				<path id="XMLID_330_" class="st2" d="M84.8,202.4l-0.3-0.6c0,0,2.6-1.4,4-2.7l0.5,0.5C87.4,201,84.9,202.3,84.8,202.4z"/>
			</g>
			<g id="XMLID_2007_">
				<path id="XMLID_329_" class="st2" d="M84.8,205l-0.3-0.6c0,0,2.6-1.4,4-2.7l0.5,0.5C87.4,203.6,84.9,205,84.8,205z"/>
			</g>
			<g id="XMLID_2006_">
				<path id="XMLID_325_" class="st2" d="M86,123.2c-0.2,0-0.3,0-0.5-0.1c-0.4-0.2-0.6-0.6-0.6-1.2v-9.3c0-0.9,0.6-2,1.3-2.4
					l0.2-0.1c0.4-0.2,0.8-0.2,1.1-0.1c0.4,0.2,0.6,0.6,0.6,1.2v9.3c0,0.9-0.6,2-1.3,2.4l0,0l-0.2,0.1
					C86.4,123.1,86.2,123.2,86,123.2z M87,110.5c-0.1,0-0.2,0.1-0.3,0.1l-0.2,0.1c-0.5,0.3-1,1.1-1,1.9v9.3c0,0.3,0.1,0.5,0.2,0.6
					s0.3,0,0.4-0.1l0.2-0.1c0.5-0.3,1-1.1,1-1.9v-9.3C87.3,110.8,87.2,110.6,87,110.5C87.1,110.5,87.1,110.5,87,110.5z"/>
			</g>
			<g id="XMLID_2004_">
				<path id="XMLID_321_" class="st2" d="M86,108.3c-0.2,0-0.3,0-0.5-0.1c-0.4-0.2-0.6-0.6-0.6-1.2v-9.3c0-0.9,0.6-2,1.3-2.4
					l0.2-0.1c0.4-0.2,0.8-0.2,1.1-0.1c0.4,0.2,0.6,0.6,0.6,1.2v9.3c0,0.9-0.6,2-1.3,2.4l0,0l-0.2,0.1
					C86.4,108.2,86.2,108.3,86,108.3z M87,95.6c-0.1,0-0.2,0.1-0.3,0.1l-0.2,0.1c-0.5,0.3-1,1.1-1,1.9v9.3c0,0.3,0.1,0.5,0.2,0.6
					s0.3,0,0.4-0.1l0.2-0.1c0.5-0.3,1-1.1,1-1.9v-9.3C87.3,95.9,87.2,95.7,87,95.6C87.1,95.6,87.1,95.6,87,95.6z"/>
			</g>
			<g id="XMLID_2003_">
				<path id="XMLID_316_" class="st2" d="M86,91.2c-0.2,0-0.3,0-0.5-0.1c-0.4-0.2-0.6-0.6-0.6-1.2v-5.2c0-0.9,0.6-2,1.3-2.4l0.2-0.1
					c0.4-0.2,0.8-0.2,1.1-0.1c0.4,0.2,0.6,0.6,0.6,1.2v5.2c0,0.9-0.6,2-1.3,2.4l0,0L86.6,91C86.4,91.1,86.2,91.2,86,91.2z M87,82.6
					c-0.1,0-0.2,0.1-0.3,0.1l-0.2,0.1c-0.5,0.3-1,1.1-1,1.9v5.2c0,0.3,0.1,0.5,0.2,0.6s0.3,0,0.4-0.1l0.2-0.1c0.5-0.3,1-1.1,1-1.9
					v-5.2C87.3,82.9,87.2,82.7,87,82.6C87.1,82.6,87.1,82.6,87,82.6z"/>
			</g>
			<g id="XMLID_2001_">
				<path id="XMLID_290_" class="st2" d="M86.6,86.5l-0.2,0.1c-0.6,0.4-1.1,0-1.1-0.8v-1.2c0-0.8,0.5-1.8,1.1-2.1l0.2-0.1
					c0.6-0.4,1.1,0,1.1,0.8v1.2C87.7,85.2,87.2,86.2,86.6,86.5z"/>
				<path id="XMLID_311_" class="st2" d="M86,87.1c-0.2,0-0.3,0-0.5-0.1c-0.4-0.2-0.6-0.6-0.6-1.2v-1.2c0-0.9,0.6-2,1.3-2.4l0.2-0.1
					c0.4-0.2,0.8-0.2,1.1-0.1c0.4,0.2,0.6,0.6,0.6,1.2v1.2c0,0.9-0.6,2-1.3,2.4l0,0l-0.2,0.1C86.4,87.1,86.2,87.1,86,87.1z M87,82.6
					c-0.1,0-0.2,0.1-0.3,0.1l-0.2,0.1c-0.5,0.3-1,1.1-1,1.9v1.2c0,0.3,0.1,0.5,0.2,0.6s0.3,0,0.4-0.1l0.2-0.1c0.5-0.3,1-1.1,1-1.9
					v-1.2C87.3,82.9,87.2,82.7,87,82.6C87.1,82.6,87.1,82.6,87,82.6z"/>
			</g>
			<g id="XMLID_2000_">
				
					<rect id="XMLID_309_" x="80.4" y="50.5" transform="matrix(0.8598 -0.5106 0.5106 0.8598 -14.3695 49.3826)" class="st2" width="4.7" height="0.7"/>
			</g>
		</g>
		<g id="XMLID_2244_">
			<path id="XMLID_308_" class="st0" d="M31.3,11.8L28,10.1c-2-1-4.2-1.5-6.4-1.3l-0.1-1.2c2.4-0.2,4.8,0.3,7,1.5l3.3,1.7L31.3,11.8
				z"/>
		</g>
		<g id="XMLID_2242_">
			<path id="XMLID_306_" class="st0" d="M9,36.4H7.8V20.7c0-2.4,0.7-4.7,1.9-6.6c1.9-2.8,4.8-4.9,8.3-5.9l0.3,1.1
				c-3.3,1-5.9,2.8-7.7,5.4c-1,1.8-1.6,3.8-1.6,6V36.4z"/>
		</g>
		<g id="XMLID_989_">
			<rect id="XMLID_305_" x="7.8" y="39.5" class="st0" width="1.2" height="9.1"/>
		</g>
		<g id="XMLID_987_">
			<path id="XMLID_304_" class="st0" d="M88.2,211.7l-1-0.6l1.9-2.9c1.5-2.4,2.3-5.1,2.3-7.9v-30.5h1.2v30.5c0,3-0.9,6-2.5,8.5
				L88.2,211.7z"/>
		</g>
		<g id="XMLID_2246_">
			<rect id="XMLID_303_" x="91.4" y="156.6" class="st0" width="1.2" height="9.9"/>
		</g>
		<g id="XMLID_4009_">
			<g id="XMLID_3932_">
				<path id="XMLID_986_" class="st0" d="M75.4,72.6c0.2,1.3,1.4,2.5,1.6,2.7l0,0c-0.2,0-1.4-0.2-1.6,0.9l0,0
					c-0.2-1.3-1.4-2.5-1.6-2.7l0,0C74.1,73.5,75.2,73.6,75.4,72.6L75.4,72.6z"/>
			</g>
			<g id="XMLID_3931_">
				<path id="XMLID_754_" class="st0" d="M70.9,70c0.2,1.3,1.4,2.5,1.6,2.7l0,0c-0.2,0-1.4-0.2-1.6,0.9l0,0
					c-0.2-1.3-1.4-2.5-1.6-2.7l0,0C69.5,70.9,70.7,71,70.9,70C70.9,69.9,70.9,69.9,70.9,70z"/>
			</g>
			<g id="XMLID_3930_">
				<path id="XMLID_732_" class="st0" d="M66.3,67.3c0.2,1.3,1.4,2.5,1.6,2.7l0,0c-0.2,0-1.4-0.2-1.6,0.9l0,0
					c-0.2-1.3-1.4-2.5-1.6-2.7l0,0C64.9,68.3,66.1,68.4,66.3,67.3L66.3,67.3z"/>
			</g>
			<g id="XMLID_3929_">
				<path id="XMLID_731_" class="st0" d="M61.8,64.7c0.2,1.3,1.4,2.5,1.6,2.7l0,0c-0.2,0-1.4-0.2-1.6,0.9l0,0
					c-0.2-1.3-1.4-2.5-1.6-2.7l0,0C60.4,65.6,61.6,65.8,61.8,64.7L61.8,64.7z"/>
			</g>
			<g id="XMLID_3928_">
				<path id="XMLID_706_" class="st0" d="M57.2,62.1c0.2,1.3,1.4,2.5,1.6,2.7l0,0c-0.2,0-1.4-0.2-1.6,0.9l0,0
					c-0.2-1.3-1.4-2.5-1.6-2.7l0,0C55.8,63,57,63.1,57.2,62.1C57.2,62,57.2,62.1,57.2,62.1z"/>
			</g>
			<g id="XMLID_3927_">
				<path id="XMLID_647_" class="st0" d="M52.7,59.4c0.2,1.3,1.4,2.5,1.6,2.7l0,0c-0.2,0-1.4-0.2-1.6,0.9l0,0
					c-0.2-1.3-1.4-2.5-1.6-2.7l0,0C51.3,60.4,52.5,60.5,52.7,59.4L52.7,59.4z"/>
			</g>
			<g id="XMLID_3926_">
				<path id="XMLID_645_" class="st0" d="M48.1,56.8c0.2,1.3,1.4,2.5,1.6,2.7l0,0c-0.2,0-1.4-0.2-1.6,0.9l0,0
					c-0.2-1.3-1.4-2.5-1.6-2.7l0,0C46.7,57.7,47.9,57.9,48.1,56.8L48.1,56.8z"/>
			</g>
			<g id="XMLID_3925_">
				<path id="XMLID_638_" class="st0" d="M43.6,54.2c0.2,1.3,1.4,2.5,1.6,2.7l0,0c-0.2,0-1.4-0.2-1.6,0.9l0,0
					c-0.2-1.3-1.4-2.5-1.6-2.7l0,0C42.2,55.1,43.4,55.2,43.6,54.2C43.5,54.2,43.6,54.2,43.6,54.2z"/>
			</g>
			<g id="XMLID_3924_">
				<path id="XMLID_614_" class="st0" d="M39,51.6c0.2,1.3,1.4,2.5,1.6,2.7l0,0c-0.2,0-1.4-0.2-1.6,0.9l0,0
					c-0.2-1.3-1.4-2.5-1.6-2.7l0,0C37.6,52.5,38.8,52.6,39,51.6C39,51.5,39,51.5,39,51.6z"/>
			</g>
			<g id="XMLID_3912_">
				<path id="XMLID_607_" class="st0" d="M75.4,67.3c0.2,1.3,1.4,2.5,1.6,2.7l0,0c-0.2,0-1.4-0.2-1.6,0.9l0,0
					c-0.2-1.3-1.4-2.5-1.6-2.7l0,0C74.1,68.2,75.2,68.4,75.4,67.3L75.4,67.3z"/>
			</g>
			<g id="XMLID_3911_">
				<path id="XMLID_601_" class="st0" d="M70.9,64.7c0.2,1.3,1.4,2.5,1.6,2.7l0,0c-0.2,0-1.4-0.2-1.6,0.9l0,0
					c-0.2-1.3-1.4-2.5-1.6-2.7l0,0C69.5,65.6,70.7,65.7,70.9,64.7L70.9,64.7z"/>
			</g>
			<g id="XMLID_3910_">
				<path id="XMLID_596_" class="st0" d="M66.3,62.1c0.2,1.3,1.4,2.5,1.6,2.7l0,0c-0.2,0-1.4-0.2-1.6,0.9l0,0
					c-0.2-1.3-1.4-2.5-1.6-2.7l0,0C64.9,63,66.1,63.1,66.3,62.1C66.3,62,66.3,62,66.3,62.1z"/>
			</g>
			<g id="XMLID_3909_">
				<path id="XMLID_590_" class="st0" d="M61.8,59.4c0.2,1.3,1.4,2.5,1.6,2.7l0,0c-0.2,0-1.4-0.2-1.6,0.9l0,0
					c-0.2-1.3-1.4-2.5-1.6-2.7l0,0C60.4,60.4,61.6,60.5,61.8,59.4L61.8,59.4z"/>
			</g>
			<g id="XMLID_3908_">
				<path id="XMLID_584_" class="st0" d="M57.2,56.8c0.2,1.3,1.4,2.5,1.6,2.7l0,0c-0.2,0-1.4-0.2-1.6,0.9l0,0
					c-0.2-1.3-1.4-2.5-1.6-2.7l0,0C55.8,57.7,57,57.9,57.2,56.8L57.2,56.8z"/>
			</g>
			<g id="XMLID_3907_">
				<path id="XMLID_583_" class="st0" d="M52.7,54.2c0.2,1.3,1.4,2.5,1.6,2.7l0,0c-0.2,0-1.4-0.2-1.6,0.9l0,0
					c-0.2-1.3-1.4-2.5-1.6-2.7l0,0C51.3,55.1,52.5,55.2,52.7,54.2C52.7,54.1,52.7,54.1,52.7,54.2z"/>
			</g>
			<g id="XMLID_3906_">
				<path id="XMLID_581_" class="st0" d="M48.1,51.5c0.2,1.3,1.4,2.5,1.6,2.7l0,0c-0.2,0-1.4-0.2-1.6,0.9l0,0
					c-0.2-1.3-1.4-2.5-1.6-2.7l0,0C46.7,52.5,47.9,52.6,48.1,51.5L48.1,51.5z"/>
			</g>
			<g id="XMLID_3905_">
				<path id="XMLID_580_" class="st0" d="M43.6,48.9c0.2,1.3,1.4,2.5,1.6,2.7l0,0c-0.2,0-1.4-0.2-1.6,0.9l0,0
					c-0.2-1.3-1.4-2.5-1.6-2.7l0,0C42.2,49.8,43.4,50,43.6,48.9C43.5,48.9,43.6,48.9,43.6,48.9z"/>
			</g>
			<g id="XMLID_3904_">
				<path id="XMLID_577_" class="st0" d="M39,46.3c0.2,1.3,1.4,2.5,1.6,2.7l0,0c-0.2,0-1.4-0.2-1.6,0.9l0,0
					c-0.2-1.3-1.4-2.5-1.6-2.7l0,0C37.6,47.2,38.8,47.3,39,46.3C39,46.2,39,46.3,39,46.3z"/>
			</g>
			<g id="XMLID_3892_">
				<path id="XMLID_569_" class="st0" d="M75.4,62c0.2,1.3,1.4,2.5,1.6,2.7l0,0c-0.2,0-1.4-0.2-1.6,0.9l0,0
					c-0.2-1.3-1.4-2.5-1.6-2.7l0,0C74.1,63,75.2,63.1,75.4,62L75.4,62z"/>
			</g>
			<g id="XMLID_3891_">
				<path id="XMLID_567_" class="st0" d="M70.9,59.4c0.2,1.3,1.4,2.5,1.6,2.7l0,0c-0.2,0-1.4-0.2-1.6,0.9l0,0
					c-0.2-1.3-1.4-2.5-1.6-2.7l0,0C69.5,60.3,70.7,60.5,70.9,59.4L70.9,59.4z"/>
			</g>
			<g id="XMLID_3890_">
				<path id="XMLID_566_" class="st0" d="M66.3,56.8c0.2,1.3,1.4,2.5,1.6,2.7l0,0c-0.2,0-1.4-0.2-1.6,0.9l0,0
					c-0.2-1.3-1.4-2.5-1.6-2.7l0,0C64.9,57.7,66.1,57.8,66.3,56.8C66.3,56.7,66.3,56.8,66.3,56.8z"/>
			</g>
			<g id="XMLID_3889_">
				<path id="XMLID_565_" class="st0" d="M61.8,54.1c0.2,1.3,1.4,2.5,1.6,2.7l0,0c-0.2,0-1.4-0.2-1.6,0.9l0,0
					c-0.2-1.3-1.4-2.5-1.6-2.7l0,0C60.4,55.1,61.6,55.2,61.8,54.1L61.8,54.1z"/>
			</g>
			<g id="XMLID_3888_">
				<path id="XMLID_563_" class="st0" d="M57.2,51.5c0.2,1.3,1.4,2.5,1.6,2.7l0,0c-0.2,0-1.4-0.2-1.6,0.9l0,0
					c-0.2-1.3-1.4-2.5-1.6-2.7l0,0C55.8,52.4,57,52.6,57.2,51.5L57.2,51.5z"/>
			</g>
			<g id="XMLID_3887_">
				<path id="XMLID_562_" class="st0" d="M52.7,48.9c0.2,1.3,1.4,2.5,1.6,2.7l0,0c-0.2,0-1.4-0.2-1.6,0.9l0,0
					c-0.2-1.3-1.4-2.5-1.6-2.7l0,0C51.3,49.8,52.5,49.9,52.7,48.9L52.7,48.9z"/>
			</g>
			<g id="XMLID_3886_">
				<path id="XMLID_558_" class="st0" d="M48.1,46.3c0.2,1.3,1.4,2.5,1.6,2.7l0,0c-0.2,0-1.4-0.2-1.6,0.9l0,0
					c-0.2-1.3-1.4-2.5-1.6-2.7l0,0C46.7,47.2,47.9,47.3,48.1,46.3C48.1,46.2,48.1,46.2,48.1,46.3z"/>
			</g>
			<g id="XMLID_3885_">
				<path id="XMLID_557_" class="st0" d="M43.6,43.6c0.2,1.3,1.4,2.5,1.6,2.7l0,0c-0.2,0-1.4-0.2-1.6,0.9l0,0
					c-0.2-1.3-1.4-2.5-1.6-2.7l0,0C42.2,44.6,43.4,44.7,43.6,43.6C43.5,43.6,43.6,43.6,43.6,43.6z"/>
			</g>
			<g id="XMLID_3884_">
				<path id="XMLID_554_" class="st0" d="M39,41c0.2,1.3,1.4,2.5,1.6,2.7l0,0c-0.2,0-1.4-0.2-1.6,0.9l0,0c-0.2-1.3-1.4-2.5-1.6-2.7
					l0,0C37.6,41.9,38.8,42.1,39,41L39,41z"/>
			</g>
			<g id="XMLID_3863_">
				<path id="XMLID_553_" class="st0" d="M34.5,48.9c0.2,1.3,1.4,2.5,1.6,2.7l0,0c-0.2,0-1.4-0.2-1.6,0.9l0,0
					c-0.2-1.3-1.4-2.5-1.6-2.7l0,0C33.1,49.9,34.3,50,34.5,48.9C34.4,48.9,34.5,48.9,34.5,48.9z"/>
			</g>
			<g id="XMLID_3827_">
				<path id="XMLID_551_" class="st0" d="M29.9,46.3c0.2,1.3,1.4,2.5,1.6,2.7l0,0c-0.2,0-1.4-0.2-1.6,0.9l0,0
					c-0.2-1.3-1.4-2.5-1.6-2.7l0,0C28.5,47.2,29.7,47.4,29.9,46.3L29.9,46.3z"/>
			</g>
			<g id="XMLID_3826_">
				<path id="XMLID_550_" class="st0" d="M25.3,43.7c0.2,1.3,1.4,2.5,1.6,2.7l0,0c-0.2,0-1.4-0.2-1.6,0.9l0,0
					c-0.2-1.3-1.4-2.5-1.6-2.7l0,0C24,44.6,25.2,44.7,25.3,43.7C25.3,43.6,25.3,43.7,25.3,43.7z"/>
			</g>
			<g id="XMLID_3825_">
				<path id="XMLID_547_" class="st0" d="M20.8,41c0.2,1.3,1.4,2.5,1.6,2.7l0,0c-0.2,0-1.4-0.2-1.6,0.9l0,0
					c-0.2-1.3-1.4-2.5-1.6-2.7l0,0C19.4,42,20.6,42.1,20.8,41L20.8,41z"/>
			</g>
			<g id="XMLID_3824_">
				<path id="XMLID_546_" class="st0" d="M34.5,43.6c0.2,1.3,1.4,2.5,1.6,2.7l0,0c-0.2,0-1.4-0.2-1.6,0.9l0,0
					c-0.2-1.3-1.4-2.5-1.6-2.7l0,0C33.1,44.6,34.3,44.7,34.5,43.6C34.4,43.6,34.5,43.6,34.5,43.6z"/>
			</g>
			<g id="XMLID_3823_">
				<path id="XMLID_544_" class="st0" d="M29.9,41c0.2,1.3,1.4,2.5,1.6,2.7l0,0c-0.2,0-1.4-0.2-1.6,0.9l0,0
					c-0.2-1.3-1.4-2.5-1.6-2.7l0,0C28.5,41.9,29.7,42.1,29.9,41L29.9,41z"/>
			</g>
			<g id="XMLID_3649_">
				<path id="XMLID_543_" class="st0" d="M25.3,38.4c0.2,1.3,1.4,2.5,1.6,2.7l0,0c-0.2,0-1.4-0.2-1.6,0.9l0,0
					c-0.2-1.3-1.4-2.5-1.6-2.7l0,0C24,39.3,25.2,39.4,25.3,38.4L25.3,38.4z"/>
			</g>
			<g id="XMLID_3648_">
				<path id="XMLID_542_" class="st0" d="M20.8,35.8c0.2,1.3,1.4,2.5,1.6,2.7l0,0c-0.2,0-1.4-0.2-1.6,0.9l0,0
					c-0.2-1.3-1.4-2.5-1.6-2.7l0,0C19.4,36.7,20.6,36.8,20.8,35.8C20.8,35.7,20.8,35.7,20.8,35.8z"/>
			</g>
			<g id="XMLID_3647_">
				<path id="XMLID_540_" class="st0" d="M34.5,38.4c0.2,1.3,1.4,2.5,1.6,2.7l0,0c-0.2,0-1.4-0.2-1.6,0.9l0,0
					c-0.2-1.3-1.4-2.5-1.6-2.7l0,0C33.1,39.3,34.3,39.4,34.5,38.4C34.4,38.3,34.5,38.4,34.5,38.4z"/>
			</g>
			<g id="XMLID_3646_">
				<path id="XMLID_539_" class="st0" d="M29.9,35.7c0.2,1.3,1.4,2.5,1.6,2.7l0,0c-0.2,0-1.4-0.2-1.6,0.9l0,0
					c-0.2-1.3-1.4-2.5-1.6-2.7l0,0C28.5,36.7,29.7,36.8,29.9,35.7L29.9,35.7z"/>
			</g>
			<g id="XMLID_3645_">
				<path id="XMLID_537_" class="st0" d="M25.3,33.1c0.2,1.3,1.4,2.5,1.6,2.7l0,0c-0.2,0-1.4-0.2-1.6,0.9l0,0
					c-0.2-1.3-1.4-2.5-1.6-2.7l0,0C24,34,25.2,34.2,25.3,33.1L25.3,33.1z"/>
			</g>
			<g id="XMLID_3644_">
				<path id="XMLID_996_" class="st0" d="M20.8,30.5c0.2,1.3,1.4,2.5,1.6,2.7l0,0c-0.2,0-1.4-0.2-1.6,0.9l0,0
					c-0.2-1.3-1.4-2.5-1.6-2.7l0,0C19.4,31.4,20.6,31.5,20.8,30.5L20.8,30.5z"/>
			</g>
		</g>
		<g id="XMLID_535_">
			<g id="XMLID_2132_">
				<path id="XMLID_2134_" class="st0" d="M70.9,193.8c0.2,1.3,1.4,2.5,1.6,2.7l0,0c-0.2,0-1.4-0.2-1.6,0.9l0,0
					c-0.2-1.3-1.4-2.5-1.6-2.7l0,0C69.5,194.7,70.7,194.8,70.9,193.8L70.9,193.8z"/>
			</g>
			<g id="XMLID_2118_">
				<path id="XMLID_2131_" class="st0" d="M66.3,191.2c0.2,1.3,1.4,2.5,1.6,2.7l0,0c-0.2,0-1.4-0.2-1.6,0.9l0,0
					c-0.2-1.3-1.4-2.5-1.6-2.7l0,0C64.9,192.1,66.1,192.2,66.3,191.2C66.3,191.1,66.3,191.1,66.3,191.2z"/>
			</g>
			<g id="XMLID_2116_">
				<path id="XMLID_2117_" class="st0" d="M61.8,188.5c0.2,1.3,1.4,2.5,1.6,2.7l0,0c-0.2,0-1.4-0.2-1.6,0.9l0,0
					c-0.2-1.3-1.4-2.5-1.6-2.7l0,0C60.4,189.5,61.6,189.6,61.8,188.5L61.8,188.5z"/>
			</g>
			<g id="XMLID_2113_">
				<path id="XMLID_2114_" class="st0" d="M57.2,185.9c0.2,1.3,1.4,2.5,1.6,2.7l0,0c-0.2,0-1.4-0.2-1.6,0.9l0,0
					c-0.2-1.3-1.4-2.5-1.6-2.7l0,0C55.8,186.8,57,187,57.2,185.9L57.2,185.9z"/>
			</g>
			<g id="XMLID_2110_">
				<path id="XMLID_2111_" class="st0" d="M52.7,183.3c0.2,1.3,1.4,2.5,1.6,2.7l0,0c-0.2,0-1.4-0.2-1.6,0.9l0,0
					c-0.2-1.3-1.4-2.5-1.6-2.7l0,0C51.3,184.2,52.5,184.3,52.7,183.3C52.7,183.2,52.7,183.2,52.7,183.3z"/>
			</g>
			<g id="XMLID_2104_">
				<path id="XMLID_2106_" class="st0" d="M43.6,178c0.2,1.3,1.4,2.5,1.6,2.7l0,0c-0.2,0-1.4-0.2-1.6,0.9l0,0
					c-0.2-1.3-1.4-2.5-1.6-2.7l0,0C42.2,178.9,43.4,179.1,43.6,178C43.5,178,43.6,178,43.6,178z"/>
			</g>
			<g id="XMLID_2101_">
				<path id="XMLID_2103_" class="st0" d="M39,175.4c0.2,1.3,1.4,2.5,1.6,2.7l0,0c-0.2,0-1.4-0.2-1.6,0.9l0,0
					c-0.2-1.3-1.4-2.5-1.6-2.7l0,0C37.6,176.3,38.8,176.4,39,175.4C39,175.3,39,175.4,39,175.4z"/>
			</g>
			<g id="XMLID_2098_">
				<path id="XMLID_2100_" class="st0" d="M75.4,191.1c0.2,1.3,1.4,2.5,1.6,2.7l0,0c-0.2,0-1.4-0.2-1.6,0.9l0,0
					c-0.2-1.3-1.4-2.5-1.6-2.7l0,0C74.1,192.1,75.2,192.2,75.4,191.1L75.4,191.1z"/>
			</g>
			<g id="XMLID_2096_">
				<path id="XMLID_2097_" class="st0" d="M70.9,188.5c0.2,1.3,1.4,2.5,1.6,2.7l0,0c-0.2,0-1.4-0.2-1.6,0.9l0,0
					c-0.2-1.3-1.4-2.5-1.6-2.7l0,0C69.5,189.4,70.7,189.6,70.9,188.5L70.9,188.5z"/>
			</g>
			<g id="XMLID_2093_">
				<path id="XMLID_2094_" class="st0" d="M66.3,185.9c0.2,1.3,1.4,2.5,1.6,2.7l0,0c-0.2,0-1.4-0.2-1.6,0.9l0,0
					c-0.2-1.3-1.4-2.5-1.6-2.7l0,0C64.9,186.8,66.1,186.9,66.3,185.9C66.3,185.8,66.3,185.9,66.3,185.9z"/>
			</g>
			<g id="XMLID_2089_">
				<path id="XMLID_2090_" class="st0" d="M61.8,183.2c0.2,1.3,1.4,2.5,1.6,2.7l0,0c-0.2,0-1.4-0.2-1.6,0.9l0,0
					c-0.2-1.3-1.4-2.5-1.6-2.7l0,0C60.4,184.2,61.6,184.3,61.8,183.2L61.8,183.2z"/>
			</g>
			<g id="XMLID_2086_">
				<path id="XMLID_2087_" class="st0" d="M57.2,180.6c0.2,1.3,1.4,2.5,1.6,2.7l0,0c-0.2,0-1.4-0.2-1.6,0.9l0,0
					c-0.2-1.3-1.4-2.5-1.6-2.7l0,0C55.8,181.5,57,181.7,57.2,180.6L57.2,180.6z"/>
			</g>
			<g id="XMLID_2083_">
				<path id="XMLID_2085_" class="st0" d="M52.7,178c0.2,1.3,1.4,2.5,1.6,2.7l0,0c-0.2,0-1.4-0.2-1.6,0.9l0,0
					c-0.2-1.3-1.4-2.5-1.6-2.7l0,0C51.3,178.9,52.5,179,52.7,178L52.7,178z"/>
			</g>
			<g id="XMLID_1980_">
				<path id="XMLID_1982_" class="st0" d="M48.1,180.6c0.2,1.3,1.4,2.5,1.6,2.7l0,0c-0.2,0-1.4-0.2-1.6,0.9l0,0
					c-0.2-1.3-1.4-2.5-1.6-2.7l0,0C46.7,181.5,47.9,181.7,48.1,180.6L48.1,180.6z"/>
			</g>
			<g id="XMLID_1975_">
				<path id="XMLID_1976_" class="st0" d="M48.1,175.3c0.2,1.3,1.4,2.5,1.6,2.7l0,0c-0.2,0-1.4-0.2-1.6,0.9l0,0
					c-0.2-1.3-1.4-2.5-1.6-2.7l0,0C46.7,176.3,47.9,176.4,48.1,175.3L48.1,175.3z"/>
			</g>
			<g id="XMLID_2077_">
				<path id="XMLID_2079_" class="st0" d="M43.6,172.7c0.2,1.3,1.4,2.5,1.6,2.7l0,0c-0.2,0-1.4-0.2-1.6,0.9l0,0
					c-0.2-1.3-1.4-2.5-1.6-2.7l0,0C42.2,173.7,43.4,173.8,43.6,172.7C43.5,172.7,43.6,172.7,43.6,172.7z"/>
			</g>
			<g id="XMLID_2075_">
				<path id="XMLID_2076_" class="st0" d="M39,170.1c0.2,1.3,1.4,2.5,1.6,2.7l0,0c-0.2,0-1.4-0.2-1.6,0.9l0,0
					c-0.2-1.3-1.4-2.5-1.6-2.7l0,0C37.6,171,38.8,171.2,39,170.1L39,170.1z"/>
			</g>
			<g id="XMLID_2047_">
				<path id="XMLID_2048_" class="st0" d="M34.5,172.7c0.2,1.3,1.4,2.5,1.6,2.7l0,0c-0.2,0-1.4-0.2-1.6,0.9l0,0
					c-0.2-1.3-1.4-2.5-1.6-2.7l0,0C33.1,173.7,34.3,173.8,34.5,172.7C34.4,172.7,34.5,172.7,34.5,172.7z"/>
			</g>
			<g id="XMLID_2044_">
				<path id="XMLID_2046_" class="st0" d="M29.9,170.1c0.2,1.3,1.4,2.5,1.6,2.7l0,0c-0.2,0-1.4-0.2-1.6,0.9l0,0
					c-0.2-1.3-1.4-2.5-1.6-2.7l0,0C28.5,171,29.7,171.2,29.9,170.1L29.9,170.1z"/>
			</g>
			<g id="XMLID_2041_">
				<path id="XMLID_2043_" class="st0" d="M25.3,167.5c0.2,1.3,1.4,2.5,1.6,2.7l0,0c-0.2,0-1.4-0.2-1.6,0.9l0,0
					c-0.2-1.3-1.4-2.5-1.6-2.7l0,0C24,168.4,25.2,168.5,25.3,167.5L25.3,167.5z"/>
			</g>
			<g id="XMLID_2036_">
				<path id="XMLID_2037_" class="st0" d="M34.5,167.5c0.2,1.3,1.4,2.5,1.6,2.7l0,0c-0.2,0-1.4-0.2-1.6,0.9l0,0
					c-0.2-1.3-1.4-2.5-1.6-2.7l0,0C33.1,168.4,34.3,168.5,34.5,167.5C34.4,167.4,34.5,167.5,34.5,167.5z"/>
			</g>
			<g id="XMLID_2033_">
				<path id="XMLID_2034_" class="st0" d="M29.9,164.8c0.2,1.3,1.4,2.5,1.6,2.7l0,0c-0.2,0-1.4-0.2-1.6,0.9l0,0
					c-0.2-1.3-1.4-2.5-1.6-2.7l0,0C28.5,165.8,29.7,165.9,29.9,164.8L29.9,164.8z"/>
			</g>
			<g id="XMLID_2017_">
				<path id="XMLID_2031_" class="st0" d="M25.3,162.2c0.2,1.3,1.4,2.5,1.6,2.7l0,0c-0.2,0-1.4-0.2-1.6,0.9l0,0
					c-0.2-1.3-1.4-2.5-1.6-2.7l0,0C24,163.1,25.2,163.3,25.3,162.2L25.3,162.2z"/>
			</g>
			<g id="XMLID_1996_">
				<path id="XMLID_1997_" class="st0" d="M20.8,159.6c0.2,1.3,1.4,2.5,1.6,2.7l0,0c-0.2,0-1.4-0.2-1.6,0.9l0,0
					c-0.2-1.3-1.4-2.5-1.6-2.7l0,0C19.4,160.5,20.6,160.6,20.8,159.6L20.8,159.6z"/>
			</g>
		</g>
	</g>
	<g id="XMLID_4780_">
		<g id="XMLID_4189_">
			<g id="XMLID_2382_">
				<path id="XMLID_294_" class="st3" d="M66.9,144.9c-0.7,0-1.5-0.2-2.3-0.7l-34.7-20c-3-1.7-5.4-6.4-5.4-10.3V75.7
					c0-2.2,0.7-3.9,2-4.6c1.1-0.6,2.5-0.5,3.9,0.3l34.7,20c3,1.7,5.4,6.4,5.4,10.3v38.2c0,2.2-0.7,3.9-2,4.6
					C68,144.8,67.4,144.9,66.9,144.9z M28.1,71.6c-0.4,0-0.8,0.1-1.1,0.3c-1,0.6-1.6,2-1.6,3.8v38.2c0,3.7,2.2,8,5,9.6l34.7,20
					c1.1,0.6,2.2,0.7,3,0.3c1-0.6,1.6-2,1.6-3.8v-38.2c0-3.7-2.2-8-5-9.6L30,72.2C29.3,71.7,28.6,71.6,28.1,71.6z"/>
			</g>
			<g id="XMLID_4180_">
				<path id="XMLID_291_" class="st3" d="M65.5,141.2c-0.4,0-0.9-0.1-1.4-0.4l0,0l-33.7-19.5c-1.8-1-3.2-3.7-3.2-6.1V77.4
					c0-1.3,0.5-2.3,1.3-2.8c0.7-0.4,1.5-0.3,2.4,0.2l33.7,19.5c1.8,1,3.2,3.7,3.2,6.1v37.9c0,1.3-0.5,2.3-1.3,2.8
					C66.2,141.1,65.9,141.2,65.5,141.2z M64.6,140c0.4,0.2,1,0.5,1.5,0.2s0.8-1,0.8-2v-37.9c0-2-1.2-4.4-2.7-5.3L30.4,75.5
					c-0.4-0.2-1-0.4-1.5-0.2c-0.5,0.3-0.8,1-0.8,2v37.9c0,2,1.2,4.4,2.7,5.3L64.6,140L64.6,140z"/>
			</g>
			<g id="XMLID_4188_">
				<path id="XMLID_286_" class="st3" d="M45,118.1c0,0-7.8-6.9-12.9,3.7l32,18.5c0,0,1.1-11.4-10.9-18.1l-7-3.2L45,118.1z"/>
				<path id="XMLID_287_" class="st3" d="M64.5,141l-33-19l0.2-0.4c1.7-3.5,3.8-5.6,6.4-6.1c3.7-0.7,6.8,1.9,7.1,2.2l1.2,0.8
					l6.9,3.2c12.2,6.8,11.2,18.5,11.2,18.6V141z M32.7,121.6l31,17.9c0-2.6-0.8-11.4-10.7-17l-7-3.2l-1.3-0.9c0,0-3-2.7-6.4-2
					C36.1,116.9,34.2,118.6,32.7,121.6z"/>
			</g>
			<g id="XMLID_4186_">
				<g id="XMLID_4183_">
					<path id="XMLID_282_" class="st1" d="M52.4,111.2c0.9-5.1-9.9-19.2-9.9-19.2c-3.2,1.5-4.7,5.9-3.5,11.5
						c0.6,2.8,1.6,6.1,3.3,9.4c0,0,1.6,1.5,3.4,2c0,0,0.3,3.4-0.9,4.8c0,0-0.1,2.6,3.6,5.3c3.7,2.6,5.3-0.9,5.3-0.9
						S51.5,116.3,52.4,111.2z"/>
					<path id="XMLID_283_" class="st3" d="M51,126.2c-0.9,0-1.8-0.4-2.8-1.1c-3.9-2.7-3.8-5.5-3.8-5.6v-0.2l0.1-0.1
						c0.8-0.9,0.8-3.1,0.8-4.2c-1.7-0.6-3.2-1.9-3.3-2l-0.1-0.1c-1.5-3-2.7-6.2-3.3-9.5c-1.2-5.7,0.3-10.3,3.8-12l0.3-0.2l0.2,0.3
						c0.4,0.6,10.9,14.3,10,19.6l0,0c-0.9,4.9,1.2,12.5,1.2,12.6v0.2L54,124c0,0.1-0.7,1.6-2.3,2C51.6,126.2,51.3,126.2,51,126.2z
						 M45.3,119.7c0,0.5,0.4,2.6,3.4,4.7c1.1,0.8,2.1,1,2.9,0.8c0.9-0.2,1.4-1,1.6-1.4c-0.3-1.2-2.1-8-1.2-12.8
						c0.8-4.5-8-16.5-9.6-18.6c-2.9,1.6-4,5.7-3,10.8c0.7,3.2,1.7,6.3,3.2,9.2c0.3,0.3,1.7,1.4,3.2,1.8l0.3,0.1v0.3
						C46.2,114.9,46.4,118.1,45.3,119.7z"/>
				</g>
				<g id="XMLID_4184_">
					<path id="XMLID_155_" class="st1" d="M56.6,108.9L56.6,108.9c0.6-3.5-0.1-8.7-3.9-13.8c-6.1-8-11.4-7.4-12.2-5.3
						c0,0-2-1.6-3.3-0.4c-0.5,0.4-0.7,1.2-0.7,2.1c0,1.3,0.3,3.6,2.2,7.1c0,0,0-3.1,2.9-2.3c0,0,0.8,5.3,6.4,10.4c0,0,1.2-1.1,3,0.9
						s0,4.2,0,4.2s-0.8,2,1.5,5.5l0.4,1.6c0,0,0-1.7,2.4-3.4C57.7,113.8,56.6,108.9,56.6,108.9z"/>
					<path id="XMLID_279_" class="st3" d="M53.4,122.6l-1.4-5.1c-2.4-3.5-1.6-5.7-1.5-5.8l0.1-0.1c0.1-0.1,1.5-2,0-3.6
						s-2.3-0.9-2.3-0.9l-0.3,0.3l-0.3-0.3c-5-4.6-6.3-9.2-6.5-10.4c-0.5-0.1-1,0-1.3,0.2c-0.7,0.5-0.7,1.8-0.7,1.8v1.8l-0.8-1.6
						c-1.9-3.6-2.3-6-2.3-7.4c0-1,0.3-1.9,0.9-2.4c1.2-1,2.7-0.3,3.5,0.1c0.4-0.6,1.1-1,2.1-1.2c1.2-0.2,5.4-0.2,10.6,6.8
						c4.8,6.3,4.3,12.2,4,14c0.1,0.7,1,5.3-1.6,7c-2.2,1.5-2.2,3-2.2,3L53.4,122.6z M51.3,112.1c-0.1,0.3-0.5,2.1,1.5,5l0.1,0.3
						c0.4-0.6,1-1.4,2.1-2.2c2.2-1.5,1.2-6.1,1.2-6.2v-0.1v-0.1c0.3-1.6,0.8-7.3-3.8-13.4c-4-5.2-7.7-6.8-9.8-6.4
						c-0.8,0.1-1.4,0.5-1.6,1.1l-0.2,0.6l-0.5-0.4c0,0-1.8-1.3-2.8-0.4c-0.4,0.3-0.6,1-0.6,1.7c0,1.1,0.3,3,1.6,5.8
						c0.2-0.4,0.4-0.8,0.8-1.1c0.6-0.5,1.4-0.6,2.3-0.3l0.3,0.1v0.3c0,0.1,0.8,5,6.1,9.9c0.6-0.3,1.8-0.5,3.2,1.2
						C52.8,109.1,52,111.1,51.3,112.1z"/>
				</g>
				<g id="XMLID_4181_">
					<path id="XMLID_278_" class="st3" d="M41,96.3c0-1.1,0.2-1.9,0.8-2.4c0.7-0.5,1.5-0.3,1.6-0.3l-0.3,0.9c0,0-0.4-0.1-0.8,0.1
						c-0.3,0.2-0.5,0.8-0.4,1.6L41,96.3z"/>
				</g>
				<g id="XMLID_4182_">
					<path id="XMLID_277_" class="st3" d="M56.2,109c-0.5-1.2-1.3-1.1-1.4-1l-0.2-0.9c0.5-0.1,1.8,0.1,2.4,1.6L56.2,109z"/>
				</g>
				<g id="XMLID_4185_">
					<path id="XMLID_276_" class="st3" d="M50.1,112.8c-0.8,0-1.6-0.6-1.7-0.7l0.5-0.7c0.3,0.2,0.9,0.6,1.3,0.5
						c0.1,0,0.2-0.1,0.3-0.2l0.8,0.4c-0.2,0.4-0.5,0.6-0.9,0.7C50.3,112.8,50.2,112.8,50.1,112.8z"/>
				</g>
				<g id="XMLID_4179_">
					<path id="XMLID_275_" class="st3" d="M42.4,108.8c-0.5,0-0.9-0.2-1.2-0.4l-0.2-0.1v-3.4h0.9v2.9c0.2,0.1,0.5,0.2,0.6,0.1
						l0.6,0.6C43,108.7,42.7,108.8,42.4,108.8z"/>
				</g>
			</g>
			<g id="XMLID_4187_">
				<path id="XMLID_261_" class="st1" d="M52.1,129.1c-0.3,0-0.6,0-0.9-0.1l0.1-0.9c0.6,0.1,1.1,0.1,1.6,0l0.2,0.9
					C52.8,129.1,52.5,129.1,52.1,129.1z M50.3,128.9c-0.6-0.2-1.2-0.4-1.7-0.8l0.4-0.8c0.5,0.3,1,0.5,1.5,0.7L50.3,128.9z
					 M54.1,128.7l-0.4-0.8c0.4-0.2,0.8-0.5,1-0.9c0-0.1,0.1-0.1,0.1-0.2l0.7,0.6c-0.1,0.1-0.2,0.2-0.2,0.2
					C55.1,128,54.6,128.4,54.1,128.7z M47.8,127.6c-0.5-0.3-1-0.7-1.4-1.2l0.6-0.7c0.4,0.4,0.9,0.8,1.3,1.1L47.8,127.6z M56.1,126.6
					l-0.8-0.4c0.3-0.5,0.4-1,0.5-1.5l0.9,0.1C56.7,125.4,56.5,126,56.1,126.6z M45.7,125.8c-0.4-0.4-0.7-0.8-1.1-1.3l-0.1-0.1
					l0.7-0.6l0.1,0.1c0.3,0.4,0.7,0.8,1,1.2L45.7,125.8z M43.9,123.6c-0.4-0.5-0.7-1.1-0.9-1.6l0.8-0.4c0.2,0.5,0.5,1,0.9,1.5
					L43.9,123.6z M42.6,121.2c-0.2-0.6-0.4-1.2-0.5-1.8l0.9-0.2c0.1,0.5,0.2,1.1,0.5,1.6L42.6,121.2z M42,118.4c0-0.1,0-0.2,0-0.3
					c0-1,0.2-1.6,0.2-1.6l0.8,0.3l-0.4-0.2l0.4,0.2c0,0-0.2,0.5-0.2,1.3c0,0.1,0,0.2,0,0.3L42,118.4z"/>
			</g>
			<g id="XMLID_4190_">
				<path id="XMLID_260_" class="st3" d="M44.8,105.8c-1.2-1.3-2.2-1.1-2.3-1.1l-0.1-0.9c0.1,0,1.5-0.2,3.1,1.4L44.8,105.8z"/>
			</g>
			<g id="XMLID_4191_">
				<path id="XMLID_259_" class="st3" d="M40.2,104.1c-0.4-0.4-0.6-0.4-0.7-0.4c-0.1,0-0.1,0-0.1,0.1l-0.7-0.5c0,0,0.3-0.4,0.8-0.4
					s0.9,0.2,1.4,0.7L40.2,104.1z"/>
			</g>
			<g id="XMLID_4192_">
				<path id="XMLID_257_" class="st3" d="M46.1,115.2c-0.3,0-0.5,0-0.5,0l0.1-0.9c0,0,0.8,0.1,1.6-0.2l0.3,0.8
					C47,115.2,46.5,115.2,46.1,115.2z"/>
			</g>
		</g>
		<g id="XMLID_4193_">
			<g id="XMLID_4778_">
				<path id="XMLID_256_" class="st3" d="M70.5,179.3h-0.9c0-3.9-2.1-7.4-5.4-9.4l-33.7-19.5c-1.1-0.6-2.3-0.6-3.4,0
					s-1.7,1.7-1.7,2.9h-0.9c0-1.5,0.8-2.9,2.1-3.7c1.3-0.8,2.9-0.8,4.3,0l33.7,19.5C68.2,171.2,70.5,175.1,70.5,179.3z"/>
			</g>
		</g>
	</g>
</g>
</svg>
