<?xml version="1.0" encoding="utf-8"?>
<!-- Generator: Adobe Illustrator 24.0.1, SVG Export Plug-In . SVG Version: 6.00 Build 0)  -->
<svg version="1.1" id="Camada_1" xmlns="http://www.w3.org/2000/svg" xmlns:xlink="http://www.w3.org/1999/xlink" x="0px" y="0px"
	 viewBox="0 0 40 70" style="enable-background:new 0 0 40 70;" xml:space="preserve">
<style type="text/css">
	.st0{fill:#424FFE;}
	.st1{fill:#4900DB;}
	.st2{fill:#FFFFFF;}
	.st3{fill:#C6D7FE;}
	.st4{fill:#11EAB5;}
</style>
<g>
	<g id="XMLID_4974_">
		<g id="XMLID_5013_">
			<path id="XMLID_217_" class="st0" d="M16.2,62h-0.7v-1.8h0.7V62z M16.2,58.4h-0.7v-1.8h0.7V58.4z M16.2,54.9h-0.7v-1.8h0.7V54.9z
				 M16.2,51.3h-0.7v-1.8h0.7V51.3z M16.2,47.7h-0.7v-1.8h0.7V47.7z M16.2,44.1h-0.7v-1.8h0.7V44.1z M16.2,40.5h-0.7v-1.8h0.7V40.5z
				 M16.2,36.9h-0.7v-1.8h0.7V36.9z M16.2,33.4h-0.7v-1.8h0.7V33.4z M16.2,29.8h-0.7V28h0.7V29.8z M16.2,26.2h-0.7v-1.8h0.7V26.2z"
				/>
		</g>
		<g id="XMLID_5015_">
			<path id="XMLID_209_" class="st0" d="M15.2,67.1c-0.7-0.1-1.3-0.2-1.8-0.5l0.3-0.6c0.5,0.2,1,0.4,1.6,0.4L15.2,67.1z M17.1,67
				L17,66.3c0.5-0.1,0.9-0.3,1.3-0.5c0.1,0,0.2-0.1,0.2-0.1l0.4,0.5c-0.1,0.1-0.2,0.1-0.3,0.2C18.2,66.7,17.7,66.8,17.1,67z
				 M11.9,65.2c-0.1-0.2-0.1-0.4-0.1-0.6c0-0.5,0.2-1,0.7-1.4l0.5,0.5c-0.3,0.3-0.5,0.6-0.5,0.9c0,0.1,0,0.2,0.1,0.4L11.9,65.2z
				 M19.2,64.5c0-0.4-0.4-0.8-0.9-1.1c-0.2-0.1-0.4-0.2-0.6-0.3l0.2-0.6c0.2,0.1,0.5,0.2,0.7,0.3c0.7,0.4,1.2,1,1.2,1.6L19.2,64.5z
				 M14.4,63l-0.2-0.6c0.5-0.1,1.1-0.2,1.6-0.2h0.3v0.7h-0.2C15.3,62.8,14.8,62.9,14.4,63z"/>
		</g>
	</g>
	<g id="XMLID_5096_">
		<g id="XMLID_5097_">
			<g id="XMLID_5098_">
				<g id="XMLID_5099_">
					<g id="XMLID_5102_">
						<g id="XMLID_5103_">
							<g id="XMLID_5120_">
								<path id="XMLID_5124_" class="st1" d="M15.6,41l4.9-3.2c0,0,0.1-0.1,0-0.1l-6.2-7.6c0-0.1-0.1,0-0.2,0l-1,4.6l0,0L13,38
									c0,0,0,0,0,0.1L15.6,41L15.6,41z"/>
								<path id="XMLID_5121_" class="st1" d="M15.6,41.5c-0.2,0-0.4-0.1-0.5-0.2l-2.7-3.1v-0.3l0.2-3.2l1.1-5l0.4-0.1
									c0.2-0.1,0.5,0,0.6,0.2l6.4,7.7v0.3c0,0.2-0.1,0.3-0.3,0.4l-4.9,3.2C15.8,41.5,15.7,41.5,15.6,41.5z M13.5,37.8l2.2,2.5
									l4.2-2.7l-5.3-6.5l-0.8,3.7L13.5,37.8z"/>
							</g>
							<g id="XMLID_5115_">
								<path id="XMLID_5119_" class="st2" d="M34.2,18.2L10.8,4.7c-0.6-0.3-1.1-0.4-1.5-0.2l0,0L4.7,7.2c-0.1,0-0.1,0.1,0,0.2
									l5.5,5.8v0.1v9.5c0,1.5,1.1,3.4,2.4,4.2l3.5,2c0.1,0.1,0.2,0.2,0.2,0.3c0.2,1,1.1,5.2,5.4,8.2c0.2,0.1,0.3-0.1,0.2-0.3
									c-0.6-1.1-1.6-3.4-1.3-5.2c0.2-0.1,0.2-0.1,0.4-0.2l7.2,4.2c0,0,0,0,0.1,0.1l3,8c0,0.1,0.1,0.1,0.2,0.1l4.5-2.7l0,0
									c0.4-0.3,0.6-0.8,0.6-1.5V22.3C36.6,20.8,35.5,18.9,34.2,18.2z"/>
								<path id="XMLID_5116_" class="st1" d="M31.5,44.7l-0.3-0.1c-0.2-0.1-0.3-0.2-0.4-0.4l-3-7.9l-6.7-3.9C21,34,22,36,22.4,36.9
									c0.2,0.3,0.1,0.7-0.1,0.9s-0.6,0.2-0.8,0c-4.3-2.9-5.4-7-5.6-8.4l-0.1-0.2l-3.4-2c-1.5-0.9-2.7-2.9-2.7-4.6v-9.4L4.3,7.8
									C4.2,7.6,4.1,7.4,4.1,7.2c0-0.2,0.1-0.4,0.3-0.5L9,4c0.6-0.3,1.4-0.2,2.1,0.2l23.4,13.5c1.5,0.9,2.7,2.9,2.7,4.6V40
									c0,0.9-0.3,1.5-0.9,1.9L31.5,44.7z M21,31.2l7.6,4.4l0.1,0.2l2.8,7.6l4.1-2.5c0.2-0.2,0.4-0.5,0.4-1V22.3c0-1.3-1-3-2.1-3.7
									L10.6,5.1c-0.4-0.2-0.8-0.3-1.1-0.2L5.4,7.4l5.3,5.6v0.3v9.5c0,1.3,1,3,2.1,3.7l3.7,2.2l0.3,0.6c0.1,0.7,0.9,4.1,3.9,6.8
									c-0.5-1.2-0.9-2.8-0.7-4.2v-0.3L21,31.2z"/>
							</g>
							<g id="XMLID_5110_">
								<path id="XMLID_5114_" class="st3" d="M29.6,21L6.2,7.5C4.9,6.7,3.8,7.3,3.8,8.8v17.7c0,1.5,1,3.3,2.3,4l3.6,2.1
									c0.1,0.1,0.2,0.2,0.2,0.3c0.2,0.9,1.1,5.2,5.4,8.2c0.2,0.1,0.3-0.1,0.2-0.3c-0.6-1.1-1.7-3.6-1.3-5.4c0-0.1,0.1-0.1,0.2-0.1
									L29.5,44c1.3,0.7,2.3,0.1,2.3-1.3V25.1C32,23.6,30.9,21.8,29.6,21z"/>
								<path id="XMLID_5111_" class="st1" d="M30.7,45c-0.4,0-0.9-0.1-1.3-0.4l-14.6-8.4c-0.1,1.6,0.8,3.6,1.3,4.5
									c0.2,0.3,0.1,0.7-0.1,0.9c-0.2,0.2-0.6,0.2-0.8,0c-4.5-3-5.5-7.5-5.6-8.5l-3.5-2c-1.5-0.8-2.6-2.8-2.6-4.5V8.8
									c0-0.9,0.3-1.6,0.9-2c0.5-0.3,1.2-0.3,2,0.2l23.5,13.5c1.5,0.8,2.6,2.8,2.6,4.5v17.7c0,0.9-0.3,1.6-0.9,2
									C31.3,44.9,31,45,30.7,45z M14.4,34.8c0.1,0,0.2,0,0.4,0.1l15.1,8.7c0.4,0.3,0.9,0.3,1.1,0.2c0.3-0.2,0.4-0.5,0.4-1.1V25.1
									c0-1.3-0.9-2.9-2.1-3.6L5.9,7.9C5.5,7.7,5,7.6,4.8,7.8c-0.3,0.1-0.4,0.5-0.4,1v17.7c0,1.3,0.9,2.9,2.1,3.6l3.6,2.1
									c0.2,0.1,0.4,0.4,0.4,0.6c0.1,0.7,0.8,4.1,4,6.9c-0.5-1.3-1-3-0.7-4.4l0.1-0.3l0.3-0.2C14.2,34.8,14.3,34.8,14.4,34.8z"/>
							</g>
							<g id="XMLID_5108_">
								<polygon id="XMLID_5109_" class="st1" points="31,21.7 30,21.2 34.5,18.3 35,19.2 								"/>
							</g>
							<g id="XMLID_5106_">
								
									<rect id="XMLID_5107_" x="8.5" y="6.9" transform="matrix(0.8547 -0.5191 0.5191 0.8547 -2.274 6.7431)" class="st1" width="4.8" height="1.1"/>
							</g>
							<g id="XMLID_5104_">
								
									<rect id="XMLID_5105_" x="31.5" y="24.1" transform="matrix(0.845 -0.5347 0.5347 0.845 -7.8944 22.0727)" class="st1" width="5.3" height="1.1"/>
							</g>
						</g>
					</g>
					<g id="XMLID_5100_">
						<polygon id="XMLID_5101_" class="st1" points="36.6,25.7 32,28.5 32,43.9 36.5,41.4 36.6,40.3 						"/>
					</g>
				</g>
			</g>
		</g>
	</g>
	<g id="XMLID_1_">
		<path id="XMLID_4_" class="st2" d="M12.8,20.9l-0.2,1.7l1.6,0.4l0.1,1.3l-1.5-0.7l1,2h-1l-0.7-2l-0.6,1.2l-1-1.2l1-0.9l-1.5-1
			l0.2-1.1l1.6,1.4l-0.2-1.9L12.8,20.9z"/>
		<path id="XMLID_3_" class="st2" d="M19.4,24.7l-0.2,1.7l1.6,0.4l0.1,1.3l-1.5-0.7l1,2h-1l-0.7-2l-0.6,1.2l-1-1.2l1-0.9l-1.5-1
			l0.2-1.1l1.6,1.4L18.3,24L19.4,24.7z"/>
		<path id="XMLID_2_" class="st2" d="M26.1,28.5l-0.2,1.7l1.6,0.4l0.1,1.3l-1.5-0.7l1,2h-1l-0.7-2l-0.6,1.2l-1-1.2l1-0.9l-1.5-1
			l0.2-1.1l1.6,1.4L25,27.9L26.1,28.5z"/>
	</g>
	<g id="XMLID_5030_">
		<path id="XMLID_5094_" class="st4" d="M11.8,19.9l-0.2,1.7l1.6,0.4l0.1,1.3l-1.5-0.7l1,2h-1l-0.7-2l-0.6,1.2l-1-1.2l1-0.9l-1.5-1
			l0.2-1.1l1.6,1.4l-0.2-1.9L11.8,19.9z"/>
		<path id="XMLID_5063_" class="st4" d="M18.4,23.7l-0.2,1.7l1.6,0.4l0.1,1.3l-1.5-0.7l1,2h-1l-0.7-2l-0.6,1.2l-1-1.2l1-0.9l-1.5-1
			l0.2-1.1l1.6,1.4L17.3,23L18.4,23.7z"/>
		<path id="XMLID_5031_" class="st4" d="M25.1,27.5l-0.2,1.7l1.6,0.4l0.1,1.3l-1.5-0.7l1,2h-1l-0.7-2l-0.6,1.2l-1-1.2l1-0.9l-1.5-1
			l0.2-1.1l1.6,1.4L24,26.9L25.1,27.5z"/>
	</g>
</g>
</svg>
