<?xml version="1.0" encoding="utf-8"?>
<!-- Generator: Adobe Illustrator 24.0.1, SVG Export Plug-In . SVG Version: 6.00 Build 0)  -->
<svg version="1.1" id="Camada_1" xmlns="http://www.w3.org/2000/svg" xmlns:xlink="http://www.w3.org/1999/xlink" x="0px" y="0px"
	 viewBox="0 0 80 130" style="enable-background:new 0 0 80 130;" xml:space="preserve">
<style type="text/css">
	.st0{fill:#424FFE;}
	.st1{fill:#C6D7FE;}
	.st2{fill:#4900DB;}
	.st3{fill:#FFFFFF;}
	.st4{fill:#11EAB5;}
</style>
<g>
	<g id="XMLID_5024_">
		<g id="XMLID_5032_">
			<path id="XMLID_470_" class="st0" d="M64,106.2c-0.7-0.1-1.3-0.2-1.8-0.5l0.3-0.6c0.5,0.2,1,0.4,1.6,0.4L64,106.2z M65.9,106.1
				l-0.1-0.7c0.5-0.1,0.9-0.3,1.3-0.5c0.1,0,0.2-0.1,0.2-0.1l0.4,0.5c-0.1,0.1-0.2,0.1-0.3,0.2C67,105.8,66.5,106,65.9,106.1z
				 M60.7,104.4c-0.1-0.2-0.1-0.4-0.1-0.6c0-0.5,0.2-1,0.7-1.4l0.5,0.5c-0.3,0.3-0.5,0.6-0.5,0.9c0,0.1,0,0.2,0.1,0.4L60.7,104.4z
				 M68,103.6c0-0.4-0.4-0.8-0.9-1.1c-0.2-0.1-0.4-0.2-0.6-0.3l0.2-0.6c0.2,0.1,0.5,0.2,0.7,0.3c0.7,0.4,1.2,1,1.2,1.6L68,103.6z
				 M63.2,102.1l-0.2-0.6c0.5-0.1,1.1-0.2,1.6-0.2h0.2v0.7h-0.2C64.1,102,63.6,102,63.2,102.1z"/>
		</g>
		<g id="XMLID_5023_">
			<path id="XMLID_456_" class="st0" d="M69.1,102.2l-0.3-0.6l1.6-0.9l0.3,0.6L69.1,102.2z M72.2,100.4l-0.3-0.6l1.6-0.9l0.3,0.6
				L72.2,100.4z M75.3,98.7L75,98.1l1.4-0.8l0.1,0.1l0.1-0.2l0.7,0.4L75.3,98.7z M74.6,96.9L73.1,96l0.3-0.6l1.6,0.9L74.6,96.9z
				 M71.5,95.1L70,94.2l0.3-0.6l1.6,0.9L71.5,95.1z M68.4,93.3l-1.6-0.9l0.3-0.6l1.6,0.9L68.4,93.3z M65.3,91.5l-1.6-0.9L64,90
				l1.6,0.9L65.3,91.5z M62.2,89.8l-1.6-0.9l0.3-0.6l1.6,0.9L62.2,89.8z M59.1,88l-1.6-0.9l0.3-0.6l1.6,0.9L59.1,88z"/>
		</g>
	</g>
	<g id="XMLID_4807_">
		<g id="XMLID_4876_">
			<path id="XMLID_405_" class="st1" d="M65.6,77.8h-3.9l-3.2-3.3v-1.8l0,0L53.9,72L47,75.8l-5-1.1c-0.1,0-0.1,0-0.1,0.1V80l0,0l0,0
				l-2.3-0.4l0,0v5.3c0,0,0,0.2,0.1,0.3l0.7,1.5c0.3,0.5,1.2,0.9,2.2,0.7l1.4-0.2c0.4,0.4,0.9,0.7,1.4,1.1c0.4,0.3,0.9,0.5,1.4,0.7
				v1.1v0.1c-0.1,0.5,0.5,0.9,1.3,1l2.6,0.4c0.9,0.1,1.9-0.2,2.2-0.7l0.4-0.8c1.5,0,3.1-0.2,4.5-0.7l1,0.6c0.7,0.4,1.8,0.4,2.5,0
				l1.9-1.1c0.3-0.2,0.5-0.4,0.5-0.6v-0.1l0,0v-3.9l1-0.2c0.8-0.1,1.4-0.6,1.3-1.1L65.6,77.8L65.6,77.8z"/>
			<path id="XMLID_406_" class="st2" d="M50.9,92.3c-0.2,0-0.4,0-0.6,0l-2.6-0.4c-1.2-0.2-1.9-0.8-1.8-1.6v-0.8
				c-0.4-0.2-0.8-0.4-1.1-0.6c-0.5-0.3-0.9-0.6-1.3-0.9l-1.1,0.2c-1.2,0.2-2.4-0.3-2.8-1.1L39,85.6c-0.1-0.2-0.1-0.4-0.1-0.5v-5.9
				h0.6l1.8,0.3v-4.9l0.3-0.3c0.2-0.1,0.4-0.2,0.6-0.1l4.8,1l6.9-3.8l5.1,0.8l0.3,0.3v0.2v1.6l2.9,2.9h4.2v0.6v5.3
				c0,0.3,0,0.6-0.2,0.9c-0.3,0.4-0.9,0.7-1.6,0.8l-0.5,0.1v3.6c0,0.6-0.6,0.9-0.8,1.1l-1.9,1.1c-0.9,0.5-2.2,0.5-3.1,0l-0.8-0.4
				c-1.2,0.4-2.6,0.6-4,0.6l-0.2,0.5C52.8,91.9,51.9,92.3,50.9,92.3z M43.9,86.8l0.2,0.2c0.4,0.4,0.8,0.7,1.3,1
				c0.4,0.2,0.8,0.4,1.3,0.6l0.4,0.1v1.7c0,0.1,0.3,0.3,0.8,0.3l2.6,0.4c0.8,0.1,1.4-0.2,1.5-0.4l0.5-1.1h0.4c1.5,0,3-0.2,4.3-0.6
				l0.2-0.1l1.2,0.7c0.5,0.3,1.4,0.3,1.9,0l1.9-1.1c0.2-0.1,0.2-0.2,0.2-0.2v-0.1v-4.4l1.5-0.2c0.4-0.1,0.7-0.2,0.8-0.4l0,0v-0.1
				v-4.8h-3.6l-3.5-3.6v-1.6l-4-0.6L47,76.4l-4.6-1v5.3h-0.7L40,80.4V85v0.1l0.7,1.5c0.1,0.2,0.8,0.5,1.5,0.4L43.9,86.8z"/>
		</g>
		<g id="XMLID_4875_">
			<path id="XMLID_396_" class="st3" d="M62.7,75.4l-1.4,0.2c-0.4-0.4-0.9-0.7-1.4-1.1c-0.6-0.3-1.2-0.6-1.8-0.8l0.4-0.8
				c0.3-0.5-0.3-1.1-1.2-1.3l-2.6-0.4c-0.9-0.1-1.9,0.2-2.2,0.7l-0.4,0.8c-1.5,0-3.1,0.2-4.5,0.7l-1-0.6c-0.7-0.4-1.8-0.4-2.5,0
				L42.3,74c-0.7,0.4-0.7,1,0,1.4l1,0.6c-0.7,0.8-1.1,1.7-1.2,2.6l-1.4,0.2c-0.9,0.1-1.5,0.7-1.3,1.2l0.7,1.5
				c0.3,0.5,1.2,0.9,2.2,0.7l1.4-0.2c0.4,0.4,0.9,0.7,1.4,1.1c0.6,0.3,1.2,0.6,1.8,0.8l-0.4,0.8c-0.3,0.5,0.3,1.1,1.2,1.3l2.6,0.4
				c0.9,0.1,1.9-0.2,2.2-0.7l0.4-0.8c1.5,0,3.1-0.2,4.5-0.7l1,0.6c0.7,0.4,1.8,0.4,2.5,0l1.9-1.1c0.7-0.4,0.7-1,0-1.4l-1-0.6
				c0.7-0.8,1.1-1.7,1.2-2.6l1.4-0.2c0.9-0.1,1.5-0.7,1.3-1.2L65,76.2C64.7,75.6,63.7,75.3,62.7,75.4z"/>
			<path id="XMLID_402_" class="st2" d="M50.9,87c-0.2,0-0.4,0-0.6,0l-2.6-0.4c-0.8-0.1-1.4-0.5-1.7-1c-0.2-0.3-0.2-0.7,0-1.1
				l0.1-0.2c-0.5-0.2-0.9-0.4-1.3-0.7c-0.5-0.3-0.9-0.6-1.3-0.9l-1.1,0.2c-1.2,0.2-2.4-0.3-2.8-1.1L39,80.2c-0.2-0.4-0.1-0.7,0-1.1
				c0.3-0.5,0.9-0.9,1.7-1l0.9-0.1c0.1-0.7,0.4-1.3,0.8-1.9L42,75.9c-0.5-0.3-0.8-0.7-0.8-1.2s0.3-0.9,0.8-1.2l1.9-1.1
				c0.9-0.5,2.2-0.5,3.1,0l0.8,0.4c1.2-0.4,2.6-0.6,4-0.6l0.2-0.5c0.4-0.8,1.6-1.2,2.8-1l2.6,0.4c0.8,0.1,1.4,0.5,1.7,1
				c0.2,0.3,0.2,0.7,0,1.1L59,73.4c0.5,0.2,0.9,0.4,1.3,0.7c0.5,0.3,0.9,0.6,1.3,0.9l1.1-0.2c1.2-0.2,2.4,0.3,2.8,1.1l0.7,1.5
				c0.2,0.4,0.1,0.7,0,1.1c-0.3,0.5-0.9,0.9-1.7,1l-0.9,0.1c-0.1,0.7-0.4,1.3-0.8,1.9l0.4,0.2c0.5,0.3,0.8,0.7,0.8,1.2
				s-0.3,0.9-0.8,1.2l-1.9,1.1c-0.9,0.5-2.2,0.5-3.1,0l-0.8-0.4c-1.2,0.4-2.6,0.6-4,0.6l-0.2,0.5C52.8,86.5,51.9,87,50.9,87z
				 M43.9,81.4l0.2,0.2c0.4,0.4,0.8,0.7,1.3,1s1.1,0.6,1.7,0.8l0.6,0.2L47.1,85c0.1,0.1,0.3,0.4,0.8,0.4l2.6,0.4
				c0.8,0.1,1.4-0.2,1.5-0.4l0.5-1.1h0.4c1.5,0,3-0.3,4.3-0.6l0.2-0.1l1.2,0.7c0.5,0.3,1.4,0.3,1.9,0l1.9-1.1
				c0.2-0.1,0.2-0.2,0.2-0.2s0-0.1-0.2-0.2l-1.6-0.9l0.5-0.5c0.6-0.7,1-1.4,1-2.2v-0.5l1.8-0.3c0.5-0.1,0.8-0.3,0.8-0.4l-0.7-1.5
				c-0.1-0.2-0.8-0.5-1.5-0.4l-1.6,0.2L61,76.1c-0.4-0.4-0.8-0.7-1.3-1s-1.1-0.6-1.7-0.8l-0.6-0.2l0.6-1.4c-0.1-0.1-0.3-0.3-0.8-0.4
				l-2.6-0.4c-0.8-0.1-1.4,0.2-1.5,0.4l-0.5,1.1h-0.4c-1.5,0-3,0.3-4.3,0.6l-0.2,0.1l-1.2-0.7c-0.5-0.3-1.4-0.3-1.9,0l-1.9,1.1
				c-0.2,0.1-0.2,0.2-0.2,0.2s0,0.1,0.2,0.2l1.6,0.9l-0.5,0.5c-0.6,0.7-1,1.4-1,2.2V79L41,79.3c-0.5,0.1-0.8,0.3-0.8,0.4l0.7,1.5
				c0.1,0.2,0.8,0.5,1.5,0.4L43.9,81.4z"/>
		</g>
		<g id="XMLID_4874_">
			
				<rect id="XMLID_400_" x="40.9" y="84" transform="matrix(4.463813e-03 -1 1 4.463813e-03 -41.1583 127.8024)" class="st2" width="5.4" height="1.2"/>
		</g>
		<g id="XMLID_4873_">
			
				<rect id="XMLID_399_" x="43.8" y="87.4" transform="matrix(4.549653e-03 -1 1 4.549653e-03 -41.6416 134.0717)" class="st2" width="5.4" height="1.2"/>
		</g>
		<g id="XMLID_4872_">
			
				<rect id="XMLID_398_" x="50.2" y="87.3" transform="matrix(4.463813e-03 -1 1 4.463813e-03 -35.2656 140.4288)" class="st2" width="5.4" height="1.2"/>
		</g>
		<g id="XMLID_4871_">
			
				<rect id="XMLID_397_" x="54.6" y="86.5" transform="matrix(4.464197e-03 -1 1 4.464197e-03 -30.0543 143.9513)" class="st2" width="5.4" height="1.2"/>
		</g>
		<g id="XMLID_4870_">
			<path id="XMLID_390_" class="st1" d="M56.7,76.4c2.3,1.3,2.3,3.5,0,4.8s-6,1.3-8.3,0s-2.3-3.5,0-4.8S54.4,75.1,56.7,76.4z"/>
			<path id="XMLID_392_" class="st2" d="M52.5,82.8c-1.6,0-3.2-0.4-4.4-1.1c-1.3-0.7-2-1.8-2-2.9s0.7-2.1,2-2.9
				c2.5-1.4,6.4-1.4,8.9,0l0,0c1.3,0.7,2,1.8,2,2.9s-0.7,2.1-2,2.9C55.7,82.4,54.1,82.8,52.5,82.8z M52.5,76c-1.4,0-2.8,0.3-3.8,0.9
				c-0.9,0.5-1.4,1.2-1.4,1.9c0,0.7,0.5,1.4,1.4,1.9c2.1,1.2,5.6,1.2,7.7,0c0.9-0.5,1.4-1.2,1.4-1.9c0-0.7-0.5-1.4-1.4-1.9
				C55.3,76.3,53.9,76,52.5,76z"/>
		</g>
		<g id="XMLID_4810_">
			<path id="XMLID_384_" class="st1" d="M48.4,80.9C48.3,81,48.3,81,48.2,81c0.1,0.1,0.1,0.2,0.2,0.2c2.3,1.3,6,1.3,8.3,0
				c0.1-0.1,0.1-0.2,0.2-0.2c-0.1-0.1-0.1-0.1-0.2-0.1C54.4,79.5,50.7,79.5,48.4,80.9z"/>
			<path id="XMLID_386_" class="st2" d="M52.5,82.8c-1.6,0-3.2-0.4-4.4-1.1c-0.2-0.1-0.2-0.2-0.3-0.3L47.2,81l0.7-0.5
				c0.1-0.1,0.1-0.1,0.2-0.1c2.5-1.4,6.4-1.4,8.9,0c0.1,0.1,0.1,0.1,0.2,0.1l0.7,0.5l-0.6,0.4c-0.1,0.1-0.1,0.2-0.3,0.3
				C55.7,82.4,54.1,82.8,52.5,82.8z M49.4,81c1.9,0.8,4.4,0.8,6.3,0C53.8,80.3,51.3,80.3,49.4,81z"/>
		</g>
		<g id="XMLID_4808_">
			<rect id="XMLID_385_" x="49.8" y="75.7" class="st2" width="1.2" height="4.2"/>
		</g>
	</g>
	<g id="XMLID_5033_">
		<g id="XMLID_4969_">
			<path id="XMLID_165_" class="st0" d="M31.6,122.5h-0.7v-0.2h0.7V122.5z M31.6,120.5h-0.7v-1.8h0.7V120.5z M31.6,116.9h-0.7v-1.8
				h0.7V116.9z M31.6,113.4h-0.7v-1.8h0.7V113.4z M31.6,109.8h-0.7V108h0.7V109.8z M31.6,106.2h-0.7v-1.8h0.7V106.2z M31.6,102.6
				h-0.7v-1.8h0.7V102.6z M31.6,99h-0.7v-1.8h0.7V99z M31.6,95.4h-0.7v-1.8h0.7V95.4z M31.6,91.9h-0.7v-1.8h0.7V91.9z M31.6,88.3
				h-0.7v-1.8h0.7V88.3z M31.6,84.7h-0.7v-1.8h0.7V84.7z M31.6,81.1h-0.7v-1.8h0.7V81.1z M31.6,77.5h-0.7v-1.8h0.7V77.5z M31.6,74
				h-0.7v-1.8h0.7V74z M31.6,70.4h-0.7v-1.8h0.7V70.4z"/>
		</g>
		<g id="XMLID_5016_">
			<path id="XMLID_157_" class="st0" d="M30.6,126.9c-0.7-0.1-1.3-0.2-1.8-0.5l0.3-0.6c0.5,0.2,1,0.4,1.6,0.4L30.6,126.9z
				 M32.5,126.8l-0.1-0.7c0.5-0.1,0.9-0.3,1.3-0.5c0.1,0,0.2-0.1,0.2-0.1l0.4,0.5c-0.1,0.1-0.2,0.1-0.3,0.2
				C33.6,126.5,33.1,126.7,32.5,126.8z M27.3,125c-0.1-0.2-0.1-0.4-0.1-0.6c0-0.5,0.2-1,0.7-1.4l0.5,0.5c-0.3,0.3-0.5,0.6-0.5,0.9
				c0,0.1,0,0.2,0.1,0.4L27.3,125z M34.6,124.3c0-0.4-0.4-0.8-0.9-1.1c-0.2-0.1-0.4-0.2-0.6-0.3l0.2-0.6c0.2,0.1,0.5,0.2,0.7,0.3
				c0.7,0.4,1.2,1,1.2,1.6L34.6,124.3z M29.8,122.8l-0.2-0.6c0.5-0.1,1.1-0.2,1.6-0.2h0.2v0.7h-0.2
				C30.7,122.6,30.2,122.7,29.8,122.8z"/>
		</g>
	</g>
	<g id="XMLID_4804_">
		<g id="XMLID_8323_">
			<path id="XMLID_133_" class="st2" d="M9.5,12.9c-0.1-0.1,0-0.2,0.1-0.3l9.6-5.4c0.4-0.2,1.1-0.6,1.1-0.6l0,0
				c4-1.9,9.5-1,15.4,3.2c9.2,6.5,16.6,19.4,17.4,30.5c0.4,5.7-0.8,10.1-3.1,12.8l0,0L37.8,66.8c-0.1,0.1-8.6,4.8-9.8,5.4
				c-0.1,0-0.1,0-0.1-0.1l-0.6-23C20,42.2,14.7,31.6,13.9,22l-0.4-0.6L9.5,12.9z"/>
			<path id="XMLID_134_" class="st2" d="M28,72.9c-0.1,0-0.3,0-0.4-0.1c-0.2-0.1-0.4-0.4-0.4-0.6l-0.6-22.7
				C19.3,42.3,14,31.7,13.2,22.3l-0.4-0.5l-4-8.5c-0.2-0.4,0-0.9,0.4-1.2l9.6-5.4C19.2,6.4,20,6,20,6c4.5-2.1,10.2-0.9,16.1,3.2
				c9.4,6.6,16.8,19.6,17.7,31c0.4,5.4-0.6,9.9-3,12.9l0,0l-0.3,0.4L38.3,67.2c-0.1,0.1-0.2,0.2-9.8,5.5l-0.2,0.1
				C28.3,72.9,28.2,72.9,28,72.9z M14.1,21.1l0.5,0.7V22c0.7,9.2,5.9,19.7,13.2,26.7l0.2,0.2l0.6,22.3c7-3.9,8.5-4.7,8.8-4.9
				l12.1-13.5c2.4-2.8,3.4-7.1,3-12.4c-0.9-11-8.1-23.6-17.1-30c-5.4-3.8-10.8-5-14.8-3.1c-0.1,0.1-0.8,0.4-1.1,0.6L10.2,13
				L14.1,21.1z"/>
		</g>
		<g id="XMLID_8322_">
			<path id="XMLID_127_" class="st3" d="M17.8,34.6l-0.5-1.2l0,0c-2.3-5.4-3.5-11-3.1-16c0-0.4,0.1-0.8,0.1-1.2l-3.8-3.6
				c-0.1-0.1-0.1-0.3,0-0.4l8.9-5.1c0.2-0.1,0.7-0.4,0.7-0.4c2.9-1.5,6.8-1.5,11,0.4c5,2.3,9.7,6.6,13.4,11.8L17.8,34.6z"/>
			<path id="XMLID_129_" class="st2" d="M17.5,35.5L16.4,33l0,0c-2.3-5.5-3.3-11-2.9-15.8c0-0.3,0.1-0.6,0.1-0.9L10.1,13
				c-0.2-0.2-0.3-0.5-0.3-0.8s0.2-0.5,0.4-0.7l8.9-5.1C19.3,6.3,19.8,6,19.8,6c3.2-1.6,7.3-1.5,11.6,0.4c4.9,2.2,9.8,6.5,13.7,12
				l0.4,0.6L17.5,35.5z M17.9,33.2l0.2,0.4l25.5-14.8c-3.7-5.1-8.2-9-12.7-11c-4-1.8-7.6-1.9-10.4-0.5l0,0c0,0-0.4,0.2-0.6,0.4
				l-8.4,4.8l3.6,3.4v0.3C15,16.6,15,16.9,15,17.3C14.6,22,15.6,27.5,18,33L17.9,33.2z"/>
		</g>
		<g id="XMLID_8321_">
			<path id="XMLID_120_" class="st1" d="M40.1,58.7L40.1,58.7c2.4-2.8,3.6-7.2,3.1-12.8c-0.9-11.1-8.2-24-17.4-30.5
				c-11.9-8.4-22-3.5-22,10c0,12.6,8.8,27.9,19.7,34.2c0.3,0.2,0.6,0.3,0.9,0.5l0,0c1,3.1,1,6.6,0.7,9.6c-0.2,1.7,1.8,3.7,2.7,2.7
				L40.1,58.7z"/>
			<path id="XMLID_123_" class="st2" d="M27.4,73.2c-0.2,0-0.5-0.1-0.8-0.2c-1.1-0.5-2.2-2.1-2.1-3.5C25,66,24.8,63,24,60.4
				c-0.2-0.1-0.5-0.3-0.7-0.4C12.2,53.6,3.2,38,3.2,25.3c0-6.6,2.3-11.4,6.5-13.6c4.4-2.3,10.5-1.2,16.5,3.1
				c9.4,6.6,16.8,19.6,17.7,31c0.4,5.4-0.6,9.9-3,12.9l0,0l-0.3,0.4L28.4,72.7C28.2,73,27.8,73.2,27.4,73.2z M14.8,11.9
				c-1.6,0-3.1,0.3-4.4,1c-3.7,1.9-5.8,6.3-5.8,12.4c0,12.3,8.7,27.4,19.4,33.6c0.3,0.2,0.6,0.3,0.9,0.5l0.2,0.1l0.1,0.3
				c0.9,2.8,1.1,6.1,0.7,9.9c-0.1,0.8,0.6,1.9,1.3,2.2c0.2,0.1,0.3,0,0.3,0l12.2-13.6c2.4-2.8,3.4-7.1,3-12.4
				c-0.9-11-8.1-23.6-17.1-30C21.7,13.2,18,11.9,14.8,11.9z"/>
		</g>
		<g id="XMLID_8314_">
			
				<rect id="XMLID_121_" x="43.5" y="44.1" transform="matrix(0.8754 -0.4833 0.4833 0.8754 -15.6379 28.8661)" class="st1" width="9.4" height="1.3"/>
		</g>
		<g id="XMLID_8313_">
			<path id="XMLID_1_" class="st1" d="M31.3,7l-10.1,5.7L31.3,7z"/>
			
				<rect id="XMLID_118_" x="20.5" y="9.1" transform="matrix(0.8719 -0.4897 0.4897 0.8719 -1.408 14.1104)" class="st2" width="11.6" height="1.3"/>
		</g>
		<g id="XMLID_8280_">
			
				<rect id="XMLID_117_" x="42" y="52.8" transform="matrix(0.8721 -0.4894 0.4894 0.8721 -20.2412 29.5002)" class="st1" width="8.6" height="1.3"/>
		</g>
	</g>
	<g id="XMLID_3_">
		<g id="XMLID_8_">
			<g id="XMLID_59_">
				<path id="XMLID_60_" class="st4" d="M32.4,54.8c-0.3,0-0.7-0.1-1.1-0.3l-16.6-9.6c-1.4-0.8-2.6-3-2.6-4.9V21.7
					c0-1,0.4-1.8,1-2.2c0.5-0.3,1.2-0.3,1.8,0.1l16.6,9.6c1.4,0.8,2.6,3,2.6,4.9v18.3c0,1-0.4,1.8-1,2.2
					C33,54.7,32.7,54.8,32.4,54.8z M13.9,19.7c-0.2,0-0.4,0-0.5,0.1c-0.5,0.3-0.8,0.9-0.8,1.8v18.3c0,1.8,1.1,3.8,2.4,4.6l16.6,9.6
					c0.5,0.3,1,0.4,1.4,0.1c0.5-0.3,0.8-0.9,0.8-1.8V34.1c0-1.8-1.1-3.8-2.4-4.6L14.8,20C14.4,19.8,14.1,19.7,13.9,19.7z"/>
			</g>
			<g id="XMLID_51_">
				<path id="XMLID_52_" class="st4" d="M31.8,53c-0.2,0-0.4-0.1-0.7-0.2l0,0L15,43.5c-0.9-0.5-1.5-1.8-1.5-2.9V22.5
					c0-0.6,0.2-1.1,0.6-1.3c0.3-0.2,0.7-0.2,1.1,0.1l16.1,9.3c0.9,0.5,1.5,1.8,1.5,2.9v18.1c0,0.6-0.2,1.1-0.6,1.3
					C32.1,53,32,53,31.8,53z M31.3,52.4c0.2,0.1,0.5,0.2,0.7,0.1c0.2-0.1,0.4-0.5,0.4-1V33.4c0-1-0.6-2.1-1.3-2.5L15,21.6
					c-0.2-0.1-0.5-0.2-0.7-0.1s-0.4,0.5-0.4,1v18.1c0,1,0.6,2.1,1.3,2.5L31.3,52.4L31.3,52.4z"/>
			</g>
			<g id="XMLID_46_">
				<path id="XMLID_50_" class="st4" d="M22,41.9c0,0-3.7-3.3-6.2,1.8l15.3,8.8c0,0,0.5-5.5-5.2-8.7l-3.3-1.5L22,41.9z"/>
				<path id="XMLID_47_" class="st4" d="M31.3,52.9l-15.8-9.1l0.1-0.2c0.8-1.7,1.8-2.7,3.1-2.9c1.8-0.4,3.3,0.9,3.4,1l0.6,0.4
					l3.3,1.5c5.8,3.3,5.3,8.8,5.3,8.9V52.9z M16.1,43.6l14.8,8.6c0-1.2-0.4-5.5-5.1-8.1l-3.3-1.5l-0.6-0.4c0,0-1.5-1.3-3.1-0.9
					C17.7,41.4,16.8,42.2,16.1,43.6z"/>
			</g>
			<g id="XMLID_26_">
				<g id="XMLID_40_">
					<path id="XMLID_45_" class="st3" d="M25.5,38.6c0.4-2.4-4.7-9.2-4.7-9.2c-1.5,0.7-2.2,2.8-1.7,5.5c0.3,1.4,0.8,2.9,1.6,4.5
						c0,0,0.8,0.7,1.6,0.9c0,0,0.1,1.6-0.4,2.3c0,0-0.1,1.3,1.7,2.5c1.8,1.2,2.5-0.4,2.5-0.4S25.1,41.1,25.5,38.6z"/>
					<path id="XMLID_41_" class="st4" d="M24.8,45.8c-0.4,0-0.9-0.2-1.4-0.5c-1.9-1.3-1.8-2.6-1.8-2.7v-0.1v-0.1
						c0.4-0.4,0.4-1.5,0.4-2c-0.8-0.3-1.5-0.9-1.6-0.9v-0.1c-0.7-1.4-1.3-3-1.6-4.6c-0.6-2.7,0.1-4.9,1.8-5.7l0.2-0.1l0.1,0.1
						c0.2,0.3,5.2,6.9,4.8,9.4l0,0c-0.4,2.4,0.6,6,0.6,6v0.1v0.1c0,0-0.3,0.7-1.1,0.9C25.1,45.8,25,45.8,24.8,45.8z M22.1,42.7
						c0,0.3,0.2,1.2,1.6,2.3c0.5,0.4,1,0.5,1.4,0.4s0.7-0.5,0.8-0.6c-0.2-0.6-1-3.8-0.6-6.1c0.4-2.1-3.8-7.9-4.6-8.9
						c-1.4,0.8-1.9,2.7-1.4,5.2c0.3,1.5,0.8,3,1.5,4.4c0.1,0.1,0.8,0.7,1.5,0.9h0.1v0.2C22.5,40.4,22.7,42,22.1,42.7z"/>
				</g>
				<g id="XMLID_35_">
					<path id="XMLID_39_" class="st3" d="M27.5,37.5L27.5,37.5c0.3-1.7,0-4.2-1.9-6.6c-2.9-3.8-5.4-3.6-5.8-2.5c0,0-1-0.8-1.6-0.2
						c-0.2,0.2-0.3,0.6-0.4,1c0,0.6,0.2,1.7,1.1,3.4c0,0,0-1.5,1.4-1.1c0,0,0.4,2.5,3.1,5c0,0,0.6-0.5,1.4,0.4c0.9,0.9,0,2,0,2
						s-0.4,1,0.7,2.6l0.2,0.7c0,0,0-0.8,1.2-1.6C28.1,39.9,27.5,37.5,27.5,37.5z"/>
					<path id="XMLID_36_" class="st4" d="M26,44.1l-0.7-2.4c-1.1-1.7-0.7-2.7-0.7-2.8v-0.1c0,0,0.7-0.9,0-1.7s-1.1-0.4-1.1-0.4
						l-0.1,0.1l-0.1-0.1c-2.4-2.2-3-4.4-3.1-5c-0.3,0-0.5,0-0.6,0.1c-0.3,0.3-0.3,0.8-0.3,0.8v0.9l-0.4-0.8
						c-0.9-1.7-1.1-2.9-1.1-3.5c0-0.5,0.2-0.9,0.4-1.1c0.6-0.5,1.3-0.2,1.7,0.1c0.2-0.3,0.5-0.5,1-0.6c0.6-0.1,2.6-0.1,5.1,3.2
						c2.3,3,2.1,5.8,1.9,6.7c0.1,0.3,0.5,2.5-0.7,3.4c-1.1,0.7-1.1,1.4-1.1,1.4L26,44.1z M25,39.1c0,0.1-0.2,1,0.7,2.4v0.1
						c0.2-0.3,0.5-0.7,1-1c1-0.7,0.6-2.9,0.6-2.9l0,0l0,0c0.1-0.8,0.4-3.5-1.8-6.4c-1.9-2.5-3.7-3.2-4.7-3.1
						c-0.4,0.1-0.7,0.2-0.8,0.5L19.9,29l-0.2-0.2c0,0-0.8-0.6-1.3-0.2c-0.2,0.2-0.3,0.5-0.3,0.8c0,0.5,0.1,1.4,0.8,2.8
						c0.1-0.2,0.2-0.4,0.4-0.5c0.3-0.2,0.7-0.3,1.1-0.1h0.1v0.1c0,0,0.4,2.4,2.9,4.8c0.3-0.1,0.8-0.2,1.5,0.6
						C25.7,37.6,25.3,38.6,25,39.1z"/>
				</g>
				<g id="XMLID_33_">
					<path id="XMLID_34_" class="st4" d="M20.1,31.5c0-0.5,0.1-0.9,0.4-1.1c0.3-0.3,0.7-0.1,0.7-0.1l-0.1,0.4c0,0-0.2-0.1-0.4,0.1
						c-0.2,0.1-0.2,0.4-0.2,0.8L20.1,31.5z"/>
				</g>
				<g id="XMLID_31_">
					<path id="XMLID_32_" class="st4" d="M27.3,37.6c-0.2-0.6-0.6-0.5-0.7-0.5l-0.1-0.4c0.3-0.1,0.8,0,1.2,0.7L27.3,37.6z"/>
				</g>
				<g id="XMLID_29_">
					<path id="XMLID_30_" class="st4" d="M24.4,39.4c-0.4,0-0.8-0.3-0.8-0.3l0.3-0.3c0.1,0.1,0.4,0.3,0.6,0.2c0,0,0.1,0,0.1-0.1
						l0.4,0.2c-0.1,0.2-0.2,0.3-0.4,0.3C24.5,39.4,24.5,39.4,24.4,39.4z"/>
				</g>
				<g id="XMLID_27_">
					<path id="XMLID_28_" class="st4" d="M20.7,37.5c-0.2,0-0.4-0.1-0.6-0.2L20,37.2v-1.6h0.4V37c0.1,0.1,0.2,0.1,0.3,0l0.3,0.3
						C21,37.5,20.9,37.5,20.7,37.5z"/>
				</g>
			</g>
			<g id="XMLID_15_">
				<path id="XMLID_16_" class="st3" d="M25.4,47.2c-0.1,0-0.3,0-0.4,0l0.1-0.4c0.3,0,0.5,0,0.8,0l0.1,0.4
					C25.7,47.2,25.5,47.2,25.4,47.2z M24.5,47.1c-0.3-0.1-0.6-0.2-0.8-0.4l0.2-0.4c0.2,0.1,0.5,0.2,0.7,0.3L24.5,47.1z M26.3,47
					l-0.2-0.4c0.2-0.1,0.4-0.2,0.5-0.4c0,0,0,0,0.1-0.1l0.3,0.3c0,0.1-0.1,0.1-0.1,0.1C26.8,46.7,26.6,46.9,26.3,47z M23.3,46.5
					c-0.2-0.2-0.5-0.3-0.7-0.6l0.3-0.3c0.2,0.2,0.4,0.4,0.6,0.5L23.3,46.5z M27.3,46l-0.4-0.2c0.1-0.2,0.2-0.5,0.2-0.7h0.4
					C27.6,45.4,27.5,45.7,27.3,46z M22.3,45.6c-0.2-0.2-0.4-0.4-0.5-0.6l0,0l0.3-0.3v0.1c0.2,0.2,0.3,0.4,0.5,0.6L22.3,45.6z
					 M21.5,44.6c-0.2-0.3-0.3-0.5-0.4-0.8l0.4-0.2c0.1,0.2,0.3,0.5,0.4,0.7L21.5,44.6z M20.9,43.4c-0.1-0.3-0.2-0.6-0.2-0.9l0.4-0.1
					c0,0.3,0.1,0.5,0.2,0.8L20.9,43.4z M20.6,42.1c0-0.1,0-0.1,0-0.2c0-0.5,0.1-0.8,0.1-0.8l0.4,0.2l-0.2-0.1l0.2,0.1
					c0,0-0.1,0.2-0.1,0.6V42L20.6,42.1z"/>
			</g>
			<g id="XMLID_13_">
				<path id="XMLID_14_" class="st4" d="M21.9,36.1c-0.6-0.6-1.1-0.5-1.1-0.5l-0.1-0.4c0,0,0.7-0.1,1.5,0.7L21.9,36.1z"/>
			</g>
			<g id="XMLID_11_">
				<path id="XMLID_12_" class="st4" d="M19.7,35.2C19.5,35,19.4,35,19.4,35h-0.1L19,34.7c0,0,0.1-0.2,0.4-0.2
					c0.2,0,0.4,0.1,0.7,0.3L19.7,35.2z"/>
			</g>
			<g id="XMLID_9_">
				<path id="XMLID_10_" class="st4" d="M22.5,40.6c-0.1,0-0.2,0-0.2,0l0.1-0.4c0,0,0.4,0,0.8-0.1l0.1,0.4
					C23,40.6,22.7,40.6,22.5,40.6z"/>
			</g>
		</g>
	</g>
</g>
</svg>
