<?xml version="1.0" encoding="utf-8"?>
<!-- Generator: Adobe Illustrator 24.0.1, SVG Export Plug-In . SVG Version: 6.00 Build 0)  -->
<svg version="1.1" id="Camada_1" xmlns="http://www.w3.org/2000/svg" xmlns:xlink="http://www.w3.org/1999/xlink" x="0px" y="0px"
	 viewBox="0 0 90 160" style="enable-background:new 0 0 90 160;" xml:space="preserve">
<style type="text/css">
	.st0{fill:#424FFE;}
	.st1{fill:#C6D7FE;}
	.st2{fill:#4900DB;}
	.st3{fill:#FFFFFF;}
	.st4{fill:#11EAB5;}
</style>
<g>
	<g id="XMLID_5034_">
		<g id="XMLID_5036_">
			<path id="XMLID_447_" class="st0" d="M17.3,101.1l-0.1-0.7c0.6-0.1,1.2-0.2,1.6-0.4l0.3,0.6C18.6,100.9,17.9,101.1,17.3,101.1z
				 M15.4,101c-0.6-0.1-1.1-0.3-1.5-0.5c-0.1-0.1-0.2-0.1-0.3-0.2l0.4-0.6c0.1,0,0.1,0.1,0.2,0.1c0.4,0.2,0.8,0.4,1.3,0.5L15.4,101z
				 M20.6,99.3L20,99c0-0.1,0.1-0.2,0.1-0.4c0-0.3-0.2-0.6-0.5-0.9l0.5-0.5c0.4,0.4,0.7,0.9,0.7,1.4C20.7,98.9,20.6,99.1,20.6,99.3z
				 M13.3,98.6l-0.7-0.1c0.1-0.6,0.5-1.2,1.2-1.6c0.2-0.1,0.4-0.2,0.7-0.3l0.2,0.6c-0.2,0.1-0.4,0.2-0.6,0.3
				C13.7,97.8,13.4,98.2,13.3,98.6z M18.1,97.1c-0.4-0.1-0.9-0.2-1.4-0.2l0,0h-0.2v-0.7h0.2c0.5,0,1.1,0.1,1.6,0.2L18.1,97.1z"/>
		</g>
		<g id="XMLID_5035_">
			<path id="XMLID_431_" class="st0" d="M13.4,97.8l-0.9-0.5l0.3-0.6l0.9,0.5L13.4,97.8z M11,96.5l-1.6-0.9L9.8,95l1.6,0.9L11,96.5z
				 M7.9,94.7l-1.6-0.9l0.3-0.6l1.6,0.9L7.9,94.7z M4.8,92.9l-0.7-0.4L6,91.4L6.3,92L4.8,92.9v-0.2V92.9z M7.9,91.1l-0.3-0.6
				l1.6-0.9l0.3,0.6L7.9,91.1z M11,89.4l-0.3-0.6l1.6-0.9l0.3,0.6L11,89.4z M14.1,87.6L13.8,87l1.6-0.9l0.3,0.6L14.1,87.6z
				 M17.2,85.8l-0.3-0.6l1.6-0.9l0.3,0.6L17.2,85.8z M20.4,84.1L20,83.5l1.6-0.9l0.3,0.6L20.4,84.1z M23.5,82.3l-0.3-0.6l1.6-0.9
				l0.3,0.6L23.5,82.3z M26.6,80.6L26.3,80l1.6-0.9l0.3,0.6L26.6,80.6z M29.7,78.8l-0.3-0.6l1.6-0.9l0.3,0.6L29.7,78.8z M32.8,77
				l-0.3-0.6l1.6-0.9l0.3,0.6L32.8,77z M35.9,75.3l-0.3-0.6l1.6-0.9l0.3,0.6L35.9,75.3z"/>
		</g>
	</g>
	<g id="XMLID_4975_">
		<g id="XMLID_5020_">
			<path id="XMLID_378_" class="st1" d="M72.9,26.7H69l-3.2-3.3v-1.8l0,0l-4.7-0.7l-6.9,3.8l-5-1.1c-0.1,0-0.1,0-0.1,0.1v5.2l0,0
				l0,0l-2.3-0.4l0,0v5.3c0,0,0,0.2,0.1,0.3l0.7,1.5c0.3,0.5,1.2,0.9,2.2,0.7l1.4-0.2c0.4,0.4,0.9,0.7,1.4,1.1
				c0.4,0.3,0.9,0.5,1.4,0.7V39v0.1c-0.1,0.5,0.5,0.9,1.3,1l2.6,0.4c0.9,0.1,1.9-0.2,2.2-0.7l0.4-0.8c1.5,0,3.1-0.2,4.5-0.7l1,0.6
				c0.7,0.4,1.8,0.4,2.5,0L70,38c0.3-0.2,0.5-0.4,0.5-0.6v-0.1l0,0v-3.9l1-0.2c0.8-0.1,1.4-0.6,1.3-1.1L72.9,26.7L72.9,26.7z"/>
			<path id="XMLID_380_" class="st2" d="M58.1,41.2c-0.2,0-0.4,0-0.6,0L55,40.8c-1.2-0.2-1.9-0.8-1.8-1.6v-0.8
				c-0.4-0.2-0.8-0.4-1.1-0.6c-0.5-0.3-0.9-0.6-1.3-0.9l-1.1,0.2c-1.2,0.2-2.4-0.3-2.8-1.1l-0.7-1.5c-0.1-0.2-0.1-0.4-0.1-0.5v-5.6
				l0.4-0.4l1.9,0.3v-4.9l0.3-0.3c0.2-0.1,0.4-0.2,0.6-0.1l4.8,1l6.9-3.8l5,0.8l0.2,0.2l0.1,0.3v1.7l2.9,2.9h4.2v0.6V32
				c0,0.3,0,0.6-0.2,0.9c-0.3,0.4-0.9,0.7-1.6,0.8l-0.5,0.1v3.6c0,0.6-0.6,0.9-0.8,1.1l-1.9,1.1c-0.9,0.5-2.2,0.5-3.1,0l-0.8-0.4
				c-1.2,0.4-2.6,0.6-4,0.6l-0.2,0.5C60,40.8,59.1,41.2,58.1,41.2z M51.1,35.7l0.2,0.2c0.4,0.4,0.8,0.7,1.3,1
				c0.4,0.2,0.8,0.4,1.3,0.6l0.4,0.1v1.7c0,0.1,0.3,0.3,0.8,0.3l2.6,0.4c0.8,0.1,1.4-0.2,1.5-0.4l0.5-1.1h0.4c1.5,0,3-0.2,4.3-0.6
				l0.2-0.1l1.2,0.7c0.5,0.3,1.4,0.3,1.9,0l1.9-1.1c0.2-0.1,0.2-0.2,0.2-0.2v-0.1v-4.4l1.5-0.2c0.4-0.1,0.7-0.2,0.8-0.4l0,0V32v-4.8
				h-3.6L65,23.6V22l-4-0.6l-6.9,3.8l-4.6-1v5.3h-0.7l-1.7-0.3v4.6v0.1l0.7,1.5c0.1,0.2,0.8,0.5,1.5,0.4L51.1,35.7z"/>
		</g>
		<g id="XMLID_5019_">
			<path id="XMLID_366_" class="st3" d="M70,24.3l-1.4,0.2c-0.4-0.4-0.9-0.7-1.4-1.1c-0.6-0.3-1.2-0.6-1.8-0.8l0.4-0.8
				c0.3-0.5-0.3-1.1-1.2-1.3L62,20.1c-1-0.1-2,0.3-2.2,0.8l-0.4,0.8c-1.5,0-3.1,0.2-4.5,0.7l-1-0.6c-0.7-0.4-1.8-0.4-2.5,0l-1.9,1.1
				c-0.7,0.4-0.7,1,0,1.4l1,0.6c-0.7,0.8-1.1,1.7-1.2,2.6L48,27.6c-0.9,0.1-1.5,0.7-1.3,1.2l0.7,1.5c0.3,0.5,1.2,0.9,2.2,0.7
				l1.4-0.2c0.4,0.4,0.9,0.7,1.4,1.1c0.6,0.3,1.2,0.6,1.8,0.8l-0.4,0.8c-0.3,0.5,0.3,1.1,1.2,1.3l2.6,0.4c0.9,0.1,1.9-0.2,2.2-0.7
				l0.4-0.8c1.5,0,3.1-0.2,4.5-0.7l1,0.6c0.7,0.4,1.8,0.4,2.5,0l1.9-1.1c0.7-0.4,0.7-1,0-1.4l-1-0.6c0.7-0.8,1.1-1.7,1.2-2.6
				l1.4-0.2c0.9-0.1,1.5-0.7,1.3-1.2L72.1,25C71.9,24.5,70.9,24.2,70,24.3z"/>
			<path id="XMLID_374_" class="st2" d="M58.1,35.8c-0.2,0-0.4,0-0.6,0L55,35.4c-0.8-0.1-1.4-0.5-1.7-1c-0.2-0.3-0.2-0.7,0-1.1
				l0.1-0.2c-0.5-0.2-0.9-0.4-1.3-0.7c-0.5-0.3-0.9-0.6-1.3-0.9l-1.1,0.2c-1.2,0.2-2.4-0.3-2.8-1.1l-0.7-1.5c-0.2-0.4-0.1-0.7,0-1.1
				c0.3-0.5,0.9-0.9,1.7-1l0.9-0.1c0.1-0.7,0.4-1.3,0.8-1.9l-0.4-0.2c-0.5-0.3-0.8-0.7-0.8-1.2s0.3-0.9,0.8-1.2l1.9-1.1
				c0.9-0.5,2.2-0.5,3.1,0l0.8,0.4c1.2-0.4,2.6-0.6,4-0.6l0.2-0.5c0.4-0.8,1.6-1.2,2.8-1l2.6,0.4c0.8,0.1,1.4,0.5,1.7,1
				c0.2,0.3,0.2,0.7,0,1.1l-0.1,0.2c0.5,0.2,0.9,0.4,1.3,0.7c0.5,0.3,0.9,0.6,1.3,0.9l1.1-0.2c1.2-0.2,2.4,0.3,2.8,1.1l0.7,1.5
				c0.2,0.4,0.1,0.7,0,1.1c-0.3,0.5-0.9,0.9-1.7,1l-0.9,0.1c-0.1,0.7-0.4,1.3-0.8,1.9l0.4,0.2c0.5,0.3,0.8,0.7,0.8,1.2
				c0,0.5-0.3,0.9-0.8,1.2l-1.9,1.1c-0.9,0.5-2.2,0.5-3.1,0l-0.8-0.4c-1.2,0.4-2.6,0.6-4,0.6l-0.2,0.5C60,35.4,59.1,35.8,58.1,35.8z
				 M51.1,30.3l0.2,0.2c0.4,0.4,0.8,0.7,1.3,1s1.1,0.6,1.7,0.8l0.6,0.2l-0.6,1.4c0.1,0.1,0.3,0.3,0.8,0.4l2.6,0.4
				c0.8,0.1,1.4-0.2,1.5-0.4l0.5-1.1h0.4c1.5,0,3-0.2,4.3-0.6l0.2-0.1l1.2,0.7c0.5,0.3,1.4,0.3,1.9,0l1.9-1.1
				c0.2-0.1,0.2-0.2,0.2-0.2s0-0.1-0.2-0.2L68,30.8l0.5-0.5c0.6-0.7,1-1.4,1-2.2v-0.5l1.8-0.3c0.5-0.1,0.8-0.3,0.8-0.4l-0.7-1.5
				c-0.1-0.2-0.8-0.5-1.5-0.4l-1.6,0.2L68.1,25c-0.4-0.4-0.8-0.7-1.3-1s-1.1-0.6-1.7-0.8L64.6,23l0.6-1.4c-0.1-0.1-0.3-0.3-0.8-0.4
				l-2.6-0.4c-0.8-0.1-1.4,0.2-1.5,0.4l-0.5,1.1h-0.4c-1.5,0-3,0.2-4.3,0.6L54.9,23l-1.2-0.7c-0.5-0.3-1.4-0.3-1.9,0l-1.9,1.1
				c-0.2,0.1-0.2,0.2-0.2,0.2s0,0.1,0.2,0.2l1.6,0.9L51,25.3c-0.6,0.7-1,1.4-1,2.2V28l-1.8,0.3c-0.5,0.1-0.8,0.3-0.8,0.4l0.7,1.5
				c0.1,0.2,0.8,0.5,1.5,0.4L51.1,30.3z"/>
		</g>
		<g id="XMLID_5018_">
			
				<rect id="XMLID_372_" x="48.2" y="32.9" transform="matrix(3.777094e-03 -1 1 3.777094e-03 17.1602 84.2348)" class="st2" width="5.4" height="1.2"/>
		</g>
		<g id="XMLID_5012_">
			
				<rect id="XMLID_371_" x="51.1" y="36.2" transform="matrix(3.777391e-03 -1 1 3.777391e-03 16.7832 90.4149)" class="st2" width="5.4" height="1.2"/>
		</g>
		<g id="XMLID_4980_">
			
				<rect id="XMLID_369_" x="57.4" y="36.3" transform="matrix(3.691571e-03 -1 1 3.691571e-03 23.0639 96.8668)" class="st2" width="5.4" height="1.2"/>
		</g>
		<g id="XMLID_4979_">
			
				<rect id="XMLID_368_" x="61.8" y="35.3" transform="matrix(3.777066e-03 -1 1 3.777066e-03 28.3744 100.2863)" class="st2" width="5.4" height="1.2"/>
		</g>
		<g id="XMLID_4978_">
			<path id="XMLID_361_" class="st1" d="M63.9,25.3c2.3,1.3,2.3,3.5,0,4.8c-2.3,1.3-6,1.3-8.3,0s-2.3-3.5,0-4.8S61.6,24,63.9,25.3z"
				/>
			<path id="XMLID_362_" class="st2" d="M59.8,31.7c-1.6,0-3.2-0.4-4.4-1.1c-1.3-0.7-2-1.8-2-2.9s0.7-2.1,2-2.9
				c2.5-1.4,6.4-1.4,8.9,0c1.3,0.7,2,1.8,2,2.9s-0.7,2.1-2,2.9C63,31.3,61.4,31.7,59.8,31.7z M59.8,24.9c-1.4,0-2.8,0.3-3.8,0.9
				c-0.9,0.5-1.4,1.2-1.4,1.9c0,0.7,0.5,1.4,1.4,1.9c2.1,1.2,5.6,1.2,7.7,0c0.9-0.5,1.4-1.2,1.4-1.9c0-0.7-0.5-1.4-1.4-1.9l0,0
				C62.6,25.2,61.2,24.9,59.8,24.9z"/>
		</g>
		<g id="XMLID_4977_">
			<path id="XMLID_354_" class="st1" d="M55.6,29.8c-0.1,0.1-0.1,0.1-0.2,0.1c0.1,0.1,0.1,0.2,0.2,0.2c2.3,1.3,6,1.3,8.3,0
				c0.1-0.1,0.1-0.2,0.2-0.2c-0.1-0.1-0.1-0.1-0.2-0.1C61.6,28.4,57.9,28.4,55.6,29.8z"/>
			<path id="XMLID_357_" class="st2" d="M59.8,31.7c-1.6,0-3.2-0.4-4.4-1.1c-0.2-0.1-0.2-0.2-0.3-0.3l-0.7-0.4l0.7-0.5
				c0.1-0.1,0.1-0.1,0.2-0.1l0,0c2.5-1.4,6.4-1.4,8.9,0c0.1,0.1,0.1,0.1,0.2,0.1l0.7,0.5l-0.6,0.4c-0.1,0.1-0.1,0.2-0.3,0.3
				C63,31.3,61.4,31.7,59.8,31.7z M56.6,29.9c1.9,0.8,4.4,0.8,6.3,0C61,29.2,58.5,29.2,56.6,29.9z"/>
		</g>
		<g id="XMLID_4976_">
			<rect id="XMLID_355_" x="57" y="24.6" class="st2" width="1.2" height="4.2"/>
		</g>
	</g>
	<g id="XMLID_5021_">
		<g id="XMLID_4970_">
			<path id="XMLID_242_" class="st0" d="M51,147.8h-0.7V146H51V147.8z M51,144.3h-0.7v-1.8H51V144.3z M51,140.7h-0.7v-1.8H51V140.7z
				 M51,137.1h-0.7v-1.8H51V137.1z M51,133.5h-0.7v-1.8H51V133.5z M51,129.9h-0.7v-1.8H51V129.9z M51,126.4h-0.7v-1.8H51V126.4z
				 M51,122.8h-0.7V121H51V122.8z M51,119.2h-0.7v-1.8H51V119.2z"/>
		</g>
		<g id="XMLID_5014_">
			<path id="XMLID_233_" class="st0" d="M50.1,152.5c-0.7-0.1-1.3-0.2-1.8-0.5l0.3-0.6c0.5,0.2,1,0.4,1.6,0.4L50.1,152.5z
				 M51.9,152.4l-0.1-0.7c0.5-0.1,0.9-0.3,1.3-0.5c0.1,0,0.2-0.1,0.2-0.1l0.4,0.5c-0.1,0.1-0.2,0.1-0.3,0.2
				C53,152.1,52.5,152.3,51.9,152.4z M46.8,150.6c-0.1-0.2-0.1-0.4-0.1-0.6c0-0.5,0.2-1,0.7-1.4l0.5,0.5c-0.3,0.3-0.5,0.6-0.5,0.9
				c0,0.1,0,0.2,0.1,0.4L46.8,150.6z M54,149.9c0-0.4-0.4-0.8-0.9-1.1c-0.2-0.1-0.4-0.2-0.6-0.3l0.2-0.6c0.2,0.1,0.5,0.2,0.7,0.3
				c0.7,0.4,1.2,1,1.2,1.6L54,149.9z M49.2,148.4l-0.2-0.6c0.5-0.1,1.1-0.2,1.6-0.2h0.2v0.7h-0.2C50.2,148.2,49.7,148.3,49.2,148.4z
				"/>
		</g>
	</g>
	<g id="XMLID_4803_">
		<g id="XMLID_4782_">
			<g id="XMLID_4861_">
				<path id="XMLID_4865_" class="st2" d="M11.5,13.7c0-0.1,0-0.2,0.1-0.2l6.9-4.2c0.3-0.3,0.8-0.2,1.4,0.2l2.6,2.2
					c0.1,0.1,12.6,10.5,26.5,7.9c0.3-0.1,0.6-0.1,0.9,0c1.4,0.1,2.9,1,4.3,2.5l0,0c0.3,0.3,0.6,0.7,0.9,1.1
					c13.3,18,25.9,22.4,26.5,22.6l2.6,0.8c0.9,0.3,1.7,1.5,1.7,2.5v3c-0.6,38.8-11.4,53.9-20.4,59.7l0,0l-8.4,5.1l-0.6-1.7
					c-1.7,0.2-2.8,0.2-3,0.1l0,0c-0.8-0.1-1.8-0.6-2.6-1.5l0,0C49.7,112.6,25,85.6,19.5,31l-3.7-8.2L11.5,13.7z"/>
				<path id="XMLID_4862_" class="st2" d="M56,115.9c-1.5,0.2-2.5,0.1-2.7,0.1c-1-0.1-2-0.7-3-1.7c-1.1-1.1-26-28.3-31.5-83.1
					L15,23.1l-4-9.2l0,0c-0.1-0.3,0-0.7,0.3-0.9l6.9-4.2c0.6-0.4,1.4-0.4,2.1,0.3l2.6,2.2c0.5,0.4,12.6,10.3,26,7.8
					c0.3-0.1,0.7-0.1,1,0c1.5,0.1,3.2,1.1,4.6,2.7c0.3,0.3,0.6,0.7,1,1.2c13.2,17.6,25.7,22,26.2,22.1l2.6,0.8
					c1.1,0.4,2.1,1.8,2.1,3.1v3c-0.6,39-11.6,54.3-20.7,60.2l-9,5.5L56,115.9z M49.1,20.1c-13.9,2.6-26.4-7.6-26.9-8l-2.6-2.2
					C19.3,9.6,19,9.6,19,9.7l-6.7,4.1l3.9,8.8l3.7,8.2V31c5.4,54.5,30.2,81.4,31.2,82.5c0.7,0.8,1.6,1.3,2.3,1.3
					c0.2,0,1.2,0.1,2.9-0.1l0.5-0.1l0.5,1.4l7.8-4.8c8.8-5.8,19.5-20.7,20.1-59.3v-3c0-0.8-0.6-1.8-1.3-2l-2.6-0.8
					C80.8,46,68,41.6,54.6,23.4c-0.3-0.4-0.6-0.7-0.9-1.1C52.4,21,51,20.1,49.8,20c-0.1,0-0.2,0-0.3,0C49.4,20,49.2,20.1,49.1,20.1z
					"/>
			</g>
			<g id="XMLID_4856_">
				<path id="XMLID_4860_" class="st3" d="M18.5,9.2c0.3-0.3,0.8-0.2,1.4,0.2l2.6,2.2c0.1,0.1,12.6,10.5,26.5,7.9
					c0.3-0.1,0.6-0.1,0.9,0c1.4,0.1,2.9,1,4.3,2.5l0,0c0.3,0.3,0.6,0.7,0.9,1.1c13.3,18,25.9,22.4,26.5,22.6l2.6,0.8
					c0.5,0.1,0.9,0.6,1.2,1.1L64.5,59.4l-44-18.5c-0.5-3.2-0.9-6.5-1.2-9.9l-3.7-8.2l-4-9.2c0-0.1,0-0.2,0.1-0.2L18.5,9.2z"/>
				<path id="XMLID_4857_" class="st2" d="M20,41.3V41c-0.5-3.2-0.9-6.5-1.2-9.8L15,23.1l-4-9.2c-0.1-0.3,0-0.7,0.3-0.9l6.9-4.2
					c0.6-0.4,1.4-0.4,2.1,0.3l2.6,2.2c0.5,0.4,12.6,10.3,26,7.8c0.3-0.1,0.7-0.1,1,0c1.5,0.1,3.2,1.1,4.6,2.7c0.3,0.3,0.6,0.7,1,1.2
					c13.2,17.6,25.7,22,26.2,22.1l2.6,0.8c0.6,0.2,1.1,0.7,1.5,1.3l0.3,0.5L64.5,60L20,41.3z M83.9,47l-2.6-0.8
					C80.8,46,68,41.6,54.6,23.4c-0.3-0.4-0.6-0.7-0.9-1.1C52.4,21,51,20.1,49.8,20c-0.2,0-0.5,0-0.7,0c-13.9,2.6-26.4-7.6-26.9-8
					l-2.6-2.2C19.3,9.5,19,9.5,19,9.6l-6.7,4.1l3.9,8.8l3.7,8.2v0.2c0.3,3.2,0.7,6.4,1.2,9.5l43.4,18.3l20-11.4
					C84.3,47.2,84.1,47.1,83.9,47z"/>
			</g>
			<g id="XMLID_4847_">
				<path id="XMLID_4853_" class="st1" d="M43.5,118.2c-1.3-1.4-31.3-34.1-32.4-100.7v-3.1c0-1,0.8-1.3,1.7-0.6l2.6,2.2
					c0.1,0.1,12.6,10.5,26.5,7.9c0.3-0.1,0.6-0.1,0.9,0l0,0c1.4,0.1,2.9,1,4.3,2.5l0,0c0.3,0.3,0.6,0.7,0.9,1.1
					c13.3,18,25.9,22.4,26.5,22.6l2.6,0.8c0.9,0.3,1.7,1.5,1.7,2.5v3c-1,65.5-31.1,63.5-32.4,63.4l0,0
					C45.4,119.7,44.4,119.1,43.5,118.2L43.5,118.2z M70.2,56c-5.6-3.1-14.8-9.5-24.3-21.8c-0.7-0.9-1.5-1.4-2.2-1.3
					C34,34,25,30,19.5,26.7c-0.7-0.4-1.3-0.1-1.3,0.8c2,45,17.7,71.3,24.7,80.8c1.1,1.6,3.3,3.6,4.4,3.3c6.9-1.6,22.1-11,24.2-53.4
					C71.5,57.5,71,56.4,70.2,56z"/>
				<path id="XMLID_4848_" class="st2" d="M46.1,120.3c-1-0.1-2-0.7-3-1.7l0,0c-1.3-1.4-31.5-34.2-32.5-101.1v-3.1
					c0-0.7,0.3-1.2,0.8-1.5c0.6-0.3,1.2-0.1,1.8,0.4l2.6,2.2c0.5,0.4,12.6,10.2,26,7.8c0.3-0.1,0.7-0.1,1,0c1.5,0.1,3.2,1.1,4.6,2.7
					c0.3,0.3,0.7,0.7,1,1.2C61.6,45,74.1,49.3,74.6,49.5l2.6,0.8c1.1,0.4,2.1,1.8,2.1,3.1v3C78.7,91.7,69.6,107.2,62,114
					c-6.4,5.7-12.6,6.3-14.9,6.3C46.6,120.4,46.3,120.3,46.1,120.3z M42,24.4c-13.9,2.5-26.4-7.6-26.9-8l-2.6-2.2
					c-0.3-0.3-0.5-0.3-0.6-0.3s-0.1,0.2-0.1,0.4v3.1c1,66.4,30.9,99,32.2,100.3l0,0c0.7,0.8,1.6,1.3,2.3,1.3c0.3,0,7.5,0.6,14.9-6
					s16.3-21.9,16.9-56.8v-3c0-0.8-0.6-1.8-1.3-2l-2.6-0.8c-0.5-0.2-13.4-4.6-26.7-22.8c-0.3-0.4-0.6-0.7-0.9-1.1
					c-1.3-1.3-2.7-2.2-3.9-2.3c-0.1,0-0.2,0-0.3,0C42.3,24.4,42.1,24.4,42,24.4z M42.5,108.7c-6.8-9.3-22.8-35.8-24.8-81.1
					c0-0.6,0.2-1.1,0.6-1.4s1-0.2,1.5,0.1c5.7,3.4,14.5,7.2,23.9,6.2c0.9-0.1,1.9,0.5,2.7,1.5c9.3,12,18.3,18.4,24.1,21.6
					c0.9,0.5,1.6,1.8,1.6,2.8l0,0c-2.2,45.4-19.4,52.7-24.6,53.9c-0.1,0-0.2,0-0.3,0C45.6,112.3,43.4,110,42.5,108.7z M70.9,58.3
					c0-0.6-0.5-1.4-1-1.7c-5.9-3.3-15-9.8-24.5-21.9c-0.6-0.8-1.3-1.1-1.7-1.1C34,34.7,25,30.8,19.1,27.3c-0.2-0.1-0.3-0.1-0.3-0.1
					s-0.1,0.1-0.1,0.4c2,45,17.9,71.3,24.6,80.5c1.3,1.8,3.1,3.3,3.8,3.1C52.2,110,68.8,102.8,70.9,58.3L70.9,58.3z"/>
			</g>
			<path id="XMLID_4846_" class="st1" d="M19.5,26.8c5.6,3.3,14.6,7.3,24.2,6.2c0.7-0.1,1.5,0.4,2.2,1.3
				C55.5,46.5,64.6,52.9,70.2,56c0.7,0.4,1.3,1.4,1.3,2.3c-2,42.4-17.2,51.8-24.2,53.4c-1.1,0.3-3.2-1.8-4.4-3.3
				c-7-9.5-22.7-35.8-24.7-80.8C18.2,26.7,18.8,26.3,19.5,26.8z"/>
			<g id="XMLID_4837_">
				<path id="XMLID_4841_" class="st2" d="M19.5,26.8c1,0.6,2.2,1.2,3.4,1.9c2.4,43.8,17.7,69.5,24.6,78.9c0.8,1.1,2.1,2.4,3.2,3
					c-1.2,0.6-2.3,1-3.3,1.2c-1.1,0.3-3.2-1.8-4.4-3.3C36,99,20.3,72.7,18.3,27.7C18.2,26.7,18.8,26.3,19.5,26.8z"/>
				<path id="XMLID_4838_" class="st1" d="M42.5,108.7c-6.8-9.3-22.8-35.8-24.8-81.1c0-0.6,0.2-1.1,0.6-1.4s1-0.2,1.5,0.1l0,0
					c1.1,0.6,2.2,1.3,3.4,1.8l0.3,0.1v0.3c2.4,43.9,17.9,69.6,24.5,78.6c0.7,1,1.9,2.3,3,2.8l1,0.5l-1,0.5c-1.2,0.6-2.3,1-3.4,1.2
					c-0.1,0-0.2,0-0.3,0C45.6,112.3,43.4,110,42.5,108.7z M47,107.8C40.4,98.8,24.8,73,22.4,29c-1.1-0.5-2.1-1.1-3.1-1.7
					c-0.2-0.1-0.3-0.1-0.3-0.1s-0.1,0.1-0.1,0.4c2,45,17.9,71.3,24.6,80.5c1.3,1.8,3.1,3.3,3.8,3.1c0.7-0.2,1.5-0.4,2.3-0.7
					C48.6,109.7,47.7,108.7,47,107.8z"/>
			</g>
			<g id="XMLID_4835_">
				
					<rect id="XMLID_4836_" x="77.5" y="49.1" transform="matrix(0.8698 -0.4934 0.4934 0.8698 -13.8503 46.7722)" class="st2" width="8.4" height="1.1"/>
			</g>
			<g id="XMLID_4833_">
				
					<rect id="XMLID_4834_" x="73" y="47" transform="matrix(0.8698 -0.4934 0.4934 0.8698 -13.4203 44.2797)" class="st2" width="8.4" height="1.1"/>
			</g>
			<g id="XMLID_4831_">
				
					<rect id="XMLID_4832_" x="43.1" y="21.3" transform="matrix(0.8698 -0.4934 0.4934 0.8698 -4.6225 26.1873)" class="st2" width="8.4" height="1.1"/>
			</g>
			<g id="XMLID_4829_">
				
					<rect id="XMLID_4830_" x="49.1" y="27.3" transform="matrix(0.8698 -0.4934 0.4934 0.8698 -6.7909 29.9237)" class="st2" width="8.4" height="1.1"/>
			</g>
			<g id="XMLID_4827_">
				
					<rect id="XMLID_4828_" x="14.1" y="13" transform="matrix(0.8595 -0.5112 0.5112 0.8595 -4.3143 11.3898)" class="st2" width="9" height="1.1"/>
			</g>
			<g id="XMLID_4825_">
				<polygon id="XMLID_4826_" class="st1" points="79,64.2 84.7,60.8 84.7,59.4 79,62.9 				"/>
			</g>
			<g id="XMLID_4811_">
				<polygon id="XMLID_4823_" class="st1" points="69.5,103.7 75.2,100.3 76.2,98.3 70.4,101.8 				"/>
			</g>
			<g id="XMLID_4820_">
				<polygon id="XMLID_4822_" class="st2" points="35.3,24.4 42.8,20.3 42.3,19.3 33.1,24.3 				"/>
			</g>
			<g id="XMLID_4818_">
				
					<rect id="XMLID_4819_" x="42.7" y="106.5" transform="matrix(0.8499 -0.5269 0.5269 0.8499 -49.6769 39.7051)" class="st1" width="4.3" height="1.1"/>
			</g>
			<g id="XMLID_4815_">
				
					<rect id="XMLID_4816_" x="18.4" y="33.9" transform="matrix(0.8477 -0.5305 0.5305 0.8477 -15.0743 16.4054)" class="st1" width="5.3" height="1.1"/>
			</g>
			<g id="XMLID_4812_">
				
					<rect id="XMLID_4814_" x="19" y="40.3" transform="matrix(0.8476 -0.5306 0.5306 0.8476 -18.3948 17.7102)" class="st1" width="5.3" height="1.1"/>
			</g>
			<path id="XMLID_4843_" class="st2" d="M42.5,108.7c-6.8-9.3-22.8-35.8-24.8-81.1c0-0.6,0.2-1.1,0.6-1.4s1-0.2,1.5,0.1l0,0
				c5.7,3.4,14.5,7.2,23.9,6.2c0.9-0.1,1.9,0.5,2.7,1.5c9.3,12,18.3,18.4,24.1,21.6c0.9,0.5,1.6,1.8,1.6,2.8
				c-2.2,45.4-19.4,52.7-24.6,53.9c-0.1,0-0.2,0-0.3,0C45.6,112.3,43.4,110,42.5,108.7z M43.8,33.6c-9.7,1.1-18.7-2.8-24.6-6.3
				c-0.2-0.1-0.3-0.1-0.3-0.1s-0.1,0.1-0.1,0.4c2,45,17.9,71.3,24.6,80.5c1.3,1.8,3.1,3.3,3.8,3.1c5-1.1,21.6-8.3,23.7-52.9
				c0-0.6-0.5-1.4-1-1.7c-5.9-3.3-15-9.8-24.5-21.9C44.9,33.9,44.3,33.6,43.8,33.6C43.9,33.6,43.8,33.6,43.8,33.6z"/>
		</g>
		<g id="XMLID_4802_">
			<g id="XMLID_4783_">
				<g id="XMLID_4842_">
					<path id="XMLID_150_" class="st3" d="M58.6,67.4c0-1-0.6-2.2-1.4-2.6l-15.9-9.2c-0.3-0.2-0.6-0.2-0.8-0.1
						c-4.2,0.7-5.8,3.5-5.8,3.5l5.2,9.5v0.9c0,3.5,2.1,7.5,4.7,9l1.1,0.6l4.7,8.5c2.8-0.4,5.5-2.6,6.7-3.7c0.2-0.1,0.4-0.3,0.4-0.3
						l0.2-0.3c0.6-0.7,0.9-1.8,0.9-3.2C58.6,80,58.6,67.4,58.6,67.4z"/>
					<path id="XMLID_151_" class="st2" d="M50.1,88.1l-4.8-8.7l-0.9-0.5c-2.8-1.6-5-5.8-5-9.5v-0.7L34,58.9l0.2-0.3
						c0.1-0.1,1.8-3.1,6.2-3.8c0.3-0.1,0.7-0.1,1.2,0.2l15.9,9.2c0.9,0.5,1.7,1.9,1.7,3.1V80c0,1.4-0.3,2.7-1,3.5l-0.3,0.3l0,0
						c0,0-0.2,0.2-0.5,0.4c-1.3,1.2-4.1,3.4-6.9,3.8L50.1,88.1z M35.4,59l5.1,9.3v1c0,3.3,2,7.1,4.4,8.5l1.2,0.7l4.6,8.3
						c2.5-0.5,5-2.6,6-3.5C56.9,83.2,57,83,57,83l0.3-0.3c0.5-0.6,0.7-1.6,0.7-2.7V67.4c0-0.8-0.5-1.8-1.1-2.1L41,56
						c-0.1-0.1-0.2-0.1-0.3-0.1h-0.1C37.4,56.5,35.9,58.3,35.4,59z"/>
				</g>
				<path id="XMLID_4866_" class="st2" d="M57.2,83.8c0.2-0.1,0.4-0.3,0.4-0.3l0.2-0.3c0.6-0.7,0.9-1.8,0.9-3.2V67.4
					c0-0.6-0.5-1.7-0.8-2.2l-6.7,4.1c0,0-2.4,5.8-4.9,10.6l4.2,7.5C53.3,87.1,56,84.9,57.2,83.8z"/>
				<g id="XMLID_4795_">
					<g id="XMLID_4800_">
						<path id="XMLID_139_" class="st1" d="M39.2,81.6l9.2,5.3c2.6,1.5,4.7-0.1,4.7-3.6V70.6c0-1-0.6-2.2-1.4-2.6l-15.9-9.2
							c-0.8-0.4-1.4,0-1.4,1v12.7C34.5,76.1,36.6,80.1,39.2,81.6z"/>
						<path id="XMLID_145_" class="st2" d="M50.3,88.1c-0.7,0-1.4-0.2-2.2-0.6l-9.2-5.3c-2.8-1.6-5-5.8-5-9.5V59.8
							c0-0.7,0.3-1.3,0.8-1.6c0.4-0.2,1-0.2,1.5,0.1L52,67.5c0.9,0.5,1.7,1.9,1.7,3.1v12.7c0,2-0.7,3.6-1.9,4.3
							C51.3,87.9,50.8,88.1,50.3,88.1z M35.3,59.2C35.3,59.2,35.2,59.2,35.3,59.2c-0.2,0.1-0.3,0.3-0.3,0.6v12.7
							c0,3.3,2,7.1,4.4,8.5l9.2,5.3c1,0.6,1.8,0.6,2.5,0.2c0.9-0.5,1.3-1.7,1.3-3.3V70.6c0-0.8-0.5-1.8-1.1-2.1l-15.9-9.2
							C35.4,59.2,35.4,59.2,35.3,59.2z"/>
					</g>
				</g>
				<g id="XMLID_4784_">
					<g id="XMLID_4967_">
						<polygon id="XMLID_4968_" class="st3" points="45.5,79.3 45.5,72.7 44.3,72.7 44.3,77.3 43.4,76.8 42.8,77.8 						"/>
					</g>
					<path id="XMLID_4964_" class="st3" d="M44.6,74.7c-1.3-0.8-2.3-2.5-2.3-4c0-0.8,0.3-1.5,0.9-1.8c0.6-0.3,1.3-0.3,2,0.1
						c1.3,0.8,2.3,2.5,2.3,4c0,0.8-0.3,1.5-0.9,1.8C46.4,75,46.1,75,45.8,75C45.4,75,45,74.9,44.6,74.7z M43.7,69.8
						c-0.2,0.1-0.3,0.4-0.3,0.8c0,1.1,0.8,2.5,1.8,3.1c0.4,0.2,0.7,0.3,0.9,0.1c0.2-0.1,0.3-0.4,0.3-0.8c0-1.1-0.8-2.5-1.8-3.1
						c-0.2-0.1-0.4-0.2-0.6-0.2C43.9,69.7,43.8,69.8,43.7,69.8z"/>
					<path id="XMLID_4791_" class="st1" d="M41.9,70.7c0,1.3,0.9,2.9,2.1,3.6c1.1,0.7,2.1,0.1,2.1-1.2c0-1.3-0.9-2.9-2.1-3.6
						C42.8,68.9,41.9,69.4,41.9,70.7z"/>
					<g>
						<path id="XMLID_4787_" class="st4" d="M43.6,74.7c-1.3-0.8-2.3-2.5-2.3-4c0-0.8,0.3-1.5,0.9-1.8c0.6-0.3,1.3-0.3,2,0.1
							c1.3,0.8,2.3,2.5,2.3,4c0,0.8-0.3,1.5-0.9,1.8c-0.2,0.1-0.5,0.2-0.8,0.2C44.4,75.1,44,75,43.6,74.7z M42.7,69.9
							c-0.2,0.1-0.3,0.4-0.3,0.8c0,1.1,0.8,2.5,1.8,3.1c0.4,0.2,0.7,0.3,0.9,0.1c0.2-0.1,0.3-0.4,0.3-0.8c0-1.1-0.8-2.5-1.8-3.1
							c-0.2-0.1-0.4-0.2-0.6-0.2C42.9,69.8,42.8,69.8,42.7,69.9z"/>
						<g id="XMLID_4792_">
							<polygon id="XMLID_4794_" class="st4" points="44.5,79.4 44.5,74.2 43.3,73.5 43.3,77.4 42.4,76.9 41.8,77.9 							"/>
						</g>
					</g>
				</g>
			</g>
			<g id="XMLID_4799_">
				
					<rect id="XMLID_144_" x="53.3" y="72.2" transform="matrix(0.8545 -0.5195 0.5195 0.8545 -29.5902 39.6709)" class="st1" width="5.4" height="0.9"/>
			</g>
			<g id="XMLID_4824_">
				
					<rect id="XMLID_143_" x="53.3" y="81.6" transform="matrix(0.8545 -0.5195 0.5195 0.8545 -34.4694 41.0456)" class="st1" width="5.4" height="0.9"/>
			</g>
			<g id="XMLID_4868_">
				<g id="XMLID_4867_">
					<path id="XMLID_4798_" class="st2" d="M52,65.8L52,65.8c-0.9,0-1.6-0.7-1.6-1.6v-7c0-2-1.4-4.4-3.1-5.4l-2.9-1.7
						c-0.6-0.3-1-0.4-1.1-0.3c-0.2,0.1-0.3,0.5-0.3,1.1v7c0,0.9-0.7,1.6-1.6,1.6l0,0c-0.9,0-1.6-0.7-1.6-1.6v-7
						c0-1.8,0.7-3.2,1.9-3.9s2.8-0.6,4.4,0.3L49,49c2.6,1.5,4.7,5.2,4.7,8.2v7C53.7,65,52.9,65.8,52,65.8z"/>
				</g>
				<g id="XMLID_4796_">
					<path id="XMLID_141_" class="st1" d="M41.8,52.7h-0.7v-2.3c0-0.9,0.5-1.7,1.3-2.2s1.7-0.5,2.5,0L48,50l-0.3,0.6l-3.1-1.8
						c-0.6-0.3-1.3-0.3-1.9,0c-0.6,0.3-0.9,0.9-0.9,1.6V52.7z"/>
				</g>
				<g id="XMLID_4869_">
					<path id="XMLID_140_" class="st1" d="M51.9,57.9c0-2.4-1.1-4.3-1.1-4.3l0.6-0.3c0,0.1,1.2,2,1.2,4.7L51.9,57.9z"/>
				</g>
			</g>
		</g>
	</g>
</g>
</svg>
